<svg xmlns="http://www.w3.org/2000/svg" xmlns:xlink="http://www.w3.org/1999/xlink" width="1000" zoomAndPan="magnify" viewBox="0 0 750 749.999995" height="1000" preserveAspectRatio="xMidYMid meet" version="1.0"><defs><clipPath id="f8640b3aa8"><path d="M 378 36.429688 L 714 36.429688 L 714 405 L 378 405 Z M 378 36.429688 " clip-rule="nonzero"/></clipPath><clipPath id="6433d19b2f"><path d="M 31.710938 678 L 111 678 L 111 713.679688 L 31.710938 713.679688 Z M 31.710938 678 " clip-rule="nonzero"/></clipPath><clipPath id="bbcdbf4ea2"><path d="M 204 678 L 284 678 L 284 713.679688 L 204 713.679688 Z M 204 678 " clip-rule="nonzero"/></clipPath><clipPath id="933ac16441"><path d="M 192 36.429688 L 315 36.429688 L 315 159 L 192 159 Z M 192 36.429688 " clip-rule="nonzero"/></clipPath><clipPath id="44851eada5"><path d="M 534 593 L 686 593 L 686 713.679688 L 534 713.679688 Z M 534 593 " clip-rule="nonzero"/></clipPath><clipPath id="0610a8a232"><path d="M 557 624 L 659 624 L 659 713.679688 L 557 713.679688 Z M 557 624 " clip-rule="nonzero"/></clipPath><clipPath id="3257327d54"><path d="M 485 711 L 717.960938 711 L 717.960938 713.679688 L 485 713.679688 Z M 485 711 " clip-rule="nonzero"/></clipPath><clipPath id="e713accd88"><path d="M 391 711 L 469 711 L 469 713.679688 L 391 713.679688 Z M 391 711 " clip-rule="nonzero"/></clipPath></defs><path fill="#eef4ff" d="M 662.996094 441.441406 C 656.984375 479.417969 639.476562 518.058594 606.472656 537.984375 C 582.421875 552.558594 553.15625 555.5 524.960938 555.363281 C 496.765625 555.363281 468.4375 552.824219 440.777344 557.773438 C 422.070312 561.113281 400.421875 565.792969 389.199219 580.769531 C 370.222656 605.90625 345.503906 628.90625 314.636719 634.523438 C 283.769531 640.273438 251.832031 635.59375 220.832031 630.109375 C 191.300781 624.894531 161.234375 618.609375 135.847656 602.699219 C 110.457031 586.789062 90.414062 559.242188 91.351562 529.292969 C 92.6875 488.242188 131.4375 455.347656 131.839844 414.300781 C 132.238281 372.714844 94.289062 342.628906 73.976562 306.394531 C 51.261719 265.878906 51.128906 213.597656 73.84375 173.082031 C 96.5625 132.570312 141.058594 105.15625 187.425781 103.417969 C 258.113281 100.746094 319.179688 151.824219 388.398438 167.199219 C 418.464844 173.886719 449.730469 173.617188 479.929688 179.5 C 537.65625 190.734375 590.570312 225.097656 624.378906 273.367188 C 658.050781 321.769531 672.214844 383.277344 662.996094 441.441406 Z M 662.996094 441.441406 " fill-opacity="1" fill-rule="nonzero"/><path fill="#e1e5ff" d="M 712.304688 48.332031 L 712.304688 392.371094 C 712.304688 398.386719 707.359375 403.335938 701.347656 403.335938 L 390.269531 403.335938 C 384.253906 403.335938 379.3125 398.386719 379.3125 392.371094 L 379.3125 48.332031 C 379.3125 42.3125 384.253906 37.367188 390.269531 37.367188 L 701.210938 37.367188 C 707.359375 37.367188 712.304688 42.3125 712.304688 48.332031 Z M 712.304688 48.332031 " fill-opacity="1" fill-rule="nonzero"/><path fill="#ffffff" d="M 692.792969 37.367188 L 692.792969 368.703125 C 692.792969 374.71875 687.851562 379.667969 681.835938 379.667969 L 379.3125 379.667969 L 379.3125 48.332031 C 379.3125 42.3125 384.253906 37.367188 390.269531 37.367188 Z M 692.792969 37.367188 " fill-opacity="1" fill-rule="nonzero"/><g clip-path="url(#f8640b3aa8)"><path stroke-linecap="round" transform="matrix(1.336247, 0, 0, 1.337117, -92.785217, -93.00311)" fill="none" stroke-linejoin="round" d="M 602.50076 105.701368 L 602.50076 363.000431 C 602.50076 367.499381 598.799863 371.200791 594.300906 371.200791 L 361.501059 371.200791 C 356.999178 371.200791 353.301205 367.499381 353.301205 363.000431 L 353.301205 105.701368 C 353.301205 101.199496 356.999178 97.501008 361.501059 97.501008 L 594.19859 97.501008 C 598.799863 97.501008 602.50076 101.199496 602.50076 105.701368 Z M 602.50076 105.701368 " stroke="#112544" stroke-width="1.5" stroke-opacity="1" stroke-miterlimit="10"/></g><path fill="#efa130" d="M 688.917969 397.050781 L 688.917969 409.753906 C 688.917969 412.027344 687.183594 413.765625 684.910156 413.765625 L 406.703125 413.765625 C 404.433594 413.765625 402.695312 412.027344 402.695312 409.753906 L 402.695312 397.050781 C 402.695312 394.777344 404.433594 393.039062 406.703125 393.039062 L 684.910156 393.039062 C 687.046875 393.039062 688.917969 394.777344 688.917969 397.050781 Z M 688.917969 397.050781 " fill-opacity="1" fill-rule="nonzero"/><path fill="#ffc25e" d="M 680.5 393.039062 L 680.5 402.800781 C 680.5 405.074219 678.765625 406.8125 676.492188 406.8125 L 402.695312 406.8125 L 402.695312 397.050781 C 402.695312 394.777344 404.433594 393.039062 406.703125 393.039062 Z M 680.5 393.039062 " fill-opacity="1" fill-rule="nonzero"/><path stroke-linecap="round" transform="matrix(1.336247, 0, 0, 1.337117, -92.785217, -93.00311)" fill="none" stroke-linejoin="round" d="M 584.998968 366.500264 L 584.998968 376.000645 C 584.998968 377.700897 583.701023 379.000919 581.999663 379.000919 L 373.799378 379.000919 C 372.100941 379.000919 370.800073 377.700897 370.800073 376.000645 L 370.800073 366.500264 C 370.800073 364.800011 372.100941 363.49999 373.799378 363.49999 L 581.999663 363.49999 C 583.598708 363.49999 584.998968 364.800011 584.998968 366.500264 Z M 584.998968 366.500264 " stroke="#112544" stroke-width="1.5" stroke-opacity="1" stroke-miterlimit="10"/><path fill="#e1e5ff" d="M 679.296875 577.292969 L 651.105469 577.292969 L 648.296875 567.132812 L 607.410156 413.765625 L 635.601562 413.765625 Z M 679.296875 577.292969 " fill-opacity="1" fill-rule="nonzero"/><path fill="#ffffff" d="M 665.800781 567.132812 L 648.296875 567.132812 L 607.410156 413.765625 L 624.78125 413.765625 Z M 665.800781 567.132812 " fill-opacity="1" fill-rule="nonzero"/><path stroke-linecap="round" transform="matrix(1.336247, 0, 0, 1.337117, -92.785217, -93.00311)" fill="none" stroke-linejoin="round" d="M 577.798882 501.299335 L 545.098859 379.000919 L 524.001409 379.000919 L 556.701433 501.299335 Z M 577.798882 501.299335 " stroke="#112544" stroke-width="1.5" stroke-opacity="1" stroke-miterlimit="10"/><path fill="#e1e5ff" d="M 412.316406 577.292969 L 440.511719 577.292969 L 443.183594 567.132812 L 484.207031 413.765625 L 456.011719 413.765625 Z M 412.316406 577.292969 " fill-opacity="1" fill-rule="nonzero"/><path fill="#ffffff" d="M 425.8125 567.132812 L 443.183594 567.132812 L 484.207031 413.765625 L 466.835938 413.765625 Z M 425.8125 567.132812 " fill-opacity="1" fill-rule="nonzero"/><path stroke-linecap="round" transform="matrix(1.336247, 0, 0, 1.337117, -92.785217, -93.00311)" fill="none" stroke-linejoin="round" d="M 378.000159 501.299335 L 410.700182 379.000919 L 431.800555 379.000919 L 399.100532 501.299335 Z M 378.000159 501.299335 " stroke="#112544" stroke-width="1.5" stroke-opacity="1" stroke-miterlimit="10"/><path fill="#e1e5ff" d="M 531.644531 577.292969 L 559.835938 577.292969 L 559.835938 567.132812 L 559.972656 413.765625 L 531.777344 413.765625 Z M 531.644531 577.292969 " fill-opacity="1" fill-rule="nonzero"/><path fill="#ffffff" d="M 542.464844 413.765625 L 559.972656 413.765625 L 559.972656 567.132812 L 542.464844 567.132812 Z M 542.464844 413.765625 " fill-opacity="1" fill-rule="nonzero"/><path stroke-linecap="round" transform="matrix(1.336247, 0, 0, 1.337117, -92.785217, -93.00311)" fill="none" stroke-linejoin="round" d="M 467.3011 379.000919 L 488.398549 379.000919 L 488.398549 501.299335 L 467.3011 501.299335 Z M 467.3011 379.000919 " stroke="#112544" stroke-width="1.5" stroke-opacity="1" stroke-miterlimit="10"/><path fill="#e1e5ff" d="M 494.761719 63.171875 C 499.171875 63.171875 502.113281 64.644531 503.714844 67.71875 C 503.984375 68.519531 504.117188 69.324219 504.117188 69.722656 L 504.117188 69.992188 C 504.117188 72.664062 502.648438 74.671875 499.839844 75.875 L 499.839844 76.140625 C 502.246094 76.675781 504.117188 77.746094 505.320312 79.351562 C 505.988281 80.554688 506.253906 81.625 506.253906 82.828125 L 506.253906 83.230469 C 506.253906 85.769531 505.050781 87.910156 502.511719 89.511719 C 500.375 90.71875 497.433594 91.25 493.695312 91.25 C 490.488281 91.25 488.617188 90.984375 488.214844 90.316406 C 487.949219 90.183594 487.8125 85.234375 487.8125 75.339844 C 487.8125 72.265625 487.8125 68.921875 487.8125 64.910156 C 487.8125 64.507812 488.214844 64.109375 488.882812 63.574219 C 491.289062 63.441406 493.160156 63.171875 494.761719 63.171875 Z M 491.289062 78.816406 L 491.421875 87.507812 C 491.554688 87.640625 492.359375 87.773438 493.828125 87.773438 C 498.503906 87.773438 501.308594 86.839844 502.246094 84.96875 C 502.511719 84.296875 502.644531 83.765625 502.644531 83.363281 L 502.644531 82.828125 C 502.644531 81.089844 501.578125 80.019531 499.304688 79.484375 C 497.570312 78.949219 495.699219 78.816406 493.695312 78.816406 Z M 491.421875 67.183594 L 491.421875 75.207031 L 492.492188 75.207031 C 494.761719 75.207031 496.902344 74.402344 498.90625 72.933594 C 499.972656 71.863281 500.507812 71.0625 500.507812 70.394531 L 500.507812 69.859375 C 500.507812 68.386719 499.304688 67.449219 496.765625 66.917969 C 496.097656 66.78125 495.429688 66.78125 494.628906 66.78125 C 492.625 66.78125 491.554688 66.917969 491.421875 67.183594 Z M 491.421875 67.183594 " fill-opacity="1" fill-rule="nonzero"/><path fill="#e1e5ff" d="M 525.761719 91.386719 C 524.695312 91.386719 524.027344 90.984375 523.757812 90.046875 L 523.757812 88.042969 C 522.957031 90.183594 520.953125 91.25 517.878906 91.25 L 517.746094 91.25 C 512.535156 91.25 509.730469 87.910156 509.328125 81.355469 C 509.328125 75.207031 509.460938 71.863281 509.59375 71.328125 C 509.996094 70.792969 510.53125 70.527344 511.066406 70.527344 C 512.265625 70.660156 512.800781 71.195312 512.800781 72.265625 L 512.800781 81.089844 C 512.800781 85.367188 514.539062 87.640625 517.878906 87.640625 C 520.550781 87.640625 522.421875 86.4375 523.625 84.164062 L 523.625 72.265625 C 523.757812 71.195312 524.425781 70.792969 525.496094 70.660156 C 526.296875 70.660156 526.832031 71.195312 527.234375 72.132812 C 527.234375 72.53125 527.367188 78.148438 527.5 89.246094 C 527.367188 90.582031 526.832031 91.386719 525.761719 91.386719 Z M 525.761719 91.386719 " fill-opacity="1" fill-rule="nonzero"/><path fill="#e1e5ff" d="M 546.339844 63.039062 L 546.476562 63.039062 C 547.542969 63.304688 548.078125 63.839844 548.078125 64.644531 L 548.078125 64.777344 C 547.945312 66.78125 547.8125 70.257812 547.679688 75.207031 C 547.679688 82.292969 548.078125 86.839844 548.878906 88.980469 L 548.878906 89.113281 C 548.878906 90.046875 548.480469 90.582031 547.542969 90.851562 L 547.144531 90.851562 C 546.074219 90.851562 545.273438 89.78125 545.003906 87.773438 C 545.003906 87.773438 544.871094 87.507812 544.871094 86.972656 C 543.9375 88.175781 543 88.980469 542.066406 89.378906 C 540.730469 90.046875 539.257812 90.449219 537.921875 90.449219 L 537.390625 90.449219 C 534.183594 90.449219 532.042969 88.980469 530.976562 85.902344 C 530.707031 84.832031 530.441406 83.765625 530.441406 82.695312 C 530.441406 78.28125 531.777344 74.671875 534.316406 71.996094 C 535.785156 70.792969 537.523438 70.125 539.394531 70.125 C 540.863281 70.125 542.464844 70.394531 544.203125 71.0625 L 544.203125 70.925781 C 544.335938 66.113281 544.472656 63.574219 544.738281 63.574219 C 545.273438 63.304688 545.808594 63.039062 546.339844 63.039062 Z M 534.183594 83.09375 C 534.183594 84.566406 534.582031 85.636719 535.382812 86.570312 C 535.917969 86.972656 536.722656 87.242188 537.523438 87.242188 L 538.058594 87.242188 C 540.195312 87.242188 542.332031 85.902344 544.335938 83.363281 C 544.203125 79.484375 544.070312 76.675781 544.070312 75.074219 L 543.9375 75.074219 C 542.332031 74.402344 540.996094 74.003906 539.660156 74.003906 C 537.121094 74.003906 535.25 76.140625 534.449219 80.421875 Z M 534.183594 83.09375 " fill-opacity="1" fill-rule="nonzero"/><path fill="#e1e5ff" d="M 570.929688 87.910156 L 570.929688 90.449219 C 570.929688 93.523438 570.261719 95.929688 569.058594 97.667969 C 567.453125 99.941406 564.914062 101.144531 561.441406 101.144531 C 558.367188 101.144531 555.960938 100.476562 554.492188 99.273438 C 553.691406 98.472656 553.289062 97.804688 553.289062 97.136719 C 553.289062 97.136719 553.289062 97 553.289062 96.867188 C 553.425781 96.199219 553.691406 95.796875 554.359375 95.53125 C 554.492188 95.53125 554.761719 95.398438 554.894531 95.398438 C 555.292969 95.398438 555.695312 95.53125 556.097656 95.796875 C 556.765625 96.199219 557.300781 96.601562 557.96875 96.867188 C 558.636719 97.136719 559.703125 97.269531 561.441406 97.269531 C 563.847656 97.269531 565.449219 96.332031 566.386719 94.59375 C 567.054688 93.660156 567.453125 92.054688 567.453125 90.183594 L 567.453125 87.507812 L 567.1875 87.507812 C 565.449219 89.78125 563.3125 90.851562 560.773438 90.851562 L 560.105469 90.851562 C 557.03125 90.851562 554.625 89.378906 553.15625 86.4375 C 552.488281 84.96875 552.222656 83.496094 552.222656 81.890625 C 552.222656 76.945312 553.824219 73.734375 556.898438 71.996094 C 558.367188 71.195312 559.972656 70.925781 561.84375 70.925781 C 562.242188 70.925781 562.777344 70.925781 563.179688 70.925781 C 565.582031 71.195312 567.320312 71.597656 568.257812 72.132812 C 569.324219 72.800781 569.859375 73.199219 569.992188 73.335938 C 570.125 73.601562 570.261719 75.339844 570.527344 78.550781 C 570.796875 81.890625 570.929688 84.96875 570.929688 87.910156 Z M 555.828125 82.027344 C 555.828125 84.566406 556.765625 86.171875 558.5 86.972656 C 559.035156 87.105469 559.570312 87.242188 560.371094 87.242188 L 560.773438 87.242188 C 563.445312 87.105469 565.582031 85.636719 567.054688 82.558594 C 566.921875 80.152344 566.785156 77.613281 566.652344 75.207031 C 565.582031 74.539062 564.246094 74.269531 562.511719 74.269531 C 560.90625 74.269531 559.304688 74.804688 557.96875 75.742188 C 556.496094 76.945312 555.828125 79.082031 555.828125 82.027344 Z M 555.828125 82.027344 " fill-opacity="1" fill-rule="nonzero"/><path fill="#e1e5ff" d="M 583.890625 70.660156 C 587.5 70.660156 589.902344 72.265625 590.972656 75.339844 C 591.238281 76.277344 591.507812 77.34375 591.507812 78.28125 L 591.507812 79.753906 C 591.507812 80.820312 590.839844 81.355469 589.367188 81.625 C 586.429688 82.027344 583.757812 82.292969 581.21875 82.292969 L 577.742188 82.292969 L 577.742188 82.828125 C 577.742188 84.03125 578.011719 84.96875 578.679688 85.902344 C 579.746094 86.972656 580.949219 87.507812 582.285156 87.507812 C 584.15625 87.507812 585.628906 87.242188 586.5625 86.839844 C 587.5 86.4375 588.433594 86.035156 589.367188 86.035156 C 590.304688 86.035156 590.839844 86.707031 590.839844 87.910156 C 590.570312 88.980469 589.636719 89.78125 588.03125 90.449219 C 586.429688 90.984375 584.558594 91.25 582.285156 91.25 C 579.613281 91.25 577.34375 90.183594 575.605469 87.910156 C 574.535156 86.304688 574.003906 84.03125 574.003906 81.089844 C 574.402344 74.539062 577.742188 71.0625 583.890625 70.660156 Z M 578.011719 78.949219 L 581.085938 78.949219 C 583.222656 78.949219 585.492188 78.816406 587.765625 78.414062 L 587.765625 78.28125 C 587.765625 75.472656 586.5625 74.136719 584.023438 74.003906 C 580.683594 74.136719 578.679688 75.605469 578.011719 78.550781 Z M 578.011719 78.949219 " fill-opacity="1" fill-rule="nonzero"/><path fill="#e1e5ff" d="M 600.859375 62.636719 C 601.929688 62.636719 602.597656 63.039062 602.597656 63.972656 L 602.730469 70.257812 C 605.003906 70.257812 606.207031 70.394531 606.207031 70.527344 C 606.875 70.925781 607.140625 71.460938 607.140625 71.996094 C 607.140625 73.066406 606.472656 73.601562 605.269531 73.734375 L 602.863281 73.734375 L 603 89.246094 C 603 89.914062 602.597656 90.449219 601.796875 90.851562 C 601.664062 90.851562 601.527344 90.984375 601.261719 90.984375 C 600.460938 90.984375 599.925781 90.582031 599.523438 89.648438 L 599.523438 89.246094 L 599.390625 74.003906 L 596.449219 74.136719 C 595.648438 74.136719 594.980469 73.601562 594.714844 72.53125 L 594.714844 72.398438 C 594.714844 71.597656 595.113281 70.925781 595.917969 70.660156 C 595.917969 70.527344 597.117188 70.394531 599.523438 70.394531 L 599.390625 63.972656 C 599.125 63.304688 599.65625 62.769531 600.859375 62.636719 Z M 600.859375 62.636719 " fill-opacity="1" fill-rule="nonzero"/><path fill="#fc6054" d="M 493.558594 61.433594 C 497.96875 61.433594 500.910156 62.90625 502.511719 65.980469 C 502.78125 66.78125 502.914062 67.585938 502.914062 67.984375 L 502.914062 68.253906 C 502.914062 70.925781 501.445312 72.933594 498.636719 74.136719 L 498.636719 74.402344 C 501.042969 74.9375 502.914062 76.007812 504.117188 77.613281 C 504.785156 78.816406 505.050781 79.886719 505.050781 81.089844 L 505.050781 81.492188 C 505.050781 84.03125 503.847656 86.171875 501.308594 87.773438 C 499.171875 88.980469 496.234375 89.511719 492.492188 89.511719 C 489.285156 89.511719 487.414062 89.246094 487.011719 88.578125 C 486.746094 88.445312 486.613281 83.496094 486.613281 73.601562 C 486.613281 70.527344 486.613281 67.183594 486.613281 63.171875 C 486.613281 62.769531 487.011719 62.371094 487.679688 61.835938 C 489.953125 61.566406 491.957031 61.433594 493.558594 61.433594 Z M 490.085938 77.078125 L 490.21875 85.769531 C 490.351562 85.902344 491.15625 86.035156 492.625 86.035156 C 497.300781 86.035156 500.109375 85.101562 501.042969 83.230469 C 501.308594 82.558594 501.445312 82.027344 501.445312 81.625 L 501.445312 81.089844 C 501.445312 79.351562 500.375 78.28125 498.101562 77.746094 C 496.367188 77.210938 494.496094 77.078125 492.492188 77.078125 Z M 490.21875 65.445312 L 490.21875 73.46875 L 491.289062 73.46875 C 493.558594 73.46875 495.699219 72.664062 497.703125 71.195312 C 498.769531 70.125 499.304688 69.324219 499.304688 68.65625 L 499.304688 68.121094 C 499.304688 66.648438 498.101562 65.710938 495.5625 65.179688 C 494.894531 65.042969 494.226562 65.042969 493.425781 65.042969 C 491.289062 65.042969 490.21875 65.179688 490.21875 65.445312 Z M 490.21875 65.445312 " fill-opacity="1" fill-rule="nonzero"/><path fill="#fc6054" d="M 524.425781 89.511719 C 523.359375 89.511719 522.691406 89.113281 522.421875 88.175781 L 522.421875 86.171875 C 521.621094 88.308594 519.617188 89.378906 516.542969 89.378906 L 516.410156 89.378906 C 511.199219 89.378906 508.390625 86.035156 507.992188 79.484375 C 507.992188 73.335938 508.125 69.992188 508.257812 69.457031 C 508.660156 68.921875 509.195312 68.65625 509.730469 68.65625 C 510.929688 68.789062 511.464844 69.324219 511.464844 70.394531 L 511.464844 79.21875 C 511.464844 83.496094 513.203125 85.769531 516.542969 85.769531 C 519.214844 85.769531 521.085938 84.566406 522.289062 82.292969 L 522.289062 70.394531 C 522.421875 69.324219 523.089844 68.921875 524.160156 68.789062 C 524.960938 68.789062 525.496094 69.324219 525.898438 70.257812 C 525.898438 70.660156 526.03125 76.277344 526.164062 87.375 C 526.164062 88.84375 525.496094 89.511719 524.425781 89.511719 Z M 524.425781 89.511719 " fill-opacity="1" fill-rule="nonzero"/><path fill="#fc6054" d="M 545.140625 61.300781 L 545.273438 61.300781 C 546.339844 61.566406 546.875 62.101562 546.875 62.90625 L 546.875 63.039062 C 546.742188 65.042969 546.609375 68.519531 546.476562 73.46875 C 546.476562 80.554688 546.875 85.101562 547.679688 87.242188 L 547.679688 87.375 C 547.679688 88.308594 547.277344 88.84375 546.34375 89.113281 L 545.941406 89.113281 C 544.871094 89.113281 544.070312 88.042969 543.804688 86.035156 C 543.804688 86.035156 543.667969 85.769531 543.667969 85.234375 C 542.734375 86.4375 541.796875 87.242188 540.863281 87.640625 C 539.527344 88.308594 538.058594 88.710938 536.722656 88.710938 L 536.1875 88.710938 C 532.980469 88.710938 530.839844 87.242188 529.773438 84.164062 C 529.503906 83.09375 529.238281 82.027344 529.238281 80.957031 C 529.238281 76.542969 530.574219 72.933594 533.113281 70.257812 C 534.582031 69.054688 536.320312 68.386719 538.191406 68.386719 C 539.660156 68.386719 541.265625 68.65625 543 69.324219 L 543 69.1875 C 543.136719 64.375 543.269531 61.835938 543.535156 61.835938 C 544.070312 61.566406 544.605469 61.300781 545.140625 61.300781 Z M 532.84375 81.355469 C 532.84375 82.828125 533.246094 83.898438 534.046875 84.832031 C 534.582031 85.234375 535.382812 85.503906 536.1875 85.503906 L 536.722656 85.503906 C 538.859375 85.503906 540.996094 84.164062 543 81.625 C 542.867188 77.746094 542.734375 74.9375 542.734375 73.335938 L 542.601562 73.335938 C 540.996094 72.664062 539.660156 72.265625 538.324219 72.265625 C 535.785156 72.265625 533.914062 74.402344 533.113281 78.683594 Z M 532.84375 81.355469 " fill-opacity="1" fill-rule="nonzero"/><path fill="#fc6054" d="M 569.726562 86.035156 L 569.726562 88.578125 C 569.726562 91.652344 569.058594 94.058594 567.855469 95.796875 C 566.25 98.070312 563.714844 99.273438 560.238281 99.273438 C 557.164062 99.273438 554.761719 98.605469 553.289062 97.402344 C 552.488281 96.601562 552.085938 95.929688 552.085938 95.261719 C 552.085938 95.261719 552.085938 95.128906 552.085938 94.996094 C 552.222656 94.328125 552.488281 93.925781 553.15625 93.660156 C 553.289062 93.660156 553.558594 93.523438 553.691406 93.523438 C 554.09375 93.523438 554.492188 93.660156 554.894531 93.925781 C 555.5625 94.328125 556.097656 94.726562 556.765625 94.996094 C 557.433594 95.261719 558.5 95.398438 560.238281 95.398438 C 562.644531 95.398438 564.246094 94.460938 565.183594 92.722656 C 565.851562 91.785156 566.25 90.183594 566.25 88.308594 L 566.25 85.234375 L 565.984375 85.234375 C 564.246094 87.507812 562.109375 88.578125 559.570312 88.578125 L 558.902344 88.578125 C 555.828125 88.578125 553.421875 87.105469 551.953125 84.164062 C 551.285156 82.695312 551.019531 81.222656 551.019531 79.617188 C 551.019531 74.671875 552.621094 71.460938 555.695312 69.722656 C 557.164062 68.921875 558.769531 68.65625 560.640625 68.65625 C 561.039062 68.65625 561.574219 68.65625 561.976562 68.65625 C 564.382812 68.921875 566.117188 69.324219 567.054688 69.859375 C 568.121094 70.527344 568.65625 70.925781 568.789062 71.0625 C 568.925781 71.328125 569.058594 73.066406 569.324219 76.277344 C 569.59375 80.152344 569.726562 83.230469 569.726562 86.035156 Z M 554.492188 80.289062 C 554.492188 82.828125 555.429688 84.433594 557.164062 85.234375 C 557.699219 85.367188 558.234375 85.503906 559.035156 85.503906 L 559.4375 85.503906 C 562.109375 85.367188 564.246094 83.898438 565.71875 80.820312 C 565.582031 78.414062 565.449219 75.875 565.316406 73.46875 C 564.246094 72.800781 562.910156 72.53125 561.175781 72.53125 C 559.570312 72.53125 557.96875 73.066406 556.632812 74.003906 C 555.160156 75.207031 554.492188 77.34375 554.492188 80.289062 Z M 554.492188 80.289062 " fill-opacity="1" fill-rule="nonzero"/><path fill="#fc6054" d="M 582.6875 68.921875 C 586.296875 68.921875 588.699219 70.527344 589.769531 73.601562 C 590.035156 74.539062 590.304688 75.605469 590.304688 76.542969 L 590.304688 78.015625 C 590.304688 79.082031 589.636719 79.617188 588.167969 79.886719 C 585.226562 80.289062 582.554688 80.554688 580.015625 80.554688 L 576.539062 80.554688 L 576.539062 81.089844 C 576.539062 82.292969 576.808594 83.230469 577.476562 84.164062 C 578.546875 85.234375 579.746094 85.769531 581.085938 85.769531 C 582.953125 85.769531 584.425781 85.503906 585.359375 85.101562 C 586.296875 84.699219 587.230469 84.296875 588.167969 84.296875 C 589.101562 84.296875 589.636719 84.96875 589.636719 86.171875 C 589.367188 87.242188 588.433594 88.042969 586.832031 88.710938 C 585.226562 89.246094 583.355469 89.511719 581.085938 89.511719 C 578.410156 89.511719 576.140625 88.445312 574.402344 86.171875 C 573.335938 84.566406 572.800781 82.292969 572.800781 79.351562 C 573.199219 72.800781 576.40625 69.324219 582.6875 68.921875 Z M 576.808594 77.210938 L 579.882812 77.210938 C 582.019531 77.210938 584.292969 77.078125 586.5625 76.675781 L 586.5625 76.542969 C 586.5625 73.734375 585.359375 72.398438 582.820312 72.265625 C 579.480469 72.398438 577.476562 73.871094 576.808594 76.8125 Z M 576.808594 77.210938 " fill-opacity="1" fill-rule="nonzero"/><path fill="#fc6054" d="M 599.523438 60.898438 C 600.59375 60.898438 601.261719 61.300781 601.261719 62.234375 L 601.394531 68.519531 C 603.667969 68.519531 604.871094 68.65625 604.871094 68.789062 C 605.539062 69.1875 605.804688 69.722656 605.804688 70.257812 C 605.804688 71.328125 605.136719 71.863281 603.933594 71.996094 L 601.527344 71.996094 L 601.664062 87.507812 C 601.664062 88.175781 601.261719 88.710938 600.460938 89.113281 C 600.324219 89.113281 600.191406 89.246094 599.925781 89.246094 C 599.125 89.246094 598.589844 88.84375 598.1875 87.910156 L 598.1875 87.507812 L 598.054688 72.265625 L 595.113281 72.398438 C 594.3125 72.398438 593.644531 71.863281 593.378906 70.792969 L 593.378906 70.660156 C 593.378906 69.859375 593.777344 69.1875 594.582031 68.921875 C 594.582031 68.789062 595.78125 68.65625 598.1875 68.65625 L 598.054688 62.234375 C 597.789062 61.433594 598.457031 61.03125 599.523438 60.898438 Z M 599.523438 60.898438 " fill-opacity="1" fill-rule="nonzero"/><path fill="#66d3d8" d="M 440.910156 140.589844 C 440.910156 151.421875 432.09375 160.113281 421.402344 160.113281 C 410.578125 160.113281 401.894531 151.421875 401.894531 140.589844 C 401.894531 129.761719 410.710938 121.070312 421.402344 121.070312 C 432.226562 120.9375 440.910156 129.761719 440.910156 140.589844 Z M 440.910156 140.589844 " fill-opacity="1" fill-rule="nonzero"/><path fill="#47b6c3" d="M 419.132812 147.410156 C 418.464844 147.410156 417.660156 147.144531 417.261719 146.476562 L 414.054688 142.195312 C 413.25 141.125 413.519531 139.65625 414.585938 138.851562 C 415.65625 138.050781 417.125 138.316406 417.929688 139.386719 L 419.800781 141.792969 L 427.015625 136.578125 C 428.082031 135.777344 429.554688 136.046875 430.355469 137.113281 C 431.15625 138.183594 430.890625 139.65625 429.820312 140.457031 L 420.734375 147.007812 C 420.199219 147.277344 419.664062 147.410156 419.132812 147.410156 Z M 419.132812 147.410156 " fill-opacity="1" fill-rule="nonzero"/><path fill="#47b6c3" d="M 440.910156 140.589844 C 440.910156 151.421875 432.09375 160.113281 421.402344 160.113281 C 415.257812 160.113281 409.910156 157.304688 406.304688 152.894531 C 409.511719 155.300781 413.652344 156.769531 418.0625 156.769531 C 428.886719 156.769531 437.570312 148.078125 437.570312 137.25 C 437.570312 132.570312 435.96875 128.289062 433.160156 124.8125 C 437.839844 128.421875 440.910156 134.171875 440.910156 140.589844 Z M 440.910156 140.589844 " fill-opacity="1" fill-rule="nonzero"/><path stroke-linecap="round" transform="matrix(1.336247, 0, 0, 1.337117, -92.785217, -93.00311)" fill="none" stroke-linejoin="round" d="M 399.398708 174.698907 C 399.398708 182.799939 392.800822 189.300046 384.799752 189.300046 C 376.699291 189.300046 370.200797 182.799939 370.200797 174.698907 C 370.200797 166.600796 376.798683 160.100689 384.799752 160.100689 C 392.900214 160.001362 399.398708 166.600796 399.398708 174.698907 Z M 399.398708 174.698907 " stroke="#112544" stroke-width="1.5" stroke-opacity="1" stroke-miterlimit="10"/><path fill="#ffffff" d="M 419.132812 145.539062 C 418.464844 145.539062 417.660156 145.269531 417.261719 144.601562 L 414.054688 140.324219 C 413.25 139.253906 413.519531 137.785156 414.585938 136.980469 C 415.65625 136.179688 417.125 136.445312 417.929688 137.515625 L 419.800781 139.921875 L 427.015625 134.707031 C 428.082031 133.90625 429.554688 134.171875 430.355469 135.242188 C 431.15625 136.3125 430.890625 137.785156 429.820312 138.585938 L 420.734375 145.136719 C 420.199219 145.40625 419.664062 145.539062 419.132812 145.539062 Z M 419.132812 145.539062 " fill-opacity="1" fill-rule="nonzero"/><path stroke-linecap="round" transform="matrix(1.336247, 0, 0, 1.337117, -92.785217, -93.00311)" fill="none" stroke-linejoin="round" d="M 542.000162 162.300501 L 567.698884 162.300501 " stroke="#112544" stroke-width="1.5" stroke-opacity="1" stroke-miterlimit="10"/><path stroke-linecap="round" transform="matrix(1.336247, 0, 0, 1.337117, -92.785217, -93.00311)" fill="none" stroke-linejoin="round" d="M 483.601415 162.300501 L 532.899931 162.300501 " stroke="#112544" stroke-width="1.5" stroke-opacity="1" stroke-miterlimit="10"/><path stroke-linecap="round" transform="matrix(1.336247, 0, 0, 1.337117, -92.785217, -93.00311)" fill="none" stroke-linejoin="round" d="M 415.000355 162.300501 L 472.299941 162.300501 " stroke="#112544" stroke-width="1.5" stroke-opacity="1" stroke-miterlimit="10"/><path stroke-linecap="round" transform="matrix(1.336247, 0, 0, 1.337117, -92.785217, -93.00311)" fill="none" stroke-linejoin="round" d="M 512.299443 174.698907 L 567.698884 174.698907 " stroke="#112544" stroke-width="1.5" stroke-opacity="1" stroke-miterlimit="10"/><path stroke-linecap="round" transform="matrix(1.336247, 0, 0, 1.337117, -92.785217, -93.00311)" fill="none" stroke-linejoin="round" d="M 439.798702 174.698907 L 501.798952 174.698907 " stroke="#112544" stroke-width="1.5" stroke-opacity="1" stroke-miterlimit="10"/><path stroke-linecap="round" transform="matrix(1.336247, 0, 0, 1.337117, -92.785217, -93.00311)" fill="none" stroke-linejoin="round" d="M 415.000355 174.698907 L 430.599079 174.698907 " stroke="#112544" stroke-width="1.5" stroke-opacity="1" stroke-miterlimit="10"/><path stroke-linecap="round" transform="matrix(1.336247, 0, 0, 1.337117, -92.785217, -93.00311)" fill="none" stroke-linejoin="round" d="M 471.498957 187.000907 L 499.700024 187.000907 " stroke="#112544" stroke-width="1.5" stroke-opacity="1" stroke-miterlimit="10"/><path stroke-linecap="round" transform="matrix(1.336247, 0, 0, 1.337117, -92.785217, -93.00311)" fill="none" stroke-linejoin="round" d="M 415.000355 187.000907 L 458.99893 187.000907 " stroke="#112544" stroke-width="1.5" stroke-opacity="1" stroke-miterlimit="10"/><path fill="#fc6054" d="M 440.910156 205.308594 C 440.910156 216.136719 432.09375 224.828125 421.402344 224.828125 C 410.578125 224.828125 401.894531 216.136719 401.894531 205.308594 C 401.894531 194.476562 410.710938 185.785156 421.402344 185.785156 C 432.226562 185.785156 440.910156 194.476562 440.910156 205.308594 Z M 440.910156 205.308594 " fill-opacity="1" fill-rule="nonzero"/><path fill="#e64b38" d="M 419.132812 212.128906 C 418.464844 212.128906 417.660156 211.859375 417.261719 211.191406 L 414.054688 206.914062 C 413.25 205.84375 413.519531 204.371094 414.585938 203.570312 C 415.65625 202.765625 417.125 203.035156 417.929688 204.105469 L 419.800781 206.511719 L 427.015625 201.296875 C 428.082031 200.496094 429.554688 200.761719 430.355469 201.832031 C 431.15625 202.902344 430.890625 204.371094 429.820312 205.175781 L 420.734375 211.726562 C 420.199219 211.992188 419.664062 212.128906 419.132812 212.128906 Z M 419.132812 212.128906 " fill-opacity="1" fill-rule="nonzero"/><path fill="#e64b38" d="M 440.910156 205.308594 C 440.910156 216.136719 432.09375 224.828125 421.402344 224.828125 C 415.257812 224.828125 409.910156 222.023438 406.304688 217.609375 C 409.511719 220.015625 413.652344 221.488281 418.0625 221.488281 C 428.886719 221.488281 437.570312 212.796875 437.570312 201.964844 C 437.570312 197.285156 435.96875 193.007812 433.160156 189.53125 C 437.839844 193.273438 440.910156 198.890625 440.910156 205.308594 Z M 440.910156 205.308594 " fill-opacity="1" fill-rule="nonzero"/><path stroke-linecap="round" transform="matrix(1.336247, 0, 0, 1.337117, -92.785217, -93.00311)" fill="none" stroke-linejoin="round" d="M 399.398708 223.100602 C 399.398708 231.198713 392.800822 237.69882 384.799752 237.69882 C 376.699291 237.69882 370.200797 231.198713 370.200797 223.100602 C 370.200797 214.99957 376.798683 208.499463 384.799752 208.499463 C 392.900214 208.499463 399.398708 214.99957 399.398708 223.100602 Z M 399.398708 223.100602 " stroke="#112544" stroke-width="1.5" stroke-opacity="1" stroke-miterlimit="10"/><path fill="#ffffff" d="M 419.132812 210.253906 C 418.464844 210.253906 417.660156 209.988281 417.261719 209.320312 L 414.054688 205.039062 C 413.25 203.96875 413.519531 202.5 414.585938 201.699219 C 415.65625 200.894531 417.125 201.164062 417.929688 202.230469 L 419.800781 204.640625 L 427.015625 199.425781 C 428.082031 198.621094 429.554688 198.890625 430.355469 199.960938 C 431.15625 201.027344 430.890625 202.5 429.820312 203.300781 L 420.734375 209.855469 C 420.199219 210.121094 419.664062 210.253906 419.132812 210.253906 Z M 419.132812 210.253906 " fill-opacity="1" fill-rule="nonzero"/><path stroke-linecap="round" transform="matrix(1.336247, 0, 0, 1.337117, -92.785217, -93.00311)" fill="none" stroke-linejoin="round" d="M 542.000162 210.699274 L 567.698884 210.699274 " stroke="#112544" stroke-width="1.5" stroke-opacity="1" stroke-miterlimit="10"/><path stroke-linecap="round" transform="matrix(1.336247, 0, 0, 1.337117, -92.785217, -93.00311)" fill="none" stroke-linejoin="round" d="M 483.601415 210.699274 L 532.899931 210.699274 " stroke="#112544" stroke-width="1.5" stroke-opacity="1" stroke-miterlimit="10"/><path stroke-linecap="round" transform="matrix(1.336247, 0, 0, 1.337117, -92.785217, -93.00311)" fill="none" stroke-linejoin="round" d="M 415.000355 210.699274 L 472.299941 210.699274 " stroke="#112544" stroke-width="1.5" stroke-opacity="1" stroke-miterlimit="10"/><path stroke-linecap="round" transform="matrix(1.336247, 0, 0, 1.337117, -92.785217, -93.00311)" fill="none" stroke-linejoin="round" d="M 512.299443 223.100602 L 567.698884 223.100602 " stroke="#112544" stroke-width="1.5" stroke-opacity="1" stroke-miterlimit="10"/><path stroke-linecap="round" transform="matrix(1.336247, 0, 0, 1.337117, -92.785217, -93.00311)" fill="none" stroke-linejoin="round" d="M 439.798702 223.100602 L 501.798952 223.100602 " stroke="#112544" stroke-width="1.5" stroke-opacity="1" stroke-miterlimit="10"/><path stroke-linecap="round" transform="matrix(1.336247, 0, 0, 1.337117, -92.785217, -93.00311)" fill="none" stroke-linejoin="round" d="M 415.000355 223.100602 L 430.599079 223.100602 " stroke="#112544" stroke-width="1.5" stroke-opacity="1" stroke-miterlimit="10"/><path stroke-linecap="round" transform="matrix(1.336247, 0, 0, 1.337117, -92.785217, -93.00311)" fill="none" stroke-linejoin="round" d="M 471.498957 235.399681 L 499.700024 235.399681 " stroke="#112544" stroke-width="1.5" stroke-opacity="1" stroke-miterlimit="10"/><path stroke-linecap="round" transform="matrix(1.336247, 0, 0, 1.337117, -92.785217, -93.00311)" fill="none" stroke-linejoin="round" d="M 442.900322 235.399681 L 458.99893 235.399681 " stroke="#112544" stroke-width="1.5" stroke-opacity="1" stroke-miterlimit="10"/><path fill="#ffc25e" d="M 440.910156 270.023438 C 440.910156 280.855469 432.09375 289.546875 421.402344 289.546875 C 410.578125 289.546875 401.894531 280.855469 401.894531 270.023438 C 401.894531 259.195312 410.710938 250.503906 421.402344 250.503906 C 432.226562 250.503906 440.910156 259.195312 440.910156 270.023438 Z M 440.910156 270.023438 " fill-opacity="1" fill-rule="nonzero"/><path fill="#efa130" d="M 419.132812 276.84375 C 418.464844 276.84375 417.660156 276.574219 417.261719 275.90625 L 414.054688 271.628906 C 413.25 270.558594 413.519531 269.089844 414.585938 268.285156 C 415.65625 267.484375 417.125 267.75 417.929688 268.820312 L 419.800781 271.226562 L 427.015625 266.011719 C 428.082031 265.210938 429.554688 265.476562 430.355469 266.546875 C 431.15625 267.617188 430.890625 269.089844 429.820312 269.890625 L 420.734375 276.441406 C 420.199219 276.710938 419.664062 276.84375 419.132812 276.84375 Z M 419.132812 276.84375 " fill-opacity="1" fill-rule="nonzero"/><path fill="#efa130" d="M 440.910156 270.023438 C 440.910156 280.855469 432.09375 289.546875 421.402344 289.546875 C 415.257812 289.546875 409.910156 286.738281 406.304688 282.324219 C 409.511719 284.734375 413.652344 286.203125 418.0625 286.203125 C 428.886719 286.203125 437.570312 277.511719 437.570312 266.679688 C 437.570312 262 435.96875 257.722656 433.160156 254.246094 C 437.839844 257.988281 440.910156 263.605469 440.910156 270.023438 Z M 440.910156 270.023438 " fill-opacity="1" fill-rule="nonzero"/><path stroke-linecap="round" transform="matrix(1.336247, 0, 0, 1.337117, -92.785217, -93.00311)" fill="none" stroke-linejoin="round" d="M 399.398708 271.499375 C 399.398708 279.600408 392.800822 286.100514 384.799752 286.100514 C 376.699291 286.100514 370.200797 279.600408 370.200797 271.499375 C 370.200797 263.401265 376.798683 256.901158 384.799752 256.901158 C 392.900214 256.901158 399.398708 263.401265 399.398708 271.499375 Z M 399.398708 271.499375 " stroke="#112544" stroke-width="1.5" stroke-opacity="1" stroke-miterlimit="10"/><path fill="#ffffff" d="M 419.132812 274.972656 C 418.464844 274.972656 417.660156 274.703125 417.261719 274.035156 L 414.054688 269.757812 C 413.25 268.6875 413.519531 267.214844 414.585938 266.414062 C 415.65625 265.613281 417.125 265.878906 417.929688 266.949219 L 419.800781 269.355469 L 427.015625 264.140625 C 428.082031 263.339844 429.554688 263.605469 430.355469 264.675781 C 431.15625 265.746094 430.890625 267.214844 429.820312 268.019531 L 420.734375 274.570312 C 420.199219 274.839844 419.664062 274.972656 419.132812 274.972656 Z M 419.132812 274.972656 " fill-opacity="1" fill-rule="nonzero"/><path fill="#8d95ff" d="M 440.910156 334.742188 C 440.910156 345.570312 432.09375 354.261719 421.402344 354.261719 C 410.578125 354.261719 401.894531 345.570312 401.894531 334.742188 C 401.894531 323.910156 410.710938 315.21875 421.402344 315.21875 C 432.226562 315.21875 440.910156 323.910156 440.910156 334.742188 Z M 440.910156 334.742188 " fill-opacity="1" fill-rule="nonzero"/><path fill="#757bff" d="M 419.132812 341.558594 C 418.464844 341.558594 417.660156 341.292969 417.261719 340.625 L 414.054688 336.34375 C 413.25 335.277344 413.519531 333.804688 414.585938 333.003906 C 415.65625 332.199219 417.125 332.46875 417.929688 333.539062 L 419.800781 335.945312 L 427.015625 330.730469 C 428.082031 329.925781 429.554688 330.195312 430.355469 331.265625 C 431.15625 332.332031 430.890625 333.804688 429.820312 334.605469 L 420.734375 341.160156 C 420.199219 341.425781 419.664062 341.558594 419.132812 341.558594 Z M 419.132812 341.558594 " fill-opacity="1" fill-rule="nonzero"/><path fill="#757bff" d="M 440.910156 334.742188 C 440.910156 345.570312 432.09375 354.261719 421.402344 354.261719 C 415.257812 354.261719 409.910156 351.453125 406.304688 347.042969 C 409.511719 349.449219 413.652344 350.917969 418.0625 350.917969 C 428.886719 350.917969 437.570312 342.230469 437.570312 331.398438 C 437.570312 326.71875 435.96875 322.4375 433.160156 318.960938 C 437.839844 322.707031 440.910156 328.324219 440.910156 334.742188 Z M 440.910156 334.742188 " fill-opacity="1" fill-rule="nonzero"/><path stroke-linecap="round" transform="matrix(1.336247, 0, 0, 1.337117, -92.785217, -93.00311)" fill="none" stroke-linejoin="round" d="M 399.398708 319.90107 C 399.398708 327.999181 392.800822 334.499288 384.799752 334.499288 C 376.699291 334.499288 370.200797 327.999181 370.200797 319.90107 C 370.200797 311.800038 376.798683 305.299931 384.799752 305.299931 C 392.900214 305.299931 399.398708 311.800038 399.398708 319.90107 Z M 399.398708 319.90107 " stroke="#112544" stroke-width="1.5" stroke-opacity="1" stroke-miterlimit="10"/><path fill="#ffffff" d="M 419.132812 339.6875 C 418.464844 339.6875 417.660156 339.421875 417.261719 338.753906 L 414.054688 334.472656 C 413.25 333.402344 413.519531 331.933594 414.585938 331.128906 C 415.65625 330.328125 417.125 330.59375 417.929688 331.664062 L 419.800781 334.070312 L 427.015625 328.855469 C 428.082031 328.054688 429.554688 328.324219 430.355469 329.390625 C 431.15625 330.460938 430.890625 331.933594 429.820312 332.734375 L 420.734375 339.285156 C 420.199219 339.554688 419.664062 339.6875 419.132812 339.6875 Z M 419.132812 339.6875 " fill-opacity="1" fill-rule="nonzero"/><path stroke-linecap="round" transform="matrix(1.336247, 0, 0, 1.337117, -92.785217, -93.00311)" fill="none" stroke-linejoin="round" d="M 542.000162 259.200297 L 567.698884 259.200297 " stroke="#112544" stroke-width="1.5" stroke-opacity="1" stroke-miterlimit="10"/><path stroke-linecap="round" transform="matrix(1.336247, 0, 0, 1.337117, -92.785217, -93.00311)" fill="none" stroke-linejoin="round" d="M 483.601415 259.200297 L 532.899931 259.200297 " stroke="#112544" stroke-width="1.5" stroke-opacity="1" stroke-miterlimit="10"/><path stroke-linecap="round" transform="matrix(1.336247, 0, 0, 1.337117, -92.785217, -93.00311)" fill="none" stroke-linejoin="round" d="M 415.000355 259.200297 L 472.299941 259.200297 " stroke="#112544" stroke-width="1.5" stroke-opacity="1" stroke-miterlimit="10"/><path stroke-linecap="round" transform="matrix(1.336247, 0, 0, 1.337117, -92.785217, -93.00311)" fill="none" stroke-linejoin="round" d="M 512.299443 271.499375 L 567.698884 271.499375 " stroke="#112544" stroke-width="1.5" stroke-opacity="1" stroke-miterlimit="10"/><path stroke-linecap="round" transform="matrix(1.336247, 0, 0, 1.337117, -92.785217, -93.00311)" fill="none" stroke-linejoin="round" d="M 439.798702 271.499375 L 501.798952 271.499375 " stroke="#112544" stroke-width="1.5" stroke-opacity="1" stroke-miterlimit="10"/><path stroke-linecap="round" transform="matrix(1.336247, 0, 0, 1.337117, -92.785217, -93.00311)" fill="none" stroke-linejoin="round" d="M 415.000355 271.499375 L 430.599079 271.499375 " stroke="#112544" stroke-width="1.5" stroke-opacity="1" stroke-miterlimit="10"/><path stroke-linecap="round" transform="matrix(1.336247, 0, 0, 1.337117, -92.785217, -93.00311)" fill="none" stroke-linejoin="round" d="M 471.498957 283.801376 L 499.700024 283.801376 " stroke="#112544" stroke-width="1.5" stroke-opacity="1" stroke-miterlimit="10"/><path stroke-linecap="round" transform="matrix(1.336247, 0, 0, 1.337117, -92.785217, -93.00311)" fill="none" stroke-linejoin="round" d="M 415.000355 283.801376 L 458.99893 283.801376 " stroke="#112544" stroke-width="1.5" stroke-opacity="1" stroke-miterlimit="10"/><path stroke-linecap="round" transform="matrix(1.336247, 0, 0, 1.337117, -92.785217, -93.00311)" fill="none" stroke-linejoin="round" d="M 542.000162 307.59907 L 567.698884 307.59907 " stroke="#112544" stroke-width="1.5" stroke-opacity="1" stroke-miterlimit="10"/><path stroke-linecap="round" transform="matrix(1.336247, 0, 0, 1.337117, -92.785217, -93.00311)" fill="none" stroke-linejoin="round" d="M 483.601415 307.59907 L 532.899931 307.59907 " stroke="#112544" stroke-width="1.5" stroke-opacity="1" stroke-miterlimit="10"/><path stroke-linecap="round" transform="matrix(1.336247, 0, 0, 1.337117, -92.785217, -93.00311)" fill="none" stroke-linejoin="round" d="M 415.000355 307.59907 L 472.299941 307.59907 " stroke="#112544" stroke-width="1.5" stroke-opacity="1" stroke-miterlimit="10"/><path stroke-linecap="round" transform="matrix(1.336247, 0, 0, 1.337117, -92.785217, -93.00311)" fill="none" stroke-linejoin="round" d="M 512.299443 319.90107 L 567.698884 319.90107 " stroke="#112544" stroke-width="1.5" stroke-opacity="1" stroke-miterlimit="10"/><path stroke-linecap="round" transform="matrix(1.336247, 0, 0, 1.337117, -92.785217, -93.00311)" fill="none" stroke-linejoin="round" d="M 439.798702 319.90107 L 501.798952 319.90107 " stroke="#112544" stroke-width="1.5" stroke-opacity="1" stroke-miterlimit="10"/><path stroke-linecap="round" transform="matrix(1.336247, 0, 0, 1.337117, -92.785217, -93.00311)" fill="none" stroke-linejoin="round" d="M 415.000355 319.90107 L 430.599079 319.90107 " stroke="#112544" stroke-width="1.5" stroke-opacity="1" stroke-miterlimit="10"/><path stroke-linecap="round" transform="matrix(1.336247, 0, 0, 1.337117, -92.785217, -93.00311)" fill="none" stroke-linejoin="round" d="M 471.498957 332.200149 L 499.700024 332.200149 " stroke="#112544" stroke-width="1.5" stroke-opacity="1" stroke-miterlimit="10"/><path stroke-linecap="round" transform="matrix(1.336247, 0, 0, 1.337117, -92.785217, -93.00311)" fill="none" stroke-linejoin="round" d="M 415.000355 332.200149 L 458.99893 332.200149 " stroke="#112544" stroke-width="1.5" stroke-opacity="1" stroke-miterlimit="10"/><path fill="#fcbba4" d="M 311.964844 265.078125 L 332.410156 268.554688 C 333.476562 266.011719 342.296875 254.515625 341.761719 252.242188 C 341.496094 251.039062 339.625 251.570312 337.351562 252.375 C 339.890625 250.503906 341.894531 247.960938 341.09375 246.890625 C 340.425781 246.089844 339.089844 246.625 336.953125 247.828125 C 338.554688 246.222656 340.558594 243.949219 339.492188 242.613281 C 338.554688 241.410156 336.148438 242.878906 335.347656 243.148438 C 336.683594 241.945312 346.171875 233.253906 344.300781 230.980469 C 342.429688 228.839844 329.335938 240.472656 322.253906 248.09375 C 321.183594 243.414062 319.582031 238.335938 317.175781 238.734375 C 312.765625 239.539062 315.039062 256.921875 315.039062 256.921875 L 315.839844 256.785156 C 314.769531 259.328125 313.300781 262.136719 311.964844 265.078125 Z M 311.964844 265.078125 " fill-opacity="1" fill-rule="nonzero"/><path fill="#8d95ff" d="M 93.621094 170.542969 C 93.621094 180.304688 99.367188 188.726562 107.519531 192.738281 C 110.726562 194.34375 114.332031 195.144531 118.207031 195.144531 C 118.875 195.144531 119.679688 195.144531 120.347656 195.011719 C 128.496094 194.34375 135.578125 189.664062 139.453125 182.84375 C 141.59375 179.234375 142.796875 175.089844 142.796875 170.542969 C 142.796875 169.742188 142.796875 169.070312 142.660156 168.269531 C 141.59375 155.699219 131.035156 145.941406 118.207031 145.941406 C 104.710938 145.941406 93.621094 156.902344 93.621094 170.542969 Z M 93.621094 170.542969 " fill-opacity="1" fill-rule="nonzero"/><path fill="#757bff" d="M 93.753906 168.269531 C 97.496094 159.578125 106.183594 153.5625 116.335938 153.5625 C 129.164062 153.5625 139.589844 163.324219 140.789062 175.890625 C 140.925781 176.695312 140.925781 177.363281 140.925781 178.164062 C 140.925781 178.964844 140.925781 179.636719 140.789062 180.4375 C 142.128906 177.496094 142.796875 174.152344 142.796875 170.675781 C 142.796875 169.875 142.796875 169.207031 142.660156 168.402344 C 141.59375 155.835938 131.035156 146.074219 118.207031 146.074219 C 105.378906 145.941406 94.957031 155.699219 93.753906 168.269531 Z M 93.753906 168.269531 " fill-opacity="1" fill-rule="nonzero"/><path stroke-linecap="round" transform="matrix(1.336247, 0, 0, 1.337117, -92.785217, -93.00311)" fill-opacity="1" fill="#ffffff" fill-rule="nonzero" stroke-linejoin="round" d="M 159.398775 213.699548 C 159.398775 214.301356 159.398775 214.800915 159.501091 215.399801 C 165.599093 214.900242 170.899034 211.400409 173.798947 206.299651 C 175.400915 203.600281 176.301291 200.50068 176.301291 197.100174 C 176.301291 196.501288 176.301291 195.998808 176.198975 195.399922 C 166.800569 196.200384 159.398775 204.09984 159.398775 213.699548 Z M 159.398775 213.699548 " stroke="#112544" stroke-width="1.5" stroke-opacity="1" stroke-miterlimit="10"/><path stroke-linecap="round" transform="matrix(1.336247, 0, 0, 1.337117, -92.785217, -93.00311)" fill="none" stroke-linejoin="round" d="M 159.398775 213.699548 C 159.398775 214.301356 159.398775 214.800915 159.501091 215.399801 C 165.599093 214.900242 170.899034 211.400409 173.798947 206.299651 C 175.400915 203.600281 176.301291 200.50068 176.301291 197.100174 C 176.301291 196.501288 176.301291 195.998808 176.198975 195.399922 C 166.800569 196.200384 159.398775 204.09984 159.398775 213.699548 Z M 159.398775 213.699548 " stroke="#112544" stroke-width="1.5" stroke-opacity="1" stroke-miterlimit="10"/><path stroke-linecap="round" transform="matrix(1.336247, 0, 0, 1.337117, -92.785217, -93.00311)" fill="none" stroke-linejoin="round" d="M 139.499878 197.100174 C 139.499878 204.400744 143.800051 210.699274 149.900977 213.699548 C 152.301005 214.900242 154.99921 215.499129 157.899123 215.499129 C 164.698717 215.499129 170.600858 211.800641 173.798947 206.299651 C 175.400915 203.600281 176.301291 200.50068 176.301291 197.100174 C 176.301291 187.000907 168.101437 178.800547 158.001438 178.800547 C 147.90144 178.800547 139.499878 186.898658 139.499878 197.100174 Z M 139.499878 197.100174 " stroke="#112544" stroke-width="1.5" stroke-opacity="1" stroke-miterlimit="10"/><path fill="#8d95ff" d="M 126.625 202.632812 C 126.625 205.308594 126.894531 207.980469 127.5625 210.390625 C 129.96875 219.75 136.382812 227.371094 144.800781 231.515625 C 148.941406 233.519531 153.753906 234.722656 158.695312 234.722656 C 170.589844 234.722656 180.878906 228.304688 186.355469 218.679688 C 188.894531 214.265625 190.5 209.183594 190.632812 203.703125 C 196.511719 202.632812 201.457031 199.023438 204.394531 194.074219 C 206.132812 191.132812 207.070312 187.65625 207.070312 184.046875 C 207.070312 181.773438 206.667969 179.636719 206 177.628906 C 203.328125 169.742188 195.84375 163.992188 187.023438 163.992188 C 180.078125 163.992188 174.0625 167.46875 170.457031 172.816406 C 166.847656 171.34375 162.839844 170.542969 158.5625 170.542969 C 140.925781 170.542969 126.625 184.851562 126.625 202.632812 Z M 126.625 202.632812 " fill-opacity="1" fill-rule="nonzero"/><path fill="#757bff" d="M 126.625 202.632812 C 126.625 205.308594 126.894531 207.980469 127.5625 210.390625 L 128.097656 209.988281 C 134.242188 171.613281 171.257812 174.554688 171.257812 174.554688 C 187.691406 164.390625 200.519531 172.683594 206.132812 177.628906 C 203.460938 169.742188 195.976562 163.992188 187.160156 163.992188 C 180.210938 163.992188 174.195312 167.46875 170.589844 172.816406 C 166.980469 171.34375 162.972656 170.542969 158.695312 170.542969 C 140.925781 170.542969 126.625 184.851562 126.625 202.632812 Z M 126.625 202.632812 " fill-opacity="1" fill-rule="nonzero"/><path stroke-linecap="round" transform="matrix(1.336247, 0, 0, 1.337117, -92.785217, -93.00311)" fill="none" stroke-linejoin="round" d="M 164.198832 221.099445 C 164.198832 230.599826 169.799874 238.899513 177.800943 242.70025 C 180.89964 244.198926 184.501145 245.098717 188.199118 245.098717 C 197.100564 245.098717 204.800534 240.298862 208.898999 233.100542 C 210.799143 229.799364 212.000619 225.998627 212.100012 221.899908 C 216.499577 221.099445 220.200473 218.400075 222.398794 214.698666 C 223.699662 212.498854 224.401254 209.898812 224.401254 207.199441 C 224.401254 198.899754 217.701053 192.200993 209.398883 192.200993 C 204.201257 192.200993 199.699377 194.801035 197.001172 198.800427 C 194.300043 197.699061 191.300738 197.100174 188.099726 197.100174 C 174.90103 197.100174 164.198832 207.801249 164.198832 221.099445 Z M 164.198832 221.099445 " stroke="#112544" stroke-width="1.5" stroke-opacity="1" stroke-miterlimit="10"/><path fill="#fcbba4" d="M 68.367188 693.625 L 103.109375 685.734375 L 109.121094 684.398438 L 114.601562 651.769531 L 74.511719 651.769531 L 72.109375 667.550781 Z M 68.367188 693.625 " fill-opacity="1" fill-rule="nonzero"/><path fill="#f2a07c" d="M 72.109375 667.550781 C 76.515625 669.957031 81.863281 671.027344 86.804688 670.355469 C 90.28125 669.957031 93.488281 668.753906 96.960938 668.886719 C 100.4375 669.019531 104.175781 670.757812 104.980469 674.101562 C 106.046875 677.980469 102.839844 681.855469 102.976562 685.734375 L 109.121094 684.398438 L 114.464844 651.769531 L 74.378906 651.769531 Z M 72.109375 667.550781 " fill-opacity="1" fill-rule="nonzero"/><path stroke-linecap="round" transform="matrix(1.336247, 0, 0, 1.337117, -92.785217, -93.00311)" fill="none" stroke-linejoin="round" d="M 120.60075 588.30144 L 146.600572 582.400219 L 151.099529 581.401102 L 155.200918 556.998678 L 125.199099 556.998678 L 123.40127 568.801119 Z M 120.60075 588.30144 " stroke="#112544" stroke-width="1.5" stroke-opacity="1" stroke-miterlimit="10"/><path fill="#112544" d="M 109.253906 684.398438 L 109.253906 710.203125 C 109.253906 711.539062 108.1875 712.609375 106.851562 712.609375 L 35.226562 712.476562 C 33.890625 712.476562 32.820312 711.40625 32.820312 710.070312 L 32.820312 709 C 32.820312 701.109375 37.5 694.023438 44.582031 690.949219 L 70.371094 679.71875 C 83.066406 684.796875 96.027344 686.136719 109.253906 684.398438 Z M 109.253906 684.398438 " fill-opacity="1" fill-rule="nonzero"/><g clip-path="url(#6433d19b2f)"><path stroke-linecap="round" transform="matrix(1.336247, 0, 0, 1.337117, -92.785217, -93.00311)" fill="none" stroke-linejoin="round" d="M 151.198921 581.401102 L 151.198921 600.699846 C 151.198921 601.698964 150.400861 602.499426 149.401092 602.499426 L 95.79948 602.400099 C 94.799712 602.400099 93.998728 601.599636 93.998728 600.600519 L 93.998728 599.800056 C 93.998728 593.898835 97.50084 588.599422 102.800781 586.300283 L 122.100402 577.901269 C 131.601124 581.699084 141.300631 582.701123 151.198921 581.401102 Z M 151.198921 581.401102 " stroke="#112544" stroke-width="1.5" stroke-opacity="1" stroke-miterlimit="10"/></g><path stroke-linecap="round" transform="matrix(1.336247, 0, 0, 1.337117, -92.785217, -93.00311)" fill="none" stroke-linejoin="round" d="M 113.801156 581.599757 C 113.801156 581.599757 116.598753 571.699144 111.100028 571.699144 C 105.601302 571.699144 113.500056 581.599757 113.500056 581.599757 Z M 113.801156 581.599757 " stroke="#112544" stroke-width="1.5" stroke-opacity="1" stroke-miterlimit="10"/><path stroke-linecap="round" transform="matrix(1.336247, 0, 0, 1.337117, -92.785217, -93.00311)" fill="none" stroke-linejoin="round" d="M 113.698841 581.801333 C 113.698841 581.801333 107.899015 573.399397 104.399826 577.600365 C 100.900637 581.801333 113.500056 581.999988 113.500056 581.999988 Z M 113.698841 581.801333 " stroke="#112544" stroke-width="1.5" stroke-opacity="1" stroke-miterlimit="10"/><path stroke-linecap="round" transform="matrix(1.336247, 0, 0, 1.337117, -92.785217, -93.00311)" fill="none" stroke-linejoin="round" d="M 114.30104 581.801333 C 114.400432 580.699967 115.201416 579.700849 116.201185 579.499273 C 116.598753 579.399945 117.098637 579.399945 117.499129 579.20129 C 117.999014 578.999714 118.399505 578.500155 118.601213 578.000596 C 118.799997 577.501038 118.89939 576.89923 118.89939 576.300344 " stroke="#112544" stroke-width="1.5" stroke-opacity="1" stroke-miterlimit="10"/><path stroke-linecap="round" transform="matrix(1.336247, 0, 0, 1.337117, -92.785217, -93.00311)" fill="none" stroke-linejoin="round" d="M 113.301272 581.599757 C 112.90078 582.099315 112.400896 582.499547 111.699304 582.701123 C 110.699536 583.101354 109.600375 582.899778 108.501215 582.800451 C 107.399131 582.701123 106.200578 582.800451 105.399594 583.600913 " stroke="#112544" stroke-width="1.5" stroke-opacity="1" stroke-miterlimit="10"/><path fill="#fcbba4" d="M 200.789062 651.769531 L 205.867188 683.058594 L 206.132812 684.398438 L 247.023438 693.625 L 243.148438 667.28125 L 240.875 651.769531 Z M 200.789062 651.769531 " fill-opacity="1" fill-rule="nonzero"/><path fill="#f2a07c" d="M 200.789062 651.769531 L 206 683.058594 C 209.074219 682.390625 212.011719 680.785156 213.082031 677.84375 C 214.285156 674.636719 213.214844 670.625 215.351562 667.949219 C 216.824219 666.078125 219.628906 665.542969 222.035156 665.945312 C 224.441406 666.347656 226.710938 667.28125 228.984375 667.949219 C 232.324219 668.886719 235.796875 669.019531 239.136719 668.351562 C 240.339844 668.085938 241.8125 667.683594 243.28125 667.148438 L 241.007812 651.636719 L 200.789062 651.636719 Z M 200.789062 651.769531 " fill-opacity="1" fill-rule="nonzero"/><path stroke-linecap="round" transform="matrix(1.336247, 0, 0, 1.337117, -92.785217, -93.00311)" fill="none" stroke-linejoin="round" d="M 219.700589 556.998678 L 223.500878 580.399063 L 223.699662 581.401102 L 254.300757 588.30144 L 251.400845 568.599543 L 249.699485 556.998678 Z M 219.700589 556.998678 " stroke="#112544" stroke-width="1.5" stroke-opacity="1" stroke-miterlimit="10"/><path fill="#fc6054" d="M 74.113281 662.734375 L 115.667969 662.734375 C 121.148438 662.734375 125.691406 658.859375 126.625 653.375 L 131.167969 626.097656 L 166.046875 415.902344 L 168.71875 399.589844 L 100.035156 399.589844 L 99.902344 400.660156 L 63.824219 646.023438 L 63.289062 650.03125 C 62.085938 656.71875 67.296875 662.734375 74.113281 662.734375 Z M 74.113281 662.734375 " fill-opacity="1" fill-rule="nonzero"/><path fill="#e64b38" d="M 74.113281 662.734375 L 115.667969 662.734375 C 121.148438 662.734375 125.691406 658.859375 126.625 653.375 L 131.167969 626.097656 C 104.980469 578.230469 93.621094 515.785156 100.96875 457.085938 C 102.308594 446.390625 104.445312 435.425781 110.058594 427.671875 C 116.335938 418.980469 125.957031 416.171875 135.042969 416.039062 C 144.132812 415.902344 153.085938 417.777344 162.171875 416.707031 C 163.238281 416.574219 164.574219 416.304688 166.046875 415.902344 L 168.71875 399.589844 L 101.503906 399.589844 C 100.96875 399.992188 100.4375 400.257812 99.769531 400.660156 L 63.6875 646.023438 L 63.15625 650.03125 C 62.085938 656.71875 67.296875 662.734375 74.113281 662.734375 Z M 74.113281 662.734375 " fill-opacity="1" fill-rule="nonzero"/><path fill="#fc6054" d="M 144.664062 399.589844 L 187.691406 653.375 C 188.628906 658.722656 193.304688 662.601562 198.648438 662.601562 L 238.738281 662.601562 C 245.550781 662.601562 250.765625 656.585938 249.695312 649.765625 L 248.757812 643.613281 L 213.882812 412.425781 L 212.011719 399.726562 L 144.664062 399.726562 Z M 144.664062 399.589844 " fill-opacity="1" fill-rule="nonzero"/><path fill="#e64b38" d="M 144.664062 399.589844 L 187.691406 653.375 C 188.628906 658.722656 193.304688 662.601562 198.648438 662.601562 L 238.738281 662.601562 C 245.550781 662.601562 250.765625 656.585938 249.695312 649.765625 L 248.757812 643.613281 C 248.625 643.613281 248.359375 643.613281 248.226562 643.613281 C 238.871094 643.347656 228.984375 644.285156 220.964844 639.605469 C 210.410156 633.453125 207.070312 619.949219 204.664062 607.914062 C 195.175781 560.3125 185.6875 512.578125 179.273438 464.441406 C 177.671875 452.675781 176.46875 440.105469 181.679688 429.410156 C 186.757812 419.113281 197.179688 413.898438 208.136719 412.5625 C 209.472656 412.425781 211.476562 412.292969 214.015625 412.160156 L 212.144531 399.457031 L 144.664062 399.457031 Z M 144.664062 399.589844 " fill-opacity="1" fill-rule="nonzero"/><path fill="#112544" d="M 206 684.398438 L 206 710.203125 C 206 711.539062 207.070312 712.609375 208.40625 712.609375 L 280.027344 712.476562 C 281.363281 712.476562 282.433594 711.40625 282.433594 710.070312 L 282.433594 709 C 282.433594 701.109375 277.757812 694.023438 270.675781 690.949219 L 244.882812 679.71875 C 232.191406 684.796875 219.226562 686.136719 206 684.398438 Z M 206 684.398438 " fill-opacity="1" fill-rule="nonzero"/><g clip-path="url(#bbcdbf4ea2)"><path stroke-linecap="round" transform="matrix(1.336247, 0, 0, 1.337117, -92.785217, -93.00311)" fill="none" stroke-linejoin="round" d="M 223.60027 581.401102 L 223.60027 600.699846 C 223.60027 601.698964 224.401254 602.499426 225.401022 602.499426 L 278.999711 602.400099 C 279.99948 602.400099 280.800464 601.599636 280.800464 600.600519 L 280.800464 599.800056 C 280.800464 593.898835 277.301275 588.599422 272.001333 586.300283 L 252.698789 577.901269 C 243.200991 581.699084 233.498561 582.701123 223.60027 581.401102 Z M 223.60027 581.401102 " stroke="#112544" stroke-width="1.5" stroke-opacity="1" stroke-miterlimit="10"/></g><path stroke-linecap="round" transform="matrix(1.336247, 0, 0, 1.337117, -92.785217, -93.00311)" fill="none" stroke-linejoin="round" d="M 261.000959 581.599757 C 261.000959 581.599757 258.200438 571.699144 263.699164 571.699144 C 269.200813 571.699144 261.299135 581.599757 261.299135 581.599757 Z M 261.000959 581.599757 " stroke="#112544" stroke-width="1.5" stroke-opacity="1" stroke-miterlimit="10"/><path stroke-linecap="round" transform="matrix(1.336247, 0, 0, 1.337117, -92.785217, -93.00311)" fill="none" stroke-linejoin="round" d="M 261.100351 581.801333 C 261.100351 581.801333 266.900176 573.399397 270.399365 577.600365 C 273.898555 581.801333 261.299135 581.999988 261.299135 581.999988 Z M 261.100351 581.801333 " stroke="#112544" stroke-width="1.5" stroke-opacity="1" stroke-miterlimit="10"/><path stroke-linecap="round" transform="matrix(1.336247, 0, 0, 1.337117, -92.785217, -93.00311)" fill="none" stroke-linejoin="round" d="M 260.501075 581.801333 C 260.398759 580.699967 259.600699 579.700849 258.60093 579.499273 C 258.200438 579.399945 257.700554 579.399945 257.300062 579.20129 C 256.800178 578.999714 256.399686 578.500155 256.200902 578.000596 C 255.999194 577.501038 255.899802 576.89923 255.899802 576.300344 " stroke="#112544" stroke-width="1.5" stroke-opacity="1" stroke-miterlimit="10"/><path stroke-linecap="round" transform="matrix(1.336247, 0, 0, 1.337117, -92.785217, -93.00311)" fill="none" stroke-linejoin="round" d="M 261.600235 581.599757 C 262.000727 582.099315 262.500611 582.499547 263.19928 582.701123 C 264.199048 583.101354 265.301132 582.899778 266.400292 582.800451 C 267.499453 582.701123 268.700929 582.800451 269.498989 583.600913 " stroke="#112544" stroke-width="1.5" stroke-opacity="1" stroke-miterlimit="10"/><path stroke-linecap="round" transform="matrix(1.336247, 0, 0, 1.337117, -92.785217, -93.00311)" fill="none" stroke-linejoin="round" d="M 302.900605 267.800888 L 318.201152 270.40093 C 318.999213 268.499101 325.600022 259.901432 325.19953 258.201179 C 325.000746 257.301389 323.600486 257.698699 321.899126 258.300507 C 323.79927 256.901158 325.298923 254.999329 324.699646 254.198866 C 324.199762 253.59998 323.199994 254.000211 321.600949 254.900001 C 322.799502 253.699307 324.299154 251.999055 323.501094 250.999937 C 322.799502 250.100147 320.99875 251.198592 320.399473 251.400168 C 321.399242 250.500378 328.499935 244.000271 327.099675 242.300019 C 325.699415 240.699094 315.900516 249.399012 310.600575 255.098656 C 309.799591 251.598823 308.601038 247.801008 306.800286 248.098991 C 303.499881 248.700798 305.201241 261.701012 305.201241 261.701012 L 305.800518 261.598763 C 304.999534 263.500592 303.900373 265.601076 302.900605 267.800888 Z M 302.900605 267.800888 " stroke="#112544" stroke-width="1.5" stroke-opacity="1" stroke-miterlimit="10"/><path fill="#66d3d8" d="M 94.554688 399.589844 L 211.878906 399.589844 L 208.003906 327.652344 L 207.46875 317.894531 L 260.785156 340.222656 C 271.207031 344.636719 283.234375 341.425781 290.183594 332.601562 L 329.871094 282.324219 L 333.476562 277.78125 C 334.011719 277.109375 334.414062 276.441406 334.546875 275.640625 C 335.347656 273.234375 334.546875 270.425781 332.542969 268.6875 L 331.875 268.152344 L 316.773438 255.582031 C 314.101562 253.445312 310.226562 253.578125 307.957031 256.117188 L 303.945312 260.398438 L 301.40625 263.070312 L 272.542969 293.824219 C 270.539062 295.964844 267.332031 296.230469 265.0625 294.492188 L 236.601562 272.566406 C 228.847656 266.679688 220.296875 262 211.210938 258.792969 C 208.136719 257.722656 204.929688 256.785156 201.722656 256.117188 L 162.171875 247.027344 C 162.171875 247.027344 114.199219 252.242188 104.847656 263.875 C 100.167969 269.625 97.09375 279.382812 94.957031 291.015625 C 87.875 332.867188 94.554688 399.589844 94.554688 399.589844 Z M 94.554688 399.589844 " fill-opacity="1" fill-rule="nonzero"/><path fill="#47b6c3" d="M 208.136719 327.652344 L 207.601562 317.894531 L 260.917969 340.222656 C 271.34375 344.636719 283.367188 341.425781 290.316406 332.601562 L 330.003906 282.324219 L 333.609375 277.78125 C 334.144531 277.109375 334.546875 276.441406 334.679688 275.640625 C 334.011719 273.101562 333.078125 270.558594 331.875 268.152344 L 316.773438 255.582031 C 314.101562 253.445312 310.226562 253.578125 307.957031 256.117188 L 303.945312 260.398438 L 301.40625 263.070312 C 301.941406 264.542969 302.742188 265.878906 303.8125 267.214844 C 309.023438 273.902344 312.363281 280.722656 310.496094 289.546875 C 308.488281 299.308594 301.808594 307.328125 294.324219 314.015625 C 288.179688 319.632812 281.097656 324.578125 272.8125 325.914062 C 265.328125 327.121094 257.710938 325.113281 250.628906 322.707031 C 236.332031 317.894531 219.226562 313.347656 206.667969 305.058594 C 204.53125 312.945312 205.867188 320.167969 208.136719 327.652344 Z M 208.136719 327.652344 " fill-opacity="1" fill-rule="nonzero"/><path stroke-linecap="round" transform="matrix(1.336247, 0, 0, 1.337117, -92.785217, -93.00311)" fill="none" stroke-linejoin="round" d="M 224.798823 307.301088 L 223.699662 290.999696 " stroke="#112544" stroke-width="1.5" stroke-opacity="1" stroke-miterlimit="10"/><path fill="#47b6c3" d="M 95.089844 291.015625 C 143.464844 250.234375 211.476562 258.925781 211.476562 258.925781 C 211.34375 258.925781 211.34375 258.792969 211.210938 258.792969 C 208.136719 257.722656 204.929688 256.785156 201.722656 256.117188 L 162.171875 247.027344 C 162.171875 247.027344 114.199219 252.242188 104.847656 263.875 C 100.167969 269.625 97.09375 279.25 95.089844 291.015625 Z M 95.089844 291.015625 " fill-opacity="1" fill-rule="nonzero"/><path stroke-linecap="round" transform="matrix(1.336247, 0, 0, 1.337117, -92.785217, -93.00311)" fill-opacity="1" fill="#ffffff" fill-rule="nonzero" stroke-linejoin="round" d="M 176.999959 256.29935 L 176.999959 256.699581 C 176.999959 265.200845 183.898945 272.200511 192.499291 272.200511 C 200.500361 272.200511 207.200562 266.001307 207.899231 258.201179 L 190.900246 254.301115 C 190.800854 254.301115 184.699929 254.900001 176.999959 256.29935 Z M 176.999959 256.29935 " stroke="#112544" stroke-width="1.5" stroke-opacity="1" stroke-miterlimit="10"/><path stroke-linecap="round" transform="matrix(1.336247, 0, 0, 1.337117, -92.785217, -93.00311)" fill="none" stroke-linejoin="round" d="M 140.198547 368.399171 L 227.999835 368.399171 L 224.699431 307.198839 L 264.59954 323.900462 C 272.398902 327.198719 281.39974 324.800252 286.600289 318.200818 L 318.899821 277.19902 C 320.498865 275.098536 320.200689 272.101183 318.201152 270.500258 L 306.399794 260.698973 C 304.400257 259.100969 301.500345 259.200297 299.798985 261.099204 L 273.39867 289.200116 C 271.899018 290.801041 269.498989 290.999696 267.800553 289.699675 L 246.501395 273.298956 C 238.801426 267.301329 229.89998 263.100361 220.399258 260.900549 L 207.899231 257.999603 L 190.900246 254.099539 C 190.900246 254.099539 184.799321 254.800674 177.099351 256.200023 C 166.201292 258.201179 152.19869 261.598763 148.000832 266.699521 C 131.899301 286.600073 140.198547 368.399171 140.198547 368.399171 Z M 140.198547 368.399171 " stroke="#112544" stroke-width="1.5" stroke-opacity="1" stroke-miterlimit="10"/><path fill="#fcbba4" d="M 153.753906 226.96875 C 153.351562 226.300781 153.085938 225.632812 152.816406 225.097656 C 153.085938 225.632812 153.351562 226.300781 153.753906 226.96875 Z M 153.753906 226.96875 " fill-opacity="1" fill-rule="nonzero"/><path fill="#fcbba4" d="M 150.8125 208.917969 L 150.8125 215.605469 C 150.8125 215.738281 150.8125 216.003906 150.8125 216.136719 L 150.8125 250.234375 C 150.8125 257.722656 156.824219 263.738281 164.308594 263.738281 C 171.792969 263.738281 177.804688 257.722656 177.804688 250.234375 L 177.804688 239.136719 C 189.296875 237.53125 198.25 227.636719 198.25 215.605469 L 198.25 200.496094 C 195.042969 202.632812 191.167969 203.96875 187.023438 203.96875 C 183.953125 203.96875 181.011719 203.300781 178.339844 201.964844 C 175.800781 200.761719 173.527344 199.023438 171.65625 196.882812 C 171.257812 198.085938 170.722656 199.289062 170.054688 200.359375 C 166.980469 205.707031 161.234375 209.320312 154.554688 209.320312 C 153.484375 209.320312 152.148438 209.183594 150.8125 208.917969 Z M 153.753906 226.96875 C 153.351562 226.300781 153.085938 225.632812 152.816406 225.097656 C 153.085938 225.632812 153.351562 226.300781 153.753906 226.96875 Z M 153.753906 226.96875 " fill-opacity="1" fill-rule="nonzero"/><path fill="#f2a07c" d="M 171.523438 238.066406 C 173.929688 240.742188 176.066406 244.21875 177.9375 248.230469 L 177.9375 240.742188 C 177.671875 238.871094 173.929688 238.46875 171.523438 238.066406 Z M 171.523438 238.066406 " fill-opacity="1" fill-rule="nonzero"/><path fill="#fcbba4" d="M 153.753906 226.96875 C 153.351562 226.300781 153.085938 225.632812 152.816406 225.097656 C 153.085938 225.632812 153.351562 226.300781 153.753906 226.96875 Z M 153.753906 226.96875 " fill-opacity="1" fill-rule="nonzero"/><path fill="#f2a07c" d="M 150.8125 208.917969 L 150.8125 215.605469 C 150.8125 215.738281 150.8125 216.003906 150.8125 216.136719 L 150.8125 239.136719 C 152.683594 238.734375 154.019531 236.996094 154.953125 235.394531 C 158.160156 229.910156 159.765625 223.492188 159.5 217.207031 C 159.363281 214.933594 159.097656 212.527344 160.433594 210.789062 C 161.234375 209.71875 162.570312 209.050781 163.773438 208.515625 C 166.3125 207.3125 168.984375 206.109375 171.65625 205.039062 C 172.726562 204.640625 173.664062 204.105469 174.730469 203.96875 C 177.136719 203.703125 179.410156 204.90625 181.679688 205.574219 C 184.886719 206.511719 188.496094 206.511719 191.703125 205.574219 C 194.105469 204.773438 196.378906 203.570312 198.382812 201.964844 L 198.382812 200.628906 C 195.175781 202.765625 191.300781 204.105469 187.160156 204.105469 C 184.085938 204.105469 181.144531 203.4375 178.472656 202.097656 C 175.933594 200.894531 173.664062 199.15625 171.792969 197.019531 C 171.390625 198.222656 170.855469 199.425781 170.1875 200.492188 C 167.113281 205.84375 161.367188 209.453125 154.6875 209.453125 C 153.484375 209.320312 152.148438 209.183594 150.8125 208.917969 Z M 150.8125 208.917969 " fill-opacity="1" fill-rule="nonzero"/><path stroke-linecap="round" transform="matrix(1.336247, 0, 0, 1.337117, -92.785217, -93.00311)" fill="none" stroke-linejoin="round" d="M 182.299901 225.799972 L 182.299901 230.801403 C 182.299901 230.90073 182.299901 231.099385 182.299901 231.198713 L 182.299901 256.699581 C 182.299901 262.299898 186.798858 266.798849 192.399899 266.798849 C 198.00094 266.798849 202.499897 262.299898 202.499897 256.699581 L 202.499897 248.399894 C 211.100243 247.1992 217.800445 239.799304 217.800445 230.801403 L 217.800445 219.501442 C 215.400416 221.099445 212.500504 222.098563 209.398883 222.098563 C 207.10117 222.098563 204.899926 221.599004 202.900389 220.599887 C 201.000245 219.700097 199.298885 218.400075 197.898625 216.79915 C 197.600448 217.69894 197.199956 218.59873 196.700072 219.399193 C 194.399435 223.398584 190.099263 226.100876 185.100421 226.100876 C 184.299437 226.100876 183.299669 225.998627 182.299901 225.799972 Z M 182.299901 225.799972 " stroke="#112544" stroke-width="1.5" stroke-opacity="1" stroke-miterlimit="10"/><path fill="#f2a07c" d="M 158.832031 215.738281 C 158.160156 211.59375 154.421875 208.785156 150.277344 209.453125 C 146.136719 210.121094 143.328125 213.867188 143.996094 218.011719 C 144.664062 222.15625 148.40625 224.964844 152.550781 224.292969 " fill-opacity="1" fill-rule="nonzero"/><path stroke-linecap="round" transform="matrix(1.336247, 0, 0, 1.337117, -92.785217, -93.00311)" fill="none" stroke-linejoin="round" d="M 179.49938 224.800855 C 181.300132 225.601317 183.200277 226.100876 185.299205 226.100876 C 190.30097 226.100876 194.601143 223.398584 196.898856 219.399193 C 198.100332 217.400958 198.699608 215.098897 198.699608 212.700431 " stroke="#112544" stroke-width="1.5" stroke-opacity="1" stroke-miterlimit="10"/><path fill="#112544" d="M 192.90625 213.867188 C 192.90625 214.800781 192.101562 215.605469 191.167969 215.605469 C 190.230469 215.605469 189.429688 214.933594 189.429688 214 C 189.429688 213.0625 190.230469 212.261719 191.167969 212.261719 C 192.101562 212.261719 192.90625 212.929688 192.90625 213.867188 Z M 192.90625 213.867188 " fill-opacity="1" fill-rule="nonzero"/><path fill="#112544" d="M 176.203125 213.597656 C 176.46875 214.535156 175.800781 215.46875 174.863281 215.738281 C 173.929688 216.003906 172.996094 215.46875 172.726562 214.535156 C 172.460938 213.597656 173.128906 212.660156 174.0625 212.394531 C 175 211.992188 175.933594 212.660156 176.203125 213.597656 Z M 176.203125 213.597656 " fill-opacity="1" fill-rule="nonzero"/><path stroke-linecap="round" transform="matrix(1.336247, 0, 0, 1.337117, -92.785217, -93.00311)" fill="none" stroke-linejoin="round" d="M 205.70091 226.600435 C 205.70091 226.600435 207.998623 231.80052 207.498739 232.799638 C 207.200562 233.401445 204.598826 232.70031 204.598826 232.70031 " stroke="#112544" stroke-width="1.5" stroke-opacity="1" stroke-miterlimit="10"/><path fill="#112544" d="M 177.9375 207.714844 C 177.9375 209.050781 175.933594 208.652344 173.394531 208.785156 C 170.855469 208.785156 168.851562 209.320312 168.71875 207.980469 C 168.71875 206.644531 170.722656 205.574219 173.261719 205.441406 C 175.800781 205.308594 177.9375 206.511719 177.9375 207.714844 Z M 177.9375 207.714844 " fill-opacity="1" fill-rule="nonzero"/><path fill="#112544" d="M 195.84375 207.714844 C 195.84375 209.050781 193.839844 208.652344 191.300781 208.785156 C 188.761719 208.785156 186.757812 209.320312 186.625 207.980469 C 186.625 206.644531 188.628906 205.574219 191.167969 205.574219 C 193.707031 205.574219 195.710938 206.378906 195.84375 207.714844 Z M 195.84375 207.714844 " fill-opacity="1" fill-rule="nonzero"/><path stroke-linecap="round" transform="matrix(1.336247, 0, 0, 1.337117, -92.785217, -93.00311)" fill="none" stroke-linejoin="round" d="M 207.998623 238.399955 L 203.400273 238.399955 " stroke="#112544" stroke-width="1.5" stroke-opacity="1" stroke-miterlimit="10"/><path stroke-linecap="round" transform="matrix(1.336247, 0, 0, 1.337117, -92.785217, -93.00311)" fill="none" stroke-linejoin="round" d="M 177.698628 368.399171 L 144.200543 368.399171 L 116.701069 555.599329 C 115.999477 560.60076 119.899158 565.09971 124.900923 565.09971 L 155.998979 565.09971 C 160.100367 565.09971 163.500164 562.198763 164.198832 558.100044 L 186.600073 422.900742 " stroke="#112544" stroke-width="1.5" stroke-opacity="1" stroke-miterlimit="10"/><path stroke-linecap="round" transform="matrix(1.336247, 0, 0, 1.337117, -92.785217, -93.00311)" fill="none" stroke-linejoin="round" d="M 227.999835 368.399171 L 256.200902 555.599329 C 256.998962 560.60076 253.099281 565.199037 248.001048 565.199037 L 217.999229 565.199037 C 213.900764 565.199037 210.500967 562.301012 209.799375 558.298699 L 177.599236 368.498499 L 227.999835 368.498499 Z M 227.999835 368.399171 " stroke="#112544" stroke-width="1.5" stroke-opacity="1" stroke-miterlimit="10"/><path stroke-linecap="round" transform="matrix(1.336247, 0, 0, 1.337117, -92.785217, -93.00311)" fill="none" stroke-linejoin="round" d="M 188.301434 230.90073 C 187.798626 227.801129 185.001029 225.700645 181.899409 226.200203 C 178.800711 226.699762 176.698859 229.501381 177.198744 232.600983 C 177.698628 235.700584 180.499148 237.801068 183.600769 237.298588 " stroke="#112544" stroke-width="1.5" stroke-opacity="1" stroke-miterlimit="10"/><path stroke-linecap="round" transform="matrix(1.336247, 0, 0, 1.337117, -92.785217, -93.00311)" fill="none" stroke-linejoin="round" d="M 181.800016 232.70031 C 182.899177 232.498734 183.600769 231.499616 183.399061 230.500499 " stroke="#112544" stroke-width="1.5" stroke-opacity="1" stroke-miterlimit="10"/><path stroke-linecap="round" transform="matrix(1.336247, 0, 0, 1.337117, -92.785217, -93.00311)" fill="none" stroke-linejoin="round" d="M 202.599289 248.399894 C 202.599289 248.399894 200.699145 248.800126 197.600448 247.400777 " stroke="#112544" stroke-width="1.5" stroke-opacity="1" stroke-miterlimit="10"/><path stroke-linecap="round" transform="matrix(1.336247, 0, 0, 1.337117, -92.785217, -93.00311)" fill-opacity="1" fill="#ffffff" fill-rule="nonzero" stroke-linejoin="round" d="M 296.899072 264.400382 L 316.4004 280.698853 L 319.098605 277.301269 C 320.700573 275.200785 320.399473 272.200511 318.399937 270.599585 L 306.598578 260.801222 C 304.599042 259.200297 301.699129 259.299624 300.000692 261.198532 Z M 296.899072 264.400382 " stroke="#112544" stroke-width="1.5" stroke-opacity="1" stroke-miterlimit="10"/><path fill="#ffffff" d="M 355.125 316.15625 L 323.1875 417.375 C 321.183594 423.660156 315.304688 427.9375 308.757812 427.9375 L 237.402344 427.9375 C 232.992188 427.9375 229.785156 423.660156 231.121094 419.378906 L 236.464844 402.53125 L 263.058594 318.160156 C 265.0625 311.875 270.941406 307.597656 277.488281 307.597656 L 348.84375 307.597656 C 353.386719 307.597656 356.460938 311.875 355.125 316.15625 Z M 355.125 316.15625 " fill-opacity="1" fill-rule="nonzero"/><path fill="#e1e5ff" d="M 355.125 316.15625 L 323.1875 417.375 C 321.183594 423.660156 315.304688 427.9375 308.757812 427.9375 L 237.402344 427.9375 C 232.992188 427.9375 229.785156 423.660156 231.121094 419.378906 L 236.464844 402.53125 C 240.476562 402.800781 244.617188 404.003906 248.492188 405.472656 C 254.640625 407.746094 260.785156 410.824219 267.332031 411.492188 C 273.882812 412.160156 281.363281 410.019531 284.703125 404.40625 C 286.574219 401.328125 286.976562 397.453125 288.980469 394.511719 C 292.988281 388.492188 301.40625 387.824219 308.222656 385.550781 C 322.121094 380.871094 331.605469 367.367188 335.347656 353.191406 C 338.824219 340.355469 338.289062 326.984375 337.488281 313.882812 C 337.351562 311.609375 337.621094 309.46875 338.421875 307.730469 L 349.113281 307.730469 C 353.386719 307.597656 356.460938 311.875 355.125 316.15625 Z M 355.125 316.15625 " fill-opacity="1" fill-rule="nonzero"/><path stroke-linecap="round" transform="matrix(1.336247, 0, 0, 1.337117, -92.785217, -93.00311)" fill="none" stroke-linejoin="round" d="M 335.200137 306.001066 L 311.299243 381.700289 C 309.799591 386.400816 305.400026 389.599745 300.500576 389.599745 L 247.100672 389.599745 C 243.800267 389.599745 241.400238 386.400816 242.400007 383.198965 L 266.3009 307.499743 C 267.800553 302.799216 272.200118 299.600287 277.099567 299.600287 L 330.499472 299.600287 C 333.899269 299.600287 336.199905 302.799216 335.200137 306.001066 Z M 335.200137 306.001066 " stroke="#112544" stroke-width="1.5" stroke-opacity="1" stroke-miterlimit="10"/><path fill="#47b6c3" d="M 189.5625 340.890625 C 197.046875 344.769531 205.0625 347.042969 213.082031 349.179688 C 201.855469 357.738281 186.492188 360.414062 172.59375 356.132812 C 158.695312 351.855469 146.402344 340.757812 140.390625 326.851562 C 138.519531 322.707031 137.316406 318.160156 137.582031 313.75 C 138.117188 306.527344 148.941406 304.386719 154.6875 313.480469 C 160.300781 322.4375 166.445312 322.972656 174.195312 330.0625 C 178.875 334.207031 184.085938 338.082031 189.5625 340.890625 Z M 189.5625 340.890625 " fill-opacity="1" fill-rule="nonzero"/><path stroke-linecap="round" transform="matrix(1.336247, 0, 0, 1.337117, -92.785217, -93.00311)" fill-opacity="1" fill="#fcbba4" fill-rule="nonzero" stroke-linejoin="round" d="M 263.900872 344.800132 C 266.701392 346.100153 268.899713 347.400174 269.399597 349.0011 C 270.200581 351.399566 265.698701 349.100427 262.199512 348.299964 C 264.400756 349.500658 265.9998 350.400448 266.499684 351.70047 C 267.400061 354.201185 262.699396 352.001374 259.100814 351.098662 C 260.898643 352.100701 262.600003 352.001374 263.000495 353.199146 C 264.301364 356.999883 248.299224 353.099819 248.299224 353.099819 L 249.600092 337.400235 C 249.600092 337.400235 255.899802 331.399686 258.101046 333.298594 C 259.600699 334.598615 256.200902 339.00116 256.200902 339.00116 C 256.200902 339.00116 268.499221 341.399626 269.800089 345.200363 C 270.498758 347.198598 267.098961 345.501267 263.900872 344.800132 Z M 263.900872 344.800132 " stroke="#112544" stroke-width="1.5" stroke-opacity="1" stroke-miterlimit="10"/><path fill="#66d3d8" d="M 165.644531 379.933594 L 232.722656 383.144531 C 236.867188 383.410156 240.339844 380.203125 240.476562 376.058594 L 241.277344 360.546875 C 241.410156 356.804688 238.738281 353.460938 234.996094 352.925781 L 176.601562 343.96875 C 172.59375 343.296875 169.121094 340.890625 167.113281 337.28125 L 144.664062 294.359375 L 122.082031 296.632812 L 105.378906 298.238281 L 138.921875 362.820312 C 140.121094 365.226562 141.726562 367.5 143.464844 369.371094 C 149.074219 375.523438 157.09375 379.535156 165.644531 379.933594 Z M 165.644531 379.933594 " fill-opacity="1" fill-rule="nonzero"/><path stroke-linecap="round" transform="matrix(1.336247, 0, 0, 1.337117, -92.785217, -93.00311)" fill-opacity="1" fill="#ffffff" fill-rule="nonzero" stroke-linejoin="round" d="M 243.098675 333.099939 L 245.299919 333.50017 C 248.10044 333.900402 250.099977 336.401117 250.000584 339.199815 L 249.401308 350.80068 C 249.298993 353.900281 246.70018 356.19942 243.598559 356.100093 L 241.201454 355.901438 Z M 243.098675 333.099939 " stroke="#112544" stroke-width="1.5" stroke-opacity="1" stroke-miterlimit="10"/><path fill="#47b6c3" d="M 143.464844 369.238281 C 131.4375 337.683594 123.285156 302.113281 122.082031 296.367188 L 105.378906 297.96875 L 138.921875 362.554688 C 140.121094 365.09375 141.726562 367.234375 143.464844 369.238281 Z M 143.464844 369.238281 " fill-opacity="1" fill-rule="nonzero"/><path stroke-linecap="round" transform="matrix(1.336247, 0, 0, 1.337117, -92.785217, -93.00311)" fill="none" stroke-linejoin="round" d="M 148.299009 292.501294 L 173.401378 340.80074 C 177.301059 348.399292 185.001029 353.301395 193.499059 353.698705 L 243.700875 356.100093 C 246.799572 356.19942 249.401308 353.900281 249.5007 350.80068 L 250.099977 339.199815 C 250.199369 336.401117 248.199832 333.900402 245.399312 333.50017 L 201.698913 326.801409 C 198.699608 326.298928 196.100796 324.499348 194.601143 321.799978 L 177.800943 289.699675 " stroke="#112544" stroke-width="1.5" stroke-opacity="1" stroke-miterlimit="10"/><path stroke-linecap="round" transform="matrix(1.336247, 0, 0, 1.337117, -92.785217, -93.00311)" fill="none" stroke-linejoin="round" d="M 243.098675 333.099939 L 245.299919 333.50017 C 248.10044 333.900402 250.099977 336.401117 250.000584 339.199815 L 249.401308 350.80068 C 249.298993 353.900281 246.70018 356.19942 243.598559 356.100093 L 241.201454 355.901438 Z M 243.098675 333.099939 " stroke="#112544" stroke-width="1.5" stroke-opacity="1" stroke-miterlimit="10"/><path fill="#ffffff" d="M 193.4375 97.535156 C 193.4375 64.375 220.296875 37.367188 253.570312 37.367188 C 286.707031 37.367188 313.699219 64.242188 313.699219 97.535156 C 313.699219 130.695312 286.84375 157.707031 253.570312 157.707031 C 220.429688 157.574219 193.4375 130.695312 193.4375 97.535156 " fill-opacity="1" fill-rule="nonzero"/><path fill="#e1e5ff" d="M 313.699219 97.535156 C 313.699219 130.695312 286.84375 157.707031 253.570312 157.707031 C 235.261719 157.707031 218.960938 149.550781 207.871094 136.714844 C 218.425781 145.671875 232.054688 151.15625 247.023438 151.15625 C 280.160156 151.15625 307.152344 124.277344 307.152344 90.984375 C 307.152344 76.007812 301.675781 62.371094 292.722656 51.941406 C 305.550781 62.90625 313.699219 79.21875 313.699219 97.535156 Z M 313.699219 97.535156 " fill-opacity="1" fill-rule="nonzero"/><g clip-path="url(#933ac16441)"><path stroke-linecap="round" transform="matrix(1.336247, 0, 0, 1.337117, -92.785217, -93.00311)" fill="none" stroke-linejoin="round" d="M 214.19894 142.499276 C 214.19894 117.699542 234.299545 97.501008 259.200207 97.501008 C 283.998553 97.501008 304.19855 117.600215 304.19855 142.499276 C 304.19855 167.29901 284.100868 187.500466 259.200207 187.500466 C 234.398937 187.401138 214.19894 167.29901 214.19894 142.499276 " stroke="#112544" stroke-width="1.5" stroke-opacity="1" stroke-miterlimit="10"/></g><path fill="#ffc25e" d="M 296.730469 97.535156 C 296.730469 121.605469 277.222656 141.125 253.167969 141.125 C 229.117188 141.125 209.609375 121.605469 209.609375 97.535156 C 209.609375 73.46875 229.117188 53.945312 253.167969 53.945312 C 277.355469 53.945312 296.730469 73.46875 296.730469 97.535156 Z M 296.730469 97.535156 " fill-opacity="1" fill-rule="nonzero"/><path fill="#efa130" d="M 297.132812 97.535156 C 297.132812 121.605469 277.621094 141.125 253.570312 141.125 C 239.941406 141.125 227.914062 134.839844 219.898438 125.082031 C 227.113281 130.5625 236.199219 133.773438 246.085938 133.773438 C 270.140625 133.773438 289.648438 114.25 289.648438 90.183594 C 289.648438 79.753906 285.90625 70.125 279.761719 62.636719 C 290.316406 70.660156 297.132812 83.230469 297.132812 97.535156 Z M 297.132812 97.535156 " fill-opacity="1" fill-rule="nonzero"/><path stroke-linecap="round" transform="matrix(1.336247, 0, 0, 1.337117, -92.785217, -93.00311)" fill="none" stroke-linejoin="round" d="M 291.800838 142.499276 C 291.800838 160.500921 277.198959 175.099138 259.200207 175.099138 C 241.198531 175.099138 226.599575 160.500921 226.599575 142.499276 C 226.599575 124.500553 241.198531 109.899414 259.200207 109.899414 C 277.198959 109.899414 291.800838 124.500553 291.800838 142.499276 Z M 291.800838 142.499276 " stroke="#112544" stroke-width="1.5" stroke-opacity="1" stroke-miterlimit="10"/><path fill="#efa130" d="M 256.511719 77.878906 C 259.046875 77.878906 260.917969 78.148438 262.121094 78.683594 C 263.324219 79.21875 263.859375 80.152344 263.859375 81.355469 C 263.726562 82.558594 262.789062 83.230469 261.054688 83.230469 C 259.582031 82.828125 258.113281 82.695312 256.511719 82.558594 L 256.644531 92.988281 C 263.058594 93.660156 266.265625 96.867188 266.265625 102.351562 C 265.863281 108.5 262.65625 112.109375 256.777344 113.046875 L 256.777344 118.664062 C 256.777344 119.597656 256.109375 120.402344 254.773438 120.800781 L 254.640625 120.800781 C 253.570312 120.800781 252.769531 120.265625 252.234375 119.199219 C 252.234375 118.527344 252.101562 116.523438 252.101562 113.3125 C 249.160156 113.3125 246.890625 112.914062 245.417969 112.246094 C 243.683594 111.441406 242.878906 110.507812 242.878906 109.4375 C 242.878906 108.097656 243.28125 107.429688 244.082031 107.164062 C 244.351562 107.03125 244.617188 107.03125 244.882812 107.03125 C 245.550781 107.03125 246.355469 107.296875 247.15625 107.699219 C 248.089844 108.234375 249.828125 108.632812 252.101562 108.632812 C 252.101562 105.425781 251.964844 101.679688 251.964844 97.136719 C 246.21875 96.066406 243.28125 92.988281 243.28125 87.910156 C 243.28125 82.558594 246.085938 79.351562 251.832031 78.28125 L 251.832031 75.875 C 251.832031 74.136719 252.101562 73.199219 252.769531 72.933594 C 253.167969 72.664062 253.703125 72.53125 254.105469 72.53125 C 255.171875 72.53125 255.839844 73.199219 256.375 74.402344 L 256.511719 74.804688 L 256.375 75.472656 Z M 247.824219 87.773438 C 247.824219 90.046875 249.292969 91.652344 252.101562 92.453125 C 252.101562 89.511719 252.101562 86.4375 252.101562 83.09375 C 249.160156 83.765625 247.824219 85.367188 247.824219 87.773438 Z M 261.585938 102.351562 C 261.585938 99.808594 259.984375 98.339844 256.644531 97.667969 L 256.777344 108.367188 C 259.582031 107.699219 261.1875 105.828125 261.585938 102.617188 Z M 261.585938 102.351562 " fill-opacity="1" fill-rule="nonzero"/><path fill="#ffffff" d="M 254.773438 76.8125 C 257.3125 76.8125 259.183594 77.078125 260.386719 77.613281 C 261.585938 78.148438 262.121094 79.082031 262.121094 80.289062 C 261.988281 81.492188 261.054688 82.160156 259.316406 82.160156 C 257.847656 81.757812 256.375 81.625 254.773438 81.492188 L 254.90625 91.921875 C 261.320312 92.589844 264.527344 95.796875 264.527344 101.28125 C 264.125 107.429688 260.917969 111.042969 255.039062 111.976562 L 255.039062 117.59375 C 255.039062 118.527344 254.371094 119.332031 253.035156 119.730469 L 252.902344 119.730469 C 251.832031 119.730469 251.03125 119.199219 250.496094 118.128906 C 250.496094 117.460938 250.363281 115.453125 250.363281 112.246094 C 247.421875 112.246094 245.152344 111.84375 243.683594 111.175781 C 241.945312 110.371094 241.144531 109.4375 241.144531 108.367188 C 241.144531 107.03125 241.542969 106.359375 242.34375 106.09375 C 242.613281 105.960938 242.878906 105.960938 243.148438 105.960938 C 243.816406 105.960938 244.617188 106.226562 245.417969 106.628906 C 246.355469 107.164062 248.089844 107.566406 250.363281 107.566406 C 250.363281 104.355469 250.230469 100.613281 250.230469 96.066406 C 244.484375 94.996094 241.542969 91.921875 241.542969 86.839844 C 241.542969 81.492188 244.351562 78.28125 250.097656 77.210938 L 250.097656 74.804688 C 250.097656 73.066406 250.363281 72.132812 251.03125 71.863281 C 251.433594 71.597656 251.964844 71.460938 252.367188 71.460938 C 253.4375 71.460938 254.105469 72.132812 254.640625 73.335938 L 254.773438 73.734375 L 254.640625 74.402344 Z M 246.085938 86.707031 C 246.085938 88.980469 247.558594 90.582031 250.363281 91.386719 C 250.363281 88.445312 250.363281 85.367188 250.363281 82.027344 C 247.421875 82.695312 246.085938 84.296875 246.085938 86.707031 Z M 259.851562 101.28125 C 259.851562 98.738281 258.246094 97.269531 254.90625 96.601562 L 255.039062 107.296875 C 257.847656 106.628906 259.449219 104.757812 259.851562 101.546875 Z M 259.851562 101.28125 " fill-opacity="1" fill-rule="nonzero"/><path fill="#8d95ff" d="M 653.910156 712.609375 L 541.664062 712.609375 C 539.125 709 535.382812 702.449219 536.050781 696.03125 C 536.722656 690.011719 541.265625 684.128906 554.359375 680.921875 C 555.292969 680.652344 556.230469 680.519531 557.164062 680.25 C 557.164062 680.25 540.730469 656.71875 550.351562 644.285156 C 559.835938 632.25 581.351562 668.085938 582.554688 670.222656 C 581.21875 667.550781 555.027344 612.460938 571.0625 604.167969 C 586.160156 596.28125 605.671875 629.84375 609.414062 650.96875 C 608.078125 636.796875 606.875 599.089844 631.460938 595.078125 C 661.925781 590.128906 635.46875 663.136719 635.46875 663.136719 C 635.46875 663.136719 663.664062 642.679688 679.566406 661.132812 C 694.933594 678.648438 665.132812 704.050781 653.910156 712.609375 Z M 653.910156 712.609375 " fill-opacity="1" fill-rule="nonzero"/><path fill="#757bff" d="M 573.734375 656.984375 C 577.878906 668.21875 582.285156 677.308594 582.6875 678.378906 C 581.484375 676.242188 559.835938 640.40625 550.484375 652.441406 C 549.015625 654.179688 548.210938 656.316406 547.8125 658.457031 C 547.011719 653.375 547.410156 648.292969 550.484375 644.285156 C 556.097656 637.0625 566.25 647.359375 573.734375 656.984375 Z M 573.734375 656.984375 " fill-opacity="1" fill-rule="nonzero"/><path fill="#757bff" d="M 609.011719 648.160156 C 609.011719 652.441406 609.277344 656.183594 609.546875 658.992188 C 605.671875 637.867188 586.160156 604.4375 571.195312 612.328125 C 568.257812 613.796875 566.785156 616.871094 566.25 620.75 C 565.449219 612.859375 566.519531 606.578125 571.195312 604.167969 C 585.628906 596.683594 604.066406 627.035156 609.011719 648.160156 Z M 609.011719 648.160156 " fill-opacity="1" fill-rule="nonzero"/><path fill="#757bff" d="M 609.679688 659.125 C 610.082031 660.996094 610.214844 662.871094 610.347656 664.609375 C 610.347656 664.472656 609.945312 662.46875 609.679688 659.125 Z M 609.679688 659.125 " fill-opacity="1" fill-rule="nonzero"/><path fill="#757bff" d="M 609.679688 650.96875 C 610.082031 652.839844 610.214844 654.714844 610.347656 656.453125 C 610.347656 656.316406 609.945312 654.3125 609.679688 650.96875 Z M 609.679688 650.96875 " fill-opacity="1" fill-rule="nonzero"/><path fill="#757bff" d="M 631.726562 603.234375 C 614.089844 606.175781 609.679688 626.230469 609.144531 642.546875 C 608.609375 625.5625 611.015625 598.421875 631.726562 595.078125 C 644.15625 593.070312 647.226562 604.035156 646.292969 617.808594 C 645.492188 608.179688 641.617188 601.628906 631.726562 603.234375 Z M 631.726562 603.234375 " fill-opacity="1" fill-rule="nonzero"/><path fill="#757bff" d="M 683.574219 676.242188 C 683.039062 673.832031 681.835938 671.425781 679.832031 669.152344 C 663.929688 650.703125 635.738281 671.160156 635.738281 671.160156 C 635.738281 671.160156 637.207031 667.015625 639.078125 660.863281 C 646.960938 656.183594 667.273438 646.421875 679.699219 660.996094 C 683.839844 665.675781 684.644531 670.890625 683.574219 676.242188 Z M 683.574219 676.242188 " fill-opacity="1" fill-rule="nonzero"/><path fill="#757bff" d="M 609.144531 642.679688 C 609.277344 645.886719 609.414062 648.695312 609.679688 650.835938 C 609.546875 649.898438 609.277344 649.097656 609.144531 648.160156 C 609.011719 646.421875 609.011719 644.550781 609.144531 642.679688 Z M 609.144531 642.679688 " fill-opacity="1" fill-rule="nonzero"/><path fill="#757bff" d="M 609.679688 659.125 C 610.082031 660.996094 610.214844 662.871094 610.347656 664.609375 C 610.347656 664.472656 609.945312 662.46875 609.679688 659.125 Z M 609.679688 659.125 " fill-opacity="1" fill-rule="nonzero"/><path fill="#757bff" d="M 609.679688 650.96875 C 610.082031 652.839844 610.214844 654.714844 610.347656 656.453125 C 610.347656 656.316406 609.945312 654.3125 609.679688 650.96875 Z M 609.679688 650.96875 " fill-opacity="1" fill-rule="nonzero"/><path fill="#757bff" d="M 557.300781 685.601562 C 543.804688 688.273438 538.191406 693.355469 536.585938 698.972656 C 536.320312 698.035156 536.1875 697.097656 536.050781 696.03125 C 536.722656 690.011719 541.265625 684.128906 554.359375 680.921875 C 555.960938 683.726562 557.300781 685.601562 557.300781 685.601562 Z M 557.300781 685.601562 " fill-opacity="1" fill-rule="nonzero"/><g clip-path="url(#44851eada5)"><path stroke-linecap="round" transform="matrix(1.336247, 0, 0, 1.337117, -92.785217, -93.00311)" fill="none" stroke-linejoin="round" d="M 558.800361 602.499426 C 567.099608 596.098647 589.500849 577.100806 578.199374 563.899016 C 566.298624 550.101261 545.201174 565.400614 545.201174 565.400614 C 545.201174 565.400614 565.000679 510.799716 542.198946 514.501125 C 523.700309 517.501399 524.600685 545.698717 525.699846 556.300464 C 522.799933 540.498631 508.30037 515.400915 496.899503 521.299214 C 484.601184 527.699994 505.499849 570.799354 505.499849 570.799354 C 505.499849 570.799354 488.600257 542.099556 481.300779 551.401282 C 474.001301 560.700087 486.399013 578.298579 486.399013 578.298579 C 463.500811 582.800451 470.899681 597.001358 474.799362 602.499426 Z M 558.800361 602.499426 " stroke="#112544" stroke-width="1.5" stroke-opacity="1" stroke-miterlimit="10"/></g><path fill="#e1e5ff" d="M 594.582031 712.609375 L 621.4375 712.609375 C 642.953125 701.644531 667.273438 671.160156 653.910156 662.734375 C 639.078125 653.375 623.441406 688.410156 623.441406 688.410156 C 623.441406 688.410156 646.695312 628.773438 628.65625 625.296875 C 610.617188 621.820312 611.953125 679.71875 611.953125 679.71875 C 611.953125 679.71875 593.109375 631.445312 577.878906 643.480469 C 567.453125 651.769531 593.511719 691.214844 593.511719 691.214844 C 593.511719 691.214844 563.714844 667.816406 558.769531 684.128906 C 554.359375 698.167969 579.480469 708.0625 594.582031 712.609375 Z M 594.582031 712.609375 " fill-opacity="1" fill-rule="nonzero"/><path fill="#ffffff" d="M 585.359375 685.867188 C 589.234375 693.089844 592.976562 698.703125 593.242188 699.238281 C 591.90625 698.304688 564.515625 677.175781 558.769531 691.351562 C 557.832031 689.078125 557.699219 686.804688 558.5 684.261719 C 561.976562 673.433594 576.273438 680.25 585.359375 685.867188 Z M 585.359375 685.867188 " fill-opacity="1" fill-rule="nonzero"/><path fill="#ffffff" d="M 611.816406 687.738281 C 611.816406 687.738281 593.109375 639.46875 577.878906 651.503906 C 576.941406 652.304688 576.273438 653.242188 575.871094 654.445312 C 574.9375 649.632812 575.203125 645.621094 577.878906 643.480469 C 593.109375 631.445312 611.816406 679.71875 611.816406 679.71875 C 611.816406 679.71875 610.480469 621.820312 628.519531 625.296875 C 634.535156 626.5 636.003906 633.855469 635.203125 643.214844 C 634.667969 637.867188 632.664062 634.121094 628.519531 633.320312 C 610.480469 629.84375 611.816406 687.738281 611.816406 687.738281 Z M 611.816406 687.738281 " fill-opacity="1" fill-rule="nonzero"/><path fill="#ffffff" d="M 656.984375 674.367188 C 656.316406 672.898438 655.378906 671.695312 653.777344 670.625 C 639.34375 661.53125 624.246094 694.292969 623.308594 696.164062 C 623.710938 695.226562 626.917969 686.671875 629.992188 676.242188 C 636.003906 667.148438 644.957031 657.121094 653.777344 662.601562 C 657.652344 665.140625 658.453125 669.421875 656.984375 674.367188 Z M 656.984375 674.367188 " fill-opacity="1" fill-rule="nonzero"/><g clip-path="url(#0610a8a232)"><path stroke-linecap="round" transform="matrix(1.336247, 0, 0, 1.337117, -92.785217, -93.00311)" fill="none" stroke-linejoin="round" d="M 514.401295 602.499426 L 534.498976 602.499426 C 550.600508 594.299067 568.800968 571.500489 558.800361 565.199037 C 547.700595 558.199372 535.998629 584.401376 535.998629 584.401376 C 535.998629 584.401376 553.401028 539.800417 539.901233 537.200375 C 526.401438 534.600332 527.401206 577.901269 527.401206 577.901269 C 527.401206 577.901269 513.299211 541.798653 501.901268 550.799475 C 494.098983 556.998678 513.600311 586.498938 513.600311 586.498938 C 513.600311 586.498938 491.301385 568.999774 487.600489 581.199525 C 484.300084 591.699024 503.09982 599.098921 514.401295 602.499426 Z M 514.401295 602.499426 " stroke="#112544" stroke-width="1.5" stroke-opacity="1" stroke-miterlimit="10"/></g><g clip-path="url(#3257327d54)"><path stroke-linecap="round" transform="matrix(1.336247, 0, 0, 1.337117, -92.785217, -93.00311)" fill="none" stroke-linejoin="round" d="M 433.800092 602.499426 L 605.999949 602.499426 " stroke="#112544" stroke-width="1.5" stroke-opacity="1" stroke-miterlimit="10"/></g><g clip-path="url(#e713accd88)"><path stroke-linecap="round" transform="matrix(1.336247, 0, 0, 1.337117, -92.785217, -93.00311)" fill="none" stroke-linejoin="round" d="M 419.499313 602.499426 L 363.199495 602.499426 " stroke="#112544" stroke-width="1.5" stroke-opacity="1" stroke-miterlimit="10"/></g><path stroke-linecap="round" transform="matrix(1.336247, 0, 0, 1.337117, -92.785217, -93.00311)" fill="none" stroke-linejoin="round" d="M 304.19855 142.499276 L 353.301205 142.499276 " stroke="#112544" stroke-width="1.5" stroke-opacity="1" stroke-miterlimit="10"/><path stroke-linecap="round" transform="matrix(1.336247, 0, 0, 1.337117, -92.785217, -93.00311)" fill="none" stroke-linejoin="round" d="M 363.000711 501.299335 L 417.499776 501.299335 " stroke="#112544" stroke-width="1.5" stroke-opacity="1" stroke-miterlimit="10"/><path stroke-linecap="round" transform="matrix(1.336247, 0, 0, 1.337117, -92.785217, -93.00311)" fill="none" stroke-linejoin="round" d="M 107.899015 597.600245 L 141.800515 597.600245 " stroke="#ffffff" stroke-width="1.5" stroke-opacity="1" stroke-miterlimit="10"/><path stroke-linecap="round" transform="matrix(1.336247, 0, 0, 1.337117, -92.785217, -93.00311)" fill="none" stroke-linejoin="round" d="M 232.7005 597.600245 L 266.599077 597.600245 " stroke="#ffffff" stroke-width="1.5" stroke-opacity="1" stroke-miterlimit="10"/><path stroke-linecap="round" transform="matrix(1.336247, 0, 0, 1.337117, -92.785217, -93.00311)" fill="none" stroke-linejoin="round" d="M 451.798845 501.299335 L 506.300833 501.299335 " stroke="#112544" stroke-width="1.5" stroke-opacity="1" stroke-miterlimit="10"/><path stroke-linecap="round" transform="matrix(1.336247, 0, 0, 1.337117, -92.785217, -93.00311)" fill="none" stroke-linejoin="round" d="M 539.401349 501.299335 L 593.999806 501.299335 " stroke="#112544" stroke-width="1.5" stroke-opacity="1" stroke-miterlimit="10"/></svg>