<svg xmlns="http://www.w3.org/2000/svg" xmlns:xlink="http://www.w3.org/1999/xlink" width="1000" zoomAndPan="magnify" viewBox="0 0 750 749.999995" height="1000" preserveAspectRatio="xMidYMid meet" version="1.0"><defs><clipPath id="190e21abae"><path d="M 62 49.183594 L 644 49.183594 L 644 178 L 62 178 Z M 62 49.183594 " clip-rule="nonzero"/></clipPath><clipPath id="2ee3cd1dc3"><path d="M 62 546 L 644 546 L 644 674.683594 L 62 674.683594 Z M 62 546 " clip-rule="nonzero"/></clipPath></defs><path fill="#f8adae" d="M 639.6875 347.996094 L 66 347.996094 C 62.484375 347.996094 61.070312 343.332031 63.972656 341.289062 L 121.324219 300.902344 C 132.855469 292.785156 132.855469 275.316406 121.324219 267.195312 L 63.972656 226.78125 C 61.070312 224.738281 62.484375 220.074219 66 220.074219 L 639.6875 220.074219 C 643.203125 220.074219 644.617188 224.738281 641.714844 226.78125 L 584.363281 267.164062 C 572.832031 275.285156 572.832031 292.753906 584.363281 300.875 L 641.714844 341.257812 C 644.617188 343.300781 643.203125 347.964844 639.6875 347.964844 Z M 639.6875 347.996094 " fill-opacity="1" fill-rule="nonzero"/><g clip-path="url(#190e21abae)"><path fill="#feeadd" d="M 639.6875 177.1875 L 66 177.1875 C 62.484375 177.1875 61.070312 172.519531 63.972656 170.476562 L 121.324219 130.09375 C 132.855469 121.972656 132.855469 104.503906 121.324219 96.386719 L 63.972656 55.96875 C 61.070312 53.929688 62.484375 49.261719 66 49.261719 L 639.6875 49.261719 C 643.203125 49.261719 644.617188 53.929688 641.714844 55.96875 L 584.363281 96.355469 C 572.832031 104.476562 572.832031 121.941406 584.363281 130.0625 L 641.714844 170.449219 C 644.617188 172.488281 643.203125 177.15625 639.6875 177.15625 Z M 639.6875 177.1875 " fill-opacity="1" fill-rule="nonzero"/></g><path fill="#f48889" d="M 639.6875 507.726562 L 66 507.726562 C 62.484375 507.726562 61.070312 503.058594 63.972656 501.015625 L 121.324219 460.632812 C 132.855469 452.511719 132.855469 435.042969 121.324219 426.925781 L 63.972656 386.507812 C 61.070312 384.46875 62.484375 379.800781 66 379.800781 L 639.6875 379.800781 C 643.203125 379.800781 644.617188 384.46875 641.714844 386.507812 L 584.363281 426.894531 C 572.832031 435.015625 572.832031 452.480469 584.363281 460.601562 L 641.714844 500.988281 C 644.617188 503.027344 643.203125 507.695312 639.6875 507.695312 Z M 639.6875 507.726562 " fill-opacity="1" fill-rule="nonzero"/><g clip-path="url(#2ee3cd1dc3)"><path fill="#f26667" d="M 639.6875 674.667969 L 66 674.667969 C 62.484375 674.667969 61.070312 670 63.972656 667.960938 L 121.324219 627.574219 C 132.855469 619.453125 132.855469 601.988281 121.324219 593.867188 L 63.972656 553.46875 C 61.070312 551.425781 62.484375 546.757812 66 546.757812 L 639.6875 546.757812 C 643.203125 546.757812 644.617188 551.425781 641.714844 553.46875 L 584.363281 593.851562 C 572.832031 601.972656 572.832031 619.441406 584.363281 627.558594 L 641.714844 667.945312 C 644.617188 669.984375 643.203125 674.652344 639.6875 674.652344 Z M 639.6875 674.667969 " fill-opacity="1" fill-rule="nonzero"/></g><path fill="#f26667" d="M 264.910156 108.847656 C 267.507812 104.90625 271.667969 101.757812 276.859375 101.757812 C 285.304688 101.757812 289.816406 109.308594 289.816406 119.101562 C 289.816406 133.410156 281.144531 144.550781 270.210938 144.550781 C 260.289062 144.550781 256.019531 137.691406 256.019531 128.003906 C 256.019531 119.332031 258.832031 103.675781 258.832031 92.640625 C 258.832031 80.929688 256.695312 78.457031 256.695312 77.445312 C 256.695312 76.324219 257.710938 75.523438 259.628906 75.523438 C 264.589844 75.523438 267.628906 78.902344 267.628906 85.210938 C 267.628906 91.183594 266.171875 100.191406 264.925781 108.863281 Z M 271.117188 138.6875 C 277.320312 138.6875 281.925781 130.246094 281.925781 120.453125 C 281.925781 113.578125 279.667969 108.066406 275.167969 108.066406 C 270.671875 108.066406 267.167969 112.6875 265.371094 117.980469 C 264.804688 119.332031 264.695312 120.578125 264.019531 120.578125 C 263.792969 120.578125 263.578125 120.578125 263.453125 120.46875 C 263.117188 122.941406 263.007812 125.425781 263.007812 127.332031 C 263.007812 135.894531 266.722656 138.703125 271.117188 138.703125 Z M 317.640625 108.511719 C 318.65625 104.121094 320.34375 102.664062 321.695312 102.664062 C 324.289062 102.664062 326.53125 105.808594 326.53125 111.566406 C 326.53125 119.902344 323.722656 126.886719 323.722656 126.886719 C 323.832031 139.378906 329.574219 140.851562 329.574219 142.203125 C 329.574219 143.324219 328.113281 144.230469 326.085938 144.230469 C 322.710938 144.230469 319.667969 142.3125 317.980469 136.800781 C 315.277344 140.960938 311.101562 144.675781 305.695312 144.675781 C 296.914062 144.675781 293.535156 139.164062 293.535156 131.382812 C 293.535156 126.425781 295.332031 118.089844 295.332031 113.253906 C 295.332031 106.945312 293.195312 105.363281 293.195312 104.582031 C 293.195312 103.570312 294.316406 102.664062 296.128906 102.664062 C 301.195312 102.664062 303.347656 106.945312 303.347656 111.226562 C 303.347656 115.847656 301.089844 124.289062 301.089844 130.03125 C 301.089844 134.757812 302.777344 138.472656 307.167969 138.472656 C 310.777344 138.472656 314.722656 134.988281 316.75 129.464844 C 316.644531 127.882812 316.644531 126.195312 316.644531 124.277344 C 316.644531 116.847656 316.980469 111.886719 317.65625 108.511719 Z M 367.546875 141.511719 C 367.546875 142.972656 365.964844 144.105469 363.722656 144.105469 C 359.898438 144.105469 357.074219 141.636719 355.832031 137.691406 C 353.359375 141.972656 349.410156 144.550781 343.882812 144.550781 C 337.128906 144.550781 330.140625 139.71875 330.140625 127.773438 C 330.140625 113.363281 339.722656 101.757812 349.855469 101.757812 C 352.898438 101.757812 355.386719 102.539062 357.183594 104.121094 C 357.289062 101.527344 357.519531 98.824219 357.519531 96.355469 C 357.519531 79.46875 355.261719 78.671875 355.261719 77.429688 C 355.261719 76.183594 356.382812 75.511719 358.074219 75.511719 C 363.585938 75.511719 366.074219 79.792969 366.074219 85.304688 C 366.074219 97.921875 362.25 113.007812 362.25 127.53125 C 362.25 140.59375 367.546875 140.148438 367.546875 141.496094 Z M 349.628906 107.390625 C 343.421875 107.390625 337.679688 116.171875 337.679688 126.425781 C 337.679688 134.191406 341.398438 138.472656 345.574219 138.472656 C 350.640625 138.472656 355.492188 132.394531 355.9375 118.65625 L 355.707031 118.65625 C 354.464844 118.65625 353.574219 117.980469 353.574219 117.078125 C 353.574219 116.0625 354.585938 115.386719 354.585938 112.117188 C 354.585938 109.1875 352.453125 107.390625 349.628906 107.390625 Z M 399.65625 143.203125 C 399.65625 157.386719 393.679688 167.636719 380.277344 167.636719 C 372.722656 167.636719 366.761719 163.355469 366.761719 156.832031 C 366.761719 152.78125 369.695312 150.417969 372.613281 150.417969 C 373.964844 150.417969 374.980469 150.859375 374.980469 151.535156 C 374.980469 151.980469 374.535156 152.441406 374.535156 154.128906 C 374.535156 159.425781 377.574219 162.574219 382.089844 162.574219 C 388.628906 162.574219 392.683594 155.925781 392.683594 142.972656 C 392.683594 141.621094 392.574219 140.269531 392.574219 139.148438 C 390.441406 142.417969 386.832031 144.550781 381.980469 144.550781 C 373.535156 144.550781 368.007812 137.90625 368.007812 127.882812 C 368.007812 113.914062 376.683594 101.757812 387.953125 101.757812 C 394.601562 101.757812 399.5625 106.039062 399.5625 111.214844 C 399.5625 112.457031 399.332031 113.46875 398.996094 114.359375 C 399.777344 115.035156 400.34375 116.386719 400.34375 118.640625 C 400.34375 122.800781 399.898438 125.394531 398.886719 129.109375 C 399.117188 131.582031 399.667969 138.6875 399.667969 143.1875 Z M 392.328125 118.996094 C 391.425781 118.886719 390.980469 118.425781 390.980469 117.753906 C 390.980469 116.292969 392.222656 116.0625 392.222656 111.78125 C 392.222656 109.308594 390.089844 107.390625 387.261719 107.390625 C 380.84375 107.390625 375.546875 116.292969 375.546875 126.316406 C 375.546875 132.839844 378.480469 138.472656 383.65625 138.472656 C 387.261719 138.472656 390.535156 135.433594 391.992188 130.140625 C 391.882812 128.789062 391.761719 126.65625 391.761719 125.074219 C 391.761719 122.371094 391.992188 120.347656 392.328125 118.996094 Z M 402.800781 126.210938 C 402.800781 112.808594 411.816406 101.773438 422.964844 101.773438 C 429.613281 101.773438 434.789062 105.933594 434.789062 112.808594 C 434.789062 124.519531 420.261719 127.898438 410.679688 128.234375 C 411.460938 133.53125 414.289062 138.597656 420.9375 138.597656 C 430.179688 138.597656 432.546875 130.371094 433.4375 130.371094 C 433.667969 130.371094 435.125 130.816406 435.125 133.070312 C 435.125 136.003906 430.839844 144.78125 419.585938 144.78125 C 408.332031 144.78125 402.800781 137.015625 402.800781 126.210938 Z M 410.464844 123.738281 C 420.722656 123.402344 427.816406 119.347656 427.816406 113.378906 C 427.816406 109.664062 425.222656 107.40625 421.84375 107.40625 C 416.207031 107.40625 410.910156 114.621094 410.464844 123.738281 Z M 445.949219 88.941406 C 446.179688 87.589844 446.734375 86.578125 447.410156 86.578125 C 449.328125 86.578125 452.140625 88.941406 452.140625 91.304688 C 452.140625 94.113281 450.21875 99.195312 449.207031 104.367188 C 455.179688 103.921875 458.449219 101.894531 459.003906 101.894531 C 460.015625 101.894531 460.800781 103.691406 460.800781 105.503906 C 460.800781 109.554688 454.824219 110.460938 447.960938 110.460938 C 447.285156 115.417969 446.609375 121.835938 446.609375 126.671875 C 446.609375 133.761719 448.070312 138.613281 453.03125 138.613281 C 457.3125 138.613281 458.433594 134.898438 459.339844 134.898438 C 460.355469 134.898438 460.585938 136.140625 460.585938 137.03125 C 460.585938 140.636719 457.097656 144.691406 451.003906 144.691406 C 444.015625 144.691406 439.285156 139.519531 439.285156 128.019531 C 439.285156 122.050781 439.960938 115.296875 440.636719 110 C 437.703125 109.324219 436.015625 107.742188 436.015625 106.625 C 436.015625 105.839844 436.460938 105.503906 436.921875 105.164062 C 441.082031 102.570312 444.921875 95.035156 445.933594 88.957031 Z M 445.949219 88.941406 " fill-opacity="1" fill-rule="nonzero"/><path fill="#ffffff" d="M 214.425781 294.378906 C 214.425781 280.980469 223.4375 269.945312 234.585938 269.945312 C 241.234375 269.945312 246.410156 274.101562 246.410156 280.980469 C 246.410156 292.691406 231.882812 296.070312 222.300781 296.40625 C 223.085938 301.703125 225.910156 306.765625 232.558594 306.765625 C 241.800781 306.765625 244.167969 298.539062 245.058594 298.539062 C 245.289062 298.539062 246.746094 298.984375 246.746094 301.242188 C 246.746094 304.171875 242.460938 312.953125 231.207031 312.953125 C 219.953125 312.953125 214.425781 305.1875 214.425781 294.378906 Z M 222.085938 291.910156 C 232.34375 291.570312 239.4375 287.519531 239.4375 281.546875 C 239.4375 277.832031 236.84375 275.578125 233.464844 275.578125 C 227.828125 275.578125 222.53125 282.792969 222.085938 291.910156 Z M 268.71875 291.464844 C 272.4375 300.136719 277.058594 305.878906 281.21875 305.878906 C 282.003906 305.878906 282.679688 305.308594 283.015625 305.308594 C 283.585938 305.308594 284.03125 306.214844 284.03125 307.441406 C 284.03125 310.035156 281.328125 312.847656 277.949219 312.847656 C 270.625 312.847656 265.558594 303.390625 262.855469 297.757812 C 258.691406 302.484375 255.421875 307.105469 255.421875 310.480469 C 255.421875 311.386719 255.53125 311.601562 255.53125 311.832031 C 255.53125 312.402344 255.085938 312.738281 253.734375 312.738281 C 251.367188 312.738281 248.222656 312.0625 248.222656 308.917969 C 248.222656 305.203125 254.195312 298.894531 260.503906 292.246094 C 259.382812 289.4375 258.140625 286.722656 256.558594 283.804688 C 254.195312 279.644531 252.398438 277.28125 251.152344 276.039062 C 249.355469 274.242188 248.558594 274.578125 248.558594 273.445312 C 248.558594 272.199219 250.691406 270.742188 252.613281 270.742188 C 258.691406 270.742188 262.53125 278.402344 266.246094 286.0625 C 270.976562 280.765625 274.816406 275.808594 274.816406 272.09375 C 274.816406 271.648438 274.707031 271.308594 274.707031 270.972656 C 274.707031 270.296875 276.167969 269.960938 277.179688 269.960938 C 279.992188 269.960938 282.585938 271.984375 282.585938 274.457031 C 282.585938 277.832031 275.597656 284.480469 268.734375 291.464844 Z M 292.71875 309.148438 C 292.273438 313.535156 291.9375 318.050781 291.9375 324.128906 C 291.9375 332.234375 293.855469 332.800781 293.855469 333.921875 C 293.855469 334.933594 292.734375 335.839844 290.707031 335.839844 C 285.871094 335.839844 283.828125 332.800781 283.828125 328.855469 C 283.828125 317.589844 287.546875 305.539062 287.546875 281.226562 C 287.546875 274.703125 285.75 273.566406 285.75 272.445312 C 285.75 271.539062 286.425781 270.863281 287.667969 270.863281 C 290.816406 270.863281 293.640625 274.132812 294.546875 278.632812 C 298.035156 272.890625 302.992188 269.960938 307.722656 269.960938 C 314.140625 269.960938 320.558594 275.46875 320.558594 287.074219 C 320.558594 300.472656 312.558594 312.753906 301.519531 312.753906 C 297.574219 312.753906 294.640625 311.296875 292.734375 309.148438 Z M 301.839844 307.121094 C 308.828125 307.121094 313.113281 298.003906 313.113281 288.53125 C 313.113281 280.304688 310.070312 276.375 306.125 276.375 C 300.613281 276.375 295.191406 285.046875 294.070312 296.3125 L 294.179688 296.3125 C 294.855469 296.3125 294.855469 296.757812 294.855469 298.003906 C 294.855469 302.730469 298.234375 307.121094 301.839844 307.121094 Z M 322.125 294.394531 C 322.125 280.996094 331.140625 269.960938 342.289062 269.960938 C 348.9375 269.960938 354.109375 274.117188 354.109375 280.996094 C 354.109375 292.707031 339.585938 296.085938 330.003906 296.421875 C 330.785156 301.71875 333.613281 306.78125 340.261719 306.78125 C 349.503906 306.78125 351.867188 298.554688 352.757812 298.554688 C 352.988281 298.554688 354.449219 299 354.449219 301.257812 C 354.449219 304.1875 350.164062 312.96875 338.910156 312.96875 C 327.652344 312.96875 322.125 305.203125 322.125 294.394531 Z M 329.789062 291.925781 C 340.046875 291.585938 347.140625 287.535156 347.140625 281.5625 C 347.140625 277.847656 344.542969 275.59375 341.167969 275.59375 C 335.53125 275.59375 330.234375 282.808594 329.789062 291.925781 Z M 367.410156 281.5625 C 370.679688 275.363281 375.300781 269.960938 381.71875 269.960938 C 387.691406 269.960938 390.839844 274.011719 390.839844 279.980469 C 390.839844 285.492188 388.476562 294.058594 388.476562 298.554688 C 388.476562 308.917969 392.867188 308.347656 392.867188 309.699219 C 392.867188 311.28125 391.179688 312.738281 388.707031 312.738281 C 383.300781 312.738281 380.9375 307.335938 380.9375 300.796875 C 380.9375 294.257812 383.300781 287.394531 383.300781 282.4375 C 383.300781 278.277344 381.613281 276.574219 379.585938 276.574219 C 373.273438 276.574219 365.613281 290.082031 365.613281 306.523438 C 365.613281 308.546875 365.71875 309.453125 365.71875 310.464844 C 365.71875 312.386719 365.042969 312.832031 363.800781 312.832031 C 360.757812 312.832031 357.71875 309.898438 357.71875 303.929688 C 357.71875 299.09375 359.746094 286.136719 359.746094 281.410156 C 359.746094 275.667969 357.828125 274.316406 357.828125 272.507812 C 357.828125 271.386719 359.070312 270.925781 360.421875 270.925781 C 364.136719 270.925781 366.734375 275.085938 367.410156 281.515625 Z M 400.53125 296.085938 C 400.53125 296.652344 400.300781 297.203125 400.300781 298.339844 C 400.300781 303.191406 403.570312 307.457031 409.082031 307.457031 C 413.472656 307.457031 416.175781 304.863281 416.175781 301.488281 C 416.175781 292.246094 396.460938 294.394531 396.460938 281.441406 C 396.460938 275.363281 401.296875 269.960938 409.757812 269.960938 C 415.960938 269.960938 421.703125 273.671875 421.703125 278.96875 C 421.703125 281.902344 419.449219 283.695312 417.207031 283.695312 C 416.867188 283.695312 416.300781 283.464844 416.191406 283.023438 C 415.960938 277.511719 411.800781 275.253906 408.761719 275.253906 C 405.71875 275.253906 403.246094 277.386719 403.246094 280.089844 C 403.246094 288.195312 423.300781 286.398438 423.300781 300.027344 C 423.300781 307.351562 417.558594 312.984375 408.207031 312.984375 C 398.855469 312.984375 393.558594 307.582031 393.558594 301.042969 C 393.558594 297.558594 396.261719 295.070312 399.085938 295.070312 C 400.101562 295.070312 400.546875 295.410156 400.546875 296.085938 Z M 424.53125 294.394531 C 424.53125 280.996094 433.542969 269.960938 444.691406 269.960938 C 451.339844 269.960938 456.515625 274.117188 456.515625 280.996094 C 456.515625 292.707031 441.988281 296.085938 432.40625 296.421875 C 433.191406 301.71875 436.015625 306.78125 442.664062 306.78125 C 451.910156 306.78125 454.273438 298.554688 455.164062 298.554688 C 455.394531 298.554688 456.851562 299 456.851562 301.257812 C 456.851562 304.1875 452.570312 312.96875 441.3125 312.96875 C 430.058594 312.96875 424.53125 305.203125 424.53125 294.394531 Z M 432.191406 291.925781 C 442.449219 291.585938 449.542969 287.535156 449.542969 281.5625 C 449.542969 277.847656 446.949219 275.59375 443.570312 275.59375 C 437.933594 275.59375 432.636719 282.808594 432.191406 291.925781 Z M 464.867188 296.085938 C 464.867188 296.652344 464.636719 297.203125 464.636719 298.339844 C 464.636719 303.191406 467.910156 307.457031 473.421875 307.457031 C 477.8125 307.457031 480.515625 304.863281 480.515625 301.488281 C 480.515625 292.246094 460.800781 294.394531 460.800781 281.441406 C 460.800781 275.363281 465.636719 269.960938 474.097656 269.960938 C 480.300781 269.960938 486.042969 273.671875 486.042969 278.96875 C 486.042969 281.902344 483.785156 283.695312 481.542969 283.695312 C 481.207031 283.695312 480.636719 283.464844 480.53125 283.023438 C 480.300781 277.511719 476.140625 275.253906 473.097656 275.253906 C 470.058594 275.253906 467.585938 277.386719 467.585938 280.089844 C 467.585938 288.195312 487.640625 286.398438 487.640625 300.027344 C 487.640625 307.351562 481.898438 312.984375 472.546875 312.984375 C 463.195312 312.984375 457.898438 307.582031 457.898438 301.042969 C 457.898438 297.558594 460.601562 295.070312 463.410156 295.070312 C 464.421875 295.070312 464.867188 295.410156 464.867188 296.085938 Z M 464.867188 296.085938 " fill-opacity="1" fill-rule="nonzero"/><path fill="#ffffff" d="M 199.542969 473.28125 C 199.542969 474.402344 197.964844 476.089844 195.382812 476.089844 C 190.195312 476.089844 187.492188 471.132812 187.492188 464.148438 C 187.492188 457.164062 189.964844 450.300781 189.964844 445.113281 C 189.964844 441.628906 188.613281 439.925781 186.140625 439.925781 C 182.316406 439.925781 178.921875 444.421875 176.558594 450.179688 L 176.558594 450.746094 C 176.558594 456.949219 175.773438 467.632812 174.761719 471.238281 C 174.085938 473.832031 172.964844 475.398438 170.9375 475.398438 C 167.789062 475.398438 166.316406 471.914062 166.316406 468.753906 C 166.316406 465.941406 167.898438 456.59375 169.800781 450.515625 L 169.800781 449.949219 C 169.800781 444.316406 168.449219 439.816406 165.070312 439.816406 C 159.4375 439.816406 152.679688 451.300781 152.679688 468.078125 C 152.679688 471.222656 152.789062 472.695312 152.789062 473.816406 C 152.789062 475.84375 151.882812 476.179688 150.867188 476.179688 C 147.492188 476.179688 144.664062 472.695312 144.664062 467.277344 C 144.664062 462.550781 146.800781 451.175781 146.800781 444.976562 C 146.800781 438.773438 144.878906 437.652344 144.878906 435.964844 C 144.878906 434.722656 146 434.277344 147.246094 434.277344 C 150.960938 434.277344 153.324219 437.992188 154.125 443.179688 C 156.828125 437.882812 160.878906 433.601562 166.746094 433.601562 C 171.707031 433.601562 174.40625 436.75 175.652344 441.9375 C 178.585938 436.761719 182.976562 433.265625 188.273438 433.265625 C 193.234375 433.265625 197.519531 436.410156 197.519531 443.730469 C 197.519531 449.933594 195.152344 457.238281 195.152344 462.875 C 195.152344 471.652344 199.542969 471.652344 199.542969 473.234375 Z M 204.734375 442.996094 C 204.734375 436.6875 203.277344 436.011719 203.277344 435.230469 C 203.277344 434.109375 204.519531 433.308594 206.316406 433.308594 C 210.371094 433.308594 212.84375 436.457031 212.84375 440.738281 C 212.84375 445.023438 210.707031 456.503906 210.707031 462.242188 C 210.707031 472.941406 215.101562 471.820312 215.101562 473.28125 C 215.101562 474.738281 213.640625 476.089844 211.277344 476.089844 C 206.316406 476.089844 203.277344 472.035156 203.277344 463.132812 C 203.277344 458.851562 204.734375 447.261719 204.734375 442.980469 Z M 209.125 426.894531 C 205.75 426.894531 204.398438 424.867188 204.398438 422.273438 C 204.398438 418.667969 206.652344 415.414062 210.261719 415.414062 C 213.195312 415.414062 215.101562 417.332031 215.101562 420.707031 C 215.101562 424.421875 212.058594 426.910156 209.125 426.910156 Z M 223.773438 459.433594 C 223.773438 460.003906 223.546875 460.554688 223.546875 461.691406 C 223.546875 466.542969 226.816406 470.808594 232.328125 470.808594 C 236.71875 470.808594 239.421875 468.214844 239.421875 464.839844 C 239.421875 455.597656 219.707031 457.746094 219.707031 444.792969 C 219.707031 438.714844 224.542969 433.308594 233.003906 433.308594 C 239.207031 433.308594 244.949219 437.023438 244.949219 442.320312 C 244.949219 445.25 242.691406 447.046875 240.449219 447.046875 C 240.113281 447.046875 239.546875 446.816406 239.4375 446.371094 C 239.207031 440.863281 235.046875 438.605469 232.003906 438.605469 C 228.964844 438.605469 226.492188 440.738281 226.492188 443.441406 C 226.492188 451.546875 246.546875 449.75 246.546875 463.378906 C 246.546875 470.703125 240.804688 476.335938 231.453125 476.335938 C 222.101562 476.335938 216.804688 470.933594 216.804688 464.394531 C 216.804688 460.910156 219.507812 458.421875 222.332031 458.421875 C 223.34375 458.421875 223.789062 458.757812 223.789062 459.433594 Z M 255.4375 456.503906 C 255.4375 464.164062 259.261719 470.242188 266.03125 470.242188 C 274.816406 470.242188 277.75 461.90625 278.425781 461.90625 C 278.761719 461.90625 280.007812 462.582031 280.007812 464.609375 C 280.007812 467.539062 275.84375 476.320312 264.574219 476.320312 C 253.304688 476.320312 247.789062 467.984375 247.789062 457.625 C 247.789062 442.871094 258.386719 433.292969 268.289062 433.292969 C 275.382812 433.292969 280.238281 437.453125 280.238281 442.535156 C 280.238281 445.574219 277.640625 447.9375 275.167969 447.9375 C 274.722656 447.9375 274.046875 447.601562 274.046875 447.03125 C 273.816406 441.84375 270.902344 439.144531 267.398438 439.144531 C 260.859375 439.144531 255.453125 446.695312 255.453125 456.488281 Z M 281.128906 457.746094 C 281.128906 444.347656 290.140625 433.308594 301.289062 433.308594 C 307.9375 433.308594 313.113281 437.46875 313.113281 444.347656 C 313.113281 456.058594 298.585938 459.433594 289.003906 459.773438 C 289.789062 465.066406 292.613281 470.132812 299.261719 470.132812 C 308.503906 470.132812 310.871094 461.90625 311.761719 461.90625 C 311.992188 461.90625 313.449219 462.351562 313.449219 464.609375 C 313.449219 467.539062 309.164062 476.320312 297.910156 476.320312 C 286.65625 476.320312 281.128906 468.550781 281.128906 457.746094 Z M 288.789062 455.273438 C 299.046875 454.9375 306.140625 450.886719 306.140625 444.914062 C 306.140625 441.199219 303.546875 438.941406 300.167969 438.941406 C 294.53125 438.941406 289.234375 446.15625 288.789062 455.273438 Z M 329.804688 473.066406 C 329.804688 474.753906 328.113281 476.105469 325.640625 476.105469 C 321.019531 476.105469 317.074219 471.945312 317.074219 461.796875 C 317.074219 449.410156 319.667969 439.496094 319.667969 424.53125 C 319.667969 411.804688 317.640625 410.007812 317.640625 408.996094 C 317.640625 407.875 318.886719 407.078125 320.574219 407.078125 C 325.410156 407.078125 328.574219 410.222656 328.574219 416.871094 C 328.574219 429.59375 324.628906 444.683594 324.628906 459.433594 C 324.628906 472.605469 329.804688 471.378906 329.804688 473.066406 Z M 345.679688 473.066406 C 345.679688 474.753906 343.992188 476.105469 341.519531 476.105469 C 336.898438 476.105469 332.953125 471.945312 332.953125 461.796875 C 332.953125 449.410156 335.546875 439.496094 335.546875 424.53125 C 335.546875 411.804688 333.519531 410.007812 333.519531 408.996094 C 333.519531 407.875 334.761719 407.078125 336.453125 407.078125 C 341.289062 407.078125 344.453125 410.222656 344.453125 416.871094 C 344.453125 429.59375 340.507812 444.683594 340.507812 459.433594 C 340.507812 472.605469 345.679688 471.378906 345.679688 473.066406 Z M 371.816406 469.121094 C 369.679688 472.957031 365.964844 476.105469 360.207031 476.105469 C 353.449219 476.105469 346.464844 471.375 346.464844 459.328125 C 346.464844 445.359375 355.585938 433.308594 366.625 433.308594 C 372.492188 433.308594 377.558594 436.6875 377.558594 442.996094 C 377.558594 444.238281 377.328125 445.25 377.113281 446.035156 C 378.695312 446.140625 379.476562 447.15625 379.476562 450.425781 C 379.476562 454.371094 378.355469 456.949219 378.355469 461.796875 C 378.355469 472.390625 383.65625 471.375 383.65625 473.171875 C 383.65625 474.417969 382.304688 475.644531 379.9375 475.644531 C 375.882812 475.644531 373.058594 473.050781 371.832031 469.105469 Z M 371.816406 450.210938 C 370.695312 450.210938 369.894531 449.535156 369.894531 448.628906 C 369.894531 447.722656 370.910156 446.710938 370.910156 444.007812 C 370.910156 440.632812 368.773438 438.941406 366.074219 438.941406 C 359.761719 438.941406 354.019531 447.847656 354.019531 457.871094 C 354.019531 465.972656 357.734375 470.027344 361.910156 470.027344 C 366.871094 470.027344 371.371094 464.625 371.832031 450.210938 Z M 395.355469 444.914062 C 398.625 438.714844 403.246094 433.308594 409.667969 433.308594 C 415.640625 433.308594 418.789062 437.363281 418.789062 443.332031 C 418.789062 448.84375 416.421875 457.410156 416.421875 461.90625 C 416.421875 472.265625 420.8125 471.699219 420.8125 473.050781 C 420.8125 474.632812 419.125 476.089844 416.652344 476.089844 C 411.246094 476.089844 408.882812 470.6875 408.882812 464.148438 C 408.882812 457.609375 411.246094 450.746094 411.246094 445.789062 C 411.246094 441.628906 409.558594 439.925781 407.53125 439.925781 C 401.222656 439.925781 393.558594 453.433594 393.558594 469.871094 C 393.558594 471.898438 393.667969 472.804688 393.667969 473.816406 C 393.667969 475.734375 392.992188 476.179688 391.746094 476.179688 C 388.707031 476.179688 385.664062 473.25 385.664062 467.277344 C 385.664062 462.445312 387.691406 449.488281 387.691406 444.761719 C 387.691406 439.019531 385.773438 437.667969 385.773438 435.859375 C 385.773438 434.738281 387.015625 434.277344 388.367188 434.277344 C 392.085938 434.277344 394.679688 438.4375 395.355469 444.867188 Z M 421.613281 457.746094 C 421.613281 444.347656 430.625 433.308594 441.773438 433.308594 C 448.421875 433.308594 453.597656 437.46875 453.597656 444.347656 C 453.597656 456.058594 439.070312 459.433594 429.488281 459.773438 C 430.273438 465.066406 433.097656 470.132812 439.746094 470.132812 C 448.992188 470.132812 451.355469 461.90625 452.246094 461.90625 C 452.476562 461.90625 453.933594 462.351562 453.933594 464.609375 C 453.933594 467.539062 449.652344 476.320312 438.394531 476.320312 C 427.140625 476.320312 421.613281 468.550781 421.613281 457.746094 Z M 429.273438 455.273438 C 439.53125 454.9375 446.625 450.886719 446.625 444.914062 C 446.625 441.199219 444.03125 438.941406 440.652344 438.941406 C 435.019531 438.941406 429.71875 446.15625 429.273438 455.273438 Z M 481.542969 436.027344 C 485.9375 437.714844 489.652344 443.6875 489.652344 452.128906 C 489.652344 466.433594 482.328125 476.457031 471.179688 476.457031 C 461.933594 476.457031 455.070312 469.242188 455.070312 457.65625 C 455.070312 443.6875 464.085938 433.324219 474.003906 433.324219 C 477.046875 433.324219 479.871094 434.230469 481.558594 436.027344 Z M 480.761719 443.457031 C 480.316406 443.6875 479.746094 443.792969 479.300781 443.792969 C 477.84375 443.792969 478.289062 438.726562 473.558594 438.726562 C 467.925781 438.726562 463.085938 447.0625 463.085938 456.75 C 463.085938 464.300781 466.574219 470.378906 472.546875 470.378906 C 478.519531 470.378906 482.804688 463.394531 482.804688 453.371094 C 482.804688 449.550781 482.019531 446.15625 480.777344 443.457031 Z M 517.367188 440.078125 C 518.382812 435.6875 520.070312 434.230469 521.421875 434.230469 C 524.015625 434.230469 526.257812 437.378906 526.257812 443.132812 C 526.257812 451.46875 523.449219 458.453125 523.449219 458.453125 C 523.554688 470.945312 529.300781 472.421875 529.300781 473.773438 C 529.300781 474.890625 527.839844 475.796875 525.8125 475.796875 C 522.433594 475.796875 519.394531 473.878906 517.707031 468.367188 C 515.003906 472.527344 510.828125 476.242188 505.421875 476.242188 C 496.636719 476.242188 493.261719 470.730469 493.261719 462.949219 C 493.261719 457.992188 495.058594 449.65625 495.058594 444.820312 C 495.058594 438.511719 492.921875 436.933594 492.921875 436.148438 C 492.921875 435.136719 494.042969 434.230469 495.855469 434.230469 C 500.921875 434.230469 503.074219 438.511719 503.074219 442.796875 C 503.074219 447.417969 500.816406 455.859375 500.816406 461.597656 C 500.816406 466.328125 502.503906 470.042969 506.894531 470.042969 C 510.503906 470.042969 514.449219 466.558594 516.476562 461.03125 C 516.371094 459.449219 516.371094 457.761719 516.371094 455.84375 C 516.371094 448.414062 516.707031 443.457031 517.382812 440.078125 Z M 536.640625 459.449219 C 536.640625 460.019531 536.410156 460.570312 536.410156 461.707031 C 536.410156 466.558594 539.679688 470.824219 545.191406 470.824219 C 549.582031 470.824219 552.285156 468.230469 552.285156 464.851562 C 552.285156 455.613281 532.570312 457.761719 532.570312 444.808594 C 532.570312 438.726562 537.40625 433.324219 545.867188 433.324219 C 552.070312 433.324219 557.8125 437.039062 557.8125 442.335938 C 557.8125 445.265625 555.554688 447.0625 553.316406 447.0625 C 552.976562 447.0625 552.410156 446.832031 552.300781 446.386719 C 552.070312 440.878906 547.910156 438.621094 544.871094 438.621094 C 541.828125 438.621094 539.355469 440.753906 539.355469 443.457031 C 539.355469 451.5625 559.410156 449.765625 559.410156 463.394531 C 559.410156 470.71875 553.667969 476.351562 544.316406 476.351562 C 534.964844 476.351562 529.667969 470.945312 529.667969 464.40625 C 529.667969 460.925781 532.371094 458.4375 535.179688 458.4375 C 536.195312 458.4375 536.640625 458.773438 536.640625 459.449219 Z M 536.640625 459.449219 " fill-opacity="1" fill-rule="nonzero"/><path fill="#ffffff" d="M 320.988281 637.445312 C 320.988281 638.566406 319.40625 640.253906 316.828125 640.253906 C 311.636719 640.253906 308.9375 635.296875 308.9375 628.3125 C 308.9375 621.328125 311.40625 614.464844 311.40625 609.277344 C 311.40625 605.792969 310.054688 604.089844 307.585938 604.089844 C 303.761719 604.089844 300.367188 608.585938 298.003906 614.34375 L 298.003906 614.910156 C 298.003906 621.113281 297.21875 631.796875 296.207031 635.402344 C 295.53125 637.996094 294.410156 639.5625 292.382812 639.5625 C 289.234375 639.5625 287.761719 636.078125 287.761719 632.917969 C 287.761719 630.109375 289.34375 620.757812 291.246094 614.679688 L 291.246094 614.113281 C 291.246094 608.480469 289.894531 603.984375 286.515625 603.984375 C 280.882812 603.984375 274.125 615.464844 274.125 632.242188 C 274.125 635.386719 274.234375 636.863281 274.234375 637.980469 C 274.234375 640.007812 273.328125 640.347656 272.3125 640.347656 C 268.933594 640.347656 266.109375 636.863281 266.109375 631.441406 C 266.109375 626.714844 268.246094 615.339844 268.246094 609.140625 C 268.246094 602.9375 266.324219 601.816406 266.324219 600.128906 C 266.324219 598.886719 267.445312 598.441406 268.691406 598.441406 C 272.40625 598.441406 274.769531 602.15625 275.570312 607.34375 C 278.269531 602.046875 282.324219 597.765625 288.191406 597.765625 C 293.148438 597.765625 295.851562 600.914062 297.097656 606.101562 C 300.03125 600.929688 304.421875 597.429688 309.71875 597.429688 C 314.679688 597.429688 318.960938 600.574219 318.960938 607.898438 C 318.960938 614.097656 316.597656 621.40625 316.597656 627.039062 C 316.597656 635.816406 320.988281 635.816406 320.988281 637.398438 Z M 321.789062 621.910156 C 321.789062 608.511719 330.800781 597.472656 341.949219 597.472656 C 348.597656 597.472656 353.773438 601.632812 353.773438 608.511719 C 353.773438 620.222656 339.246094 623.597656 329.664062 623.9375 C 330.449219 629.234375 333.273438 634.296875 339.921875 634.296875 C 349.167969 634.296875 351.53125 626.070312 352.421875 626.070312 C 352.652344 626.070312 354.109375 626.515625 354.109375 628.773438 C 354.109375 631.703125 349.828125 640.484375 338.570312 640.484375 C 327.316406 640.484375 321.789062 632.71875 321.789062 621.910156 Z M 329.449219 619.441406 C 339.707031 619.101562 346.800781 615.050781 346.800781 609.078125 C 346.800781 605.363281 344.207031 603.109375 340.828125 603.109375 C 335.191406 603.109375 329.894531 610.320312 329.449219 619.441406 Z M 380.707031 633.285156 C 378.570312 637.121094 374.855469 640.269531 369.097656 640.269531 C 362.339844 640.269531 355.355469 635.542969 355.355469 623.492188 C 355.355469 609.523438 364.476562 597.472656 375.515625 597.472656 C 381.367188 597.472656 386.449219 600.851562 386.449219 607.160156 C 386.449219 608.402344 386.21875 609.417969 386.003906 610.199219 C 387.585938 610.304688 388.367188 611.320312 388.367188 614.589844 C 388.367188 618.535156 387.246094 621.113281 387.246094 625.964844 C 387.246094 636.554688 392.546875 635.542969 392.546875 637.335938 C 392.546875 638.582031 391.195312 639.808594 388.828125 639.808594 C 384.773438 639.808594 381.949219 637.214844 380.722656 633.269531 Z M 380.707031 614.375 C 379.585938 614.375 378.785156 613.699219 378.785156 612.792969 C 378.785156 611.886719 379.800781 610.875 379.800781 608.171875 C 379.800781 604.796875 377.664062 603.109375 374.964844 603.109375 C 368.652344 603.109375 362.910156 612.011719 362.910156 622.035156 C 362.910156 630.136719 366.625 634.191406 370.800781 634.191406 C 375.761719 634.191406 380.261719 628.789062 380.722656 614.375 Z M 407.625 637.230469 C 407.625 638.917969 405.933594 640.269531 403.460938 640.269531 C 398.839844 640.269531 394.894531 636.109375 394.894531 625.964844 C 394.894531 613.574219 397.488281 603.660156 397.488281 588.695312 C 397.488281 575.96875 395.460938 574.171875 395.460938 573.160156 C 395.460938 572.039062 396.707031 571.242188 398.394531 571.242188 C 403.230469 571.242188 406.394531 574.386719 406.394531 581.035156 C 406.394531 593.757812 402.449219 608.847656 402.449219 623.597656 C 402.449219 636.769531 407.625 635.542969 407.625 637.230469 Z M 415.179688 623.597656 C 415.179688 624.167969 414.949219 624.71875 414.949219 625.855469 C 414.949219 630.707031 418.21875 634.972656 423.730469 634.972656 C 428.125 634.972656 430.824219 632.378906 430.824219 629.003906 C 430.824219 619.761719 411.109375 621.910156 411.109375 608.957031 C 411.109375 602.878906 415.945312 597.472656 424.40625 597.472656 C 430.609375 597.472656 436.355469 601.1875 436.355469 606.484375 C 436.355469 609.417969 434.097656 611.210938 431.855469 611.210938 C 431.515625 611.210938 430.949219 610.980469 430.839844 610.535156 C 430.609375 605.027344 426.449219 602.769531 423.410156 602.769531 C 420.367188 602.769531 417.898438 604.902344 417.898438 607.605469 C 417.898438 615.710938 437.949219 613.914062 437.949219 627.542969 C 437.949219 634.867188 432.207031 640.5 422.855469 640.5 C 413.503906 640.5 408.207031 635.097656 408.207031 628.558594 C 408.207031 625.074219 410.910156 622.585938 413.734375 622.585938 C 414.75 622.585938 415.195312 622.925781 415.195312 623.597656 Z M 415.179688 623.597656 " fill-opacity="1" fill-rule="nonzero"/></svg>