<svg xmlns="http://www.w3.org/2000/svg" xmlns:xlink="http://www.w3.org/1999/xlink" width="1000" zoomAndPan="magnify" viewBox="0 0 750 749.999995" height="1000" preserveAspectRatio="xMidYMid meet" version="1.0"><defs><clipPath id="f132168270"><path d="M 256 555.765625 L 455.632812 555.765625 L 455.632812 615.597656 L 256 615.597656 Z M 256 555.765625 " clip-rule="nonzero"/></clipPath><clipPath id="d18c83fb90"><path d="M 529 120 L 675.257812 120 L 675.257812 280 L 529 280 Z M 529 120 " clip-rule="nonzero"/></clipPath></defs><path fill="#0150ac" d="M 452.132812 511.03125 C 454.808594 509.785156 457.550781 508.679688 460.144531 507.265625 L 469.410156 525.859375 C 466.550781 527.40625 463.535156 528.644531 460.585938 530.011719 L 452.132812 511.03125 " fill-opacity="1" fill-rule="nonzero"/><path fill="#0150ac" d="M 462.871094 505.867188 C 464.179688 505.1875 465.503906 504.539062 466.804688 503.84375 L 470.640625 501.636719 L 480.976562 519.65625 L 476.746094 522.085938 C 475.316406 522.851562 473.859375 523.574219 472.417969 524.320312 L 462.871094 505.867188 " fill-opacity="1" fill-rule="nonzero"/><path fill="#0150ac" d="M 473.300781 500.105469 L 475.21875 499.003906 L 477.082031 497.804688 L 480.808594 495.414062 L 492.171875 512.808594 L 488.066406 515.441406 L 486.015625 516.753906 L 483.902344 517.96875 L 473.300781 500.105469 " fill-opacity="1" fill-rule="nonzero"/><path fill="#0150ac" d="M 483.390625 493.765625 L 490.613281 488.636719 L 502.964844 505.339844 L 495.011719 510.988281 L 483.390625 493.765625 " fill-opacity="1" fill-rule="nonzero"/><path fill="#60e6ff" d="M 368.660156 528.761719 L 377.527344 528.53125 L 378.40625 549.285156 L 368.660156 549.53125 L 368.660156 528.761719 " fill-opacity="1" fill-rule="nonzero"/><path fill="#60e6ff" d="M 380.589844 528.386719 L 389.425781 527.714844 L 391.5 548.386719 L 381.773438 549.128906 L 380.589844 528.386719 " fill-opacity="1" fill-rule="nonzero"/><path fill="#60e6ff" d="M 392.464844 527.339844 L 396.859375 526.78125 C 398.324219 526.578125 399.800781 526.460938 401.242188 526.160156 L 404.511719 546.675781 C 402.917969 546.996094 401.292969 547.140625 399.683594 547.363281 L 394.851562 547.980469 L 392.464844 527.339844 " fill-opacity="1" fill-rule="nonzero"/><path fill="#60e6ff" d="M 404.257812 525.617188 C 407.160156 525.082031 410.085938 524.65625 412.945312 523.917969 L 417.402344 544.210938 C 414.25 545.011719 411.03125 545.492188 407.835938 546.082031 L 404.257812 525.617188 " fill-opacity="1" fill-rule="nonzero"/><path fill="#0150ac" d="M 493.058594 486.785156 L 496.539062 484.050781 L 498.285156 482.679688 C 498.867188 482.230469 499.453125 481.777344 500 481.28125 L 513.292969 497.25 C 512.6875 497.789062 512.046875 498.289062 511.402344 498.789062 L 509.488281 500.292969 L 505.65625 503.304688 L 493.058594 486.785156 " fill-opacity="1" fill-rule="nonzero"/><path fill="#0150ac" d="M 502.3125 479.269531 C 504.535156 477.324219 506.824219 475.457031 508.917969 473.363281 L 523.109375 488.535156 C 520.800781 490.832031 518.292969 492.898438 515.84375 495.039062 L 502.3125 479.269531 " fill-opacity="1" fill-rule="nonzero"/><path fill="#0150ac" d="M 511.136719 471.253906 C 512.199219 470.222656 513.296875 469.238281 514.324219 468.179688 L 517.382812 464.96875 L 542.554688 488.945312 L 538.976562 492.683594 C 537.773438 493.917969 536.496094 495.078125 535.257812 496.28125 L 511.136719 471.253906 " fill-opacity="1" fill-rule="nonzero"/><path fill="#36b7f8" d="M 519.5 462.75 C 520.003906 462.210938 520.539062 461.699219 521.011719 461.132812 L 522.460938 459.457031 L 525.363281 456.109375 L 541.207031 469.546875 L 538.019531 473.234375 L 536.421875 475.074219 C 535.890625 475.691406 535.308594 476.261719 534.753906 476.855469 L 519.5 462.75 " fill-opacity="1" fill-rule="nonzero"/><path fill="#36b7f8" d="M 527.363281 453.785156 L 532.835938 446.824219 L 549.433594 459.324219 L 543.40625 466.992188 L 527.363281 453.785156 " fill-opacity="1" fill-rule="nonzero"/><path fill="#36b7f8" d="M 534.640625 444.34375 L 537.207031 440.730469 C 538.050781 439.519531 538.957031 438.355469 539.722656 437.089844 L 557.015625 448.609375 C 556.167969 450 555.175781 451.292969 554.246094 452.621094 L 551.421875 456.597656 L 534.640625 444.34375 " fill-opacity="1" fill-rule="nonzero"/><path fill="#36b7f8" d="M 541.375 434.511719 L 543.765625 430.785156 L 544.363281 429.851562 L 544.914062 428.894531 L 546.015625 426.972656 L 563.945312 437.46875 L 562.734375 439.582031 L 562.125 440.640625 L 561.46875 441.664062 L 558.835938 445.769531 L 541.375 434.511719 " fill-opacity="1" fill-rule="nonzero"/><path fill="#36b7f8" d="M 547.546875 424.3125 L 548.652344 422.398438 C 549.019531 421.761719 549.394531 421.125 549.71875 420.460938 L 551.730469 416.519531 L 570.246094 425.957031 L 568.019531 430.296875 C 567.664062 431.023438 567.25 431.726562 566.84375 432.433594 L 565.632812 434.542969 L 547.546875 424.3125 " fill-opacity="1" fill-rule="nonzero"/><path fill="#36b7f8" d="M 553.128906 413.792969 C 553.835938 412.496094 554.410156 411.132812 555.023438 409.792969 L 556.847656 405.761719 L 575.875 414.105469 L 573.867188 418.546875 C 573.191406 420.023438 572.554688 421.523438 571.785156 422.953125 L 553.128906 413.792969 " fill-opacity="1" fill-rule="nonzero"/><path fill="#36b7f8" d="M 558.09375 402.960938 L 561.339844 394.726562 L 580.828125 401.949219 L 577.25 411.019531 L 558.09375 402.960938 " fill-opacity="1" fill-rule="nonzero"/><path fill="#36b7f8" d="M 562.355469 391.839844 L 563.773438 387.648438 L 564.488281 385.554688 L 564.84375 384.507812 L 565.144531 383.445312 L 585.019531 389.511719 L 584.683594 390.683594 L 584.289062 391.839844 L 581.949219 398.765625 L 562.355469 391.839844 " fill-opacity="1" fill-rule="nonzero"/><path fill="#36b7f8" d="M 565.976562 380.492188 C 566.761719 377.652344 567.667969 374.84375 568.261719 371.949219 L 588.453125 376.84375 C 587.792969 380.027344 586.808594 383.132812 585.941406 386.265625 L 565.976562 380.492188 " fill-opacity="1" fill-rule="nonzero"/><path fill="#36b7f8" d="M 568.949219 368.964844 L 569.945312 364.652344 L 570.714844 360.292969 L 591.164062 364.003906 L 590.300781 368.804688 L 589.214844 373.558594 L 568.949219 368.964844 " fill-opacity="1" fill-rule="nonzero"/><path fill="#0150ac" d="M 180.953125 406.820312 C 182.195312 409.496094 183.304688 412.234375 184.71875 414.828125 L 166.121094 424.09375 C 164.578125 421.234375 163.335938 418.222656 161.972656 415.273438 L 180.953125 406.820312 " fill-opacity="1" fill-rule="nonzero"/><path fill="#0150ac" d="M 186.117188 417.558594 C 186.792969 418.863281 187.449219 420.1875 188.144531 421.488281 L 190.351562 425.324219 L 172.328125 435.660156 L 169.894531 431.429688 C 169.128906 430 168.410156 428.542969 167.664062 427.097656 L 186.117188 417.558594 " fill-opacity="1" fill-rule="nonzero"/><path fill="#0150ac" d="M 191.882812 427.984375 L 192.984375 429.902344 L 196.570312 435.492188 L 179.171875 446.851562 L 176.542969 442.746094 L 175.230469 440.691406 L 174.007812 438.582031 L 191.882812 427.984375 " fill-opacity="1" fill-rule="nonzero"/><path fill="#0150ac" d="M 198.222656 438.074219 L 203.351562 445.296875 L 186.640625 457.640625 L 180.996094 449.691406 L 198.222656 438.074219 " fill-opacity="1" fill-rule="nonzero"/><path fill="#60e6ff" d="M 163.222656 323.363281 L 163.445312 332.222656 L 142.6875 333.105469 L 142.441406 323.363281 L 163.222656 323.363281 " fill-opacity="1" fill-rule="nonzero"/><path fill="#60e6ff" d="M 163.59375 335.289062 L 164.265625 344.125 L 143.585938 346.199219 L 142.847656 336.476562 L 163.59375 335.289062 " fill-opacity="1" fill-rule="nonzero"/><path fill="#60e6ff" d="M 164.640625 347.167969 L 165.199219 351.558594 C 165.402344 353.019531 165.519531 354.492188 165.816406 355.941406 L 145.296875 359.210938 C 144.976562 357.617188 144.835938 355.992188 144.613281 354.382812 L 144 349.546875 L 164.640625 347.167969 " fill-opacity="1" fill-rule="nonzero"/><path fill="#60e6ff" d="M 166.359375 358.957031 C 166.902344 361.859375 167.328125 364.78125 168.058594 367.640625 L 147.769531 372.097656 C 146.964844 368.945312 146.480469 365.730469 145.890625 362.53125 L 166.359375 358.957031 " fill-opacity="1" fill-rule="nonzero"/><path fill="#0150ac" d="M 205.203125 447.738281 L 207.941406 451.21875 L 209.308594 452.964844 C 209.761719 453.542969 210.210938 454.125 210.710938 454.675781 L 194.742188 467.96875 C 194.195312 467.363281 193.695312 466.722656 193.199219 466.082031 L 191.6875 464.164062 L 188.679688 460.332031 L 205.203125 447.738281 " fill-opacity="1" fill-rule="nonzero"/><path fill="#0150ac" d="M 212.71875 456.992188 C 214.667969 459.210938 216.535156 461.5 218.625 463.59375 L 203.449219 477.785156 C 201.15625 475.476562 199.089844 472.960938 196.949219 470.519531 L 212.71875 456.992188 " fill-opacity="1" fill-rule="nonzero"/><path fill="#0150ac" d="M 220.742188 465.8125 C 221.769531 466.871094 222.757812 467.972656 223.816406 469 L 227.027344 472.058594 L 203.046875 497.21875 L 199.304688 493.648438 C 198.070312 492.445312 196.90625 491.164062 195.707031 489.929688 L 220.742188 465.8125 " fill-opacity="1" fill-rule="nonzero"/><path fill="#007ed5" d="M 229.242188 474.175781 C 229.785156 474.675781 230.296875 475.207031 230.859375 475.6875 L 232.535156 477.132812 L 235.882812 480.035156 L 222.441406 495.878906 L 218.757812 492.6875 L 216.914062 491.089844 C 216.296875 490.5625 215.730469 489.976562 215.136719 489.425781 L 229.242188 474.175781 " fill-opacity="1" fill-rule="nonzero"/><path fill="#007ed5" d="M 238.210938 482.03125 L 245.175781 487.507812 L 232.671875 504.101562 L 225.003906 498.078125 L 238.210938 482.03125 " fill-opacity="1" fill-rule="nonzero"/><path fill="#007ed5" d="M 247.652344 489.3125 L 251.265625 491.875 C 252.476562 492.71875 253.644531 493.628906 254.910156 494.394531 L 243.382812 511.675781 C 241.996094 510.835938 240.707031 509.839844 239.371094 508.914062 L 235.398438 506.089844 L 247.652344 489.3125 " fill-opacity="1" fill-rule="nonzero"/><path fill="#007ed5" d="M 257.492188 496.042969 L 261.21875 498.4375 L 262.148438 499.035156 L 265.03125 500.6875 L 254.53125 518.613281 L 252.414062 517.394531 L 251.359375 516.789062 L 250.328125 516.132812 L 246.222656 513.503906 L 257.492188 496.042969 " fill-opacity="1" fill-rule="nonzero"/><path fill="#007ed5" d="M 267.683594 502.214844 L 269.605469 503.320312 C 270.242188 503.691406 270.878906 504.0625 271.546875 504.382812 L 275.488281 506.398438 L 266.046875 524.90625 L 261.707031 522.683594 C 260.972656 522.324219 260.269531 521.917969 259.570312 521.511719 L 257.453125 520.292969 L 267.683594 502.214844 " fill-opacity="1" fill-rule="nonzero"/><path fill="#007ed5" d="M 278.210938 507.796875 C 279.511719 508.503906 280.871094 509.078125 282.210938 509.683594 L 286.246094 511.511719 L 277.902344 530.539062 L 273.457031 528.53125 C 271.976562 527.855469 270.480469 527.214844 269.050781 526.441406 L 278.210938 507.796875 " fill-opacity="1" fill-rule="nonzero"/><path fill="#007ed5" d="M 289.042969 512.761719 L 297.277344 516.007812 L 290.058594 535.484375 L 280.984375 531.90625 L 289.042969 512.761719 " fill-opacity="1" fill-rule="nonzero"/><path fill="#007ed5" d="M 300.164062 517.023438 L 304.363281 518.441406 L 306.457031 519.148438 L 307.5 519.507812 L 308.566406 519.808594 L 302.492188 539.679688 L 301.324219 539.34375 L 300.171875 538.953125 L 297.863281 538.171875 L 293.238281 536.605469 L 300.164062 517.023438 " fill-opacity="1" fill-rule="nonzero"/><path fill="#007ed5" d="M 311.511719 520.644531 C 314.359375 521.421875 317.171875 522.332031 320.0625 522.925781 L 315.164062 543.113281 C 311.976562 542.453125 308.875 541.464844 305.742188 540.605469 L 311.511719 520.644531 " fill-opacity="1" fill-rule="nonzero"/><path fill="#007ed5" d="M 323.046875 523.613281 L 327.359375 524.609375 L 331.71875 525.378906 L 328.003906 545.820312 L 323.207031 544.960938 L 318.453125 543.875 L 323.046875 523.613281 " fill-opacity="1" fill-rule="nonzero"/><path fill="#0150ac" d="M 285.1875 135.691406 C 282.507812 136.9375 279.769531 138.042969 277.179688 139.460938 L 267.90625 120.863281 C 270.769531 119.316406 273.777344 118.082031 276.726562 116.71875 L 285.1875 135.691406 " fill-opacity="1" fill-rule="nonzero"/><path fill="#0150ac" d="M 274.449219 140.855469 C 273.140625 141.535156 271.8125 142.1875 270.511719 142.878906 L 266.671875 145.09375 L 256.339844 127.066406 L 260.570312 124.640625 C 262.003906 123.871094 263.460938 123.148438 264.902344 122.402344 L 274.449219 140.855469 " fill-opacity="1" fill-rule="nonzero"/><path fill="#0150ac" d="M 264.019531 146.621094 L 262.097656 147.722656 L 256.507812 151.308594 L 245.148438 133.914062 L 249.25 131.285156 L 251.300781 129.96875 L 253.414062 128.753906 L 264.019531 146.621094 " fill-opacity="1" fill-rule="nonzero"/><path fill="#0150ac" d="M 253.925781 152.960938 L 246.703125 158.089844 L 234.355469 141.382812 L 242.304688 135.738281 L 253.925781 152.960938 " fill-opacity="1" fill-rule="nonzero"/><path fill="#60e6ff" d="M 368.660156 117.96875 L 359.792969 118.191406 L 358.910156 97.4375 L 368.660156 97.191406 L 368.660156 117.96875 " fill-opacity="1" fill-rule="nonzero"/><path fill="#60e6ff" d="M 356.726562 118.335938 L 347.894531 119.007812 L 345.820312 98.335938 L 355.542969 97.597656 L 356.726562 118.335938 " fill-opacity="1" fill-rule="nonzero"/><path fill="#60e6ff" d="M 344.847656 119.386719 L 340.457031 119.945312 C 338.996094 120.148438 337.519531 120.265625 336.078125 120.5625 L 332.804688 100.046875 C 334.402344 99.726562 336.023438 99.582031 337.632812 99.363281 L 342.46875 98.75 L 344.847656 119.386719 " fill-opacity="1" fill-rule="nonzero"/><path fill="#60e6ff" d="M 333.058594 121.105469 C 330.15625 121.644531 327.230469 122.066406 324.375 122.804688 L 319.914062 102.511719 C 323.066406 101.714844 326.285156 101.230469 329.480469 100.640625 L 333.058594 121.105469 " fill-opacity="1" fill-rule="nonzero"/><path fill="#0150ac" d="M 244.261719 159.941406 L 240.777344 162.679688 L 239.035156 164.042969 C 238.449219 164.5 237.867188 164.949219 237.320312 165.441406 L 224.027344 149.480469 C 224.628906 148.933594 225.273438 148.4375 225.910156 147.9375 L 227.824219 146.429688 L 231.664062 143.417969 L 244.261719 159.941406 " fill-opacity="1" fill-rule="nonzero"/><path fill="#0150ac" d="M 235 167.453125 C 232.785156 169.402344 230.488281 171.269531 228.402344 173.359375 L 214.207031 158.1875 C 216.515625 155.894531 219.027344 153.828125 221.472656 151.6875 L 235 167.453125 " fill-opacity="1" fill-rule="nonzero"/><path fill="#0150ac" d="M 226.183594 175.476562 C 225.121094 176.5 224.019531 177.488281 222.992188 178.550781 L 219.9375 181.757812 L 194.765625 157.785156 L 198.34375 154.039062 C 199.546875 152.804688 200.820312 151.644531 202.058594 150.441406 L 226.183594 175.476562 " fill-opacity="1" fill-rule="nonzero"/><path fill="#36b7f8" d="M 217.820312 183.972656 C 217.316406 184.515625 216.78125 185.023438 216.304688 185.589844 L 214.855469 187.265625 L 211.957031 190.613281 L 196.109375 177.175781 L 199.300781 173.492188 L 200.894531 171.648438 C 201.421875 171.03125 202.011719 170.464844 202.5625 169.867188 L 217.820312 183.972656 " fill-opacity="1" fill-rule="nonzero"/><path fill="#36b7f8" d="M 209.953125 192.9375 L 204.484375 199.90625 L 187.886719 187.402344 L 193.910156 179.734375 L 209.953125 192.9375 " fill-opacity="1" fill-rule="nonzero"/><path fill="#36b7f8" d="M 202.679688 202.382812 L 200.109375 205.992188 C 199.265625 207.203125 198.363281 208.371094 197.59375 209.636719 L 180.304688 198.113281 C 181.152344 196.726562 182.144531 195.4375 183.070312 194.101562 L 185.898438 190.128906 L 202.679688 202.382812 " fill-opacity="1" fill-rule="nonzero"/><path fill="#36b7f8" d="M 195.941406 212.21875 L 193.546875 215.945312 L 192.949219 216.871094 L 192.402344 217.835938 L 191.300781 219.75 L 173.371094 209.253906 L 174.582031 207.140625 L 175.191406 206.082031 L 175.851562 205.058594 L 178.484375 200.953125 L 195.941406 212.21875 " fill-opacity="1" fill-rule="nonzero"/><path fill="#36b7f8" d="M 189.773438 222.410156 L 188.667969 224.324219 C 188.292969 224.964844 187.925781 225.601562 187.601562 226.265625 L 185.585938 230.207031 L 167.074219 220.765625 L 169.300781 216.425781 C 169.65625 215.699219 170.0625 214.996094 170.472656 214.292969 L 171.6875 212.179688 L 189.773438 222.410156 " fill-opacity="1" fill-rule="nonzero"/><path fill="#36b7f8" d="M 184.1875 232.9375 C 183.484375 234.234375 182.902344 235.59375 182.296875 236.933594 L 180.472656 240.96875 L 161.445312 232.621094 L 163.453125 228.179688 C 164.128906 226.699219 164.765625 225.207031 165.535156 223.773438 L 184.1875 232.9375 " fill-opacity="1" fill-rule="nonzero"/><path fill="#36b7f8" d="M 179.226562 243.765625 L 175.976562 251.996094 L 156.492188 244.773438 L 160.070312 235.703125 L 179.226562 243.765625 " fill-opacity="1" fill-rule="nonzero"/><path fill="#36b7f8" d="M 174.960938 254.882812 L 173.542969 259.074219 L 172.832031 261.171875 L 172.476562 262.214844 L 172.175781 263.28125 L 152.300781 257.210938 L 152.636719 256.042969 L 153.023438 254.890625 L 153.808594 252.574219 L 155.371094 247.960938 L 174.960938 254.882812 " fill-opacity="1" fill-rule="nonzero"/><path fill="#36b7f8" d="M 171.335938 266.230469 C 170.554688 269.070312 169.644531 271.878906 169.054688 274.773438 L 148.859375 269.878906 C 149.523438 266.695312 150.507812 263.589844 151.375 260.457031 L 171.335938 266.230469 " fill-opacity="1" fill-rule="nonzero"/><path fill="#36b7f8" d="M 168.367188 277.761719 L 167.375 282.070312 L 166.597656 286.429688 L 146.15625 282.71875 L 147.015625 277.921875 L 148.105469 273.164062 L 168.367188 277.761719 " fill-opacity="1" fill-rule="nonzero"/><path fill="#0150ac" d="M 556.363281 239.902344 C 555.125 237.230469 554.011719 234.492188 552.597656 231.894531 L 571.195312 222.628906 C 572.742188 225.492188 573.980469 228.5 575.347656 231.449219 L 556.363281 239.902344 " fill-opacity="1" fill-rule="nonzero"/><path fill="#0150ac" d="M 551.199219 229.171875 C 550.523438 227.859375 549.867188 226.539062 549.175781 225.234375 L 546.964844 221.398438 L 564.992188 211.070312 L 567.417969 215.292969 C 568.1875 216.730469 568.910156 218.183594 569.65625 219.625 L 551.199219 229.171875 " fill-opacity="1" fill-rule="nonzero"/><path fill="#0150ac" d="M 545.4375 218.742188 L 544.335938 216.820312 L 543.136719 214.960938 L 540.75 211.234375 L 558.144531 199.875 L 560.777344 203.980469 L 562.089844 206.03125 L 563.308594 208.140625 L 545.4375 218.742188 " fill-opacity="1" fill-rule="nonzero"/><path fill="#0150ac" d="M 539.09375 208.648438 L 533.964844 201.433594 L 550.679688 189.082031 L 556.320312 197.03125 L 539.09375 208.648438 " fill-opacity="1" fill-rule="nonzero"/><path fill="#60e6ff" d="M 574.097656 323.363281 L 573.871094 314.5 L 594.632812 313.617188 L 594.875 323.363281 L 574.097656 323.363281 " fill-opacity="1" fill-rule="nonzero"/><path fill="#60e6ff" d="M 573.722656 311.433594 L 573.050781 302.597656 L 593.730469 300.53125 L 594.46875 310.246094 L 573.722656 311.433594 " fill-opacity="1" fill-rule="nonzero"/><path fill="#60e6ff" d="M 572.675781 299.558594 L 572.117188 295.164062 C 571.917969 293.703125 571.796875 292.230469 571.496094 290.785156 L 592.015625 287.515625 C 592.34375 289.113281 592.480469 290.730469 592.707031 292.339844 L 593.320312 297.175781 L 572.675781 299.558594 " fill-opacity="1" fill-rule="nonzero"/><path fill="#60e6ff" d="M 570.953125 287.765625 C 570.417969 284.867188 569.992188 281.941406 569.253906 279.082031 L 589.550781 274.625 C 590.351562 277.78125 590.839844 281 591.425781 284.195312 L 570.953125 287.765625 " fill-opacity="1" fill-rule="nonzero"/><path fill="#0150ac" d="M 532.117188 198.984375 L 529.375 195.507812 L 528.011719 193.765625 C 527.554688 193.179688 527.105469 192.597656 526.609375 192.050781 L 542.578125 178.757812 C 543.125 179.359375 543.621094 180 544.121094 180.644531 L 545.628906 182.558594 L 548.640625 186.394531 L 532.117188 198.984375 " fill-opacity="1" fill-rule="nonzero"/><path fill="#0150ac" d="M 524.597656 189.734375 C 522.652344 187.515625 520.78125 185.222656 518.695312 183.132812 L 533.871094 168.941406 C 536.164062 171.246094 538.230469 173.761719 540.371094 176.203125 L 524.597656 189.734375 " fill-opacity="1" fill-rule="nonzero"/><path fill="#0150ac" d="M 516.578125 180.910156 C 515.546875 179.851562 514.5625 178.75 513.503906 177.722656 L 510.292969 174.671875 L 534.273438 149.503906 L 538.011719 153.078125 C 539.25 154.277344 540.414062 155.558594 541.609375 156.796875 L 516.578125 180.910156 " fill-opacity="1" fill-rule="nonzero"/><path fill="#007ed5" d="M 508.074219 172.554688 C 507.535156 172.050781 507.019531 171.515625 506.460938 171.035156 L 504.78125 169.589844 L 501.4375 166.691406 L 514.875 150.84375 L 518.558594 154.039062 L 520.398438 155.632812 C 521.023438 156.160156 521.585938 156.746094 522.183594 157.300781 L 508.074219 172.554688 " fill-opacity="1" fill-rule="nonzero"/><path fill="#007ed5" d="M 499.109375 164.691406 L 492.144531 159.214844 L 504.644531 142.625 L 512.3125 148.652344 L 499.109375 164.691406 " fill-opacity="1" fill-rule="nonzero"/><path fill="#007ed5" d="M 489.660156 157.414062 L 486.054688 154.847656 C 484.84375 154.003906 483.675781 153.097656 482.410156 152.335938 L 493.933594 135.046875 C 495.320312 135.894531 496.613281 136.882812 497.945312 137.8125 L 501.917969 140.640625 L 489.660156 157.414062 " fill-opacity="1" fill-rule="nonzero"/><path fill="#007ed5" d="M 479.828125 150.683594 L 476.101562 148.289062 L 475.171875 147.6875 L 472.289062 146.035156 L 482.789062 128.109375 L 484.90625 129.328125 L 485.960938 129.9375 L 486.984375 130.589844 L 491.089844 133.222656 L 479.828125 150.683594 " fill-opacity="1" fill-rule="nonzero"/><path fill="#007ed5" d="M 469.628906 144.515625 L 467.714844 143.40625 C 467.078125 143.035156 466.441406 142.660156 465.773438 142.339844 L 461.832031 140.328125 L 471.273438 121.816406 L 475.613281 124.039062 C 476.34375 124.398438 477.042969 124.804688 477.75 125.214844 L 479.867188 126.429688 L 469.628906 144.515625 " fill-opacity="1" fill-rule="nonzero"/><path fill="#007ed5" d="M 459.105469 138.925781 C 457.808594 138.222656 456.449219 137.644531 455.105469 137.039062 L 451.074219 135.214844 L 459.417969 116.1875 L 463.863281 118.199219 C 465.335938 118.867188 466.835938 119.507812 468.269531 120.28125 L 459.105469 138.925781 " fill-opacity="1" fill-rule="nonzero"/><path fill="#007ed5" d="M 448.277344 133.964844 L 440.042969 130.722656 L 447.261719 111.238281 L 456.332031 114.816406 L 448.277344 133.964844 " fill-opacity="1" fill-rule="nonzero"/><path fill="#007ed5" d="M 437.152344 129.699219 L 432.957031 128.289062 L 430.863281 127.574219 L 429.8125 127.214844 L 428.75 126.914062 L 434.820312 107.046875 L 435.992188 107.382812 L 437.148438 107.769531 L 439.457031 108.550781 L 444.078125 110.117188 L 437.152344 129.699219 " fill-opacity="1" fill-rule="nonzero"/><path fill="#007ed5" d="M 425.804688 126.082031 C 422.960938 125.300781 420.148438 124.390625 417.253906 123.800781 L 422.15625 103.609375 C 425.339844 104.269531 428.441406 105.257812 431.578125 106.125 L 425.804688 126.082031 " fill-opacity="1" fill-rule="nonzero"/><path fill="#007ed5" d="M 414.269531 123.109375 L 409.960938 122.121094 L 405.601562 121.34375 L 409.3125 100.902344 L 414.113281 101.761719 L 418.863281 102.847656 L 414.269531 123.109375 " fill-opacity="1" fill-rule="nonzero"/><path fill="#60e6ff" d="M 427.011719 448.128906 C 428.171875 447.636719 429.289062 447.054688 430.410156 446.472656 L 433.777344 444.75 L 443.03125 461.972656 L 439.1875 463.945312 C 437.910156 464.605469 436.628906 465.265625 435.308594 465.835938 L 427.011719 448.128906 " fill-opacity="1" fill-rule="nonzero"/><path fill="#60e6ff" d="M 436.054688 443.472656 L 439.335938 441.589844 C 439.886719 441.28125 440.417969 440.953125 440.945312 440.601562 L 442.535156 439.582031 L 453.046875 456.074219 L 451.226562 457.238281 C 450.621094 457.632812 450.015625 458.011719 449.382812 458.359375 L 445.640625 460.515625 L 436.054688 443.472656 " fill-opacity="1" fill-rule="nonzero"/><path fill="#60e6ff" d="M 444.746094 438.167969 C 445.824219 437.519531 446.820312 436.742188 447.855469 436.023438 L 450.9375 433.835938 L 462.632812 449.503906 L 459.117188 452.011719 C 457.933594 452.828125 456.789062 453.707031 455.5625 454.460938 L 444.746094 438.167969 " fill-opacity="1" fill-rule="nonzero"/><path fill="#60e6ff" d="M 453 432.222656 L 455.972656 429.882812 C 456.949219 429.089844 457.882812 428.242188 458.84375 427.421875 L 471.65625 442.195312 C 470.5625 443.128906 469.496094 444.089844 468.378906 445.003906 L 464.988281 447.671875 L 453 432.222656 " fill-opacity="1" fill-rule="nonzero"/><path fill="#60e6ff" d="M 460.824219 425.707031 C 461.777344 424.882812 462.660156 423.980469 463.578125 423.121094 C 464.488281 422.246094 465.417969 421.394531 466.304688 420.503906 L 480.171875 434.289062 C 479.15625 435.308594 478.097656 436.289062 477.0625 437.285156 C 476.011719 438.265625 475 439.289062 473.917969 440.238281 L 460.824219 425.707031 " fill-opacity="1" fill-rule="nonzero"/><path fill="#60e6ff" d="M 468.117188 418.605469 L 470.722656 415.867188 L 473.195312 413.007812 L 488.035156 425.742188 L 485.207031 429.003906 L 482.234375 432.128906 L 468.117188 418.605469 " fill-opacity="1" fill-rule="nonzero"/><path fill="#60e6ff" d="M 474.914062 411.027344 L 477.25 408.054688 L 478.417969 406.570312 C 478.8125 406.078125 479.199219 405.578125 479.554688 405.058594 L 495.289062 416.671875 C 494.878906 417.265625 494.441406 417.835938 493.992188 418.394531 L 492.660156 420.09375 L 489.988281 423.480469 L 474.914062 411.027344 " fill-opacity="1" fill-rule="nonzero"/><path fill="#60e6ff" d="M 481.070312 402.925781 C 481.785156 401.890625 482.558594 400.890625 483.238281 399.828125 L 485.277344 396.644531 L 501.824219 407.0625 L 499.492188 410.699219 C 498.714844 411.90625 497.84375 413.054688 497.023438 414.238281 L 481.070312 402.925781 " fill-opacity="1" fill-rule="nonzero"/><path fill="#0150ac" d="M 486.671875 394.429688 L 488.558594 391.15625 C 489.183594 390.058594 489.839844 388.980469 490.390625 387.84375 L 507.664062 397.015625 C 507.027344 398.308594 506.285156 399.542969 505.574219 400.792969 L 503.417969 404.535156 L 486.671875 394.429688 " fill-opacity="1" fill-rule="nonzero"/><path fill="#0150ac" d="M 491.578125 385.515625 C 492.78125 383.296875 493.773438 380.980469 494.816406 378.6875 L 512.722656 386.550781 C 511.535156 389.171875 510.382812 391.816406 509.023438 394.351562 L 491.578125 385.515625 " fill-opacity="1" fill-rule="nonzero"/><path fill="#0150ac" d="M 495.859375 376.289062 L 497.945312 371.015625 C 498.175781 370.425781 498.351562 369.824219 498.5625 369.230469 L 517.003906 375.738281 C 516.765625 376.417969 516.554688 377.109375 516.289062 377.777344 L 515.5 379.789062 L 513.914062 383.808594 L 495.859375 376.289062 " fill-opacity="1" fill-rule="nonzero"/><path fill="#0150ac" d="M 499.398438 366.75 C 500.261719 364.382812 500.886719 361.9375 501.589844 359.515625 L 520.460938 364.640625 C 519.667969 367.40625 518.9375 370.195312 517.960938 372.90625 L 499.398438 366.75 " fill-opacity="1" fill-rule="nonzero"/><path fill="#0150ac" d="M 502.265625 356.992188 L 503.113281 353.3125 L 503.539062 351.464844 C 503.683594 350.855469 503.769531 350.230469 503.886719 349.609375 L 523.09375 353.316406 C 522.953125 354.023438 522.851562 354.738281 522.691406 355.4375 L 522.207031 357.539062 L 521.234375 361.75 L 502.265625 356.992188 " fill-opacity="1" fill-rule="nonzero"/><path fill="#0150ac" d="M 414.589844 464.710938 C 415.320312 466.992188 417.742188 468.222656 420.003906 467.453125 C 421.136719 467.089844 421.964844 466.230469 422.402344 465.214844 C 422.84375 464.199219 422.886719 463.015625 422.453125 461.898438 C 421.746094 460.09375 420.03125 459.007812 418.316406 459.089844 L 414.519531 448.714844 C 432.957031 441.898438 449.917969 431.035156 463.71875 416.996094 C 477.476562 402.945312 488.277344 385.933594 494.667969 367.332031 L 492.207031 366.476562 C 485.945312 384.707031 475.347656 401.390625 461.859375 415.167969 C 448.328125 428.929688 431.695312 439.582031 413.625 446.269531 L 412.578125 446.617188 L 411.53125 446.972656 L 416.003906 459.867188 C 414.632812 460.917969 413.996094 462.863281 414.589844 464.710938 " fill-opacity="1" fill-rule="nonzero"/><path fill="#007ed5" d="M 268.035156 417.378906 L 270.644531 420.117188 C 271.070312 420.582031 271.519531 421.023438 271.984375 421.449219 L 273.355469 422.757812 L 259.820312 436.867188 L 258.257812 435.378906 C 257.730469 434.890625 257.21875 434.382812 256.730469 433.855469 L 253.75 430.730469 L 268.035156 417.378906 " fill-opacity="1" fill-rule="nonzero"/><path fill="#007ed5" d="M 275.246094 424.5625 C 276.136719 425.453125 277.128906 426.238281 278.074219 427.078125 L 280.929688 429.554688 L 268.46875 444.621094 L 265.203125 441.800781 C 264.125 440.847656 263.003906 439.941406 261.980469 438.929688 L 275.246094 424.5625 " fill-opacity="1" fill-rule="nonzero"/><path fill="#007ed5" d="M 282.988281 431.175781 L 285.957031 433.515625 C 286.964844 434.269531 288.007812 434.980469 289.035156 435.71875 L 277.710938 451.660156 C 276.542969 450.820312 275.351562 450.003906 274.207031 449.140625 L 270.8125 446.476562 L 282.988281 431.175781 " fill-opacity="1" fill-rule="nonzero"/><path fill="#007ed5" d="M 291.164062 437.234375 C 292.195312 437.957031 293.277344 438.605469 294.332031 439.292969 C 295.398438 439.96875 296.445312 440.667969 297.527344 441.324219 L 287.410156 458.058594 C 286.179688 457.316406 284.980469 456.515625 283.765625 455.75 C 282.558594 454.960938 281.328125 454.21875 280.148438 453.390625 L 291.164062 437.234375 " fill-opacity="1" fill-rule="nonzero"/><path fill="#007ed5" d="M 299.792969 442.628906 L 303.074219 444.511719 L 306.441406 446.234375 L 297.589844 463.671875 L 293.746094 461.699219 L 290 459.554688 L 299.792969 442.628906 " fill-opacity="1" fill-rule="nonzero"/><path fill="#007ed5" d="M 308.769531 447.425781 L 312.207031 448.992188 C 313.363281 449.496094 314.492188 450.0625 315.667969 450.515625 L 308.136719 468.5625 C 306.796875 468.039062 305.5 467.402344 304.183594 466.824219 C 302.878906 466.222656 301.554688 465.644531 300.253906 465.03125 L 308.769531 447.425781 " fill-opacity="1" fill-rule="nonzero"/><path fill="#007ed5" d="M 318.101562 451.476562 C 319.277344 451.933594 320.441406 452.417969 321.625 452.847656 L 325.203125 454.054688 L 319.039062 472.613281 L 314.949219 471.222656 C 313.59375 470.734375 312.261719 470.183594 310.917969 469.664062 L 318.101562 451.476562 " fill-opacity="1" fill-rule="nonzero"/><path fill="#007ed5" d="M 327.683594 454.898438 C 330.113281 455.566406 332.523438 456.308594 334.964844 456.929688 L 330.195312 475.886719 C 327.402344 475.183594 324.648438 474.347656 321.875 473.566406 L 327.683594 454.898438 " fill-opacity="1" fill-rule="nonzero"/><path fill="#007ed5" d="M 337.515625 457.511719 C 338.746094 457.789062 339.964844 458.097656 341.203125 458.351562 L 344.925781 459.011719 L 341.574219 478.277344 L 337.324219 477.515625 C 335.914062 477.226562 334.515625 476.878906 333.113281 476.5625 L 337.515625 457.511719 " fill-opacity="1" fill-rule="nonzero"/><path fill="#007ed5" d="M 347.5 459.476562 C 349.996094 459.796875 352.496094 460.132812 355.003906 460.414062 L 353.085938 479.875 C 350.226562 479.558594 347.371094 479.175781 344.523438 478.800781 L 347.5 459.476562 " fill-opacity="1" fill-rule="nonzero"/><path fill="#007ed5" d="M 357.613281 460.609375 L 361.386719 460.898438 L 365.167969 461 L 364.679688 480.546875 C 363.242188 480.511719 361.804688 480.484375 360.371094 480.425781 L 356.066406 480.101562 L 357.613281 460.609375 " fill-opacity="1" fill-rule="nonzero"/><path fill="#007ed5" d="M 367.789062 461.070312 C 368.417969 461.101562 369.046875 461.089844 369.679688 461.066406 L 371.570312 461.019531 L 375.351562 460.921875 L 376.289062 480.453125 L 371.972656 480.5625 L 369.820312 480.617188 C 369.101562 480.644531 368.386719 480.648438 367.667969 480.621094 L 367.789062 461.070312 " fill-opacity="1" fill-rule="nonzero"/><path fill="#007ed5" d="M 377.964844 460.746094 C 380.480469 460.550781 383 460.40625 385.492188 460.03125 L 387.859375 479.441406 C 385.007812 479.859375 382.132812 480.035156 379.269531 480.25 L 377.964844 460.746094 " fill-opacity="1" fill-rule="nonzero"/><path fill="#0150ac" d="M 248.421875 410.703125 C 246.488281 412.097656 245.988281 414.835938 247.492188 416.691406 C 248.96875 418.5625 251.660156 418.84375 253.503906 417.320312 C 255.003906 416.089844 255.53125 414.105469 254.957031 412.476562 L 263.644531 405.65625 C 269.726562 413.378906 276.613281 420.492188 284.25 426.703125 C 291.878906 432.910156 300.179688 438.289062 308.964844 442.703125 C 326.515625 451.601562 346.09375 456.296875 365.769531 456.722656 L 365.824219 454.117188 C 346.523438 453.695312 327.34375 449.097656 310.132812 440.371094 C 301.519531 436.042969 293.382812 430.773438 285.894531 424.6875 C 278.410156 418.601562 271.660156 411.625 265.695312 404.046875 L 265.011719 403.175781 L 264.328125 402.308594 L 253.449219 410.554688 C 252.707031 410.085938 251.859375 409.832031 250.984375 409.839844 C 250.109375 409.855469 249.207031 410.132812 248.421875 410.703125 " fill-opacity="1" fill-rule="nonzero"/><path fill="#60e6ff" d="M 248.09375 256.726562 C 247.441406 257.804688 246.910156 258.949219 246.320312 260.066406 L 244.597656 263.429688 L 226.996094 254.90625 L 228.960938 251.066406 C 229.625 249.789062 230.246094 248.484375 230.988281 247.25 L 248.09375 256.726562 " fill-opacity="1" fill-rule="nonzero"/><path fill="#60e6ff" d="M 243.507812 265.808594 L 241.953125 269.25 C 241.4375 270.402344 241.011719 271.59375 240.542969 272.757812 L 222.355469 265.570312 C 222.890625 264.238281 223.386719 262.882812 223.96875 261.566406 L 225.746094 257.628906 L 243.507812 265.808594 " fill-opacity="1" fill-rule="nonzero"/><path fill="#007ed5" d="M 239.582031 275.195312 C 239.335938 275.773438 239.128906 276.367188 238.933594 276.96875 L 238.332031 278.757812 L 237.117188 282.335938 L 218.445312 276.523438 L 219.828125 272.425781 L 220.519531 270.382812 C 220.746094 269.695312 220.984375 269.015625 221.257812 268.351562 L 239.582031 275.195312 " fill-opacity="1" fill-rule="nonzero"/><path fill="#007ed5" d="M 236.398438 284.855469 L 235.367188 288.488281 C 235.035156 289.707031 234.789062 290.941406 234.492188 292.164062 L 215.445312 287.753906 C 215.777344 286.355469 216.070312 284.941406 216.445312 283.550781 L 217.617188 279.394531 L 236.398438 284.855469 " fill-opacity="1" fill-rule="nonzero"/><path fill="#007ed5" d="M 233.90625 294.714844 L 233.695312 295.636719 L 233.53125 296.570312 L 233.195312 298.425781 L 232.53125 302.148438 L 213.203125 299.160156 L 213.957031 294.910156 L 214.339844 292.78125 L 214.535156 291.722656 L 214.773438 290.667969 L 233.90625 294.714844 " fill-opacity="1" fill-rule="nonzero"/><path fill="#60e6ff" d="M 232.191406 304.742188 L 231.710938 308.492188 C 231.621094 309.117188 231.570312 309.742188 231.527344 310.375 L 231.390625 312.257812 L 211.894531 310.707031 L 212.058594 308.554688 C 212.109375 307.835938 212.164062 307.121094 212.265625 306.40625 L 212.808594 302.125 L 232.191406 304.742188 " fill-opacity="1" fill-rule="nonzero"/><path fill="#60e6ff" d="M 231.1875 314.871094 C 231.0625 316.121094 231.054688 317.386719 231.019531 318.648438 L 230.925781 322.429688 L 211.371094 322.300781 L 211.476562 317.992188 C 211.515625 316.554688 211.535156 315.117188 211.667969 313.683594 L 231.1875 314.871094 " fill-opacity="1" fill-rule="nonzero"/><path fill="#60e6ff" d="M 230.945312 325.050781 L 231.039062 328.832031 C 231.0625 329.460938 231.058594 330.09375 231.101562 330.71875 L 231.246094 332.605469 L 211.730469 333.898438 L 211.574219 331.75 C 211.523438 331.03125 211.523438 330.3125 211.5 329.59375 L 211.390625 325.285156 L 230.945312 325.050781 " fill-opacity="1" fill-rule="nonzero"/><path fill="#60e6ff" d="M 231.445312 335.21875 L 231.585938 337.105469 C 231.628906 337.730469 231.734375 338.355469 231.8125 338.980469 L 232.285156 342.730469 L 212.917969 345.457031 L 212.378906 341.175781 C 212.292969 340.457031 212.175781 339.746094 212.125 339.03125 L 211.960938 336.878906 L 231.445312 335.21875 " fill-opacity="1" fill-rule="nonzero"/><path fill="#60e6ff" d="M 232.664062 345.316406 L 233.328125 349.039062 L 233.660156 350.902344 C 233.78125 351.519531 233.9375 352.128906 234.078125 352.746094 L 214.964844 356.898438 C 214.804688 356.195312 214.628906 355.496094 214.496094 354.789062 L 214.113281 352.664062 L 213.355469 348.410156 L 232.664062 345.316406 " fill-opacity="1" fill-rule="nonzero"/><path fill="#60e6ff" d="M 234.664062 355.292969 C 235.171875 357.765625 235.929688 360.167969 236.605469 362.597656 L 217.859375 368.15625 C 217.082031 365.382812 216.230469 362.628906 215.636719 359.808594 L 234.664062 355.292969 " fill-opacity="1" fill-rule="nonzero"/><path fill="#60e6ff" d="M 237.359375 365.101562 L 238.570312 368.679688 L 239.171875 370.46875 C 239.382812 371.070312 239.632812 371.644531 239.859375 372.234375 L 221.574219 379.175781 C 221.316406 378.5 221.035156 377.835938 220.796875 377.160156 L 220.105469 375.117188 L 218.71875 371.019531 L 237.359375 365.101562 " fill-opacity="1" fill-rule="nonzero"/><path fill="#60e6ff" d="M 240.816406 374.664062 C 241.6875 377.035156 242.800781 379.300781 243.820312 381.605469 L 226.101562 389.886719 C 224.929688 387.257812 223.675781 384.660156 222.671875 381.960938 L 240.816406 374.664062 " fill-opacity="1" fill-rule="nonzero"/><path fill="#0150ac" d="M 248.421875 236.019531 C 246.492188 234.601562 243.808594 235.027344 242.429688 236.972656 C 241.722656 237.925781 241.574219 239.125 241.808594 240.195312 C 242.046875 241.273438 242.703125 242.261719 243.710938 242.90625 C 245.34375 243.957031 247.371094 243.832031 248.714844 242.761719 L 257.878906 248.929688 C 246.933594 265.277344 239.582031 283.996094 236.683594 303.457031 C 233.8125 322.914062 235.210938 343.03125 240.855469 361.847656 L 243.355469 361.097656 C 240.597656 351.867188 238.855469 342.332031 238.175781 332.710938 C 237.496094 323.085938 237.855469 313.375 239.257812 303.839844 C 242.105469 284.761719 249.3125 266.417969 260.039062 250.386719 C 260.234375 250.074219 260.464844 249.785156 260.675781 249.480469 L 261.316406 248.582031 L 250.117188 240.765625 C 250.617188 239.113281 249.988281 237.164062 248.421875 236.019531 " fill-opacity="1" fill-rule="nonzero"/><path fill="#007ed5" d="M 394.804688 188.144531 C 392.316406 187.726562 389.851562 187.183594 387.339844 186.929688 L 389.96875 167.554688 C 392.835938 167.855469 395.65625 168.453125 398.492188 168.9375 L 394.804688 188.144531 " fill-opacity="1" fill-rule="nonzero"/><path fill="#007ed5" d="M 384.746094 186.601562 L 382.871094 186.359375 L 380.984375 186.210938 L 377.214844 185.925781 L 378.40625 166.410156 L 382.714844 166.734375 L 384.863281 166.90625 L 387.003906 167.175781 L 384.746094 186.601562 " fill-opacity="1" fill-rule="nonzero"/><path fill="#007ed5" d="M 374.597656 185.78125 L 370.816406 185.691406 L 368.921875 185.636719 C 368.296875 185.628906 367.664062 185.667969 367.03125 185.675781 L 366.804688 166.121094 C 367.523438 166.113281 368.242188 166.074219 368.960938 166.089844 L 371.117188 166.136719 L 375.425781 166.246094 L 374.597656 185.78125 " fill-opacity="1" fill-rule="nonzero"/><path fill="#007ed5" d="M 364.414062 185.742188 L 362.523438 185.785156 L 361.574219 185.808594 L 360.632812 185.882812 L 356.859375 186.167969 L 355.207031 166.6875 L 359.511719 166.363281 L 360.589844 166.285156 L 363.820312 166.199219 L 364.414062 185.742188 " fill-opacity="1" fill-rule="nonzero"/><path fill="#007ed5" d="M 354.25 186.386719 L 350.5 186.863281 L 348.628906 187.097656 L 347.6875 187.21875 L 346.757812 187.386719 L 343.675781 168.078125 L 344.738281 167.890625 L 345.804688 167.75 L 347.945312 167.476562 L 352.234375 166.9375 L 354.25 186.386719 " fill-opacity="1" fill-rule="nonzero"/><path fill="#007ed5" d="M 344.183594 187.847656 C 342.941406 188.074219 341.695312 188.261719 340.460938 188.53125 L 336.78125 189.382812 L 332.269531 170.355469 L 336.480469 169.386719 C 337.886719 169.085938 339.308594 168.863281 340.726562 168.597656 L 344.183594 187.847656 " fill-opacity="1" fill-rule="nonzero"/><path fill="#007ed5" d="M 334.226562 189.96875 C 331.808594 190.675781 329.371094 191.308594 326.964844 192.070312 L 321.054688 173.429688 C 323.800781 172.5625 326.589844 171.832031 329.355469 171.03125 L 334.226562 189.96875 " fill-opacity="1" fill-rule="nonzero"/><path fill="#007ed5" d="M 324.488281 192.90625 C 323.300781 193.320312 322.09375 193.699219 320.917969 194.140625 L 317.402344 195.523438 L 310.113281 177.375 L 314.136719 175.796875 C 315.484375 175.292969 316.859375 174.859375 318.21875 174.386719 L 324.488281 192.90625 " fill-opacity="1" fill-rule="nonzero"/><path fill="#007ed5" d="M 314.96875 196.484375 L 311.523438 198.046875 L 308.9375 199.210938 L 308.097656 199.640625 L 299.484375 182.089844 L 300.449219 181.597656 L 301.429688 181.152344 L 303.398438 180.261719 L 307.335938 178.484375 L 314.96875 196.484375 " fill-opacity="1" fill-rule="nonzero"/><path fill="#007ed5" d="M 305.765625 200.839844 C 304.652344 201.421875 303.507812 201.953125 302.417969 202.585938 L 299.140625 204.472656 L 289.253906 187.601562 L 293 185.453125 C 294.246094 184.734375 295.546875 184.121094 296.824219 183.449219 L 305.765625 200.839844 " fill-opacity="1" fill-rule="nonzero"/><path fill="#007ed5" d="M 296.878906 205.796875 L 293.699219 207.835938 C 292.636719 208.515625 291.5625 209.175781 290.550781 209.929688 L 279.445312 193.832031 C 280.601562 192.980469 281.828125 192.222656 283.042969 191.441406 L 286.675781 189.113281 L 296.878906 205.796875 " fill-opacity="1" fill-rule="nonzero"/><path fill="#007ed5" d="M 288.414062 211.445312 C 286.328125 212.863281 284.382812 214.464844 282.394531 216.015625 L 270.132812 200.78125 C 272.398438 199.007812 274.628906 197.191406 277.011719 195.566406 L 288.414062 211.445312 " fill-opacity="1" fill-rule="nonzero"/><path fill="#007ed5" d="M 280.359375 217.667969 L 277.503906 220.144531 L 276.070312 221.378906 L 274.703125 222.683594 L 261.355469 208.390625 L 262.921875 206.90625 L 264.550781 205.488281 L 267.816406 202.664062 L 280.359375 217.667969 " fill-opacity="1" fill-rule="nonzero"/><path fill="#0150ac" d="M 414.589844 182.015625 C 415.34375 179.746094 414.132812 177.246094 411.828125 176.628906 C 409.527344 175.976562 407.1875 177.328125 406.585938 179.648438 C 406.097656 181.523438 406.839844 183.441406 408.265625 184.421875 L 405.242188 195.042969 C 395.789062 192.355469 386.039062 190.714844 376.214844 190.152344 C 366.378906 189.574219 356.484375 190.128906 346.789062 191.738281 C 337.085938 193.347656 327.574219 196.03125 318.464844 199.722656 L 316.75 200.394531 L 315.066406 201.15625 L 311.710938 202.667969 C 310.574219 203.148438 309.511719 203.765625 308.40625 204.3125 L 305.125 205.988281 L 301.921875 207.824219 L 300.328125 208.742188 C 299.789062 209.042969 299.261719 209.355469 298.746094 209.699219 L 295.644531 211.6875 L 294.09375 212.675781 L 292.585938 213.75 L 294.078125 215.890625 L 295.546875 214.84375 L 297.070312 213.871094 L 300.117188 211.917969 C 300.621094 211.582031 301.136719 211.273438 301.664062 210.980469 L 303.230469 210.082031 L 306.367188 208.28125 L 309.585938 206.632812 C 310.664062 206.101562 311.710938 205.492188 312.820312 205.027344 L 316.117188 203.539062 L 317.765625 202.796875 L 319.445312 202.136719 C 328.378906 198.519531 337.699219 195.890625 347.214844 194.3125 C 356.71875 192.734375 366.421875 192.191406 376.066406 192.753906 C 385.703125 193.304688 395.261719 194.917969 404.527344 197.554688 L 405.589844 197.855469 L 406.65625 198.152344 L 410.609375 185.085938 C 411.488281 185.035156 412.324219 184.734375 413.023438 184.214844 C 413.730469 183.695312 414.292969 182.9375 414.589844 182.015625 " fill-opacity="1" fill-rule="nonzero"/><path fill="#36b7f8" d="M 505.339844 306.421875 L 504.867188 302.671875 C 504.675781 301.425781 504.429688 300.1875 504.214844 298.949219 L 523.464844 295.503906 C 523.710938 296.921875 523.984375 298.335938 524.203125 299.757812 L 524.75 304.039062 L 505.339844 306.421875 " fill-opacity="1" fill-rule="nonzero"/><path fill="#36b7f8" d="M 503.753906 296.371094 C 503.265625 293.902344 502.636719 291.457031 502.09375 288.996094 L 521.035156 284.136719 C 521.667969 286.941406 522.378906 289.738281 522.9375 292.558594 L 503.753906 296.371094 " fill-opacity="1" fill-rule="nonzero"/><path fill="#36b7f8" d="M 501.378906 286.484375 L 500.347656 282.847656 C 499.988281 281.636719 499.554688 280.457031 499.15625 279.261719 L 517.683594 273 C 518.140625 274.367188 518.628906 275.722656 519.042969 277.101562 L 520.226562 281.257812 L 501.378906 286.484375 " fill-opacity="1" fill-rule="nonzero"/><path fill="#36b7f8" d="M 498.324219 276.78125 C 498.128906 276.175781 497.902344 275.59375 497.667969 275.007812 L 495.582031 269.734375 L 513.59375 262.117188 L 515.183594 266.132812 L 515.980469 268.140625 C 516.242188 268.8125 516.503906 269.480469 516.726562 270.167969 L 498.324219 276.78125 " fill-opacity="1" fill-rule="nonzero"/><path fill="#36b7f8" d="M 494.503906 267.351562 L 492.949219 263.90625 C 492.398438 262.773438 491.804688 261.660156 491.238281 260.535156 L 508.628906 251.605469 C 509.28125 252.886719 509.957031 254.160156 510.585938 255.453125 L 512.367188 259.390625 L 494.503906 267.351562 " fill-opacity="1" fill-rule="nonzero"/><path fill="#36b7f8" d="M 490.046875 258.207031 C 489.464844 257.09375 488.800781 256.015625 488.183594 254.917969 C 487.542969 253.832031 486.941406 252.722656 486.285156 251.652344 L 502.96875 241.449219 C 503.722656 242.679688 504.421875 243.941406 505.144531 245.1875 C 505.847656 246.4375 506.601562 247.667969 507.265625 248.945312 L 490.046875 258.207031 " fill-opacity="1" fill-rule="nonzero"/><path fill="#36b7f8" d="M 484.871094 249.449219 L 482.828125 246.269531 L 480.632812 243.183594 L 496.519531 231.785156 L 499.023438 235.304688 L 501.359375 238.9375 L 484.871094 249.449219 " fill-opacity="1" fill-rule="nonzero"/><path fill="#36b7f8" d="M 479.117188 241.054688 L 476.78125 238.074219 L 475.617188 236.589844 C 475.230469 236.089844 474.835938 235.597656 474.414062 235.128906 L 489.425781 222.589844 C 489.902344 223.128906 490.351562 223.691406 490.792969 224.257812 L 492.128906 225.953125 L 494.789062 229.351562 L 479.117188 241.054688 " fill-opacity="1" fill-rule="nonzero"/><path fill="#36b7f8" d="M 472.699219 233.152344 C 471.867188 232.207031 471.070312 231.222656 470.203125 230.3125 L 467.59375 227.570312 L 481.636719 213.96875 L 484.617188 217.09375 C 485.605469 218.136719 486.519531 219.253906 487.46875 220.332031 L 472.699219 233.152344 " fill-opacity="1" fill-rule="nonzero"/><path fill="#36b7f8" d="M 465.773438 225.691406 L 463.035156 223.085938 C 462.117188 222.21875 461.222656 221.328125 460.253906 220.523438 L 473.265625 205.925781 C 474.367188 206.847656 475.398438 207.855469 476.441406 208.847656 L 479.558594 211.824219 L 465.773438 225.691406 " fill-opacity="1" fill-rule="nonzero"/><path fill="#36b7f8" d="M 458.273438 218.808594 C 456.402344 217.113281 454.382812 215.605469 452.40625 214.039062 L 464.308594 198.527344 C 466.570312 200.308594 468.863281 202.039062 471.003906 203.964844 L 458.273438 218.808594 " fill-opacity="1" fill-rule="nonzero"/><path fill="#36b7f8" d="M 450.320312 212.457031 L 447.242188 210.265625 L 445.699219 209.167969 L 444.109375 208.148438 L 454.839844 191.800781 L 456.648438 192.96875 L 458.410156 194.214844 L 461.933594 196.71875 L 450.320312 212.457031 " fill-opacity="1" fill-rule="nonzero"/><path fill="#36b7f8" d="M 441.90625 206.734375 L 440.3125 205.714844 C 439.777344 205.375 439.222656 205.082031 438.679688 204.761719 L 435.40625 202.875 L 444.894531 185.78125 L 448.640625 187.933594 C 449.257812 188.296875 449.890625 188.640625 450.503906 189.023438 L 452.316406 190.1875 L 441.90625 206.734375 " fill-opacity="1" fill-rule="nonzero"/><path fill="#0150ac" d="M 517.300781 323.363281 C 519.695312 323.375 521.59375 321.453125 521.53125 319.074219 C 521.484375 316.6875 519.476562 314.878906 517.054688 315.027344 C 516.089844 315.078125 515.226562 315.433594 514.527344 315.972656 C 513.824219 316.519531 513.292969 317.253906 513.03125 318.085938 L 501.996094 318.484375 C 501.636719 308.652344 500.273438 298.851562 497.734375 289.355469 C 495.214844 279.855469 491.644531 270.640625 487.117188 261.914062 C 478.117188 244.421875 465.027344 229.089844 449.40625 217.140625 L 447.824219 219.214844 C 463.140625 230.929688 475.980469 245.96875 484.804688 263.117188 C 489.246094 271.671875 492.742188 280.707031 495.214844 290.015625 C 497.699219 299.328125 499.035156 308.933594 499.390625 318.574219 L 499.414062 319.6875 L 499.441406 320.792969 L 513.09375 320.527344 C 513.695312 322.152344 515.367188 323.359375 517.300781 323.363281 " fill-opacity="1" fill-rule="nonzero"/><path fill="#007ed5" d="M 368.660156 217.800781 C 310.441406 217.800781 263.082031 265.15625 263.082031 323.363281 C 263.082031 381.566406 310.441406 428.921875 368.660156 428.921875 C 426.878906 428.921875 474.238281 381.566406 474.238281 323.363281 C 474.238281 265.15625 426.878906 217.800781 368.660156 217.800781 Z M 368.660156 432.992188 C 308.195312 432.992188 259.003906 383.8125 259.003906 323.363281 C 259.003906 262.910156 308.195312 213.730469 368.660156 213.730469 C 429.125 213.730469 478.3125 262.910156 478.3125 323.363281 C 478.3125 383.8125 429.125 432.992188 368.660156 432.992188 " fill-opacity="1" fill-rule="nonzero"/><path fill="#007ed5" d="M 368.660156 209.132812 C 305.660156 209.132812 254.40625 260.378906 254.40625 323.363281 C 254.40625 386.347656 305.660156 437.589844 368.660156 437.589844 C 431.660156 437.589844 482.914062 386.347656 482.914062 323.363281 C 482.914062 260.378906 431.660156 209.132812 368.660156 209.132812 Z M 368.660156 441.664062 C 303.414062 441.664062 250.328125 388.597656 250.328125 323.363281 C 250.328125 258.132812 303.414062 205.058594 368.660156 205.058594 C 433.90625 205.058594 486.984375 258.132812 486.984375 323.363281 C 486.984375 388.597656 433.90625 441.664062 368.660156 441.664062 " fill-opacity="1" fill-rule="nonzero"/><path fill="#36b7f8" d="M 368.660156 159.0625 C 278.046875 159.0625 204.324219 232.769531 204.324219 323.363281 C 204.324219 413.957031 278.046875 487.660156 368.660156 487.660156 C 459.273438 487.660156 532.992188 413.957031 532.992188 323.363281 C 532.992188 232.769531 459.273438 159.0625 368.660156 159.0625 Z M 368.660156 491.734375 C 323.675781 491.734375 281.382812 474.222656 249.578125 442.417969 C 217.769531 410.617188 200.253906 368.335938 200.253906 323.363281 C 200.253906 278.390625 217.769531 236.105469 249.578125 204.304688 C 281.382812 172.507812 323.675781 154.992188 368.660156 154.992188 C 413.644531 154.992188 455.929688 172.507812 487.742188 204.304688 C 519.546875 236.105469 537.066406 278.390625 537.066406 323.363281 C 537.066406 368.335938 519.546875 410.617188 487.742188 442.417969 C 455.929688 474.222656 413.644531 491.734375 368.660156 491.734375 " fill-opacity="1" fill-rule="nonzero"/><path fill="#007ed5" d="M 368.660156 144.113281 C 269.796875 144.113281 189.371094 224.519531 189.371094 323.363281 C 189.371094 422.203125 269.796875 502.617188 368.660156 502.617188 C 467.515625 502.617188 547.949219 422.203125 547.949219 323.363281 C 547.949219 224.519531 467.515625 144.113281 368.660156 144.113281 Z M 368.660156 505.332031 C 320.042969 505.332031 274.335938 486.402344 239.960938 452.035156 C 205.585938 417.667969 186.65625 371.96875 186.65625 323.363281 C 186.65625 274.753906 205.585938 229.0625 239.960938 194.691406 C 274.335938 160.324219 320.042969 141.394531 368.660156 141.394531 C 417.273438 141.394531 462.980469 160.324219 497.355469 194.691406 C 531.734375 229.0625 550.664062 274.757812 550.664062 323.363281 C 550.664062 371.96875 531.734375 417.667969 497.355469 452.035156 C 462.980469 486.402344 417.273438 505.332031 368.660156 505.332031 " fill-opacity="1" fill-rule="nonzero"/><path fill="#007ed5" d="M 368.660156 138.4375 C 266.667969 138.4375 183.695312 221.394531 183.695312 323.363281 C 183.695312 425.335938 266.667969 508.292969 368.660156 508.292969 C 470.648438 508.292969 553.625 425.335938 553.625 323.363281 C 553.625 221.394531 470.648438 138.4375 368.660156 138.4375 Z M 368.660156 511.007812 C 318.527344 511.007812 271.394531 491.488281 235.949219 456.046875 C 200.5 420.609375 180.980469 373.480469 180.980469 323.363281 C 180.980469 273.242188 200.5 226.121094 235.949219 190.675781 C 271.394531 155.238281 318.527344 135.714844 368.660156 135.714844 C 418.789062 135.714844 465.921875 155.238281 501.367188 190.675781 C 536.816406 226.121094 556.339844 273.242188 556.339844 323.363281 C 556.339844 373.480469 536.816406 420.609375 501.367188 456.046875 C 465.921875 491.488281 418.789062 511.007812 368.660156 511.007812 " fill-opacity="1" fill-rule="nonzero"/><path fill="#0150ac" d="M 476.996094 533.859375 C 474.4375 532.480469 471.242188 533.433594 469.863281 535.996094 C 469.523438 536.628906 469.324219 537.300781 469.257812 537.976562 C 440.789062 551.371094 409.183594 559.273438 375.78125 560.246094 C 251.015625 563.878906 145.710938 469.683594 133.660156 347.300781 C 133.671875 347.296875 133.6875 347.289062 133.695312 347.28125 C 136.167969 345.753906 136.9375 342.511719 135.410156 340.035156 C 133.882812 337.5625 130.640625 336.792969 128.167969 338.320312 C 125.691406 339.847656 124.921875 343.089844 126.449219 345.566406 C 127.191406 346.773438 128.34375 347.570312 129.621094 347.898438 C 132.214844 374.3125 139.074219 399.84375 150.128906 423.992188 C 163.074219 452.257812 181.15625 477.453125 203.871094 498.886719 C 226.589844 520.3125 252.800781 536.898438 281.78125 548.167969 C 311.78125 559.835938 343.449219 565.273438 375.898438 564.328125 C 408.351562 563.386719 439.644531 556.113281 468.914062 542.714844 C 469.460938 542.472656 470 542.207031 470.535156 541.953125 C 470.941406 542.417969 471.425781 542.820312 472 543.128906 C 474.558594 544.507812 477.753906 543.550781 479.132812 540.992188 C 480.511719 538.433594 479.558594 535.242188 476.996094 533.859375 " fill-opacity="1" fill-rule="nonzero"/><path fill="#0150ac" d="M 471.441406 103.285156 C 470.042969 103.324219 468.792969 103.910156 467.875 104.824219 C 463.976562 103.058594 460.027344 101.382812 456.015625 99.820312 C 426.015625 88.15625 394.347656 82.714844 361.902344 83.65625 C 329.449219 84.605469 298.152344 91.875 268.882812 105.273438 C 240.609375 118.210938 215.40625 136.285156 193.972656 159 C 172.542969 181.714844 155.957031 207.921875 144.683594 236.890625 C 136.390625 258.195312 131.273438 280.34375 129.328125 303.011719 C 128.710938 303.125 128.101562 303.351562 127.535156 303.699219 C 125.058594 305.222656 124.292969 308.464844 125.816406 310.941406 C 127.34375 313.417969 130.585938 314.183594 133.0625 312.660156 C 135.539062 311.132812 136.304688 307.890625 134.78125 305.414062 C 134.398438 304.800781 133.914062 304.289062 133.359375 303.894531 C 143.351562 185.871094 240.835938 91.273438 362.019531 87.742188 C 399.164062 86.664062 434.582031 94.25 466.328125 108.675781 C 466.328125 108.679688 466.328125 108.691406 466.328125 108.699219 C 466.414062 111.601562 468.839844 113.890625 471.746094 113.804688 C 474.65625 113.722656 476.9375 111.296875 476.859375 108.394531 C 476.773438 105.488281 474.347656 103.199219 471.441406 103.285156 " fill-opacity="1" fill-rule="nonzero"/><path fill="#0150ac" d="M 587.667969 224 C 574.722656 195.730469 556.640625 170.53125 533.925781 149.105469 C 525.390625 141.050781 516.351562 133.699219 506.863281 127.046875 C 507.074219 126.457031 507.183594 125.820312 507.160156 125.15625 C 507.078125 122.253906 504.65625 119.964844 501.746094 120.050781 C 498.839844 120.132812 496.550781 122.558594 496.636719 125.460938 C 496.722656 128.371094 499.144531 130.660156 502.054688 130.574219 C 502.734375 130.554688 503.375 130.398438 503.964844 130.152344 C 563.246094 171.546875 602.933594 239.464844 605.195312 317.113281 C 607.566406 398.523438 568.257812 471.65625 506.632812 515.984375 C 504.078125 514.636719 500.914062 515.589844 499.539062 518.136719 C 498.160156 520.699219 499.117188 523.890625 501.675781 525.269531 C 504.234375 526.652344 507.429688 525.695312 508.808594 523.136719 C 509.472656 521.902344 509.59375 520.523438 509.253906 519.269531 C 521.644531 510.351562 533.203125 500.246094 543.824219 488.988281 C 565.257812 466.273438 581.84375 440.066406 593.113281 411.097656 C 604.785156 381.101562 610.230469 349.441406 609.28125 316.996094 C 608.335938 284.554688 601.066406 253.261719 587.667969 224 " fill-opacity="1" fill-rule="nonzero"/><path fill="#007ed5" d="M 641.386719 381.140625 L 640.039062 387.082031 L 639.363281 390.0625 C 639.140625 391.054688 638.917969 392.046875 638.625 393.023438 L 635.339844 404.769531 L 631.480469 416.34375 L 631 417.792969 L 630.449219 419.214844 L 629.339844 422.058594 L 627.132812 427.742188 C 615.589844 456.15625 599.355469 482.636719 579.3125 505.847656 C 578.449219 505.488281 577.53125 505.339844 576.625 505.410156 C 575.882812 505.460938 575.152344 505.65625 574.476562 505.988281 C 573.800781 506.324219 573.1875 506.800781 572.625 507.378906 C 570.433594 509.710938 570.566406 513.410156 572.921875 515.644531 C 575.273438 517.875 579.054688 517.699219 581.355469 515.246094 C 581.9375 514.640625 582.332031 513.917969 582.574219 513.171875 C 582.824219 512.425781 582.925781 511.644531 582.882812 510.878906 C 582.824219 509.957031 582.550781 509.058594 582.082031 508.253906 C 602.386719 484.738281 618.835938 457.910156 630.535156 429.121094 L 632.769531 423.359375 L 633.890625 420.476562 L 634.449219 419.035156 L 634.941406 417.570312 L 638.84375 405.84375 L 642.171875 393.9375 C 642.46875 392.949219 642.695312 391.945312 642.921875 390.9375 L 643.605469 387.925781 L 644.976562 381.898438 C 648.363281 365.765625 650.335938 349.34375 650.890625 332.875 L 647.226562 332.753906 C 646.675781 349.011719 644.730469 365.214844 641.386719 381.140625 " fill-opacity="1" fill-rule="nonzero"/><path fill="#36b7f8" d="M 536.355469 542.128906 L 525.496094 527.996094 L 525.898438 527.671875 L 528.960938 525.230469 L 532.027344 522.789062 C 533.050781 521.972656 534.085938 521.179688 535.046875 520.292969 L 540.933594 515.117188 L 542.410156 513.824219 C 542.902344 513.398438 543.398438 512.972656 543.855469 512.507812 L 546.671875 509.777344 L 552.308594 504.320312 L 557.671875 498.609375 L 560.359375 495.75 C 561.242188 494.785156 562.058594 493.769531 562.917969 492.78125 L 568.007812 486.820312 C 568.886719 485.851562 569.636719 484.773438 570.453125 483.753906 L 572.847656 480.648438 L 575.25 477.550781 C 575.648438 477.03125 576.066406 476.53125 576.445312 475.992188 L 577.566406 474.382812 L 582.0625 467.96875 L 583.191406 466.363281 C 583.566406 465.832031 583.898438 465.261719 584.25 464.714844 L 586.339844 461.398438 L 588.4375 458.085938 L 589.488281 456.429688 L 590.007812 455.601562 L 590.492188 454.75 L 594.355469 447.925781 C 594.992188 446.785156 595.65625 445.664062 596.273438 444.511719 L 598.039062 441.007812 L 599.234375 438.644531 C 601.652344 439.054688 604.105469 437.953125 605.222656 435.753906 C 606.5 432.957031 605.09375 429.597656 602.132812 428.28125 C 599.164062 426.953125 595.824219 428.050781 594.613281 430.699219 C 593.554688 432.785156 594.175781 435.320312 595.957031 437 L 594.777344 439.332031 L 593.042969 442.785156 C 592.433594 443.921875 591.773438 445.027344 591.144531 446.152344 L 587.335938 452.875 L 586.863281 453.71875 L 586.34375 454.535156 L 585.308594 456.167969 L 583.246094 459.433594 L 581.1875 462.703125 C 580.835938 463.242188 580.515625 463.800781 580.140625 464.328125 L 579.03125 465.90625 L 574.59375 472.238281 L 573.488281 473.824219 C 573.113281 474.351562 572.703125 474.84375 572.316406 475.355469 L 569.945312 478.414062 L 567.578125 481.46875 C 566.777344 482.476562 566.039062 483.535156 565.171875 484.496094 L 560.152344 490.371094 C 559.308594 491.347656 558.5 492.347656 557.632812 493.300781 L 554.980469 496.113281 L 549.691406 501.75 L 544.140625 507.128906 L 541.363281 509.820312 C 540.90625 510.273438 540.421875 510.699219 539.933594 511.121094 L 538.484375 512.390625 L 532.675781 517.496094 C 531.726562 518.367188 530.707031 519.152344 529.699219 519.953125 L 526.675781 522.363281 L 523.65625 524.769531 L 523.265625 525.085938 L 522.085938 526.019531 C 521.59375 526.394531 521.085938 526.746094 520.585938 527.109375 L 522.78125 530.050781 L 533.453125 544.324219 C 532.019531 546.308594 531.949219 549.074219 533.46875 551.1875 C 535.363281 553.820312 539.113281 554.363281 541.851562 552.390625 C 544.492188 550.296875 544.984375 546.53125 542.960938 544 C 541.335938 541.964844 538.65625 541.285156 536.355469 542.128906 " fill-opacity="1" fill-rule="nonzero"/><path fill="#007ed5" d="M 561.714844 552.238281 L 542.535156 529.546875 C 565.195312 510.335938 584.742188 487.449219 600.082031 462 C 615.496094 436.183594 626.585938 407.824219 632.792969 378.421875 C 632.984375 377.605469 633.183594 376.792969 633.316406 375.96875 L 629.71875 375.253906 L 620.597656 373.445312 C 620.574219 373.289062 620.546875 373.148438 620.507812 373 C 620.324219 372.300781 620.003906 371.644531 619.570312 371.0625 C 618.691406 369.898438 617.351562 369.046875 615.75 368.753906 C 614.15625 368.464844 612.609375 368.78125 611.402344 369.511719 C 610.796875 369.882812 610.28125 370.351562 609.882812 370.90625 C 609.496094 371.464844 609.214844 372.101562 609.035156 372.796875 C 608.394531 375.578125 610.445312 378.429688 613.605469 379.164062 C 616.144531 379.75 618.644531 378.710938 619.878906 376.757812 L 628.988281 378.691406 C 622.820312 407.332031 611.96875 434.941406 596.941406 460.113281 C 581.199219 486.222656 560.980469 509.609375 537.480469 529.015625 L 558.675781 554.78125 C 557.207031 556.953125 557.160156 559.800781 558.769531 561.828125 C 560.785156 564.371094 564.730469 564.59375 567.582031 562.3125 C 570.359375 559.949219 570.824219 555.992188 568.6875 553.5625 C 566.960938 551.589844 564.132812 551.15625 561.714844 552.238281 " fill-opacity="1" fill-rule="nonzero"/><path fill="#007ed5" d="M 315.800781 597.097656 C 315.464844 594.683594 313.640625 592.675781 311.160156 592.0625 C 308.039062 591.355469 304.894531 593.335938 304.136719 596.492188 C 303.378906 599.644531 305.429688 602.808594 308.707031 603.558594 C 311.351562 604.199219 313.925781 602.902344 315.140625 600.703125 C 378.039062 612.804688 444.984375 602.914062 501.472656 572.59375 L 499.75 569.359375 C 443.996094 599.289062 377.886719 609.050781 315.800781 597.097656 " fill-opacity="1" fill-rule="nonzero"/><path fill="#36b7f8" d="M 261.414062 587.902344 C 262.835938 587.3125 264.003906 586.191406 264.605469 584.683594 C 265.203125 583.179688 265.132812 581.570312 264.542969 580.207031 C 264.1875 579.371094 263.632812 578.644531 262.925781 578.046875 L 269.792969 561.539062 C 305.730469 576.488281 345.054688 583.125 383.949219 580.671875 C 384.800781 582.972656 386.992188 584.515625 389.460938 584.324219 C 392.53125 584.089844 394.75 581.28125 394.40625 578.054688 C 394.070312 574.828125 391.429688 572.390625 388.523438 572.613281 C 386.199219 572.792969 384.324219 574.632812 383.753906 577.011719 C 344.273438 579.507812 304.371094 572.503906 268.105469 556.84375 L 266.652344 560.210938 L 259.59375 576.582031 C 257.15625 576.335938 254.710938 577.664062 253.640625 580.03125 C 252.296875 582.988281 253.710938 586.5 256.792969 587.867188 C 258.316406 588.578125 260 588.480469 261.414062 587.902344 " fill-opacity="1" fill-rule="nonzero"/><g clip-path="url(#f132168270)"><path fill="#007ed5" d="M 267.234375 605.410156 C 267.09375 605.289062 266.953125 605.175781 266.804688 605.0625 L 276.929688 577.085938 C 290.339844 581.921875 304.128906 585.714844 318.128906 588.398438 L 323.832031 589.402344 L 326.6875 589.902344 L 328.109375 590.15625 C 328.589844 590.234375 329.070312 590.28125 329.546875 590.34375 L 341.042969 591.777344 C 344.890625 592.117188 348.746094 592.359375 352.597656 592.65625 C 353.5625 592.71875 354.523438 592.824219 355.488281 592.847656 L 358.382812 592.921875 L 364.175781 593.054688 C 379.625 593.261719 395.089844 592.183594 410.375 589.882812 C 424.472656 587.644531 438.371094 584.28125 451.933594 579.898438 L 451.949219 579.953125 L 455.320312 578.792969 L 451.167969 566.519531 C 452.96875 565.085938 453.722656 562.5 452.839844 560.046875 C 451.742188 556.996094 448.660156 555.261719 445.960938 556.191406 C 444.605469 556.65625 443.582031 557.707031 443.007812 559.027344 C 442.417969 560.304688 442.277344 561.867188 442.753906 563.417969 C 443.230469 564.972656 444.238281 566.210938 445.496094 566.953125 C 446.25 567.375 447.09375 567.605469 447.953125 567.613281 L 450.804688 576.414062 C 437.425781 580.730469 423.714844 584.050781 409.816406 586.257812 C 394.730469 588.527344 379.464844 589.59375 364.234375 589.386719 L 358.519531 589.257812 L 355.660156 589.191406 C 354.707031 589.164062 353.761719 589.0625 352.808594 589 C 349.011719 588.703125 345.207031 588.460938 341.414062 588.132812 L 330.074219 586.714844 C 329.605469 586.652344 329.132812 586.609375 328.65625 586.53125 L 327.253906 586.28125 L 324.4375 585.785156 L 318.8125 584.796875 C 303.855469 581.929688 289.140625 577.792969 274.875 572.4375 L 263.105469 603.65625 C 260.480469 603.476562 257.984375 604.859375 257.027344 607.269531 C 255.824219 610.285156 257.609375 613.800781 261.015625 615.117188 C 261.863281 615.4375 262.726562 615.613281 263.570312 615.59375 C 264.414062 615.570312 265.230469 615.386719 265.96875 615.074219 C 267.445312 614.449219 268.613281 613.289062 269.144531 611.757812 C 269.671875 610.222656 269.472656 608.605469 268.726562 607.238281 C 268.359375 606.554688 267.851562 605.933594 267.234375 605.410156 " fill-opacity="1" fill-rule="nonzero"/></g><path fill="#007ed5" d="M 148.851562 494.949219 C 138.835938 482.132812 129.933594 468.449219 122.28125 454.09375 C 115.523438 441.390625 109.6875 428.175781 105.023438 414.554688 C 107.011719 413.058594 107.914062 410.429688 107.082031 407.988281 C 106.824219 407.226562 106.40625 406.5625 105.914062 405.980469 C 105.4375 405.402344 104.855469 404.921875 104.199219 404.570312 C 102.890625 403.863281 101.300781 403.648438 99.75 404.113281 C 98.191406 404.578125 96.96875 405.640625 96.257812 407 C 95.898438 407.679688 95.667969 408.433594 95.582031 409.222656 C 95.515625 410.003906 95.628906 410.804688 95.898438 411.597656 C 96.769531 414.148438 99.101562 415.746094 101.570312 415.730469 C 122.445312 476.300781 164.601562 529.296875 219.136719 562.96875 L 221.082031 559.859375 C 207.277344 551.253906 194.21875 541.457031 182.089844 530.605469 C 169.980469 519.734375 158.878906 507.761719 148.851562 494.949219 " fill-opacity="1" fill-rule="nonzero"/><path fill="#36b7f8" d="M 90.222656 363.976562 C 92.796875 363.59375 94.765625 361.605469 95.230469 359.1875 L 112.90625 356.878906 L 113.472656 361.28125 C 113.558594 361.925781 113.621094 362.578125 113.730469 363.21875 L 114.085938 365.148438 L 114.785156 369.007812 L 115.480469 372.863281 L 115.824219 374.792969 C 115.933594 375.441406 116.054688 376.082031 116.214844 376.714844 L 118 384.347656 L 118.882812 388.164062 C 119.207031 389.429688 119.597656 390.675781 119.953125 391.933594 L 122.109375 399.464844 C 122.4375 400.726562 122.878906 401.957031 123.304688 403.195312 L 124.574219 406.902344 L 125.839844 410.609375 C 126.265625 411.839844 126.652344 413.089844 127.167969 414.289062 L 130.074219 421.558594 C 130.5625 422.773438 131.019531 424 131.535156 425.195312 L 133.167969 428.753906 L 136.425781 435.878906 C 137.582031 438.21875 138.820312 440.515625 140.007812 442.84375 C 142.304688 447.535156 145.066406 451.976562 147.667969 456.503906 L 148.648438 458.199219 C 148.992188 458.753906 149.359375 459.292969 149.707031 459.84375 L 151.851562 463.128906 L 153.292969 465.351562 C 152.703125 466.066406 152.289062 466.890625 152.085938 467.75 C 151.914062 468.464844 151.878906 469.207031 151.992188 469.929688 C 152.050781 470.289062 152.140625 470.648438 152.277344 470.992188 C 152.414062 471.335938 152.605469 471.660156 152.828125 471.972656 C 154.628906 474.460938 158.214844 474.933594 160.835938 473.023438 C 163.460938 471.113281 164.207031 467.652344 162.5 465.289062 C 162.28125 464.996094 162.039062 464.734375 161.773438 464.496094 C 161.527344 464.25 161.25 464.035156 160.953125 463.851562 C 160.363281 463.484375 159.695312 463.246094 158.992188 463.136719 C 158.140625 463.003906 157.234375 463.0625 156.347656 463.332031 L 154.925781 461.136719 L 152.824219 457.902344 C 152.472656 457.359375 152.109375 456.828125 151.773438 456.28125 L 150.804688 454.609375 C 148.246094 450.140625 145.515625 445.769531 143.261719 441.136719 C 142.085938 438.847656 140.863281 436.585938 139.722656 434.28125 L 136.515625 427.253906 L 134.902344 423.75 C 134.394531 422.566406 133.945312 421.359375 133.464844 420.167969 L 130.601562 412.996094 C 130.09375 411.816406 129.714844 410.582031 129.292969 409.367188 L 126.792969 402.0625 C 126.371094 400.847656 125.941406 399.636719 125.613281 398.386719 L 123.488281 390.960938 C 123.136719 389.722656 122.75 388.496094 122.433594 387.246094 L 121.5625 383.480469 L 119.804688 375.964844 C 119.640625 375.335938 119.527344 374.703125 119.421875 374.066406 L 119.078125 372.164062 L 118.390625 368.363281 L 117.703125 364.554688 L 117.355469 362.660156 C 117.246094 362.023438 117.183594 361.378906 117.097656 360.738281 L 116.542969 356.40625 L 116.109375 353.066406 L 112.472656 353.492188 L 94.765625 355.574219 C 93.703125 353.355469 91.292969 351.90625 88.703125 352.164062 C 85.472656 352.488281 83.199219 355.453125 83.628906 358.792969 C 84.0625 362.136719 87.011719 364.453125 90.222656 363.976562 " fill-opacity="1" fill-rule="nonzero"/><path fill="#007ed5" d="M 102.949219 370.851562 C 105.382812 384.910156 109.097656 398.726562 113.769531 412.1875 C 118.851562 426.765625 125.167969 440.917969 132.648438 454.433594 L 138.476562 464.441406 L 144.78125 474.164062 C 149.171875 480.515625 153.679688 486.792969 158.589844 492.761719 C 167.566406 503.839844 177.417969 514.203125 188.003906 523.761719 L 187.96875 523.804688 C 188.828125 524.621094 189.761719 525.359375 190.660156 526.140625 L 199.203125 516.394531 C 201.367188 517.222656 203.992188 516.5625 205.671875 514.574219 C 207.765625 512.09375 207.703125 508.578125 205.519531 506.730469 C 205.246094 506.496094 204.953125 506.304688 204.640625 506.136719 C 204.34375 505.964844 204.027344 505.824219 203.703125 505.71875 C 203.050781 505.515625 202.351562 505.445312 201.648438 505.515625 C 200.238281 505.648438 198.8125 506.320312 197.707031 507.511719 C 196.605469 508.699219 196.042969 510.1875 196.039062 511.644531 C 196.039062 512.371094 196.171875 513.089844 196.445312 513.757812 C 196.503906 513.894531 196.570312 514.035156 196.640625 514.167969 L 190.457031 521.03125 C 180.015625 511.605469 170.296875 501.382812 161.445312 490.453125 C 156.597656 484.570312 152.152344 478.375 147.820312 472.109375 L 141.597656 462.523438 L 135.851562 452.652344 C 128.480469 439.320312 122.246094 425.363281 117.230469 410.980469 C 112.628906 397.707031 108.953125 384.082031 106.558594 370.210938 L 106.597656 370.207031 L 105.96875 366.742188 L 73.042969 372.15625 C 72.589844 371.28125 71.960938 370.523438 71.207031 369.941406 C 69.972656 368.972656 68.453125 368.472656 66.839844 368.710938 C 65.246094 368.945312 63.855469 369.890625 63 371.222656 C 62.15625 372.554688 61.796875 374.277344 62.117188 376.070312 C 62.765625 379.65625 65.871094 382.054688 69.058594 381.425781 C 71.625 380.925781 73.46875 378.6875 73.765625 376.042969 L 102.949219 370.851562 " fill-opacity="1" fill-rule="nonzero"/><path fill="#007ed5" d="M 95.75 265.492188 L 97.773438 256.570312 C 97.996094 255.578125 98.21875 254.585938 98.511719 253.609375 L 101.804688 241.863281 L 105.65625 230.289062 L 106.136719 228.839844 L 106.6875 227.417969 L 107.796875 224.574219 L 110.003906 218.890625 C 121.546875 190.476562 137.78125 163.996094 157.824219 140.78125 C 158.683594 141.140625 159.605469 141.285156 160.511719 141.222656 C 161.253906 141.171875 161.984375 140.972656 162.660156 140.644531 C 163.335938 140.308594 163.949219 139.828125 164.511719 139.253906 C 166.703125 136.921875 166.570312 133.222656 164.214844 130.992188 C 161.855469 128.757812 158.082031 128.933594 155.78125 131.386719 C 155.199219 131.988281 154.804688 132.714844 154.5625 133.460938 C 154.3125 134.207031 154.210938 134.988281 154.253906 135.75 C 154.3125 136.675781 154.585938 137.574219 155.058594 138.375 C 134.75 161.894531 118.300781 188.722656 106.601562 217.511719 L 104.367188 223.269531 L 103.25 226.152344 L 102.6875 227.59375 L 102.195312 229.0625 L 98.292969 240.789062 L 94.964844 252.695312 C 94.664062 253.683594 94.441406 254.6875 94.214844 255.695312 L 93.53125 258.707031 L 92.160156 264.734375 C 88.773438 280.867188 86.800781 297.289062 86.246094 313.757812 L 89.910156 313.875 C 90.460938 297.621094 92.40625 281.414062 95.75 265.492188 " fill-opacity="1" fill-rule="nonzero"/><path fill="#36b7f8" d="M 200.78125 104.503906 L 211.640625 118.636719 L 211.242188 118.957031 L 205.109375 123.84375 C 204.085938 124.65625 203.050781 125.453125 202.089844 126.339844 L 196.203125 131.515625 L 194.726562 132.804688 C 194.234375 133.234375 193.738281 133.660156 193.28125 134.125 L 190.464844 136.855469 L 184.828125 142.3125 L 179.464844 148.023438 L 176.777344 150.878906 C 175.894531 151.847656 175.074219 152.859375 174.21875 153.851562 L 169.125 159.808594 C 168.25 160.78125 167.5 161.859375 166.683594 162.878906 L 164.289062 165.984375 L 161.886719 169.082031 C 161.492188 169.597656 161.070312 170.105469 160.691406 170.632812 L 159.570312 172.242188 L 155.074219 178.664062 L 153.941406 180.269531 C 153.566406 180.800781 153.238281 181.367188 152.882812 181.917969 L 150.796875 185.234375 L 148.699219 188.546875 L 147.648438 190.203125 L 147.128906 191.03125 L 146.644531 191.882812 L 142.78125 198.707031 C 142.144531 199.847656 141.480469 200.96875 140.863281 202.121094 L 139.097656 205.625 L 137.902344 207.988281 C 135.480469 207.578125 133.03125 208.679688 131.914062 210.875 C 130.632812 213.671875 132.042969 217.035156 135.003906 218.351562 C 137.972656 219.675781 141.3125 218.582031 142.523438 215.933594 C 143.582031 213.847656 142.964844 211.3125 141.183594 209.632812 L 142.359375 207.300781 L 144.09375 203.847656 C 144.703125 202.710938 145.359375 201.605469 145.992188 200.480469 L 149.800781 193.753906 L 150.273438 192.914062 L 150.792969 192.097656 L 151.824219 190.464844 L 153.890625 187.199219 L 155.949219 183.929688 C 156.300781 183.390625 156.621094 182.832031 156.996094 182.304688 L 162.542969 174.394531 L 163.648438 172.808594 C 164.023438 172.28125 164.433594 171.789062 164.820312 171.277344 L 167.191406 168.21875 L 169.558594 165.164062 C 170.359375 164.152344 171.097656 163.09375 171.957031 162.136719 L 176.984375 156.261719 C 177.828125 155.285156 178.636719 154.285156 179.503906 153.332031 L 182.15625 150.519531 L 187.445312 144.882812 L 192.996094 139.503906 L 195.773438 136.8125 C 196.226562 136.359375 196.714844 135.929688 197.203125 135.511719 L 198.652344 134.242188 L 204.460938 129.136719 C 205.40625 128.265625 206.429688 127.480469 207.4375 126.679688 L 210.460938 124.269531 L 213.480469 121.859375 L 213.871094 121.546875 L 215.050781 120.609375 C 215.542969 120.238281 216.050781 119.886719 216.550781 119.523438 L 214.355469 116.582031 L 203.683594 102.308594 C 205.117188 100.324219 205.1875 97.554688 203.667969 95.445312 C 201.773438 92.808594 198.023438 92.269531 195.285156 94.242188 C 192.648438 96.335938 192.152344 100.097656 194.175781 102.632812 C 195.800781 104.667969 198.480469 105.347656 200.78125 104.503906 " fill-opacity="1" fill-rule="nonzero"/><path fill="#007ed5" d="M 175.421875 94.390625 L 194.601562 117.085938 C 171.941406 136.296875 152.394531 159.183594 137.054688 184.632812 C 121.640625 210.449219 110.554688 238.808594 104.34375 268.207031 C 104.148438 269.023438 103.953125 269.835938 103.820312 270.664062 L 107.417969 271.378906 L 116.539062 273.1875 C 116.5625 273.335938 116.589844 273.484375 116.628906 273.632812 C 116.808594 274.332031 117.132812 274.988281 117.566406 275.570312 C 118.445312 276.730469 119.785156 277.585938 121.386719 277.875 C 122.980469 278.167969 124.527344 277.851562 125.734375 277.121094 C 126.339844 276.75 126.855469 276.28125 127.253906 275.726562 C 127.644531 275.167969 127.929688 274.527344 128.101562 273.835938 C 128.742188 271.050781 126.691406 268.203125 123.53125 267.46875 C 120.992188 266.882812 118.492188 267.921875 117.257812 269.875 L 108.148438 267.9375 C 114.316406 239.300781 125.167969 211.691406 140.195312 186.519531 C 155.9375 160.410156 176.15625 137.023438 199.65625 117.617188 L 178.460938 91.851562 C 179.929688 89.679688 179.976562 86.832031 178.367188 84.804688 C 176.351562 82.257812 172.40625 82.039062 169.554688 84.320312 C 166.777344 86.683594 166.3125 90.640625 168.441406 93.070312 C 170.175781 95.042969 173.003906 95.476562 175.421875 94.390625 " fill-opacity="1" fill-rule="nonzero"/><path fill="#007ed5" d="M 421.335938 49.535156 C 421.671875 51.949219 423.496094 53.957031 425.976562 54.570312 C 429.097656 55.277344 432.242188 53.296875 433 50.140625 C 433.757812 46.984375 431.710938 43.820312 428.429688 43.074219 C 425.789062 42.433594 423.207031 43.730469 421.996094 45.929688 C 359.097656 33.828125 292.152344 43.714844 235.664062 74.035156 L 237.386719 77.273438 C 293.140625 47.34375 359.25 37.582031 421.335938 49.535156 " fill-opacity="1" fill-rule="nonzero"/><path fill="#36b7f8" d="M 475.722656 58.730469 C 474.300781 59.320312 473.132812 60.441406 472.53125 61.949219 C 471.933594 63.453125 472.003906 65.058594 472.59375 66.425781 C 472.949219 67.261719 473.503906 67.988281 474.210938 68.585938 L 467.34375 85.09375 C 431.40625 70.144531 392.082031 63.503906 353.1875 65.960938 C 352.335938 63.660156 350.144531 62.117188 347.675781 62.308594 C 344.597656 62.542969 342.390625 65.347656 342.730469 68.578125 C 343.066406 71.804688 345.707031 74.242188 348.613281 74.019531 C 350.9375 73.835938 352.8125 72 353.382812 69.621094 C 392.859375 67.125 432.765625 74.128906 469.03125 89.789062 L 477.542969 70.050781 C 479.980469 70.296875 482.425781 68.96875 483.496094 66.597656 C 484.839844 63.644531 483.425781 60.132812 480.34375 58.765625 C 478.820312 58.050781 477.136719 58.152344 475.722656 58.730469 " fill-opacity="1" fill-rule="nonzero"/><path fill="#007ed5" d="M 469.902344 41.222656 C 470.035156 41.339844 470.183594 41.457031 470.332031 41.570312 L 460.207031 69.542969 C 446.796875 64.710938 433.007812 60.917969 419.007812 58.234375 L 413.304688 57.230469 L 410.453125 56.730469 L 409.027344 56.476562 C 408.546875 56.398438 408.066406 56.351562 407.589844 56.289062 L 396.09375 54.855469 C 392.246094 54.515625 388.390625 54.273438 384.539062 53.976562 C 383.574219 53.914062 382.613281 53.808594 381.648438 53.777344 L 378.753906 53.710938 L 372.960938 53.578125 C 357.511719 53.371094 342.046875 54.449219 326.761719 56.753906 C 312.664062 58.988281 298.765625 62.351562 285.203125 66.734375 L 285.1875 66.679688 L 281.816406 67.839844 L 282.988281 71.3125 L 285.96875 80.113281 C 284.167969 81.546875 283.414062 84.132812 284.296875 86.585938 C 285.394531 89.636719 288.472656 91.367188 291.175781 90.441406 C 292.53125 89.976562 293.554688 88.925781 294.128906 87.605469 C 294.71875 86.324219 294.859375 84.765625 294.382812 83.210938 C 293.90625 81.660156 292.898438 80.421875 291.640625 79.679688 C 290.886719 79.257812 290.042969 79.027344 289.183594 79.015625 L 286.332031 70.21875 C 299.710938 65.898438 313.421875 62.582031 327.324219 60.375 C 342.40625 58.101562 357.671875 57.039062 372.902344 57.242188 L 378.617188 57.378906 L 381.476562 57.441406 C 382.429688 57.464844 383.375 57.570312 384.328125 57.632812 C 388.125 57.929688 391.929688 58.171875 395.722656 58.5 L 407.0625 59.917969 C 407.53125 59.980469 408.003906 60.023438 408.480469 60.101562 L 409.882812 60.347656 L 412.699219 60.847656 L 418.324219 61.835938 C 433.289062 64.703125 447.996094 68.839844 462.261719 74.195312 L 474.03125 42.972656 C 476.65625 43.15625 479.152344 41.773438 480.109375 39.363281 C 481.3125 36.347656 479.527344 32.832031 476.121094 31.515625 C 475.273438 31.191406 474.410156 31.019531 473.566406 31.035156 C 472.71875 31.0625 471.90625 31.246094 471.167969 31.558594 C 469.691406 32.183594 468.523438 33.34375 467.992188 34.875 C 467.464844 36.410156 467.664062 38.023438 468.410156 39.390625 C 468.777344 40.078125 469.285156 40.699219 469.902344 41.222656 " fill-opacity="1" fill-rule="nonzero"/><path fill="#007ed5" d="M 588.285156 151.683594 C 598.300781 164.5 607.203125 178.179688 614.855469 192.539062 C 621.613281 205.238281 627.453125 218.453125 632.113281 232.078125 C 630.125 233.574219 629.222656 236.203125 630.054688 238.644531 C 630.3125 239.40625 630.730469 240.078125 631.222656 240.652344 C 631.699219 241.230469 632.28125 241.710938 632.9375 242.0625 C 634.246094 242.769531 635.835938 242.984375 637.386719 242.519531 C 638.945312 242.054688 640.167969 240.992188 640.878906 239.628906 C 641.238281 238.949219 641.46875 238.195312 641.554688 237.410156 C 641.621094 236.628906 641.507812 235.828125 641.238281 235.035156 C 640.367188 232.484375 638.035156 230.886719 635.566406 230.898438 C 614.691406 170.332031 572.535156 117.335938 518 83.664062 L 516.054688 86.769531 C 529.859375 95.378906 542.921875 105.175781 555.046875 116.027344 C 567.15625 126.898438 578.257812 138.871094 588.285156 151.683594 " fill-opacity="1" fill-rule="nonzero"/><path fill="#36b7f8" d="M 646.914062 282.65625 C 644.339844 283.039062 642.375 285.027344 641.90625 287.441406 L 624.230469 289.753906 L 623.664062 285.359375 C 623.574219 284.707031 623.515625 284.054688 623.40625 283.414062 L 623.050781 281.484375 L 622.351562 277.621094 L 621.65625 273.769531 L 621.3125 271.835938 C 621.203125 271.191406 621.082031 270.550781 620.921875 269.917969 L 619.136719 262.285156 L 618.253906 258.464844 C 617.929688 257.203125 617.539062 255.957031 617.1875 254.699219 L 615.027344 247.164062 C 614.699219 245.90625 614.261719 244.671875 613.832031 243.4375 L 612.5625 239.730469 L 611.296875 236.023438 C 610.871094 234.792969 610.484375 233.542969 609.96875 232.339844 L 607.0625 225.070312 C 606.574219 223.859375 606.117188 222.632812 605.601562 221.4375 L 603.96875 217.878906 L 600.710938 210.753906 C 599.554688 208.414062 598.316406 206.117188 597.128906 203.789062 C 594.832031 199.09375 592.070312 194.65625 589.46875 190.125 L 588.484375 188.433594 C 588.144531 187.875 587.777344 187.339844 587.425781 186.789062 L 585.285156 183.503906 L 583.84375 181.28125 C 584.433594 180.566406 584.847656 179.742188 585.050781 178.878906 C 585.222656 178.167969 585.257812 177.425781 585.144531 176.703125 C 585.085938 176.34375 584.996094 175.984375 584.859375 175.636719 C 584.722656 175.296875 584.53125 174.972656 584.308594 174.660156 C 582.507812 172.171875 578.921875 171.695312 576.300781 173.601562 C 573.675781 175.515625 572.929688 178.980469 574.636719 181.335938 C 574.855469 181.632812 575.097656 181.898438 575.363281 182.136719 C 575.609375 182.382812 575.886719 182.597656 576.183594 182.777344 C 576.773438 183.148438 577.445312 183.386719 578.144531 183.496094 C 578.996094 183.632812 579.902344 183.5625 580.789062 183.300781 L 582.210938 185.496094 L 584.3125 188.730469 C 584.664062 189.273438 585.027344 189.804688 585.363281 190.351562 L 586.332031 192.023438 C 588.894531 196.484375 591.617188 200.863281 593.875 205.492188 C 595.046875 207.78125 596.273438 210.046875 597.414062 212.351562 L 600.621094 219.378906 L 602.234375 222.882812 C 602.742188 224.066406 603.1875 225.273438 603.675781 226.464844 L 606.535156 233.636719 C 607.042969 234.816406 607.421875 236.046875 607.84375 237.265625 L 610.34375 244.570312 C 610.765625 245.785156 611.195312 246.996094 611.523438 248.246094 L 613.648438 255.667969 C 614 256.910156 614.386719 258.136719 614.703125 259.386719 L 615.574219 263.148438 L 617.332031 270.667969 C 617.496094 271.296875 617.609375 271.929688 617.71875 272.566406 L 618.054688 274.46875 L 619.78125 283.972656 C 619.890625 284.609375 619.949219 285.253906 620.039062 285.894531 L 620.59375 290.226562 L 621.019531 293.566406 L 642.371094 291.054688 C 643.433594 293.277344 645.84375 294.726562 648.433594 294.464844 C 651.664062 294.144531 653.9375 291.179688 653.507812 287.839844 C 653.074219 284.496094 650.125 282.175781 646.914062 282.65625 " fill-opacity="1" fill-rule="nonzero"/><g clip-path="url(#d18c83fb90)"><path fill="#007ed5" d="M 675.019531 270.5625 C 674.371094 266.976562 671.265625 264.578125 668.078125 265.203125 C 665.511719 265.707031 663.667969 267.945312 663.371094 270.585938 L 634.1875 275.777344 C 631.753906 261.71875 628.039062 247.90625 623.367188 234.445312 C 618.285156 219.867188 611.96875 205.714844 604.488281 192.199219 L 598.660156 182.191406 L 592.355469 172.46875 C 587.964844 166.117188 583.457031 159.839844 578.546875 153.871094 C 569.570312 142.792969 559.71875 132.425781 549.132812 122.871094 L 549.167969 122.828125 C 548.308594 122.007812 547.371094 121.273438 546.476562 120.492188 L 544.058594 123.25 L 537.933594 130.238281 C 535.769531 129.410156 533.144531 130.070312 531.464844 132.058594 C 529.371094 134.539062 529.433594 138.054688 531.617188 139.902344 C 531.886719 140.136719 532.1875 140.328125 532.496094 140.496094 C 532.792969 140.667969 533.109375 140.808594 533.433594 140.90625 C 534.085938 141.117188 534.785156 141.183594 535.488281 141.117188 C 536.890625 140.984375 538.324219 140.3125 539.425781 139.121094 C 540.53125 137.933594 541.09375 136.445312 541.097656 134.988281 C 541.097656 134.261719 540.964844 133.542969 540.691406 132.875 C 540.632812 132.738281 540.566406 132.597656 540.496094 132.464844 L 546.679688 125.597656 C 557.121094 135.027344 566.839844 145.25 575.691406 156.179688 C 580.539062 162.0625 584.984375 168.257812 589.316406 174.523438 L 595.539062 184.109375 L 601.285156 193.980469 C 608.65625 207.3125 614.890625 221.269531 619.90625 235.652344 C 624.507812 248.925781 628.183594 262.550781 630.578125 276.421875 L 630.539062 276.425781 L 631.167969 279.886719 L 664.09375 274.476562 C 664.546875 275.351562 665.175781 276.109375 665.929688 276.6875 C 667.164062 277.660156 668.683594 278.160156 670.296875 277.921875 C 671.890625 277.679688 673.28125 276.742188 674.136719 275.410156 C 674.976562 274.078125 675.339844 272.355469 675.019531 270.5625 " fill-opacity="1" fill-rule="nonzero"/></g></svg>