<svg xmlns="http://www.w3.org/2000/svg" xmlns:xlink="http://www.w3.org/1999/xlink" width="1000" zoomAndPan="magnify" viewBox="0 0 750 749.999995" height="1000" preserveAspectRatio="xMidYMid meet" version="1.0"><defs><clipPath id="b38684c1d5"><path d="M 183.328125 306 L 277 306 L 277 327 L 183.328125 327 Z M 183.328125 306 " clip-rule="nonzero"/></clipPath><clipPath id="49f27535b5"><path d="M 241 247.410156 L 295 247.410156 L 295 287 L 241 287 Z M 241 247.410156 " clip-rule="nonzero"/></clipPath><clipPath id="b97c3efc23"><path d="M 407 247.410156 L 448 247.410156 L 448 292 L 407 292 Z M 407 247.410156 " clip-rule="nonzero"/></clipPath></defs><path fill="#ec5e65" d="M 433.707031 310.339844 C 435.03125 303.78125 438.511719 299.292969 444.144531 296.875 C 444.199219 296.855469 444.25 296.832031 444.304688 296.8125 C 444.574219 296.71875 444.835938 296.640625 445.085938 296.585938 C 447.3125 296.097656 448.78125 296.839844 449.484375 298.820312 C 449.519531 298.910156 449.546875 299.003906 449.574219 299.097656 C 449.597656 299.191406 449.621094 299.289062 449.636719 299.382812 C 449.878906 300.878906 449.53125 302.398438 448.585938 303.941406 L 448.871094 303.3125 C 448.773438 303.625 448.625 303.941406 448.425781 304.265625 C 447.621094 305.5625 444.945312 308.207031 440.398438 312.191406 C 439.25 313.199219 437.503906 313.078125 436.5 311.929688 C 435.496094 310.777344 435.613281 309.027344 436.761719 308.019531 C 440.894531 304.398438 443.21875 302.171875 443.730469 301.34375 C 443.683594 301.421875 443.636719 301.53125 443.59375 301.671875 C 443.660156 301.449219 443.757812 301.238281 443.878906 301.042969 C 444.101562 300.671875 444.203125 300.421875 444.183594 300.28125 L 444.246094 300.566406 C 444.253906 300.605469 444.265625 300.644531 444.28125 300.683594 C 444.667969 301.765625 445.332031 302.203125 446.269531 302 C 446.246094 302.003906 446.210938 302.015625 446.164062 302.03125 L 446.320312 301.96875 C 442.464844 303.625 440.0625 306.78125 439.121094 311.4375 C 438.820312 312.9375 437.359375 313.90625 435.867188 313.605469 C 434.371094 313.300781 433.402344 311.835938 433.707031 310.339844 Z M 433.707031 310.339844 " fill-opacity="1" fill-rule="nonzero"/><path fill="#ec5e65" d="M 439.519531 315.503906 C 440.621094 314.027344 442.472656 312.585938 445.074219 311.175781 C 445.113281 311.152344 445.152344 311.132812 445.191406 311.113281 C 447.847656 309.835938 449.953125 309.25 451.507812 309.347656 L 451.179688 309.347656 C 452.421875 309.277344 453.472656 309.382812 454.324219 309.667969 C 455.035156 309.902344 455.636719 310.261719 456.121094 310.742188 C 456.355469 310.972656 456.546875 311.25 456.6875 311.550781 C 457.363281 313.015625 457.117188 314.425781 455.949219 315.777344 C 455.644531 316.136719 455.261719 316.480469 454.808594 316.820312 C 454.78125 316.84375 454.753906 316.863281 454.722656 316.882812 C 451.960938 318.78125 448.65625 319.761719 444.808594 319.820312 C 443.28125 319.84375 442.027344 318.621094 442.003906 317.089844 C 441.980469 315.5625 443.199219 314.300781 444.722656 314.277344 C 447.460938 314.238281 449.753906 313.582031 451.597656 312.3125 L 451.507812 312.375 C 451.640625 312.28125 451.726562 312.207031 451.769531 312.15625 C 451.382812 312.605469 451.347656 313.175781 451.667969 313.875 L 452.238281 314.683594 C 452.367188 314.8125 452.484375 314.890625 452.589844 314.925781 C 452.398438 314.863281 452.03125 314.847656 451.492188 314.878906 C 451.382812 314.882812 451.273438 314.882812 451.164062 314.878906 C 450.5625 314.839844 449.371094 315.25 447.582031 316.109375 L 447.703125 316.046875 C 445.8125 317.070312 444.5625 317.996094 443.945312 318.824219 C 443.03125 320.046875 441.300781 320.300781 440.078125 319.382812 C 438.855469 318.46875 438.605469 316.730469 439.519531 315.503906 Z M 439.519531 315.503906 " fill-opacity="1" fill-rule="nonzero"/><path fill="#ec5e65" d="M 194.667969 291.710938 C 193.257812 290.660156 192.039062 289.386719 191.019531 287.886719 C 191.015625 287.882812 191.011719 287.878906 191.007812 287.871094 C 190.414062 286.984375 190.019531 286.214844 189.824219 285.558594 C 189.367188 284.023438 189.714844 282.84375 190.871094 282.023438 L 190.675781 282.179688 C 191.628906 281.332031 192.777344 281.15625 194.117188 281.644531 C 194.777344 281.886719 195.503906 282.324219 196.296875 282.964844 C 196.324219 282.988281 196.355469 283.015625 196.386719 283.039062 C 198.152344 284.613281 199.765625 286.160156 201.230469 287.675781 L 201.234375 287.679688 L 202.566406 289.0625 C 202.601562 289.097656 202.632812 289.136719 202.667969 289.175781 C 203.324219 289.949219 203.558594 290.78125 203.375 291.671875 L 203.390625 291.582031 C 203.269531 292.304688 202.886719 292.949219 202.238281 293.507812 C 201.832031 293.859375 201.28125 294.210938 200.582031 294.5625 L 200.625 294.542969 C 198.148438 295.851562 196.421875 296.621094 195.449219 296.851562 L 195.535156 296.828125 C 194.230469 297.1875 193.003906 297.386719 191.859375 297.425781 C 191.75 297.429688 191.640625 297.425781 191.527344 297.414062 C 190.003906 297.253906 188.972656 296.480469 188.4375 295.09375 C 188.390625 294.972656 188.355469 294.847656 188.328125 294.722656 C 188.097656 293.625 188.390625 292.601562 189.214844 291.660156 C 190.210938 290.515625 192.324219 289.390625 195.542969 288.285156 C 196.792969 287.855469 198.152344 288.527344 198.582031 289.777344 C 199.007812 291.03125 198.339844 292.394531 197.089844 292.824219 C 194.675781 293.652344 193.253906 294.316406 192.816406 294.816406 C 193.042969 294.558594 193.105469 294.195312 193.007812 293.734375 L 192.898438 293.363281 C 192.730469 292.925781 192.4375 292.6875 192.027344 292.644531 L 191.695312 292.632812 C 192.46875 292.605469 193.328125 292.460938 194.273438 292.203125 C 194.300781 292.195312 194.332031 292.1875 194.359375 292.179688 C 194.933594 292.046875 196.277344 291.417969 198.390625 290.300781 C 198.402344 290.292969 198.417969 290.285156 198.429688 290.28125 C 198.777344 290.105469 199.003906 289.972656 199.109375 289.878906 C 198.890625 290.070312 198.742188 290.375 198.675781 290.789062 C 198.679688 290.757812 198.683594 290.726562 198.691406 290.699219 C 198.558594 291.335938 198.667969 291.863281 199.019531 292.277344 L 199.121094 292.390625 L 197.792969 291.007812 L 197.796875 291.011719 C 196.414062 289.582031 194.886719 288.121094 193.207031 286.625 L 193.296875 286.699219 C 192.917969 286.394531 192.644531 286.210938 192.480469 286.152344 C 192.921875 286.3125 193.371094 286.1875 193.835938 285.777344 C 193.773438 285.832031 193.707031 285.882812 193.640625 285.933594 C 194.347656 285.429688 194.605469 284.847656 194.40625 284.1875 C 194.464844 284.378906 194.65625 284.714844 194.980469 285.199219 L 194.96875 285.183594 C 195.6875 286.238281 196.535156 287.128906 197.515625 287.859375 C 198.578125 288.648438 198.800781 290.148438 198.015625 291.210938 C 197.226562 292.277344 195.730469 292.5 194.667969 291.710938 Z M 194.667969 291.710938 " fill-opacity="1" fill-rule="nonzero"/><path fill="#ec5e65" d="M 221.351562 301.648438 C 218.199219 315.902344 216.679688 331.171875 216.789062 347.464844 C 216.789062 347.472656 216.789062 347.484375 216.789062 347.492188 C 216.769531 363.714844 217.8125 372.796875 219.925781 374.734375 C 219.90625 374.71875 219.878906 374.699219 219.84375 374.679688 C 220.09375 374.832031 220.328125 375.015625 220.535156 375.222656 C 221.328125 376.019531 223.066406 375.15625 225.753906 372.632812 L 225.683594 372.699219 C 230.488281 367.949219 233.839844 362.6875 235.75 356.917969 C 235.753906 356.90625 235.757812 356.890625 235.761719 356.878906 C 238.285156 349.515625 239.167969 343.234375 238.402344 338.035156 L 238.429688 338.191406 C 237.84375 335.136719 236.921875 333.730469 235.65625 333.972656 C 235.507812 334.003906 235.351562 334.042969 235.183594 334.09375 L 236.113281 333.660156 C 234.699219 334.582031 233.90625 335.296875 233.738281 335.804688 C 233.773438 335.703125 233.769531 335.601562 233.726562 335.5 C 233.734375 335.519531 233.75 335.542969 233.773438 335.578125 C 233.917969 335.800781 234.171875 336.0625 234.542969 336.359375 L 234.410156 336.257812 C 234.40625 336.253906 234.402344 336.253906 234.402344 336.25 C 235.972656 337.273438 241.105469 337.148438 249.792969 335.878906 C 250.316406 335.800781 250.847656 335.839844 251.351562 335.988281 C 254.023438 336.777344 255.9375 338.292969 257.101562 340.539062 C 257.179688 340.691406 257.25 340.851562 257.304688 341.015625 C 258.148438 343.425781 258.371094 346.589844 257.980469 350.507812 L 257.992188 350.410156 C 257.816406 352.785156 256.828125 357.523438 255.027344 364.621094 L 255.074219 364.402344 C 254.78125 365.941406 254.609375 367.441406 254.550781 368.898438 L 254.550781 368.90625 C 254.417969 372.113281 254.5 374.109375 254.796875 374.886719 C 254.601562 374.371094 254.144531 373.972656 253.425781 373.695312 C 253.796875 373.839844 254.140625 374.042969 254.449219 374.300781 C 253.921875 373.859375 253.417969 373.703125 252.929688 373.832031 C 254.511719 373.414062 257.707031 370.332031 262.511719 364.582031 C 265.027344 361.574219 267.890625 357.898438 271.101562 353.558594 C 272.300781 351.933594 274.585938 351.59375 276.203125 352.796875 C 277.824219 354 278.164062 356.292969 276.964844 357.914062 C 273.667969 362.375 270.714844 366.164062 268.105469 369.28125 C 262.304688 376.222656 257.863281 380.101562 254.78125 380.910156 C 252.835938 381.417969 251.164062 381.085938 249.761719 379.910156 L 250.785156 380.515625 C 249.492188 380.011719 248.558594 379.011719 247.984375 377.507812 C 247.328125 375.785156 247.085938 372.816406 247.257812 368.601562 L 247.257812 368.613281 C 247.332031 366.789062 247.546875 364.929688 247.90625 363.03125 C 247.921875 362.960938 247.9375 362.886719 247.957031 362.816406 C 249.652344 356.136719 250.570312 351.824219 250.710938 349.875 C 250.714844 349.84375 250.71875 349.808594 250.722656 349.777344 C 251.003906 346.9375 250.902344 344.824219 250.417969 343.429688 L 250.625 343.910156 C 250.417969 343.511719 249.972656 343.210938 249.289062 343.007812 L 250.847656 343.121094 C 240.34375 344.65625 233.535156 344.410156 230.429688 342.386719 C 230.320312 342.316406 230.214844 342.246094 230.113281 342.171875 C 230.066406 342.136719 230.023438 342.105469 229.980469 342.070312 C 228.996094 341.28125 228.21875 340.441406 227.648438 339.558594 C 227.378906 339.140625 227.15625 338.714844 226.976562 338.277344 C 226.335938 336.710938 226.277344 335.121094 226.808594 333.511719 C 227.511719 331.371094 229.292969 329.375 232.144531 327.519531 C 232.433594 327.332031 232.746094 327.1875 233.074219 327.089844 C 233.484375 326.964844 233.882812 326.867188 234.28125 326.789062 C 240.320312 325.625 244.09375 328.964844 245.597656 336.8125 C 245.605469 336.863281 245.617188 336.917969 245.625 336.96875 C 246.558594 343.34375 245.570312 350.773438 242.660156 359.257812 L 242.675781 359.21875 C 240.402344 366.101562 236.445312 372.332031 230.808594 377.910156 C 230.785156 377.933594 230.761719 377.953125 230.738281 377.976562 C 224.613281 383.726562 219.492188 384.53125 215.371094 380.390625 L 216.0625 380.9375 C 215.6875 380.710938 215.332031 380.441406 214.996094 380.132812 C 211.300781 376.742188 209.46875 365.859375 209.492188 347.484375 L 209.492188 347.511719 C 209.378906 330.671875 210.957031 314.855469 214.226562 300.0625 C 214.664062 298.089844 216.613281 296.847656 218.578125 297.285156 C 220.546875 297.722656 221.789062 299.675781 221.351562 301.648438 Z M 221.351562 301.648438 " fill-opacity="1" fill-rule="nonzero"/><path fill="#ec5e65" d="M 292.527344 353.34375 C 291.273438 349.929688 290.425781 347.902344 289.984375 347.257812 C 290.019531 347.3125 290.078125 347.375 290.148438 347.453125 C 290.058594 347.359375 289.976562 347.261719 289.894531 347.15625 C 289.554688 346.71875 288.816406 346.308594 287.675781 345.929688 L 288.011719 346.023438 C 285.386719 345.417969 283.152344 346.285156 281.316406 348.628906 L 281.558594 348.277344 C 277.972656 354.152344 276.03125 359.761719 275.730469 365.105469 L 275.734375 364.851562 C 275.792969 369.125 276.929688 371.550781 279.144531 372.132812 L 278.65625 372.039062 C 281.628906 372.398438 284.992188 369.875 288.75 364.460938 L 288.707031 364.523438 C 292.660156 358.574219 295.648438 350.929688 297.675781 341.589844 C 297.953125 340.320312 298.878906 339.292969 300.113281 338.890625 C 301.347656 338.488281 302.699219 338.773438 303.667969 339.636719 C 304.574219 340.445312 305.0625 341.566406 305.125 343.003906 C 305.148438 343.621094 305.097656 344.367188 304.972656 345.242188 C 304.960938 345.308594 304.949219 345.375 304.9375 345.4375 C 302.933594 355.257812 301.964844 361.878906 302.03125 365.300781 C 302.03125 365.382812 302.03125 365.464844 302.027344 365.550781 C 301.859375 368.933594 302.542969 371.695312 304.074219 373.835938 L 303.730469 373.425781 C 303.277344 372.953125 302.777344 372.824219 302.234375 373.042969 C 302.460938 372.949219 302.808594 372.679688 303.28125 372.222656 C 303.589844 371.921875 303.917969 371.566406 304.269531 371.15625 C 304.332031 371.082031 304.394531 371.011719 304.464844 370.941406 C 305.910156 369.484375 309.160156 364.238281 314.207031 355.195312 C 315.191406 353.433594 317.414062 352.804688 319.171875 353.792969 C 320.933594 354.78125 321.558594 357.007812 320.574219 358.773438 C 315.199219 368.398438 311.550781 374.175781 309.632812 376.105469 L 309.828125 375.894531 C 309.324219 376.488281 308.832031 377.019531 308.351562 377.484375 C 307.191406 378.609375 306.050781 379.394531 304.929688 379.84375 C 302.441406 380.832031 300.292969 380.390625 298.484375 378.511719 C 298.363281 378.386719 298.25 378.246094 298.144531 378.101562 C 295.621094 374.578125 294.488281 370.273438 294.738281 365.1875 L 294.734375 365.4375 C 294.660156 361.476562 295.675781 354.324219 297.785156 343.972656 L 297.75 344.171875 C 297.8125 343.757812 297.839844 343.476562 297.832031 343.320312 C 297.859375 343.949219 298.1875 344.539062 298.816406 345.101562 L 304.808594 343.148438 C 302.582031 353.386719 299.242188 361.863281 294.78125 368.578125 C 294.765625 368.601562 294.753906 368.621094 294.738281 368.640625 C 289.3125 376.460938 283.660156 380.015625 277.78125 379.304688 C 277.617188 379.285156 277.457031 379.253906 277.296875 379.210938 C 271.496094 377.6875 268.542969 372.933594 268.441406 364.949219 C 268.4375 364.863281 268.441406 364.78125 268.445312 364.695312 C 268.8125 358.125 271.109375 351.378906 275.335938 344.457031 C 275.410156 344.335938 275.492188 344.21875 275.578125 344.109375 C 279.324219 339.332031 284.015625 337.59375 289.648438 338.894531 C 289.761719 338.921875 289.875 338.953125 289.984375 338.988281 C 292.523438 339.835938 294.414062 341.0625 295.65625 342.667969 L 295.402344 342.375 C 295.609375 342.589844 295.808594 342.835938 296 343.117188 C 296.785156 344.265625 297.910156 346.828125 299.375 350.808594 C 300.074219 352.707031 299.105469 354.808594 297.214844 355.507812 C 295.324219 356.207031 293.226562 355.238281 292.527344 353.34375 Z M 292.527344 353.34375 " fill-opacity="1" fill-rule="nonzero"/><path fill="#ec5e65" d="M 338.429688 350.222656 C 337.972656 346.90625 336.578125 345.015625 334.242188 344.539062 L 334.332031 344.558594 C 331.453125 344.046875 328.328125 345.316406 324.960938 348.363281 L 325.066406 348.265625 C 322.949219 350.34375 321.796875 353.402344 321.605469 357.441406 C 321.605469 357.449219 321.605469 357.457031 321.605469 357.464844 C 321.378906 361.679688 322.335938 365.367188 324.46875 368.527344 L 324.429688 368.464844 C 326.488281 371.390625 329.042969 372.375 332.089844 371.421875 C 332.117188 371.414062 332.144531 371.40625 332.171875 371.398438 C 335.1875 370.535156 340.410156 366.316406 347.839844 358.742188 C 349.253906 357.304688 351.5625 357.285156 353 358.699219 C 354.4375 360.117188 354.457031 362.433594 353.042969 363.875 C 344.714844 372.363281 338.425781 377.214844 334.175781 378.433594 L 334.261719 378.40625 C 327.835938 380.414062 322.574219 378.507812 318.46875 372.691406 C 318.457031 372.671875 318.441406 372.652344 318.429688 372.628906 C 315.375 368.113281 314.003906 362.925781 314.316406 357.074219 L 314.316406 357.097656 C 314.597656 351.140625 316.476562 346.453125 319.964844 343.035156 C 319.996094 343 320.035156 342.96875 320.070312 342.933594 C 325.203125 338.289062 330.378906 336.425781 335.601562 337.351562 C 335.632812 337.355469 335.660156 337.363281 335.691406 337.367188 C 341.410156 338.53125 344.730469 342.480469 345.65625 349.222656 C 345.933594 351.226562 344.539062 353.070312 342.542969 353.347656 C 340.546875 353.621094 338.703125 352.222656 338.429688 350.222656 Z M 338.429688 350.222656 " fill-opacity="1" fill-rule="nonzero"/><path fill="#ec5e65" d="M 357.988281 336.871094 C 361.214844 337.941406 364.964844 333.957031 369.238281 324.917969 L 369.113281 325.21875 C 372.296875 316.578125 371.960938 309.929688 368.113281 305.28125 L 368.347656 305.539062 C 367.378906 304.574219 366.53125 304.457031 365.804688 305.1875 C 363.683594 307.328125 361.5625 312.242188 359.441406 319.925781 L 359.476562 319.792969 C 357.960938 326.238281 356.984375 334.355469 356.546875 344.148438 L 356.550781 344.074219 C 356.140625 361.101562 356.394531 371.976562 357.3125 376.695312 L 350.136719 376.773438 C 352.1875 364.890625 354.390625 357.496094 356.746094 354.578125 L 356.394531 355.101562 C 360.238281 348.179688 365.417969 343.746094 371.9375 341.800781 C 372.421875 341.65625 372.929688 341.613281 373.429688 341.675781 C 376.886719 342.109375 378.410156 343.988281 377.996094 347.3125 C 377.957031 347.617188 377.898438 347.929688 377.808594 348.242188 C 377.238281 350.328125 375.273438 353.199219 371.910156 356.855469 L 371.898438 356.867188 C 367.1875 361.941406 362.417969 365.445312 357.589844 367.375 C 355.867188 368.0625 353.90625 367.347656 353.027344 365.710938 C 352.148438 364.078125 352.628906 362.039062 354.148438 360.976562 C 359.039062 357.546875 363.324219 357.253906 366.996094 360.097656 L 366.625 359.84375 C 368.15625 360.75 369.644531 362.074219 371.09375 363.824219 C 371.195312 363.941406 371.285156 364.066406 371.367188 364.195312 C 374.238281 368.710938 376.039062 371.3125 376.765625 371.996094 C 376.761719 371.996094 376.761719 371.992188 376.761719 371.992188 C 376.839844 372.0625 376.914062 372.140625 376.984375 372.21875 C 377.789062 373.089844 378.53125 373.644531 379.214844 373.878906 L 379.066406 373.832031 C 380.167969 374.160156 382.082031 373.007812 384.8125 370.382812 C 386.265625 368.984375 388.574219 369.03125 389.972656 370.488281 C 391.367188 371.945312 391.320312 374.261719 389.863281 375.660156 C 385.097656 380.25 380.808594 381.976562 377 380.851562 C 376.953125 380.835938 376.902344 380.820312 376.851562 380.800781 C 375.003906 380.167969 373.257812 378.960938 371.621094 377.175781 L 371.847656 377.402344 C 371.820312 377.378906 371.792969 377.351562 371.765625 377.328125 C 370.597656 376.226562 368.414062 373.160156 365.214844 368.132812 L 365.484375 368.503906 C 364.574219 367.40625 363.71875 366.617188 362.914062 366.144531 C 362.785156 366.066406 362.660156 365.980469 362.539062 365.890625 C 361.695312 365.238281 360.292969 365.597656 358.328125 366.972656 L 354.886719 360.578125 C 358.699219 359.050781 362.589844 356.15625 366.554688 351.882812 L 366.542969 351.894531 C 369.105469 349.109375 370.515625 347.246094 370.773438 346.308594 C 370.765625 346.332031 370.761719 346.367188 370.753906 346.410156 C 370.566406 347.925781 371.15625 348.765625 372.527344 348.9375 L 374.019531 348.8125 C 369.398438 350.191406 365.648438 353.476562 362.769531 358.664062 C 362.667969 358.847656 362.550781 359.019531 362.417969 359.183594 C 360.859375 361.113281 359.164062 367.390625 357.328125 378.023438 C 357.027344 379.761719 355.53125 381.039062 353.773438 381.054688 C 352.011719 381.074219 350.488281 379.832031 350.152344 378.101562 C 349.128906 372.859375 348.832031 361.457031 349.253906 343.898438 C 349.253906 343.871094 349.257812 343.847656 349.257812 343.820312 C 349.714844 333.570312 350.753906 325.003906 352.375 318.113281 C 352.386719 318.066406 352.398438 318.023438 352.410156 317.976562 C 354.871094 309.058594 357.609375 303.078125 360.628906 300.03125 C 364.785156 295.839844 369.070312 295.945312 373.492188 300.351562 C 373.574219 300.433594 373.652344 300.519531 373.726562 300.609375 C 379.367188 307.421875 380.113281 316.472656 375.960938 327.753906 C 375.921875 327.855469 375.878906 327.953125 375.832031 328.054688 C 369.710938 340.992188 363 346.246094 355.691406 343.8125 C 353.777344 343.175781 352.742188 341.105469 353.378906 339.1875 C 354.011719 337.273438 356.078125 336.234375 357.988281 336.871094 Z M 357.988281 336.871094 " fill-opacity="1" fill-rule="nonzero"/><path fill="#ec5e65" d="M 395.894531 357.609375 C 396.707031 358.59375 398.433594 358.960938 401.070312 358.71875 L 400.789062 358.753906 C 404 358.203125 406.128906 357.128906 407.171875 355.53125 L 407.101562 355.644531 C 410.261719 350.390625 409.683594 346.398438 405.371094 343.664062 L 406.40625 344.113281 C 403.257812 343.296875 399.976562 345.5 396.558594 350.726562 L 396.632812 350.613281 C 392.566406 357.371094 391.242188 363.558594 392.667969 369.171875 L 392.421875 368.492188 C 395.175781 374.257812 399.472656 375.738281 405.3125 372.929688 C 408.085938 371.597656 411.191406 369.441406 414.628906 366.457031 L 414.585938 366.496094 C 420.902344 360.828125 425.46875 353.621094 428.28125 344.882812 L 428.179688 345.257812 C 429.625 338.316406 428.652344 334.238281 425.257812 333.027344 L 428.925781 332.296875 C 427.964844 333.164062 427.992188 334.164062 429 335.289062 C 429.398438 335.730469 429.894531 336.191406 430.484375 336.675781 L 430.15625 336.433594 C 431.414062 337.246094 432.769531 337.746094 434.214844 337.941406 C 434.839844 338.023438 435.429688 338.265625 435.929688 338.644531 C 435.359375 338.214844 434.785156 337.988281 434.203125 337.964844 C 434.914062 337.992188 437.359375 337.765625 441.542969 337.292969 C 441.613281 337.285156 441.683594 337.277344 441.75 337.273438 C 442.785156 337.214844 443.738281 337.28125 444.609375 337.464844 C 444.671875 337.480469 444.734375 337.496094 444.796875 337.511719 C 447.515625 338.242188 449.375 339.898438 450.378906 342.476562 L 450.375 342.464844 C 451.140625 344.414062 451.265625 347.054688 450.742188 350.378906 C 450.730469 350.472656 450.710938 350.570312 450.6875 350.664062 C 447.972656 362.050781 446.621094 368.535156 446.636719 370.117188 C 446.632812 370.0625 446.628906 369.988281 446.613281 369.898438 C 446.652344 370.164062 446.664062 370.4375 446.644531 370.707031 C 446.480469 373.082031 446.648438 374.503906 447.152344 374.972656 L 446.839844 374.710938 C 446.75 374.644531 446.664062 374.613281 446.574219 374.609375 C 448.980469 374.6875 453.851562 369.796875 461.191406 359.941406 C 462.398438 358.320312 464.683594 357.988281 466.296875 359.195312 C 467.914062 360.40625 468.242188 362.699219 467.039062 364.316406 C 458.179688 376.214844 451.28125 382.082031 446.34375 381.921875 C 444.917969 381.878906 443.640625 381.4375 442.507812 380.601562 C 442.398438 380.519531 442.292969 380.429688 442.191406 380.339844 C 439.980469 378.28125 439.039062 374.898438 439.367188 370.191406 L 439.398438 371 C 439.359375 370.75 439.339844 370.480469 439.339844 370.1875 C 439.316406 368.007812 440.734375 360.929688 443.589844 348.960938 L 443.535156 349.246094 C 443.851562 347.230469 443.867188 345.863281 443.585938 345.148438 L 443.582031 345.136719 C 443.472656 344.855469 443.246094 344.671875 442.902344 344.578125 L 443.089844 344.621094 C 442.855469 344.574219 442.542969 344.558594 442.160156 344.582031 L 442.367188 344.5625 C 437.816406 345.078125 435.003906 345.316406 433.929688 345.277344 C 432.984375 345.242188 432.1875 344.976562 431.539062 344.488281 L 433.253906 345.195312 C 430.734375 344.859375 428.386719 343.992188 426.214844 342.59375 C 426.097656 342.519531 425.988281 342.4375 425.882812 342.351562 C 425 341.632812 424.230469 340.910156 423.578125 340.183594 C 419.3125 335.433594 419.464844 330.992188 424.042969 326.863281 C 425.039062 325.960938 426.445312 325.683594 427.707031 326.132812 C 435.097656 328.773438 437.636719 335.644531 435.324219 346.753906 C 435.296875 346.878906 435.265625 347.003906 435.226562 347.128906 C 432.007812 357.125 426.75 365.398438 419.449219 371.949219 C 419.433594 371.960938 419.421875 371.972656 419.40625 371.988281 C 415.472656 375.398438 411.828125 377.914062 408.464844 379.53125 C 398.238281 384.441406 390.699219 381.816406 385.839844 371.652344 C 385.738281 371.4375 385.65625 371.207031 385.59375 370.976562 C 383.667969 363.386719 385.265625 355.335938 390.382812 346.832031 C 390.40625 346.792969 390.429688 346.753906 390.457031 346.714844 C 395.785156 338.5625 401.714844 335.335938 408.238281 337.03125 C 408.601562 337.125 408.953125 337.277344 409.269531 337.480469 C 417.609375 342.765625 418.96875 350.078125 413.351562 359.421875 C 413.328125 359.460938 413.304688 359.5 413.277344 359.539062 C 411.070312 362.914062 407.320312 365.058594 402.019531 365.964844 C 401.925781 365.980469 401.832031 365.996094 401.738281 366.003906 C 396.550781 366.480469 392.734375 365.242188 390.28125 362.289062 C 388.996094 360.734375 389.207031 358.425781 390.757812 357.136719 C 392.308594 355.84375 394.609375 356.058594 395.894531 357.609375 Z M 395.894531 357.609375 " fill-opacity="1" fill-rule="nonzero"/><g clip-path="url(#b38684c1d5)"><path fill="#ec5e65" d="M 184 322.292969 C 185.972656 315.582031 192.78125 311.523438 204.425781 310.109375 C 204.5 310.097656 204.578125 310.089844 204.652344 310.085938 C 206.980469 309.953125 210.113281 310.199219 214.058594 310.820312 C 214.066406 310.824219 214.078125 310.824219 214.085938 310.824219 C 215.421875 311.050781 216.605469 311.277344 217.636719 311.507812 C 217.667969 311.515625 217.695312 311.523438 217.726562 311.53125 C 223.792969 313.054688 227.738281 313.960938 229.5625 314.253906 C 229.59375 314.257812 229.621094 314.261719 229.652344 314.269531 C 234.929688 315.246094 239.441406 315.953125 243.1875 316.390625 L 243.199219 316.390625 C 252.117188 317.46875 258.632812 317.648438 262.746094 316.925781 C 262.792969 316.917969 262.839844 316.910156 262.886719 316.902344 C 267.089844 316.332031 269.082031 315.257812 268.871094 313.675781 C 268.804688 313.1875 268.628906 312.617188 268.347656 311.972656 C 267.542969 310.117188 268.386719 307.960938 270.234375 307.152344 C 272.078125 306.347656 274.230469 307.191406 275.035156 309.042969 C 275.589844 310.3125 275.945312 311.53125 276.101562 312.695312 C 276.96875 319.109375 272.890625 322.929688 263.863281 324.152344 L 264.003906 324.132812 C 259.183594 324.976562 251.960938 324.820312 242.328125 323.65625 L 242.34375 323.65625 C 238.4375 323.203125 233.765625 322.46875 228.328125 321.464844 L 228.417969 321.480469 C 226.382812 321.15625 222.226562 320.203125 215.953125 318.625 L 216.039062 318.648438 C 215.140625 318.445312 214.089844 318.246094 212.890625 318.042969 L 212.921875 318.046875 C 209.492188 317.507812 206.878906 317.289062 205.074219 317.390625 L 205.300781 317.371094 C 196.835938 318.398438 192.066406 320.730469 191 324.363281 C 190.429688 326.300781 188.398438 327.410156 186.46875 326.839844 C 184.535156 326.265625 183.429688 324.230469 184 322.292969 Z M 184 322.292969 " fill-opacity="1" fill-rule="nonzero"/></g><path fill="#0e5173" d="M 222.410156 257.050781 C 223.207031 257.050781 223.972656 257.300781 224.699219 257.796875 C 226.828125 260.660156 226.695312 263.722656 224.300781 266.980469 C 223 268.347656 221.65625 269.070312 220.261719 269.152344 C 219.9375 269.167969 219.628906 269.175781 219.335938 269.175781 C 217.472656 269.175781 216.207031 268.839844 215.539062 268.171875 C 215.1875 267.816406 214.78125 267.546875 214.347656 267.359375 C 214.703125 264.09375 216.027344 261.292969 218.320312 258.960938 C 219.773438 257.6875 221.136719 257.050781 222.410156 257.050781 Z M 222.359375 249.171875 C 219.359375 249.171875 216.304688 250.554688 213.191406 253.324219 C 213.132812 253.375 213.078125 253.429688 213.023438 253.480469 C 208.191406 258.328125 206.097656 264.390625 206.75 271.664062 C 206.753906 271.714844 206.761719 271.765625 206.769531 271.8125 C 208.433594 284.710938 214.128906 291.160156 223.847656 291.160156 C 224.886719 291.160156 225.96875 291.089844 227.09375 290.941406 C 228.316406 290.78125 229.585938 290.527344 230.90625 290.175781 C 230.914062 290.175781 230.925781 290.171875 230.933594 290.167969 C 240.050781 287.660156 252.882812 276.628906 269.429688 257.066406 C 270.789062 255.460938 270.59375 253.054688 268.992188 251.691406 C 268.277344 251.082031 267.402344 250.785156 266.53125 250.785156 C 265.453125 250.785156 264.382812 251.242188 263.628906 252.132812 C 248.101562 270.488281 236.535156 280.714844 228.929688 282.8125 C 227.941406 283.074219 227.003906 283.261719 226.117188 283.378906 C 225.542969 283.453125 224.988281 283.488281 224.457031 283.488281 C 220.214844 283.488281 217.253906 281.128906 215.574219 276.414062 C 216.742188 276.671875 218.023438 276.800781 219.414062 276.800781 C 219.824219 276.800781 220.242188 276.789062 220.667969 276.769531 L 220.6875 276.765625 C 224.179688 276.566406 227.289062 274.984375 230.019531 272.015625 C 230.101562 271.925781 230.179688 271.828125 230.253906 271.730469 C 235.257812 265.105469 235.285156 258.738281 230.328125 252.632812 C 230.152344 252.417969 229.953125 252.222656 229.738281 252.050781 C 227.316406 250.128906 224.859375 249.171875 222.359375 249.171875 Z M 222.359375 249.171875 " fill-opacity="1" fill-rule="nonzero"/><g clip-path="url(#49f27535b5)"><path fill="#0e5173" d="M 245.042969 247.804688 C 244.769531 247.804688 244.488281 247.835938 244.210938 247.898438 C 242.160156 248.355469 240.871094 250.394531 241.328125 252.449219 C 242.96875 259.839844 246.277344 267.675781 251.25 275.960938 C 254.859375 282.050781 259.328125 285.449219 264.65625 286.15625 C 265.28125 286.253906 265.90625 286.304688 266.53125 286.304688 C 270.578125 286.304688 274.589844 284.253906 278.570312 280.152344 C 283.265625 275.355469 288.269531 268.367188 293.582031 259.191406 C 294.636719 257.371094 294.019531 255.039062 292.203125 253.980469 C 291.601562 253.628906 290.945312 253.464844 290.296875 253.464844 C 288.988281 253.464844 287.710938 254.144531 287.003906 255.363281 C 282.011719 263.988281 277.390625 270.46875 273.140625 274.808594 L 273.128906 274.824219 C 270.640625 277.386719 268.425781 278.671875 266.480469 278.671875 C 266.25 278.671875 266.023438 278.652344 265.800781 278.617188 C 265.761719 278.609375 265.722656 278.605469 265.683594 278.601562 C 262.777344 278.222656 260.144531 276.039062 257.777344 272.050781 C 257.773438 272.042969 257.773438 272.035156 257.769531 272.03125 C 253.21875 264.453125 250.214844 257.371094 248.75 250.789062 C 248.355469 249.011719 246.785156 247.804688 245.042969 247.804688 Z M 245.042969 247.804688 " fill-opacity="1" fill-rule="nonzero"/></g><path fill="#0e5173" d="M 290.050781 252.0625 C 288.015625 252.0625 286.328125 253.679688 286.253906 255.734375 C 286.226562 256.433594 285.835938 260.65625 285.085938 268.398438 C 285.085938 268.40625 285.085938 268.417969 285.085938 268.425781 C 284.992188 269.480469 284.882812 270.804688 284.761719 272.398438 L 284.757812 272.410156 C 284.558594 275.132812 284.40625 278.023438 284.304688 281.078125 L 284.300781 281.078125 C 284.199219 283.726562 284.144531 287.3125 284.140625 291.835938 L 284.140625 305.765625 C 284.136719 306.753906 284.160156 308.683594 284.21875 311.546875 C 284.261719 313.628906 285.957031 315.285156 288.019531 315.285156 C 288.046875 315.285156 288.074219 315.285156 288.101562 315.285156 C 290.199219 315.238281 291.867188 313.5 291.824219 311.390625 C 291.769531 308.570312 291.742188 306.703125 291.746094 305.789062 C 291.746094 305.78125 291.746094 305.773438 291.746094 305.765625 L 291.746094 291.839844 C 291.753906 287.40625 291.804688 283.910156 291.90625 281.355469 L 291.90625 281.339844 C 292.003906 278.390625 292.152344 275.601562 292.34375 272.980469 C 292.464844 271.433594 292.566406 270.152344 292.660156 269.136719 C 293.425781 261.238281 293.824219 256.867188 293.855469 256.019531 L 293.855469 256.015625 C 293.929688 253.910156 292.292969 252.144531 290.195312 252.066406 C 290.144531 252.0625 290.097656 252.0625 290.050781 252.0625 Z M 290.050781 252.0625 " fill-opacity="1" fill-rule="nonzero"/><path fill="#0e5173" d="M 308.949219 277.648438 C 308.957031 277.652344 308.960938 277.652344 308.96875 277.652344 C 308.265625 278.644531 307.414062 279.601562 306.414062 280.527344 C 304.777344 281.917969 303.464844 282.675781 302.476562 282.804688 C 302.535156 282.625 302.613281 282.425781 302.710938 282.203125 L 302.707031 282.203125 C 303.855469 280.179688 305.316406 278.796875 307.085938 278.058594 C 307.707031 277.804688 308.328125 277.671875 308.949219 277.648438 Z M 306.007812 250.617188 C 305.972656 250.617188 305.9375 250.617188 305.902344 250.617188 C 300.957031 250.757812 296.164062 253.023438 291.523438 257.414062 C 291.515625 257.421875 291.507812 257.425781 291.503906 257.433594 C 287.164062 261.609375 284.859375 266.304688 284.597656 271.523438 C 284.488281 273.628906 286.105469 275.421875 288.203125 275.527344 C 288.265625 275.53125 288.332031 275.53125 288.398438 275.53125 C 290.410156 275.53125 292.089844 273.949219 292.191406 271.910156 C 292.355469 268.714844 293.871094 265.730469 296.746094 262.960938 C 299.941406 259.933594 303.027344 258.363281 306.011719 258.246094 C 307.699219 258.320312 309.058594 259.339844 310.089844 261.300781 C 311.378906 264.25 311.875 267.285156 311.574219 270.40625 C 311.109375 270.3125 310.640625 270.214844 310.160156 270.109375 C 309.929688 270.058594 309.695312 270.03125 309.460938 270.023438 C 309.34375 270.019531 309.226562 270.019531 309.109375 270.019531 C 307.449219 270.019531 305.828125 270.339844 304.238281 270.984375 C 304.230469 270.988281 304.21875 270.992188 304.210938 270.996094 C 300.742188 272.429688 297.996094 274.984375 295.972656 278.65625 C 295.917969 278.75 295.871094 278.847656 295.824219 278.949219 C 294.996094 280.816406 294.632812 282.519531 294.730469 284.058594 C 294.871094 286.332031 295.890625 288.089844 297.785156 289.324219 C 297.929688 289.417969 298.078125 289.5 298.234375 289.574219 C 299.5 290.171875 300.804688 290.472656 302.148438 290.472656 C 305.050781 290.472656 308.136719 289.074219 311.40625 286.285156 C 311.445312 286.253906 311.480469 286.21875 311.519531 286.1875 C 313.925781 283.964844 315.765625 281.558594 317.03125 278.972656 C 318.839844 279.160156 320.53125 279.257812 322.109375 279.257812 C 323.671875 279.257812 325.125 279.164062 326.464844 278.976562 C 328.582031 278.84375 330.710938 278.3125 332.847656 277.378906 C 332.679688 276.210938 332.570312 275.378906 332.511719 274.875 C 332.503906 274.789062 332.496094 274.707031 332.488281 274.625 C 332.390625 273.785156 332.292969 272.542969 332.199219 270.90625 C 332.160156 270.292969 332.132812 269.710938 332.113281 269.15625 C 329.917969 270.53125 327.84375 271.269531 325.890625 271.371094 C 325.773438 271.375 325.65625 271.386719 325.542969 271.402344 C 324.492188 271.558594 323.332031 271.632812 322.066406 271.632812 C 321.136719 271.632812 320.152344 271.59375 319.109375 271.511719 C 319.621094 266.898438 318.917969 262.425781 316.988281 258.089844 C 316.960938 258.023438 316.929688 257.960938 316.898438 257.898438 C 314.46875 253.160156 310.867188 250.730469 306.101562 250.617188 C 306.070312 250.617188 306.039062 250.617188 306.007812 250.617188 Z M 306.007812 250.617188 " fill-opacity="1" fill-rule="nonzero"/><path fill="#0e5173" d="M 343.726562 257.429688 C 345.269531 257.429688 346.59375 258.3125 347.707031 260.082031 C 348.421875 261.726562 347.683594 263.492188 345.484375 265.367188 C 344.65625 265.71875 343.671875 265.894531 342.539062 265.894531 C 342.234375 265.894531 341.917969 265.882812 341.589844 265.855469 C 339.246094 265.640625 337.742188 265.246094 337.070312 264.667969 C 336.964844 264.578125 336.855469 264.492188 336.746094 264.417969 C 337.78125 261.15625 339.78125 258.867188 342.734375 257.546875 C 343.074219 257.46875 343.40625 257.429688 343.726562 257.429688 Z M 344.167969 249.71875 C 343.007812 249.71875 341.789062 249.894531 340.511719 250.242188 C 340.351562 250.285156 340.191406 250.339844 340.039062 250.40625 C 334.585938 252.699219 331.007812 256.800781 329.3125 262.710938 C 329.296875 262.761719 329.285156 262.8125 329.269531 262.863281 C 327.808594 268.882812 328.480469 274.933594 331.289062 281.015625 C 331.300781 281.039062 331.3125 281.0625 331.324219 281.089844 C 333.894531 286.359375 337.957031 289.261719 343.511719 289.789062 C 343.628906 289.800781 343.75 289.808594 343.871094 289.808594 C 343.914062 289.808594 343.957031 289.804688 344.003906 289.804688 C 352.972656 289.492188 361.25 283.054688 368.832031 270.5 C 369.917969 268.699219 369.34375 266.351562 367.546875 265.261719 C 366.933594 264.886719 366.253906 264.710938 365.582031 264.710938 C 364.296875 264.710938 363.039062 265.367188 362.324219 266.550781 C 356.246094 276.617188 350.136719 281.824219 343.988281 282.171875 C 341.40625 281.851562 339.46875 280.390625 338.1875 277.796875 L 338.183594 277.796875 C 337.390625 276.074219 336.828125 274.363281 336.496094 272.667969 C 337.789062 273.042969 339.265625 273.304688 340.917969 273.453125 C 340.933594 273.457031 340.945312 273.457031 340.960938 273.457031 C 341.5 273.5 342.027344 273.523438 342.542969 273.523438 C 345.042969 273.523438 347.277344 273.019531 349.253906 272.015625 C 349.492188 271.898438 349.714844 271.753906 349.921875 271.585938 C 355.601562 267 357.117188 262 354.46875 256.578125 C 354.417969 256.476562 354.363281 256.375 354.304688 256.28125 C 351.660156 251.90625 348.28125 249.71875 344.167969 249.71875 Z M 344.167969 249.71875 " fill-opacity="1" fill-rule="nonzero"/><path fill="#0e5173" d="M 367.664062 248.109375 C 366.019531 248.109375 364.5 249.1875 364.015625 250.851562 C 363.074219 254.074219 362.601562 260.65625 362.597656 270.605469 C 362.597656 270.640625 362.597656 270.675781 362.597656 270.710938 C 362.828125 279.242188 363.371094 284.59375 364.238281 286.765625 C 364.496094 287.414062 364.820312 287.964844 365.214844 288.414062 C 365.367188 288.585938 365.535156 288.746094 365.714844 288.886719 C 366.617188 289.605469 367.492188 289.964844 368.332031 289.964844 C 369.457031 289.964844 370.523438 289.324219 371.53125 288.042969 C 371.667969 287.871094 371.800781 287.679688 371.933594 287.472656 C 372.355469 286.796875 372.824219 285.78125 373.335938 284.433594 C 373.375 284.328125 373.410156 284.222656 373.441406 284.113281 C 376.601562 272.835938 378.863281 265.992188 380.21875 263.582031 C 380.277344 263.480469 380.328125 263.378906 380.375 263.269531 C 381.722656 260.265625 383.21875 258.347656 384.855469 257.519531 L 384.871094 257.511719 C 385.925781 256.976562 386.796875 256.707031 387.480469 256.707031 C 388.203125 256.707031 388.714844 257.007812 389.019531 257.609375 C 389.148438 257.855469 389.265625 258.140625 389.375 258.453125 C 389.382812 258.476562 389.390625 258.496094 389.398438 258.519531 C 389.785156 259.566406 389.953125 261.320312 389.90625 263.777344 L 389.902344 263.777344 C 388.90625 273.933594 388.460938 279.839844 388.570312 281.488281 C 388.582031 281.652344 388.597656 281.8125 388.621094 281.964844 L 388.617188 281.964844 C 388.683594 283.820312 388.902344 285.777344 389.277344 287.835938 C 389.683594 290.203125 390.972656 291.59375 393.144531 292.003906 C 393.292969 292.03125 393.441406 292.050781 393.589844 292.0625 C 393.75 292.074219 393.90625 292.078125 394.066406 292.078125 C 394.796875 292.078125 395.523438 291.960938 396.246094 291.730469 C 398.667969 290.949219 400.964844 288.808594 403.136719 285.3125 C 403.148438 285.296875 403.15625 285.28125 403.167969 285.265625 C 403.882812 284.078125 404.484375 282.929688 404.980469 281.816406 C 404.984375 281.800781 404.992188 281.785156 405 281.765625 C 407.9375 274.886719 409.613281 271.035156 410.027344 270.210938 L 410.023438 270.210938 C 410.078125 270.117188 410.132812 270.019531 410.179688 269.921875 C 411.09375 267.996094 412.257812 265.792969 413.667969 263.3125 C 414.707031 261.484375 414.070312 259.15625 412.242188 258.113281 C 411.648438 257.773438 411.003906 257.613281 410.363281 257.613281 C 409.042969 257.613281 407.757812 258.304688 407.054688 259.539062 C 405.582031 262.132812 404.355469 264.460938 403.367188 266.523438 C 403.347656 266.558594 403.328125 266.589844 403.308594 266.625 C 402.867188 267.480469 401.097656 271.527344 398.007812 278.765625 C 397.644531 279.574219 397.195312 280.425781 396.652344 281.328125 C 396.507812 281.558594 396.367188 281.777344 396.230469 281.980469 C 396.222656 281.804688 396.21875 281.628906 396.214844 281.453125 C 396.210938 281.257812 396.191406 281.066406 396.15625 280.875 C 396.101562 279.449219 396.546875 273.945312 397.488281 264.363281 C 397.5 264.269531 397.503906 264.171875 397.507812 264.074219 C 397.585938 260.617188 397.265625 257.902344 396.554688 255.9375 C 396.332031 255.296875 396.082031 254.703125 395.800781 254.152344 C 393.992188 250.582031 391.4375 248.796875 388.140625 248.796875 C 386.167969 248.796875 383.929688 249.4375 381.421875 250.714844 C 378.214844 252.339844 375.574219 255.4375 373.5 260.007812 C 372.625 261.617188 371.53125 264.414062 370.210938 268.402344 C 370.269531 260.445312 370.636719 255.3125 371.316406 252.996094 C 371.90625 250.976562 370.75 248.855469 368.734375 248.265625 C 368.378906 248.160156 368.015625 248.109375 367.664062 248.109375 Z M 367.664062 248.109375 " fill-opacity="1" fill-rule="nonzero"/><g clip-path="url(#b97c3efc23)"><path fill="#0e5173" d="M 420.28125 247.40625 C 418.082031 247.40625 415.859375 248.132812 413.605469 249.582031 C 410.925781 251.226562 409.105469 253.3125 408.144531 255.84375 C 408.125 255.898438 408.101562 255.957031 408.085938 256.015625 C 407.050781 259.1875 407.578125 262.734375 409.675781 266.652344 C 409.710938 266.71875 409.746094 266.78125 409.785156 266.84375 C 410.460938 267.949219 411.269531 269.007812 412.210938 270.015625 C 412.277344 270.082031 412.34375 270.148438 412.410156 270.210938 C 415.140625 272.730469 417.144531 274.675781 418.421875 276.046875 C 417.773438 276.636719 417.195312 277.21875 416.6875 277.796875 C 414.953125 279.757812 413.976562 281.710938 413.757812 283.648438 C 413.578125 285.210938 413.875 286.679688 414.644531 288.046875 C 415.097656 288.847656 415.699219 289.585938 416.457031 290.257812 C 416.738281 290.507812 417.054688 290.714844 417.398438 290.871094 C 418.355469 291.308594 419.359375 291.527344 420.410156 291.527344 C 420.5 291.527344 420.585938 291.523438 420.675781 291.523438 C 422.746094 291.453125 424.871094 290.53125 427.054688 288.761719 C 427.273438 288.578125 427.476562 288.375 427.652344 288.148438 C 429.472656 285.820312 430.046875 283.011719 429.371094 279.730469 C 429.363281 279.691406 429.355469 279.65625 429.34375 279.617188 C 429.257812 279.253906 429.148438 278.882812 429.019531 278.511719 C 438.203125 275.390625 443.46875 273.484375 444.8125 272.792969 C 445.226562 272.582031 445.574219 272.347656 445.859375 272.085938 C 447.421875 270.679688 447.546875 268.265625 446.144531 266.703125 C 445.390625 265.867188 444.355469 265.441406 443.316406 265.441406 C 442.59375 265.441406 441.875 265.644531 441.242188 266.054688 C 440.015625 266.636719 435.082031 268.398438 426.429688 271.335938 C 426.359375 271.359375 426.289062 271.386719 426.21875 271.414062 C 425.792969 271.589844 425.375 271.765625 424.96875 271.949219 C 423.535156 270.285156 421.105469 267.871094 417.679688 264.707031 C 417.15625 264.140625 416.710938 263.5625 416.335938 262.964844 C 415.328125 261.058594 414.980469 259.566406 415.285156 258.480469 C 415.644531 257.59375 416.421875 256.789062 417.617188 256.066406 C 417.648438 256.046875 417.679688 256.023438 417.710938 256.003906 C 418.710938 255.359375 419.574219 255.039062 420.3125 255.039062 C 420.453125 255.039062 420.59375 255.050781 420.726562 255.074219 L 420.730469 255.074219 C 423.859375 255.640625 425.265625 256.816406 424.941406 258.609375 C 424.570312 260.683594 425.945312 262.664062 428.015625 263.039062 C 428.242188 263.078125 428.46875 263.097656 428.691406 263.097656 C 430.496094 263.097656 432.101562 261.804688 432.429688 259.957031 C 433.648438 253.164062 430.195312 249.035156 422.082031 247.570312 C 421.484375 247.460938 420.882812 247.40625 420.28125 247.40625 Z M 420.28125 247.40625 " fill-opacity="1" fill-rule="nonzero"/></g><path fill="#0e5173" d="M 453.160156 256.097656 C 454.121094 256.097656 455.015625 256.546875 455.84375 257.445312 C 457.082031 260.167969 456.253906 262.6875 453.359375 265 C 452.171875 265.910156 451.039062 266.363281 449.960938 266.363281 C 449.851562 266.363281 449.738281 266.359375 449.628906 266.347656 C 449.609375 266.347656 449.585938 266.347656 449.566406 266.34375 C 447.855469 266.222656 446.890625 265.957031 446.667969 265.558594 C 446.542969 265.335938 446.402344 265.128906 446.242188 264.941406 C 447.027344 261.429688 448.613281 258.714844 450.996094 256.792969 L 450.992188 256.792969 C 451.75 256.328125 452.472656 256.097656 453.160156 256.097656 Z M 453.496094 248.171875 C 451.363281 248.171875 449.109375 248.933594 446.746094 250.460938 C 446.648438 250.523438 446.550781 250.589844 446.460938 250.660156 C 441.71875 254.375 438.980469 259.757812 438.246094 266.808594 L 438.242188 266.828125 C 437.621094 273.105469 438.816406 278.78125 441.832031 283.851562 C 441.933594 284.023438 442.050781 284.1875 442.175781 284.339844 C 445.605469 288.464844 449.539062 290.527344 453.976562 290.527344 C 454.699219 290.527344 455.4375 290.472656 456.1875 290.363281 C 456.214844 290.359375 456.242188 290.355469 456.269531 290.351562 C 460.523438 289.632812 464.34375 287.425781 467.726562 283.730469 C 471.730469 279.449219 476.515625 273.003906 482.085938 264.386719 C 483.230469 262.621094 482.726562 260.257812 480.964844 259.113281 C 480.324219 258.695312 479.605469 258.5 478.898438 258.5 C 477.652344 258.5 476.429688 259.113281 475.703125 260.238281 C 470.378906 268.472656 465.871094 274.5625 462.179688 278.511719 C 462.167969 278.523438 462.15625 278.535156 462.144531 278.546875 C 459.941406 280.960938 457.574219 282.386719 455.039062 282.824219 C 454.738281 282.867188 454.441406 282.886719 454.148438 282.886719 C 452.039062 282.886719 450.0625 281.820312 448.21875 279.691406 L 448.214844 279.691406 C 447.109375 277.757812 446.367188 275.691406 445.988281 273.488281 C 446.90625 273.71875 447.914062 273.871094 449.003906 273.949219 C 449.339844 273.980469 449.675781 273.992188 450.007812 273.992188 C 452.796875 273.992188 455.476562 272.996094 458.054688 271.003906 C 458.070312 270.988281 458.085938 270.976562 458.101562 270.964844 C 464.394531 265.933594 465.832031 260.128906 462.40625 253.546875 C 462.285156 253.3125 462.136719 253.089844 461.96875 252.882812 C 459.382812 249.742188 456.558594 248.171875 453.496094 248.171875 Z M 453.496094 248.171875 " fill-opacity="1" fill-rule="nonzero"/></svg>