<svg xmlns="http://www.w3.org/2000/svg" xmlns:xlink="http://www.w3.org/1999/xlink" width="1000" zoomAndPan="magnify" viewBox="0 0 750 749.999995" height="1000" preserveAspectRatio="xMidYMid meet" version="1.0"><defs><clipPath id="02d12fdeaf"><path d="M 30.460938 99.019531 L 627 99.019531 L 627 651.019531 L 30.460938 651.019531 Z M 30.460938 99.019531 " clip-rule="nonzero"/></clipPath><clipPath id="42ee78494d"><path d="M 240 191 L 674.710938 191 L 674.710938 651.019531 L 240 651.019531 Z M 240 191 " clip-rule="nonzero"/></clipPath><clipPath id="19d407e1ab"><path d="M 258 191 L 654 191 L 654 651.019531 L 258 651.019531 Z M 258 191 " clip-rule="nonzero"/></clipPath><clipPath id="d601ca8e14"><path d="M 219 311 L 522 311 L 522 651.019531 L 219 651.019531 Z M 219 311 " clip-rule="nonzero"/></clipPath><clipPath id="add8257cac"><path d="M 374 233 L 661 233 L 661 651.019531 L 374 651.019531 Z M 374 233 " clip-rule="nonzero"/></clipPath><clipPath id="0ac8a46467"><path d="M 310 302 L 661 302 L 661 651.019531 L 310 651.019531 Z M 310 302 " clip-rule="nonzero"/></clipPath></defs><g clip-path="url(#02d12fdeaf)"><path fill="#f89921" d="M 342.359375 418.609375 L 338.804688 558.761719 L 323.503906 644.28125 L 219.757812 651.019531 L 30.625 651.019531 L 52.296875 418.621094 L 342.359375 418.621094 Z M 626.535156 167.789062 L 626.535156 99.019531 L 266.53125 144.941406 Z M 626.535156 167.789062 " fill-opacity="1" fill-rule="nonzero"/></g><path fill="#8a9c6b" d="M 301.082031 504.101562 C 301.082031 504.101562 288.078125 645.867188 288.078125 647.8125 C 288.078125 649.757812 41.828125 647.8125 41.828125 647.8125 C 41.828125 647.8125 54.421875 512.21875 54.628906 511.578125 Z M 239.433594 399.269531 C 235.210938 399.269531 231.679688 402.492188 231.296875 406.691406 L 229.207031 429.007812 C 228.757812 433.800781 232.53125 437.949219 237.347656 437.949219 C 241.570312 437.949219 245.101562 434.730469 245.488281 430.527344 L 247.574219 408.210938 C 248.011719 403.417969 244.238281 399.269531 239.433594 399.269531 Z M 239.433594 399.269531 " fill-opacity="1" fill-rule="nonzero"/><path fill="#fde2dd" d="M 54.9375 486.578125 L 39.804688 648.84375 L 289.300781 648.84375 L 304.433594 486.578125 Z M 156.136719 566.222656 L 158.339844 542.628906 L 190.585938 542.628906 L 188.382812 566.222656 Z M 188.113281 569.1875 L 185.910156 592.777344 L 153.664062 592.777344 L 155.867188 569.1875 Z M 155.648438 539.679688 L 123.398438 539.679688 L 125.742188 514.605469 L 157.992188 514.605469 Z M 160.953125 514.605469 L 193.199219 514.605469 L 190.855469 539.679688 L 158.621094 539.679688 Z M 155.363281 542.640625 L 153.160156 566.234375 L 120.925781 566.234375 L 123.128906 542.640625 Z M 193.5625 542.640625 L 225.808594 542.640625 L 223.605469 566.234375 L 191.359375 566.234375 Z M 193.832031 539.679688 L 196.175781 514.605469 L 228.421875 514.605469 L 226.078125 539.679688 Z M 122.753906 514.605469 L 120.410156 539.679688 L 88.175781 539.679688 L 90.519531 514.605469 Z M 120.140625 542.640625 L 117.9375 566.234375 L 85.703125 566.234375 L 87.90625 542.640625 Z M 117.667969 569.1875 L 115.464844 592.777344 L 83.230469 592.777344 L 85.433594 569.1875 Z M 120.644531 569.1875 L 152.890625 569.1875 L 150.6875 592.777344 L 118.453125 592.777344 Z M 150.417969 595.742188 L 148.214844 619.335938 L 115.96875 619.335938 L 118.171875 595.742188 Z M 153.394531 595.742188 L 185.640625 595.742188 L 183.4375 619.335938 L 151.191406 619.335938 Z M 188.601562 595.742188 L 220.851562 595.742188 L 218.648438 619.335938 L 186.402344 619.335938 Z M 188.886719 592.777344 L 191.089844 569.1875 L 223.335938 569.1875 L 221.132812 592.777344 Z M 226.296875 569.1875 L 258.546875 569.1875 L 256.34375 592.777344 L 224.097656 592.777344 Z M 226.582031 566.222656 L 228.785156 542.628906 L 261.03125 542.628906 L 258.828125 566.222656 Z M 229.054688 539.679688 L 231.398438 514.605469 L 263.644531 514.605469 L 261.300781 539.679688 Z M 87.546875 514.605469 L 85.203125 539.679688 L 52.96875 539.679688 L 55.3125 514.605469 Z M 84.933594 542.640625 L 82.730469 566.234375 L 50.480469 566.234375 L 52.683594 542.640625 Z M 82.460938 569.1875 L 80.257812 592.777344 L 48.007812 592.777344 L 50.210938 569.1875 Z M 79.972656 595.742188 L 77.769531 619.335938 L 45.535156 619.335938 L 47.738281 595.742188 Z M 82.949219 595.742188 L 115.195312 595.742188 L 112.992188 619.335938 L 80.757812 619.335938 Z M 112.722656 622.285156 L 110.519531 645.878906 L 78.273438 645.878906 L 80.476562 622.285156 Z M 115.699219 622.285156 L 147.945312 622.285156 L 145.742188 645.878906 L 113.496094 645.878906 Z M 150.921875 622.285156 L 183.167969 622.285156 L 180.964844 645.878906 L 148.71875 645.878906 Z M 186.128906 622.285156 L 218.378906 622.285156 L 216.175781 645.878906 L 183.929688 645.878906 Z M 221.351562 622.285156 L 253.601562 622.285156 L 251.398438 645.878906 L 219.152344 645.878906 Z M 221.625 619.335938 L 223.824219 595.742188 L 256.074219 595.742188 L 253.871094 619.335938 Z M 259.046875 595.742188 L 291.296875 595.742188 L 289.09375 619.335938 L 256.847656 619.335938 Z M 259.320312 592.777344 L 261.519531 569.1875 L 293.769531 569.1875 L 291.566406 592.777344 Z M 261.792969 566.222656 L 263.992188 542.628906 L 296.242188 542.628906 L 294.039062 566.222656 Z M 264.277344 539.679688 L 266.621094 514.605469 L 298.867188 514.605469 L 296.523438 539.679688 Z M 45.265625 622.285156 L 77.5 622.285156 L 75.296875 645.878906 L 43.0625 645.878906 Z M 254.375 645.878906 L 256.574219 622.285156 L 288.808594 622.285156 L 286.609375 645.878906 Z M 632.058594 144.941406 C 653.4375 144.941406 670.757812 162.285156 670.757812 183.660156 L 670.757812 590.253906 L 627.203125 590.253906 C 627.203125 590.253906 563.210938 167.117188 566.417969 161.78125 C 569.625 156.449219 593.179688 144.941406 632.058594 144.941406 " fill-opacity="1" fill-rule="nonzero"/><path fill="#231f20" d="M 632.058594 144.941406 C 653.4375 144.941406 670.757812 162.285156 670.757812 183.660156 L 670.757812 590.253906 L 627.203125 590.253906 C 627.203125 590.253906 563.210938 167.117188 566.417969 161.78125 C 569.625 156.449219 593.179688 144.941406 632.058594 144.941406 " fill-opacity="0.1" fill-rule="nonzero"/><g clip-path="url(#42ee78494d)"><path fill="#f89921" d="M 674.546875 357.664062 L 653.667969 365.019531 L 653.667969 651.019531 L 347.960938 651.019531 L 337.722656 643.90625 L 300.15625 651.019531 L 263.824219 651.019531 L 240.824219 645.890625 L 240.824219 191.972656 L 653.667969 191.972656 L 653.667969 263.988281 L 674.546875 271.34375 Z M 674.546875 357.664062 " fill-opacity="1" fill-rule="nonzero"/></g><g clip-path="url(#19d407e1ab)"><path fill="#fde2dd" d="M 642.878906 215.089844 L 642.878906 651.019531 L 347.960938 651.019531 L 335.753906 645.890625 L 300.167969 651.019531 L 263.839844 651.019531 L 258.648438 648.855469 L 258.648438 207.652344 L 584.175781 207.652344 C 578.601562 199.921875 579.4375 191.972656 579.4375 191.972656 L 653.683594 191.972656 C 653.667969 201.25 649.472656 209.5625 642.878906 215.089844 Z M 642.878906 215.089844 " fill-opacity="1" fill-rule="nonzero"/></g><g clip-path="url(#d601ca8e14)"><path fill="#231f20" d="M 461.703125 410.261719 L 441.921875 367.597656 L 449.945312 339.867188 L 493.398438 311.882812 L 516.992188 315.464844 C 519.757812 323.078125 521.265625 331.289062 521.265625 339.855469 C 521.277344 375.277344 495.496094 404.640625 461.703125 410.261719 Z M 493.398438 492.6875 L 449.945312 525.207031 L 427.058594 537.386719 L 421.675781 590.742188 C 430.34375 594.492188 439.898438 596.578125 449.945312 596.578125 C 489.339844 596.578125 521.265625 564.625 521.265625 525.222656 C 521.265625 516.203125 519.578125 507.582031 516.527344 499.632812 Z M 336.589844 634.757812 C 328.863281 629.269531 327.585938 617.195312 327.664062 617.53125 C 327.730469 617.867188 305.257812 617.53125 305.257812 617.53125 C 307.714844 634.269531 299.011719 636.664062 300.167969 651.019531 L 347.972656 651.019531 C 348.128906 642.578125 344.316406 640.246094 336.589844 634.757812 Z M 230.457031 618.496094 C 230.613281 627.054688 219.023438 638.597656 219.757812 651.019531 L 263.839844 651.019531 C 262.28125 638.003906 249.957031 632.492188 249.800781 618.238281 C 249.648438 603.988281 230.457031 618.496094 230.457031 618.496094 Z M 230.457031 618.496094 " fill-opacity="1" fill-rule="nonzero"/></g><path fill="#8a9c6b" d="M 88.023438 408.210938 L 85.9375 430.527344 C 85.550781 434.730469 82.019531 437.949219 77.796875 437.949219 C 72.980469 437.949219 69.207031 433.800781 69.65625 429.007812 L 71.746094 406.691406 C 72.128906 402.492188 75.660156 399.269531 79.882812 399.269531 C 84.699219 399.269531 88.472656 403.417969 88.023438 408.210938 Z M 133.070312 399.269531 C 128.847656 399.269531 125.320312 402.492188 124.933594 406.691406 L 122.847656 429.007812 C 122.394531 433.800781 126.167969 437.949219 130.984375 437.949219 C 135.210938 437.949219 138.738281 434.730469 139.125 430.527344 L 141.210938 408.210938 C 141.660156 403.417969 137.886719 399.269531 133.070312 399.269531 Z M 186.246094 399.269531 C 182.023438 399.269531 178.492188 402.492188 178.105469 406.691406 L 176.019531 429.007812 C 175.570312 433.800781 179.34375 437.949219 184.160156 437.949219 C 188.382812 437.949219 191.914062 434.730469 192.300781 430.527344 L 194.386719 408.210938 C 194.835938 403.417969 191.0625 399.269531 186.246094 399.269531 Z M 424.625 443.246094 L 475.265625 443.246094 C 478.253906 443.246094 480.660156 440.824219 480.660156 437.847656 L 480.660156 437.449219 C 480.660156 434.457031 478.238281 432.050781 475.265625 432.050781 L 424.625 432.050781 C 421.636719 432.050781 419.230469 434.472656 419.230469 437.449219 L 419.230469 437.847656 C 419.230469 440.824219 421.652344 443.246094 424.625 443.246094 Z M 475.265625 618.304688 L 424.625 618.304688 C 421.636719 618.304688 419.230469 620.726562 419.230469 623.703125 L 419.230469 624.101562 C 419.230469 627.089844 421.652344 629.5 424.625 629.5 L 475.265625 629.5 C 478.253906 629.5 480.660156 627.078125 480.660156 624.101562 L 480.660156 623.703125 C 480.660156 620.714844 478.253906 618.304688 475.265625 618.304688 Z M 449.945312 268.511719 L 441.921875 323.554688 L 449.945312 339.867188 L 516.992188 315.476562 C 507.035156 288.082031 480.777344 268.511719 449.945312 268.511719 Z M 479.28125 460.164062 L 452.328125 499.617188 L 449.945312 525.207031 L 488.746094 510.300781 L 516.539062 499.617188 C 509.792969 482.070312 496.320312 467.871094 479.28125 460.164062 Z M 330.550781 570.113281 C 329.339844 550.464844 328.117188 530.8125 326.851562 511.164062 C 325.71875 493.382812 324.574219 475.601562 323.335938 457.832031 C 322.925781 451.996094 322.527344 446.160156 322.050781 440.335938 C 321.90625 438.59375 321.816406 436.84375 321.597656 435.117188 C 321.070312 430.964844 316.484375 426.121094 311.925781 426.742188 C 310.535156 426.933594 309.082031 427.679688 307.820312 427.074219 C 306.75 426.574219 306.273438 425.285156 305.28125 424.652344 C 304.210938 423.96875 302.835938 424.203125 301.585938 424.046875 C 298.90625 423.738281 296.792969 421.726562 294.542969 420.246094 C 291.269531 418.105469 287.472656 416.972656 283.722656 415.867188 C 281.355469 415.167969 278.90625 414.460938 276.445312 414.71875 C 271.707031 415.222656 268.128906 419.074219 265.023438 422.679688 C 261.609375 426.636719 257.464844 430.375 255.261719 435.117188 C 255.042969 435.578125 254.851562 436.054688 254.667969 436.546875 C 253.511719 439.742188 252.222656 442.859375 251.21875 446.121094 C 247.84375 457.058594 246.15625 468.527344 246.195312 479.96875 C 246.296875 506.265625 223.21875 620.53125 223.21875 620.53125 L 259.023438 619.875 C 259.023438 619.875 283.53125 498.019531 284.429688 492.289062 C 284.339844 498.035156 298.496094 619.746094 298.496094 619.746094 L 333.589844 619.746094 C 333.433594 617.183594 333.28125 614.632812 333.125 612.066406 C 332.273438 598.101562 331.414062 584.105469 330.550781 570.113281 Z M 593.359375 191.972656 L 593.359375 183.675781 C 593.359375 162.285156 610.695312 144.953125 632.058594 144.953125 L 266.53125 144.953125 C 245.152344 144.953125 227.832031 162.296875 227.832031 183.675781 L 227.832031 191.972656 C 227.832031 208.632812 241.328125 222.148438 257.992188 222.148438 L 623.535156 222.148438 C 606.855469 222.136719 593.359375 208.632812 593.359375 191.972656 Z M 593.359375 191.972656 " fill-opacity="1" fill-rule="nonzero"/><g clip-path="url(#add8257cac)"><path fill="#f89921" d="M 449.945312 268.511719 L 449.945312 339.867188 L 461.703125 410.246094 C 457.878906 410.878906 453.949219 411.226562 449.945312 411.226562 C 410.550781 411.226562 378.625 379.269531 378.625 339.867188 C 378.625 300.464844 410.550781 268.511719 449.945312 268.511719 Z M 479.28125 460.164062 C 470.332031 456.117188 460.402344 453.839844 449.945312 453.839844 C 410.550781 453.839844 378.625 485.792969 378.625 525.195312 C 378.625 554.5625 396.359375 579.765625 421.675781 590.71875 L 449.945312 525.195312 Z M 385.347656 260.675781 L 374.246094 260.675781 L 374.246094 234.210938 L 386.402344 234.210938 C 387.664062 234.210938 388.824219 234.351562 389.867188 234.621094 C 390.910156 234.90625 391.824219 235.320312 392.570312 235.898438 C 393.332031 236.464844 393.925781 237.175781 394.347656 238 C 394.773438 238.835938 394.992188 239.816406 394.992188 240.949219 C 394.992188 242.664062 394.566406 244.003906 393.707031 244.96875 C 392.84375 245.9375 391.722656 246.632812 390.332031 247.09375 L 390.332031 247.171875 C 391.386719 247.378906 392.261719 247.675781 392.945312 248.085938 C 393.628906 248.488281 394.167969 248.949219 394.582031 249.464844 C 394.980469 249.980469 395.261719 250.546875 395.429688 251.15625 C 395.597656 251.761719 395.675781 252.367188 395.675781 252.972656 C 395.675781 254.570312 395.355469 255.859375 394.722656 256.863281 C 394.089844 257.867188 393.28125 258.640625 392.277344 259.207031 C 391.269531 259.773438 390.164062 260.160156 388.941406 260.367188 C 387.730469 260.585938 386.53125 260.675781 385.347656 260.675781 Z M 381.289062 244.6875 L 383.300781 244.6875 C 383.75 244.6875 384.253906 244.660156 384.792969 244.597656 C 385.335938 244.53125 385.835938 244.402344 386.3125 244.195312 C 386.777344 243.992188 387.175781 243.707031 387.484375 243.347656 C 387.808594 242.984375 387.960938 242.496094 387.960938 241.890625 C 387.960938 241.363281 387.84375 240.921875 387.613281 240.5625 C 387.382812 240.214844 387.085938 239.929688 386.699219 239.75 C 386.324219 239.558594 385.875 239.429688 385.359375 239.351562 C 384.84375 239.273438 384.292969 239.234375 383.710938 239.234375 L 381.289062 239.234375 Z M 383.558594 255.675781 C 384.265625 255.675781 384.921875 255.636719 385.539062 255.546875 C 386.160156 255.457031 386.699219 255.304688 387.148438 255.070312 C 387.601562 254.839844 387.960938 254.53125 388.230469 254.117188 C 388.503906 253.71875 388.632812 253.191406 388.632812 252.558594 C 388.632812 251.375 388.179688 250.5625 387.292969 250.109375 C 386.390625 249.671875 385.179688 249.453125 383.632812 249.453125 L 381.289062 249.453125 L 381.289062 255.675781 Z M 402.566406 258.628906 C 403.582031 259.492188 404.820312 260.121094 406.234375 260.523438 C 407.664062 260.921875 409.222656 261.128906 410.910156 261.128906 C 412.625 261.128906 414.195312 260.921875 415.613281 260.496094 C 417.027344 260.082031 418.25 259.441406 419.269531 258.578125 C 420.285156 257.714844 421.085938 256.628906 421.652344 255.316406 C 422.21875 254.003906 422.5 252.441406 422.5 250.652344 L 422.5 234.199219 L 415.457031 234.199219 L 415.457031 249.519531 C 415.457031 250.457031 415.378906 251.308594 415.226562 252.09375 C 415.070312 252.882812 414.8125 253.550781 414.453125 254.105469 C 414.089844 254.660156 413.613281 255.097656 413.035156 255.417969 C 412.457031 255.742188 411.746094 255.894531 410.910156 255.894531 C 409.261719 255.894531 408.101562 255.316406 407.40625 254.167969 C 406.710938 253.023438 406.363281 251.476562 406.363281 249.53125 L 406.363281 234.210938 L 399.320312 234.210938 L 399.320312 250.625 C 399.320312 252.441406 399.601562 254.015625 400.171875 255.34375 C 400.75 256.683594 401.535156 257.777344 402.566406 258.628906 Z M 436.679688 260.675781 L 427.058594 260.675781 L 427.058594 234.210938 L 436.757812 234.210938 C 439.128906 234.210938 441.277344 234.429688 443.195312 234.855469 C 445.117188 235.28125 446.75 236.015625 448.105469 237.03125 C 449.457031 238.050781 450.5 239.402344 451.234375 241.089844 C 451.96875 242.765625 452.328125 244.855469 452.328125 247.328125 C 452.328125 249.648438 451.96875 251.65625 451.246094 253.332031 C 450.523438 255.007812 449.496094 256.398438 448.15625 257.480469 C 446.816406 258.5625 445.179688 259.375 443.234375 259.890625 C 441.289062 260.417969 439.101562 260.675781 436.679688 260.675781 Z M 434.105469 255.445312 L 436.949219 255.445312 C 437.8125 255.445312 438.714844 255.34375 439.679688 255.125 C 440.648438 254.902344 441.523438 254.503906 442.308594 253.925781 C 443.09375 253.34375 443.761719 252.53125 444.277344 251.503906 C 444.792969 250.472656 445.050781 249.132812 445.050781 247.480469 C 445.050781 245.71875 444.753906 244.300781 444.164062 243.242188 C 443.570312 242.1875 442.847656 241.363281 442 240.792969 C 441.148438 240.226562 440.261719 239.855469 439.332031 239.699219 C 438.40625 239.542969 437.59375 239.453125 436.914062 239.453125 L 434.105469 239.453125 Z M 460.210938 257.878906 C 461.625 258.988281 463.25 259.8125 465.101562 260.339844 C 466.957031 260.871094 468.863281 261.140625 470.859375 261.140625 C 472.777344 261.140625 474.515625 261.050781 476.074219 260.855469 C 477.632812 260.664062 479.269531 260.355469 480.980469 259.929688 L 480.980469 245.214844 L 470.035156 245.214844 L 470.035156 250.214844 L 474.167969 250.214844 L 474.167969 255.445312 C 473.886719 255.574219 473.550781 255.675781 473.164062 255.765625 C 472.777344 255.859375 472.25 255.894531 471.59375 255.894531 C 470.332031 255.894531 469.160156 255.703125 468.089844 255.328125 C 467.023438 254.957031 466.082031 254.402344 465.308594 253.679688 C 464.523438 252.957031 463.917969 252.082031 463.492188 251.050781 C 463.070312 250.019531 462.847656 248.847656 462.847656 247.558594 C 462.847656 245.949219 463.144531 244.597656 463.738281 243.5 C 464.332031 242.417969 465.101562 241.542969 466.070312 240.871094 C 467.035156 240.203125 468.128906 239.726562 469.378906 239.429688 C 470.628906 239.132812 471.929688 238.992188 473.269531 238.992188 C 474.132812 238.992188 475.148438 239.121094 476.332031 239.363281 C 477.519531 239.621094 478.636719 240.058594 479.707031 240.691406 L 480.273438 234.933594 C 479.746094 234.726562 479.152344 234.558594 478.507812 234.402344 C 477.867188 234.25 477.183594 234.132812 476.488281 234.042969 C 475.78125 233.953125 475.070312 233.886719 474.363281 233.835938 C 473.65625 233.785156 472.960938 233.757812 472.277344 233.757812 C 469.648438 233.757812 467.304688 234.042969 465.246094 234.597656 C 463.183594 235.152344 461.433594 236 459.992188 237.136719 C 458.546875 238.269531 457.453125 239.710938 456.695312 241.453125 C 455.933594 243.191406 455.558594 245.238281 455.558594 247.597656 C 455.558594 249.941406 455.984375 251.964844 456.835938 253.667969 C 457.660156 255.355469 458.792969 256.757812 460.210938 257.878906 Z M 504.882812 255.675781 L 492.867188 255.675781 L 492.867188 249.683594 L 503.816406 249.683594 L 503.816406 244.6875 L 492.867188 244.6875 L 492.867188 239.222656 L 504.460938 239.222656 L 504.460938 234.222656 L 485.8125 234.222656 L 485.8125 260.6875 L 504.871094 260.6875 L 504.871094 255.675781 Z M 513.707031 260.675781 L 520.75 260.675781 L 520.75 239.441406 L 527.265625 239.441406 L 527.265625 234.210938 L 507.191406 234.210938 L 507.191406 239.441406 L 513.707031 239.441406 Z M 494.066406 305.96875 L 494.066406 305.8125 C 494.066406 304.628906 493.101562 303.660156 491.917969 303.660156 L 458.597656 303.660156 C 457.414062 303.660156 456.449219 304.628906 456.449219 305.8125 L 456.449219 305.96875 C 456.449219 307.152344 457.414062 308.121094 458.597656 308.121094 L 491.917969 308.121094 C 493.101562 308.121094 494.066406 307.152344 494.066406 305.96875 Z M 469.535156 353.011719 C 468.296875 353.011719 467.292969 354.015625 467.292969 355.253906 C 467.292969 356.492188 468.296875 357.496094 469.535156 357.496094 L 504.769531 357.496094 C 506.003906 357.496094 507.007812 356.492188 507.007812 355.253906 C 507.007812 354.015625 506.003906 353.011719 504.769531 353.011719 Z M 469.535156 366.59375 L 498.585938 366.59375 C 499.824219 366.59375 500.828125 365.585938 500.828125 364.363281 C 500.828125 363.125 499.824219 362.121094 498.585938 362.121094 L 469.535156 362.121094 C 468.296875 362.121094 467.292969 363.125 467.292969 364.363281 C 467.292969 365.585938 468.296875 366.59375 469.535156 366.59375 Z M 504.640625 493.769531 C 504.640625 492.53125 503.636719 491.527344 502.398438 491.527344 L 475.445312 491.527344 C 474.207031 491.527344 473.214844 492.53125 473.214844 493.769531 C 473.214844 495.007812 474.222656 496.011719 475.445312 496.011719 L 502.410156 496.011719 C 503.636719 496.011719 504.640625 495.007812 504.640625 493.769531 Z M 502.554688 552.023438 C 502.554688 550.785156 501.550781 549.78125 500.324219 549.78125 L 464.472656 549.78125 C 463.234375 549.78125 462.230469 550.785156 462.230469 552.023438 C 462.230469 553.257812 463.234375 554.265625 464.472656 554.265625 L 500.324219 554.265625 C 501.550781 554.25 502.554688 553.246094 502.554688 552.023438 Z M 464.460938 558.183594 C 463.222656 558.183594 462.21875 559.1875 462.21875 560.425781 C 462.21875 561.660156 463.222656 562.664062 464.460938 562.664062 L 483.234375 562.664062 C 484.472656 562.664062 485.464844 561.660156 485.464844 560.425781 C 485.464844 559.1875 484.460938 558.183594 483.234375 558.183594 Z M 550.242188 545.246094 L 550.242188 598.125 L 440.144531 598.125 L 440.144531 651.019531 L 660.339844 651.019531 L 660.339844 545.246094 Z M 550.242188 545.246094 " fill-opacity="1" fill-rule="nonzero"/></g><path fill="#fde2dd" d="M 146.890625 451.726562 C 147.210938 452.78125 147.210938 454.03125 146.902344 455.449219 C 146.527344 457.125 145.652344 458.875 144.25 460.71875 C 142.859375 462.5625 140.886719 464.53125 138.363281 466.621094 C 137.644531 467.238281 136.730469 467.945312 135.632812 468.773438 C 134.527344 469.597656 133.46875 470.371094 132.441406 471.089844 L 143.980469 471.089844 L 142.757812 476.617188 L 121.636719 476.617188 L 122.859375 471.050781 C 124.378906 469.96875 125.730469 468.992188 126.914062 468.128906 C 128.101562 467.265625 129.144531 466.476562 130.042969 465.78125 C 130.945312 465.085938 131.757812 464.457031 132.453125 463.875 C 133.148438 463.308594 133.792969 462.753906 134.386719 462.226562 C 134.875 461.773438 135.363281 461.3125 135.867188 460.820312 C 136.367188 460.332031 136.820312 459.84375 137.242188 459.339844 C 137.65625 458.835938 138.015625 458.335938 138.3125 457.804688 C 138.609375 457.292969 138.816406 456.777344 138.917969 456.273438 C 139.148438 455.214844 138.996094 454.351562 138.46875 453.683594 C 137.925781 453.011719 136.988281 452.679688 135.621094 452.679688 C 134.566406 452.679688 133.316406 452.832031 131.898438 453.140625 C 130.484375 453.453125 129 453.964844 127.480469 454.6875 L 128.523438 448.621094 C 130.1875 448.066406 131.746094 447.640625 133.226562 447.34375 C 134.695312 447.046875 136.164062 446.90625 137.605469 446.90625 C 139.226562 446.90625 140.683594 447.085938 141.984375 447.445312 C 143.285156 447.808594 144.339844 448.347656 145.164062 449.058594 C 145.988281 449.777344 146.554688 450.65625 146.890625 451.726562 Z M 172.851562 461.96875 C 172.351562 464.261719 171.707031 466.335938 170.933594 468.203125 C 170.160156 470.074219 169.183594 471.65625 168.023438 472.972656 C 166.851562 474.285156 165.460938 475.304688 163.851562 476.027344 C 162.242188 476.746094 160.347656 477.109375 158.171875 477.109375 C 155.996094 477.109375 154.269531 476.746094 152.96875 476.027344 C 151.679688 475.304688 150.742188 474.285156 150.148438 472.972656 C 149.554688 471.65625 149.285156 470.074219 149.335938 468.203125 C 149.386719 466.335938 149.660156 464.261719 150.175781 461.96875 C 150.597656 460.046875 151.152344 458.179688 151.847656 456.363281 C 152.542969 454.546875 153.445312 452.949219 154.566406 451.558594 C 155.6875 450.164062 157.078125 449.042969 158.738281 448.195312 C 160.398438 447.34375 162.433594 446.917969 164.828125 446.917969 C 167.199219 446.917969 169.039062 447.34375 170.339844 448.195312 C 171.640625 449.042969 172.542969 450.164062 173.046875 451.558594 C 173.546875 452.949219 173.742188 454.558594 173.636719 456.363281 C 173.546875 458.179688 173.277344 460.046875 172.851562 461.96875 Z M 166.195312 455.382812 C 166.15625 454.445312 165.9375 453.683594 165.550781 453.078125 C 165.164062 452.472656 164.546875 452.175781 163.683594 452.175781 C 162.792969 452.175781 162.023438 452.472656 161.390625 453.078125 C 160.761719 453.683594 160.207031 454.445312 159.753906 455.382812 C 159.292969 456.324219 158.90625 457.367188 158.570312 458.539062 C 158.234375 459.714844 157.953125 460.875 157.695312 462.019531 C 157.4375 463.167969 157.21875 464.328125 157.039062 465.5 C 156.84375 466.671875 156.78125 467.726562 156.820312 468.65625 C 156.859375 469.597656 157.078125 470.355469 157.4375 470.960938 C 157.8125 471.566406 158.441406 471.863281 159.332031 471.863281 C 160.21875 471.863281 160.992188 471.566406 161.621094 470.960938 C 162.253906 470.355469 162.808594 469.597656 163.257812 468.65625 C 163.722656 467.714844 164.109375 466.671875 164.441406 465.5 C 164.765625 464.328125 165.0625 463.167969 165.320312 462.019531 C 165.578125 460.875 165.796875 459.714844 165.976562 458.539062 C 166.167969 457.367188 166.234375 456.3125 166.195312 455.382812 Z M 196.367188 449.058594 C 195.542969 448.347656 194.488281 447.808594 193.1875 447.445312 C 191.886719 447.085938 190.433594 446.90625 188.808594 446.90625 C 187.355469 446.90625 185.898438 447.046875 184.429688 447.34375 C 182.960938 447.640625 181.390625 448.066406 179.730469 448.621094 L 178.6875 454.6875 C 180.21875 453.964844 181.6875 453.453125 183.105469 453.140625 C 184.519531 452.832031 185.769531 452.679688 186.824219 452.679688 C 188.191406 452.679688 189.144531 453.011719 189.671875 453.683594 C 190.214844 454.351562 190.355469 455.214844 190.121094 456.273438 C 190.007812 456.777344 189.8125 457.277344 189.515625 457.804688 C 189.222656 458.320312 188.859375 458.835938 188.449219 459.339844 C 188.035156 459.84375 187.574219 460.332031 187.070312 460.820312 C 186.566406 461.3125 186.078125 461.773438 185.589844 462.226562 C 184.996094 462.753906 184.351562 463.308594 183.65625 463.875 C 182.960938 464.441406 182.152344 465.085938 181.25 465.78125 C 180.347656 466.476562 179.292969 467.265625 178.121094 468.128906 C 176.933594 468.992188 175.582031 469.96875 174.0625 471.050781 L 172.839844 476.617188 L 193.960938 476.617188 L 195.183594 471.089844 L 183.644531 471.089844 C 184.675781 470.371094 185.730469 469.597656 186.839844 468.773438 C 187.945312 467.945312 188.847656 467.226562 189.570312 466.621094 C 192.09375 464.53125 194.050781 462.5625 195.453125 460.71875 C 196.84375 458.875 197.734375 457.125 198.105469 455.449219 C 198.417969 454.03125 198.417969 452.78125 198.09375 451.726562 C 197.757812 450.65625 197.179688 449.777344 196.367188 449.058594 Z M 221.777344 448.542969 C 220.824219 447.921875 219.703125 447.5 218.402344 447.265625 C 217.101562 447.035156 215.777344 446.90625 214.398438 446.90625 C 212.980469 446.90625 211.539062 446.996094 210.097656 447.175781 C 208.65625 447.355469 207.148438 447.664062 205.601562 448.117188 L 204.714844 453.851562 C 205.269531 453.632812 205.859375 453.4375 206.492188 453.285156 C 207.121094 453.128906 207.753906 453.011719 208.371094 452.921875 C 208.988281 452.832031 209.582031 452.78125 210.148438 452.730469 C 210.714844 452.691406 211.230469 452.664062 211.707031 452.664062 C 212.324219 452.664062 212.929688 452.703125 213.523438 452.792969 C 214.117188 452.871094 214.628906 453.039062 215.042969 453.296875 C 215.453125 453.542969 215.765625 453.890625 215.96875 454.328125 C 216.164062 454.765625 216.1875 455.320312 216.035156 456.027344 C 215.917969 456.558594 215.671875 457.019531 215.289062 457.433594 C 214.902344 457.832031 214.449219 458.167969 213.933594 458.4375 C 213.417969 458.707031 212.851562 458.902344 212.246094 459.042969 C 211.644531 459.183594 211.050781 459.25 210.472656 459.25 C 209.941406 459.25 209.503906 459.25 209.171875 459.25 C 208.859375 459.25 208.601562 459.25 208.371094 459.25 C 208.152344 459.25 207.960938 459.238281 207.792969 459.222656 C 207.625 459.210938 207.429688 459.183594 207.226562 459.160156 L 206.078125 464.351562 C 206.554688 464.328125 207.097656 464.300781 207.703125 464.289062 C 208.308594 464.273438 208.847656 464.261719 209.3125 464.261719 C 211.011719 464.261719 212.273438 464.53125 213.085938 465.074219 C 213.894531 465.613281 214.179688 466.464844 213.921875 467.597656 C 213.664062 468.746094 212.957031 469.648438 211.769531 470.316406 C 210.585938 470.988281 209.042969 471.324219 207.121094 471.324219 C 205.808594 471.324219 204.546875 471.234375 203.335938 471.050781 C 202.125 470.871094 201.09375 470.5 200.269531 469.945312 L 198.53125 476.089844 C 199.5625 476.476562 200.773438 476.746094 202.164062 476.890625 C 203.554688 477.03125 205.085938 477.097656 206.761719 477.097656 C 208.488281 477.097656 210.175781 476.929688 211.808594 476.59375 C 213.445312 476.257812 214.925781 475.730469 216.265625 475.007812 C 217.59375 474.285156 218.726562 473.347656 219.664062 472.199219 C 220.605469 471.050781 221.25 469.660156 221.609375 468.011719 C 222.023438 466.144531 221.816406 464.660156 220.980469 463.554688 C 220.15625 462.457031 218.90625 461.722656 217.257812 461.363281 L 217.269531 461.273438 C 218.003906 461.078125 218.75 460.808594 219.472656 460.460938 C 220.207031 460.113281 220.875 459.675781 221.46875 459.160156 C 222.074219 458.644531 222.601562 458.027344 223.039062 457.316406 C 223.492188 456.609375 223.8125 455.785156 224.019531 454.867188 C 224.367188 453.285156 224.316406 451.96875 223.863281 450.953125 C 223.4375 449.972656 222.730469 449.148438 221.777344 448.542969 Z M 656.722656 549.484375 L 656.722656 549.355469 C 656.722656 548.351562 655.910156 547.539062 654.90625 547.539062 L 636.347656 547.539062 C 635.34375 547.539062 634.53125 548.351562 634.53125 549.355469 L 634.53125 549.484375 C 634.53125 550.488281 635.34375 551.300781 636.347656 551.300781 L 654.90625 551.300781 C 655.910156 551.300781 656.722656 550.488281 656.722656 549.484375 Z M 657.132812 566.402344 L 651.300781 566.402344 C 650.296875 566.402344 649.484375 567.214844 649.484375 568.21875 L 649.484375 568.347656 C 649.484375 569.351562 650.296875 570.164062 651.300781 570.164062 L 657.132812 570.164062 C 658.136719 570.164062 658.949219 569.351562 658.949219 568.347656 L 658.949219 568.21875 C 658.949219 567.214844 658.136719 566.402344 657.132812 566.402344 Z M 544.640625 600.457031 L 533.71875 600.457031 C 532.714844 600.457031 531.902344 601.269531 531.902344 602.273438 L 531.902344 602.402344 C 531.902344 603.410156 532.714844 604.21875 533.71875 604.21875 L 544.640625 604.21875 C 545.644531 604.21875 546.457031 603.410156 546.457031 602.402344 L 546.457031 602.273438 C 546.457031 601.269531 545.644531 600.457031 544.640625 600.457031 Z M 628.839844 547.527344 L 626.546875 547.527344 C 625.542969 547.527344 624.730469 548.335938 624.730469 549.34375 L 624.730469 549.472656 C 624.730469 550.476562 625.542969 551.289062 626.546875 551.289062 L 628.839844 551.289062 C 629.84375 551.289062 630.65625 550.476562 630.65625 549.472656 L 630.65625 549.34375 C 630.65625 548.335938 629.84375 547.527344 628.839844 547.527344 Z M 628.839844 547.527344 " fill-opacity="1" fill-rule="nonzero"/><path fill="#231f20" d="M 416.449219 331.53125 C 416.449219 332.769531 415.445312 333.773438 414.207031 333.773438 L 395.574219 333.773438 C 394.335938 333.773438 393.332031 332.769531 393.332031 331.53125 C 393.332031 330.296875 394.335938 329.289062 395.574219 329.289062 L 414.207031 329.289062 C 415.445312 329.304688 416.449219 330.308594 416.449219 331.53125 Z M 437.3125 319.753906 L 395.574219 319.753906 C 394.335938 319.753906 393.332031 320.761719 393.332031 321.996094 C 393.332031 323.234375 394.335938 324.238281 395.574219 324.238281 L 437.3125 324.238281 C 438.546875 324.238281 439.550781 323.234375 439.550781 321.996094 C 439.550781 320.761719 438.546875 319.753906 437.3125 319.753906 Z M 377.066406 364.402344 C 376.859375 364.402344 353.9375 359.726562 353.9375 359.726562 L 345.9375 343.207031 C 340.8125 332.628906 330.097656 325.902344 318.339844 325.902344 L 312.816406 325.902344 L 309.777344 320.269531 L 285.589844 320.269531 L 281.070312 325.902344 L 279.214844 325.902344 C 265.976562 325.902344 254.246094 334.390625 250.097656 346.96875 L 240.425781 376.28125 C 236.332031 388.691406 243.980469 401.898438 256.769531 404.527344 L 257.914062 404.757812 L 253.046875 434.871094 L 323.683594 434.871094 L 329.121094 376.617188 L 337.890625 388.316406 C 346.375 399.644531 363.542969 399.039062 371.21875 387.15625 L 376.691406 378.136719 C 376.9375 377.839844 377.273438 364.402344 377.066406 364.402344 Z M 323.738281 273.933594 C 321.675781 270.855469 318.90625 272.324219 318.90625 272.324219 C 318.289062 269.4375 315.328125 267.3125 311.722656 268.097656 C 310.859375 266.0625 306.75 264.398438 303.261719 267.066406 C 298.339844 264.375 295.238281 269.195312 295.238281 269.195312 C 295.238281 269.195312 290.40625 267.917969 287.585938 272.851562 C 282.550781 273.367188 281.585938 278.585938 281.832031 292.503906 C 281.90625 301.199219 287.585938 314.679688 287.585938 314.679688 L 294.488281 317.988281 L 314.683594 312.140625 L 325.746094 287.785156 C 326.15625 281.28125 324.507812 275.082031 323.738281 273.933594 Z M 323.738281 273.933594 " fill-opacity="1" fill-rule="nonzero"/><path fill="#b55f27" d="M 316.652344 294.253906 L 317.179688 291.277344 C 317.542969 289.253906 319.292969 287.785156 321.339844 287.785156 L 325.757812 287.785156 C 325.863281 289.242188 325.824219 290.738281 325.617188 292.257812 L 324.148438 302.980469 L 322.847656 306.148438 C 322.796875 306.496094 323.582031 307.101562 323.503906 307.4375 C 323.117188 309.226562 322.371094 310.878906 321.367188 312.320312 C 317.632812 314.753906 314.230469 316.6875 310.421875 318.003906 L 310.277344 318.003906 L 309.800781 320.285156 L 285.617188 320.285156 L 287.613281 314.691406 L 302.835938 314.691406 C 305.152344 314.691406 307.238281 313.285156 308.113281 311.136719 L 310.40625 305.515625 C 310.40625 305.515625 304.832031 304.046875 304.714844 298.441406 C 304.675781 296.675781 305.640625 294.949219 307.289062 294.308594 C 309.980469 293.25 312.558594 294.808594 313.1875 297.179688 C 314.890625 297.167969 316.355469 295.941406 316.652344 294.253906 Z M 404.484375 335.0625 L 405.167969 333.800781 C 405.824219 332.601562 405.796875 331.144531 405.101562 329.960938 C 403.632812 327.484375 400.851562 323.273438 398.921875 320.359375 C 397.773438 318.632812 395.417969 318.234375 393.742188 319.472656 L 388.683594 323.234375 L 383.3125 322.71875 L 381.457031 335.050781 L 353.949219 359.726562 L 376.757812 378.136719 C 376.746094 378.136719 402.566406 338.566406 404.484375 335.0625 Z M 404.484375 335.0625 " fill-opacity="1" fill-rule="nonzero"/><g clip-path="url(#0ac8a46467)"><path fill="#231f20" d="M 321.339844 312.308594 C 318.90625 315.773438 314.890625 317.988281 310.394531 317.988281 L 310.253906 317.988281 L 312.417969 307.179688 C 312.90625 304.730469 315.054688 302.980469 317.554688 302.980469 L 324.136719 302.980469 L 323.660156 306.417969 C 323.609375 306.765625 323.542969 307.101562 323.480469 307.425781 L 321.148438 307.425781 C 319.925781 307.425781 318.867188 308.273438 318.597656 309.472656 L 317.96875 312.308594 Z M 435.6875 509.230469 L 404.652344 509.230469 C 403.414062 509.230469 402.410156 510.234375 402.410156 511.472656 C 402.410156 512.710938 403.414062 513.714844 404.652344 513.714844 L 435.6875 513.714844 C 436.925781 513.714844 437.929688 512.710938 437.929688 511.472656 C 437.917969 510.234375 436.914062 509.230469 435.6875 509.230469 Z M 437.917969 521.433594 C 437.917969 522.671875 436.914062 523.675781 435.675781 523.675781 L 404.640625 523.675781 C 403.402344 523.675781 402.398438 522.671875 402.398438 521.433594 C 402.398438 520.195312 403.402344 519.191406 404.640625 519.191406 L 435.675781 519.191406 C 436.914062 519.191406 437.917969 520.195312 437.917969 521.433594 Z M 423.917969 531.378906 C 423.917969 532.617188 422.914062 533.609375 421.675781 533.609375 L 404.640625 533.609375 C 403.402344 533.609375 402.398438 532.605469 402.398438 531.378906 C 402.398438 530.144531 403.402344 529.140625 404.640625 529.140625 L 421.675781 529.140625 C 422.914062 529.152344 423.917969 530.144531 423.917969 531.378906 Z M 376.035156 311.070312 L 388.835938 323.273438 L 386.015625 325 L 373.574219 313.710938 C 372.828125 313.027344 372.789062 311.855469 373.5 311.121094 C 374.195312 310.414062 375.316406 310.386719 376.035156 311.070312 Z M 551.570312 599.464844 L 551.570312 614.425781 L 660.328125 614.425781 L 660.328125 617.09375 L 551.570312 617.09375 L 551.570312 632.050781 L 660.328125 632.050781 L 660.328125 634.71875 L 551.570312 634.71875 L 551.570312 651.019531 L 548.902344 651.019531 L 548.902344 634.71875 L 440.144531 634.71875 L 440.144531 632.050781 L 548.902344 632.050781 L 548.902344 617.09375 L 440.144531 617.09375 L 440.144531 614.425781 L 548.902344 614.425781 L 548.902344 598.140625 L 550.242188 598.140625 L 550.242188 596.796875 L 660.339844 596.796875 L 660.339844 599.464844 Z M 660.199219 581.839844 L 550.242188 581.839844 L 550.242188 579.171875 L 660.199219 579.171875 Z M 660.199219 564.199219 L 550.242188 564.199219 L 550.242188 561.53125 L 660.199219 561.53125 Z M 660.199219 564.199219 " fill-opacity="1" fill-rule="nonzero"/></g></svg>