<svg xmlns="http://www.w3.org/2000/svg" xmlns:xlink="http://www.w3.org/1999/xlink" width="1000" zoomAndPan="magnify" viewBox="0 0 750 749.999995" height="1000" preserveAspectRatio="xMidYMid meet" version="1.0"><defs><clipPath id="aa04d032bf"><path d="M 7.523438 88 L 735.773438 88 L 735.773438 712.433594 L 7.523438 712.433594 Z M 7.523438 88 " clip-rule="nonzero"/></clipPath><clipPath id="fb6a13aa6a"><path d="M 7.523438 197 L 735.773438 197 L 735.773438 712.433594 L 7.523438 712.433594 Z M 7.523438 197 " clip-rule="nonzero"/></clipPath></defs><g clip-path="url(#aa04d032bf)"><path fill="#f9a429" d="M 712.089844 672.859375 L 683.363281 672.859375 L 683.410156 595.132812 L 705.042969 595.132812 L 705.042969 593.960938 L 683.410156 593.960938 L 683.441406 511.460938 L 705.042969 511.460938 L 705.042969 510.289062 L 683.441406 510.289062 L 683.488281 427.800781 L 705.042969 427.800781 L 705.042969 426.628906 L 683.488281 426.628906 L 683.535156 344.128906 L 705.042969 344.128906 L 705.042969 342.957031 L 683.535156 342.957031 L 683.535156 339.835938 L 723.4375 304.84375 L 729.1875 310.589844 C 730.25 311.652344 732.082031 310.902344 732.082031 309.386719 L 732.082031 294.695312 C 732.082031 293.757812 731.316406 293.007812 730.375 293.007812 L 715.6875 293.007812 C 714.167969 293.007812 713.417969 294.835938 714.480469 295.898438 L 720.109375 301.519531 L 683.535156 333.605469 L 683.566406 260.453125 L 705.042969 260.453125 L 705.042969 259.285156 L 683.582031 259.285156 L 683.597656 213.550781 L 652.386719 213.550781 L 652.386719 176.78125 L 705.042969 176.78125 L 705.042969 175.609375 L 652.386719 175.609375 L 652.386719 159.980469 C 665.03125 151.878906 672.347656 136.8125 669.816406 121.058594 C 666.40625 99.867188 646.433594 85.441406 625.210938 88.847656 C 603.984375 92.265625 589.558594 112.203125 592.96875 133.40625 C 596.375 154.609375 616.347656 169.039062 637.570312 165.617188 C 642.542969 164.820312 647.136719 163.121094 651.214844 160.699219 L 651.214844 175.609375 L 559.769531 175.609375 L 559.769531 109.503906 L 558.597656 109.503906 L 558.597656 175.609375 L 467.152344 175.609375 L 467.152344 109.503906 L 465.980469 109.503906 L 465.980469 175.609375 L 413.71875 175.609375 C 408.484375 167.257812 398.417969 162.667969 388.226562 164.835938 C 382.617188 166.039062 377.882812 169.070312 374.535156 173.191406 L 374.535156 109.503906 L 373.363281 109.503906 L 373.363281 174.75 C 373.160156 175.03125 372.972656 175.3125 372.800781 175.609375 L 281.902344 175.609375 L 281.902344 109.503906 L 280.730469 109.503906 L 280.730469 175.609375 L 189.285156 175.609375 L 189.289062 109.503906 L 188.113281 109.503906 L 188.113281 175.609375 L 96.671875 175.609375 L 96.671875 109.503906 L 95.496094 109.503906 L 95.496094 175.609375 L 42.84375 175.609375 L 42.84375 176.78125 L 95.496094 176.78125 L 95.496094 259.285156 L 42.84375 259.285156 L 42.84375 260.453125 L 95.496094 260.453125 L 95.496094 307.40625 L 60.160156 290.542969 C 58.988281 289.996094 57.597656 290.480469 57.035156 291.652344 C 56.472656 292.820312 56.972656 294.210938 58.128906 294.773438 L 95.496094 312.605469 L 95.496094 342.957031 L 42.84375 342.957031 L 42.84375 344.128906 L 95.496094 344.128906 L 95.496094 426.628906 L 42.84375 426.628906 L 42.84375 427.800781 L 95.496094 427.800781 L 95.496094 510.289062 L 42.84375 510.289062 L 42.84375 511.460938 L 95.496094 511.460938 L 95.496094 516.894531 C 93.042969 516.285156 90.464844 515.957031 87.824219 515.957031 C 70.414062 515.957031 56.300781 530.039062 56.300781 547.433594 C 56.300781 564.828125 70.414062 578.910156 87.824219 578.910156 C 90.464844 578.910156 93.042969 578.582031 95.496094 577.972656 L 95.496094 593.960938 L 42.84375 593.960938 L 42.84375 595.132812 L 95.496094 595.132812 L 95.496094 605.015625 L 59.378906 605.015625 L 59.175781 664.660156 L 31.214844 672.855469 L 7.742188 712.375 L 735.566406 712.375 Z M 59.144531 672.855469 L 50.078125 672.855469 L 59.160156 670.15625 Z M 189.285156 254.957031 L 231.796875 212.597656 L 273.621094 240.828125 C 259.960938 243.765625 244.605469 249.699219 236.851562 255.039062 C 235.835938 255.742188 235.839844 256.863281 237.011719 257.253906 C 239.152344 257.972656 241.347656 258.472656 243.707031 258.269531 L 242.566406 259.285156 L 189.285156 259.285156 Z M 149.511719 594.132812 C 149.042969 594.085938 148.621094 594.023438 148.261719 593.960938 C 148.621094 594.023438 149.042969 594.070312 149.511719 594.132812 Z M 239.707031 424.007812 C 239.035156 424.101562 238.378906 424.242188 237.738281 424.445312 C 237.191406 422.289062 236.628906 420.136719 236.046875 417.980469 C 235.5625 416.230469 235.09375 414.484375 234.59375 412.734375 C 240.097656 406.488281 244.957031 400.414062 248.753906 393.6875 C 248.894531 395.605469 249.035156 397.542969 249.191406 399.460938 C 249.691406 405.394531 250.222656 411.328125 250.925781 417.261719 L 251.285156 422.648438 Z M 189.285156 260.453125 L 241.238281 260.453125 L 238.53125 263.554688 C 232.980469 268.097656 233.351562 272.46875 237.226562 273.671875 C 238.914062 274.203125 241.128906 275.007812 244.003906 274.929688 C 246.785156 287.855469 250.597656 300.175781 257.867188 310.449219 C 260.007812 313.449219 263.664062 314.960938 267.292969 314.351562 L 267.308594 314.351562 C 267.417969 314.351562 267.527344 314.335938 267.636719 314.320312 L 265.929688 315.304688 C 254.195312 321.957031 244.410156 331.496094 237.488281 342.957031 L 189.285156 342.957031 Z M 189.285156 344.128906 L 236.785156 344.128906 C 235.84375 345.738281 234.96875 347.375 234.140625 349.046875 L 213.167969 391.796875 L 213.449219 392.46875 L 189.285156 392.46875 Z M 188.113281 259.285156 L 184.957031 259.285156 L 188.113281 256.128906 Z M 96.671875 176.78125 L 188.113281 176.78125 L 188.113281 249.507812 L 178.316406 259.285156 L 96.667969 259.285156 Z M 96.667969 260.453125 L 177.128906 260.453125 L 118.847656 318.554688 L 96.667969 307.96875 Z M 96.667969 313.167969 L 118.316406 323.488281 C 118.644531 323.644531 118.988281 323.722656 119.332031 323.722656 C 119.941406 323.722656 120.535156 323.472656 120.988281 323.035156 L 183.785156 260.453125 L 188.113281 260.453125 L 188.113281 342.957031 L 96.667969 342.957031 Z M 96.667969 344.128906 L 188.113281 344.128906 L 188.113281 392.46875 L 145.152344 392.46875 C 144.464844 392.46875 143.949219 393.125 144.136719 393.796875 L 153.027344 426.628906 L 96.667969 426.628906 Z M 96.667969 427.800781 L 153.339844 427.800781 L 160.375 453.765625 C 160.5 454.234375 160.90625 454.546875 161.390625 454.546875 L 177.941406 454.546875 L 168.3125 458.871094 C 161.4375 461.949219 156.324219 467.945312 154.355469 475.21875 L 144.902344 510.289062 L 96.667969 510.289062 Z M 96.667969 577.660156 C 109.765625 573.835938 119.332031 561.75 119.332031 547.433594 C 119.332031 533.117188 109.765625 521.03125 96.667969 517.203125 L 96.667969 511.460938 L 144.589844 511.460938 L 127.144531 576.101562 L 132.132812 576.582031 C 131.148438 578.785156 129.710938 580.769531 127.925781 582.390625 L 117.472656 591.917969 C 116.800781 592.523438 116.316406 593.210938 116.003906 593.960938 L 96.667969 593.960938 Z M 151.246094 672.855469 L 130.742188 672.855469 L 130.820312 648.859375 L 151.292969 642.769531 L 151.308594 642.769531 Z M 151.308594 637.648438 L 130.835938 643.644531 L 130.976562 605.015625 L 96.667969 605.015625 L 96.667969 595.132812 L 115.628906 595.132812 C 115.554688 595.464844 115.519531 595.808594 115.507812 596.148438 C 115.496094 596.480469 115.519531 596.804688 115.558594 597.128906 C 115.53125 597.128906 115.515625 597.117188 115.488281 597.117188 C 115.503906 597.128906 115.53125 597.148438 115.5625 597.175781 C 115.59375 597.40625 115.644531 597.628906 115.699219 597.851562 C 115.726562 597.953125 115.75 598.054688 115.78125 598.152344 C 115.839844 598.351562 115.90625 598.539062 115.984375 598.730469 C 116.039062 598.867188 116.109375 599 116.175781 599.132812 C 116.253906 599.289062 116.328125 599.449219 116.417969 599.597656 C 116.585938 599.867188 116.769531 600.121094 116.976562 600.363281 C 117.050781 600.445312 117.136719 600.519531 117.214844 600.601562 C 117.382812 600.773438 117.554688 600.941406 117.746094 601.09375 C 117.84375 601.175781 117.949219 601.246094 118.054688 601.320312 C 118.257812 601.464844 118.472656 601.59375 118.695312 601.710938 C 118.800781 601.765625 118.898438 601.820312 119.007812 601.871094 C 119.34375 602.023438 119.699219 602.160156 120.082031 602.253906 C 124.988281 603.46875 131.039062 603.46875 136.960938 602.066406 C 139.789062 601.394531 142.398438 600.035156 144.621094 598.191406 L 148.308594 595.132812 L 151.386719 595.132812 L 151.386719 599.097656 C 149.355469 601.675781 147.074219 604.03125 144.574219 606.15625 L 137.882812 611.824219 C 135.617188 613.757812 134.898438 616.585938 135.460938 619.113281 C 136.039062 621.675781 137.929688 623.910156 140.867188 624.578125 C 143.898438 625.265625 147.449219 625.46875 151.339844 625.015625 Z M 243.347656 672.855469 L 222.859375 672.855469 L 222.96875 614.289062 L 238.503906 595.132812 L 243.441406 595.132812 Z M 222.984375 606.828125 L 223 595.132812 L 232.46875 595.132812 Z M 243.441406 593.960938 L 239.457031 593.960938 L 243.441406 589.042969 Z M 243.457031 581.597656 L 233.421875 593.960938 L 223 593.960938 L 223.09375 537.878906 L 221.640625 537.878906 L 233.5625 511.460938 L 243.535156 511.460938 Z M 243.535156 510.289062 L 234.09375 510.289062 L 236.503906 504.949219 C 237.628906 502.464844 239.910156 500.703125 242.597656 500.203125 C 242.910156 500.140625 243.238281 500.078125 243.550781 500.015625 Z M 280.730469 239.5625 C 280.542969 239.578125 280.371094 239.59375 280.183594 239.625 L 232.8125 207.632812 C 231.890625 207.007812 230.640625 207.117188 229.84375 207.914062 L 189.285156 248.339844 L 189.285156 176.78125 L 280.730469 176.78125 Z M 335.464844 672.855469 L 314.960938 672.855469 L 315.054688 595.132812 L 335.527344 595.132812 Z M 335.527344 593.960938 L 315.054688 593.960938 L 315.132812 519.859375 L 335.574219 522.421875 Z M 335.589844 517.703125 L 315.148438 515.144531 L 315.148438 511.460938 L 335.589844 511.460938 Z M 335.589844 510.289062 L 315.148438 510.289062 L 315.179688 477.859375 C 318.117188 476.171875 320.382812 473.503906 321.570312 470.285156 C 325.632812 459.339844 326.617188 447.722656 323.242188 435.171875 L 324.351562 427.800781 L 335.667969 427.800781 Z M 373.363281 381.742188 L 335.699219 381.742188 L 335.667969 426.628906 L 324.539062 426.628906 L 329.605469 393.171875 C 329.949219 392.4375 330.324219 391.703125 330.652344 390.953125 C 330.574219 391.09375 330.496094 391.21875 330.402344 391.359375 C 335.574219 381.429688 340.121094 371.40625 343.871094 361.273438 C 345.90625 355.777344 346.53125 349.875 345.65625 344.128906 L 373.363281 344.128906 Z M 373.363281 342.957031 L 345.453125 342.957031 C 345.203125 341.613281 344.859375 340.289062 344.4375 338.976562 C 344.40625 338.898438 344.390625 338.820312 344.359375 338.742188 C 341.839844 330.980469 336.933594 324.222656 330.230469 319.582031 C 321.914062 313.820312 312.472656 309.589844 303.050781 306.09375 L 296.796875 293.570312 C 296.515625 293.023438 296.609375 292.351562 296.984375 291.871094 C 299.144531 289.074219 300.253906 286.421875 300.660156 284.078125 C 303.238281 278.769531 302.972656 269.042969 300.878906 260.453125 L 302.675781 260.453125 L 373.363281 308.171875 Z M 300.503906 258.988281 L 300.941406 259.285156 L 300.582031 259.285156 C 300.550781 259.191406 300.535156 259.082031 300.503906 258.988281 Z M 373.363281 302.535156 L 311.035156 260.453125 L 373.363281 260.453125 Z M 373.363281 259.285156 L 309.300781 259.285156 L 297.8125 251.539062 L 297.800781 251.523438 C 296.734375 249.261719 295.5 247.339844 294.15625 245.964844 C 290.6875 242.40625 286.640625 239.53125 281.902344 239.5 L 281.902344 176.78125 L 372.113281 176.78125 C 369.394531 181.683594 368.378906 187.554688 369.628906 193.457031 C 370.316406 196.65625 371.613281 199.59375 373.363281 202.121094 Z M 427.566406 672.855469 L 407.0625 672.855469 L 407.125 595.132812 L 427.613281 595.132812 Z M 427.613281 593.960938 L 407.125 593.960938 L 407.1875 511.460938 L 427.660156 511.460938 Z M 427.660156 510.289062 L 407.1875 510.289062 L 407.1875 509.585938 L 427.675781 477.046875 Z M 427.691406 468.242188 L 427.691406 468.257812 L 407.203125 500.765625 L 407.265625 427.800781 L 427.707031 427.800781 Z M 427.707031 426.628906 L 407.265625 426.628906 L 407.296875 381.742188 L 374.535156 381.742188 L 374.535156 344.128906 L 427.753906 344.128906 Z M 427.753906 342.957031 L 374.535156 342.957031 L 374.535156 308.964844 L 383.695312 315.148438 C 384.617188 315.789062 385.851562 315.664062 386.648438 314.867188 L 427.800781 273.992188 Z M 427.800781 267.386719 L 384.710938 310.199219 L 374.535156 303.328125 L 374.535156 260.453125 L 427.800781 260.453125 Z M 465.980469 256.832031 L 445.054688 256.832031 L 465.980469 236.035156 Z M 465.980469 229.429688 L 438.414062 256.832031 L 427.800781 256.832031 L 427.800781 259.285156 L 374.535156 259.285156 L 374.535156 203.699219 C 380.085938 210.460938 389.132812 213.972656 398.292969 212.023438 C 411.34375 209.242188 419.65625 196.4375 416.875 183.402344 C 416.359375 181.027344 415.53125 178.8125 414.40625 176.78125 L 465.980469 176.78125 Z M 519.667969 672.855469 L 499.160156 672.855469 L 499.207031 595.132812 L 519.714844 595.132812 Z M 519.730469 593.960938 L 499.207031 593.960938 L 499.253906 511.460938 L 519.777344 511.460938 Z M 519.777344 510.289062 L 499.253906 510.289062 L 499.304688 427.800781 L 519.839844 427.800781 Z M 519.839844 426.628906 L 499.304688 426.628906 L 499.304688 416.667969 L 519.839844 424.648438 Z M 519.839844 419.636719 L 499.320312 411.65625 L 499.351562 344.128906 L 519.902344 344.128906 Z M 558.597656 338.023438 L 519.902344 338.023438 L 519.902344 342.957031 L 499.351562 342.957031 L 499.398438 260.453125 L 558.597656 260.453125 Z M 558.597656 259.285156 L 499.398438 259.285156 L 499.398438 256.832031 L 467.152344 256.832031 L 467.152344 234.878906 L 499.539062 202.699219 L 558.597656 251.976562 Z M 558.597656 183.933594 C 548.253906 183.855469 539.28125 191.535156 538 202.042969 C 536.625 213.332031 544.671875 223.605469 555.972656 224.964844 C 556.863281 225.074219 557.738281 225.121094 558.597656 225.121094 L 558.597656 245.871094 L 500.898438 197.734375 C 499.976562 196.953125 498.597656 197.015625 497.738281 197.875 L 467.152344 228.273438 L 467.152344 176.78125 L 558.597656 176.78125 Z M 559.769531 252.960938 L 567.351562 259.285156 L 559.769531 259.285156 Z M 611.769531 672.859375 L 591.261719 672.859375 L 591.308594 595.132812 L 611.816406 595.132812 Z M 611.816406 593.960938 L 591.324219 593.960938 L 591.371094 511.460938 L 611.847656 511.460938 Z M 611.847656 510.289062 L 591.371094 510.289062 L 591.433594 427.800781 L 611.894531 427.800781 Z M 611.894531 426.628906 L 591.433594 426.628906 L 591.433594 420.621094 L 611.910156 402.664062 Z M 611.910156 396.433594 L 591.449219 414.390625 L 591.496094 344.128906 L 611.941406 344.128906 Z M 611.941406 342.957031 L 591.496094 342.957031 L 591.496094 338.023438 L 559.769531 338.023438 L 559.769531 260.453125 L 568.757812 260.453125 L 599.265625 285.90625 C 600.046875 286.5625 601.1875 286.640625 602.046875 286.078125 L 611.972656 279.644531 Z M 611.972656 274.054688 L 600.9375 281.207031 L 576.074219 260.453125 L 611.972656 260.453125 Z M 651.214844 213.550781 L 612.003906 213.550781 L 611.988281 259.285156 L 574.664062 259.285156 L 559.769531 246.855469 L 559.769531 225.074219 C 569.492188 224.480469 577.699219 217.035156 578.917969 207.023438 C 580.292969 195.738281 572.242188 185.460938 560.945312 184.089844 C 560.554688 184.042969 560.160156 183.996094 559.769531 183.980469 L 559.769531 176.78125 L 651.214844 176.78125 Z M 651.214844 213.550781 " fill-opacity="1" fill-rule="nonzero"/></g><path fill="#fc5e39" d="M 59.160156 670.15625 L 130.820312 648.859375 L 130.742188 672.855469 L 59.144531 672.855469 Z M 59.175781 664.660156 L 130.835938 643.644531 L 130.976562 605.015625 L 59.378906 605.015625 Z M 154.558594 594.570312 C 153.386719 594.492188 152.324219 594.414062 151.386719 594.320312 L 151.386719 599.097656 C 152.386719 597.832031 153.324219 596.507812 154.199219 595.132812 C 154.324219 594.945312 154.433594 594.757812 154.558594 594.570312 Z M 214.574219 623.972656 L 151.308594 642.769531 L 151.246094 672.855469 L 222.859375 672.855469 L 222.96875 614.289062 L 215.730469 623.207031 C 215.433594 623.566406 215.027344 623.832031 214.574219 623.972656 Z M 196.304688 593.960938 L 195.773438 595.132812 L 189.285156 595.132812 L 189.285156 595.898438 C 188.910156 595.898438 188.519531 595.882812 188.113281 595.867188 L 188.113281 595.132812 L 165.421875 595.132812 C 171.5 595.382812 178.097656 595.585938 183.535156 595.742188 C 183.644531 595.742188 183.753906 595.757812 183.863281 595.757812 C 185.113281 595.789062 186.300781 595.820312 187.394531 595.851562 C 186.363281 602.160156 180.425781 606.296875 176.566406 608.371094 C 174.046875 609.730469 171.71875 611.402344 169.6875 613.417969 L 162.9375 620.160156 C 160.875 622.222656 158.261719 623.691406 155.417969 624.332031 C 154.027344 624.640625 152.652344 624.859375 151.339844 625.015625 L 151.308594 637.648438 L 212.542969 619.691406 L 222.984375 606.828125 L 223 595.132812 L 223 593.960938 L 223.09375 537.878906 L 221.640625 537.878906 Z M 243.441406 589.042969 L 243.441406 595.132812 L 243.347656 672.855469 L 314.960938 672.855469 L 315.054688 595.132812 L 315.054688 593.960938 L 315.132812 519.859375 L 301.019531 518.09375 Z M 281.902344 490.722656 C 281.511719 490.847656 281.121094 490.972656 280.730469 491.082031 C 268.886719 494.644531 256.429688 497.578125 243.550781 500.015625 L 243.535156 510.289062 L 243.535156 511.460938 L 243.457031 581.597656 L 298.191406 514.128906 C 298.707031 513.503906 299.503906 513.191406 300.316406 513.285156 L 315.148438 515.144531 L 315.148438 510.289062 L 315.179688 477.859375 C 314.835938 478.078125 314.476562 478.265625 314.101562 478.4375 C 304.003906 483.214844 293.234375 487.257812 281.902344 490.722656 Z M 392.964844 529.617188 L 335.574219 522.421875 L 335.527344 593.960938 L 335.527344 595.132812 L 335.464844 672.855469 L 407.0625 672.855469 L 407.125 595.132812 L 407.125 593.960938 L 407.1875 511.460938 L 407.1875 509.585938 L 395.246094 528.539062 C 394.761719 529.304688 393.871094 529.726562 392.964844 529.617188 Z M 335.667969 426.628906 L 335.667969 427.800781 L 335.589844 510.289062 L 335.589844 517.703125 L 392.074219 524.777344 L 407.203125 500.78125 L 407.203125 500.765625 L 407.265625 427.800781 L 407.265625 426.628906 L 407.296875 381.742188 L 335.699219 381.742188 Z M 427.675781 477.046875 L 427.660156 510.289062 L 427.660156 511.460938 L 427.613281 593.960938 L 427.613281 595.132812 L 427.566406 672.855469 L 499.160156 672.855469 L 499.207031 595.132812 L 499.207031 593.960938 L 499.253906 511.460938 L 499.253906 510.289062 L 499.304688 427.800781 L 499.304688 416.667969 L 472.3125 406.175781 Z M 427.800781 273.992188 L 427.753906 342.957031 L 427.753906 344.128906 L 427.707031 426.628906 L 427.707031 427.800781 L 427.691406 468.242188 L 469.375 402.054688 C 469.96875 401.101562 471.171875 400.710938 472.203125 401.117188 L 499.320312 411.65625 L 499.351562 344.128906 L 499.351562 342.957031 L 499.398438 260.453125 L 499.398438 256.832031 L 427.800781 256.832031 Z M 564.945312 442.183594 L 519.839844 424.648438 L 519.839844 427.800781 L 519.777344 510.289062 L 519.777344 511.460938 L 519.730469 593.960938 L 519.714844 595.132812 L 519.667969 672.855469 L 591.261719 672.859375 L 591.308594 595.132812 L 591.324219 593.960938 L 591.371094 511.460938 L 591.371094 510.289062 L 591.433594 427.800781 L 591.433594 420.621094 L 567.335938 441.761719 C 566.679688 442.339844 565.757812 442.511719 564.945312 442.183594 Z M 519.902344 344.128906 L 519.839844 419.636719 L 565.320312 437.308594 L 591.449219 414.390625 L 591.496094 344.128906 L 591.496094 338.023438 L 519.902344 338.023438 Z M 612.003906 213.550781 L 611.988281 259.285156 L 611.972656 260.453125 L 611.972656 279.644531 L 611.941406 342.957031 L 611.941406 344.128906 L 611.910156 396.433594 L 683.535156 333.605469 L 683.566406 260.453125 L 683.582031 259.285156 L 683.597656 213.550781 Z M 611.894531 426.628906 L 611.894531 427.800781 L 611.847656 510.289062 L 611.847656 511.460938 L 611.816406 593.960938 L 611.816406 595.132812 L 611.769531 672.859375 L 683.363281 672.859375 L 683.410156 595.132812 L 683.410156 593.960938 L 683.441406 511.460938 L 683.441406 510.289062 L 683.488281 427.800781 L 683.488281 426.628906 L 683.535156 344.128906 L 683.535156 339.835938 L 611.910156 402.664062 Z M 618.558594 121.339844 C 618.328125 119.914062 618.464844 118.273438 618.972656 116.421875 C 619.480469 114.574219 620.34375 112.898438 621.574219 111.394531 C 622.800781 109.894531 624.339844 108.792969 626.199219 108.09375 L 625.933594 106.445312 C 625.917969 105.847656 626.078125 105.347656 626.417969 104.953125 C 626.753906 104.558594 627.160156 104.320312 627.632812 104.246094 C 628.609375 104.085938 629.371094 104.550781 629.90625 105.628906 L 630.167969 107.273438 C 632.710938 107.066406 635.023438 107.4375 637.105469 108.386719 C 639.191406 109.339844 640.683594 110.746094 641.585938 112.609375 C 641.652344 113.523438 641.382812 114.230469 640.78125 114.726562 C 640.53125 114.929688 640.210938 115.0625 639.820312 115.125 C 638.996094 115.257812 638.3125 114.882812 637.769531 114.007812 C 636.929688 112.050781 634.816406 111.164062 631.429688 111.351562 L 631.683594 112.933594 L 633.296875 125.210938 C 640.359375 126.609375 644.378906 130.34375 645.355469 136.414062 C 645.828125 139.351562 644.992188 141.636719 642.839844 143.265625 C 640.691406 144.898438 638.222656 145.9375 635.4375 146.386719 L 635.664062 147.796875 C 635.734375 148.46875 635.585938 149.050781 635.226562 149.554688 C 634.863281 150.054688 634.445312 150.339844 633.976562 150.417969 C 632.839844 150.601562 632.058594 150 631.636719 148.621094 L 631.371094 146.976562 C 628.996094 146.714844 626.746094 146.042969 624.621094 144.957031 C 622.496094 143.875 621.320312 142.625 621.09375 141.214844 C 621 140.628906 621.097656 140.109375 621.386719 139.664062 C 621.675781 139.214844 622.066406 138.949219 622.554688 138.871094 C 623.046875 138.792969 623.78125 139.058594 624.765625 139.660156 C 624.808594 139.695312 625.195312 139.957031 625.917969 140.441406 C 628.207031 141.921875 629.910156 142.773438 631.03125 142.996094 C 630.886719 141.089844 630.609375 138.753906 630.207031 135.984375 C 629.800781 133.21875 629.542969 130.738281 629.429688 128.546875 C 624.480469 127.535156 621.269531 126.199219 619.796875 124.546875 C 619.199219 123.839844 618.789062 122.773438 618.558594 121.339844 Z M 633.460938 129.585938 C 633.53125 130.78125 633.726562 132.558594 634.046875 134.917969 C 634.367188 137.277344 634.707031 139.972656 635.078125 143.007812 C 639.605469 141.917969 641.679688 140.167969 641.289062 137.761719 C 640.902344 135.351562 640.121094 133.558594 638.945312 132.378906 C 637.769531 131.203125 635.941406 130.269531 633.460938 129.585938 Z M 622.660156 120.953125 C 623.054688 122.660156 625.230469 123.816406 629.1875 124.425781 L 628.40625 119.546875 L 627.730469 114.234375 C 627.558594 113.175781 627.429688 112.496094 627.339844 112.183594 C 625.722656 112.890625 624.476562 114.125 623.59375 115.890625 C 622.710938 117.664062 622.398438 119.347656 622.660156 120.953125 Z M 552.414062 212.558594 C 551.488281 211.695312 551.074219 210.890625 551.167969 210.136719 C 551.203125 209.828125 551.332031 209.578125 551.542969 209.390625 C 551.757812 209.203125 551.992188 209.128906 552.253906 209.160156 C 552.515625 209.191406 552.851562 209.433594 553.261719 209.886719 C 553.28125 209.910156 553.4375 210.097656 553.734375 210.449219 C 554.683594 211.539062 555.425781 212.222656 555.964844 212.5 C 556.167969 211.507812 556.371094 210.277344 556.570312 208.8125 C 556.769531 207.34375 557.003906 206.042969 557.269531 204.910156 C 554.898438 203.671875 553.460938 202.523438 552.953125 201.464844 C 552.753906 201.019531 552.699219 200.414062 552.792969 199.652344 C 552.886719 198.894531 553.195312 198.078125 553.726562 197.210938 C 554.253906 196.34375 554.941406 195.617188 555.785156 195.03125 C 556.632812 194.449219 557.578125 194.113281 558.625 194.027344 L 558.730469 193.152344 C 558.8125 192.84375 558.96875 192.613281 559.199219 192.464844 C 559.425781 192.3125 559.667969 192.25 559.917969 192.28125 C 560.441406 192.34375 560.757812 192.691406 560.875 193.316406 L 560.765625 194.195312 C 562.089844 194.460938 563.210938 194.988281 564.132812 195.777344 C 565.054688 196.566406 565.609375 197.5 565.792969 198.582031 C 565.691406 199.058594 565.453125 199.378906 565.074219 199.542969 C 564.917969 199.609375 564.734375 199.628906 564.523438 199.601562 C 564.085938 199.550781 563.792969 199.261719 563.644531 198.734375 C 563.507812 197.617188 562.5625 196.855469 560.808594 196.453125 L 560.707031 197.296875 L 559.726562 203.78125 C 563.117188 205.527344 564.613281 208.015625 564.21875 211.25 C 564.027344 212.8125 563.265625 213.851562 561.933594 214.367188 C 560.597656 214.882812 559.191406 215.050781 557.707031 214.871094 L 557.617188 215.621094 C 557.554688 215.972656 557.390625 216.25 557.132812 216.453125 C 556.875 216.652344 556.621094 216.738281 556.371094 216.707031 C 555.765625 216.632812 555.457031 216.214844 555.445312 215.453125 L 555.550781 214.578125 C 554.382812 214.09375 553.335938 213.421875 552.414062 212.558594 Z M 558.019531 213.097656 C 560.484375 213.207031 561.796875 212.621094 561.953125 211.339844 C 562.109375 210.054688 561.972656 209.027344 561.546875 208.257812 C 561.125 207.484375 560.328125 206.742188 559.167969 206.03125 C 559.027344 206.648438 558.867188 207.582031 558.683594 208.828125 C 558.5 210.078125 558.277344 211.5 558.019531 213.097656 Z M 557.75 202.78125 L 558.066406 200.183594 L 558.503906 197.378906 C 558.574219 196.816406 558.605469 196.449219 558.605469 196.28125 C 557.679688 196.402344 556.863281 196.847656 556.15625 197.617188 C 555.445312 198.390625 555.039062 199.199219 554.9375 200.054688 C 554.886719 200.980469 555.824219 201.890625 557.75 202.78125 Z M 385.117188 185.175781 C 384.929688 184.300781 384.964844 183.277344 385.222656 182.117188 C 385.476562 180.953125 385.960938 179.890625 386.675781 178.917969 C 387.386719 177.949219 388.308594 177.21875 389.4375 176.726562 L 389.222656 175.714844 C 389.195312 175.34375 389.277344 175.03125 389.476562 174.773438 C 389.671875 174.519531 389.914062 174.359375 390.207031 174.296875 C 390.808594 174.167969 391.292969 174.429688 391.65625 175.082031 L 391.875 176.09375 C 393.441406 175.886719 394.886719 176.042969 396.207031 176.566406 C 397.527344 177.09375 398.5 177.917969 399.117188 179.042969 C 399.1875 179.609375 399.042969 180.054688 398.683594 180.382812 C 398.535156 180.515625 398.339844 180.609375 398.101562 180.660156 C 397.59375 180.765625 397.160156 180.558594 396.792969 180.03125 C 396.214844 178.84375 394.875 178.363281 392.78125 178.582031 L 392.988281 179.554688 L 394.375 187.113281 C 398.796875 187.757812 401.40625 189.949219 402.199219 193.679688 C 402.585938 195.484375 402.136719 196.929688 400.855469 198.007812 C 399.574219 199.085938 398.078125 199.808594 396.367188 200.171875 L 396.550781 201.039062 C 396.613281 201.453125 396.542969 201.820312 396.332031 202.140625 C 396.125 202.460938 395.875 202.652344 395.585938 202.714844 C 394.886719 202.863281 394.386719 202.519531 394.082031 201.675781 L 393.863281 200.664062 C 392.382812 200.578125 390.96875 200.230469 389.617188 199.625 C 388.265625 199.019531 387.5 198.28125 387.3125 197.414062 C 387.238281 197.054688 387.28125 196.730469 387.445312 196.445312 C 387.613281 196.15625 387.84375 195.980469 388.144531 195.917969 C 388.449219 195.851562 388.914062 195.992188 389.539062 196.335938 C 389.570312 196.359375 389.816406 196.507812 390.277344 196.785156 C 391.742188 197.632812 392.828125 198.105469 393.527344 198.207031 C 393.378906 197.03125 393.132812 195.589844 392.796875 193.886719 C 392.457031 192.1875 392.222656 190.65625 392.082031 189.300781 C 388.984375 188.828125 386.953125 188.105469 385.988281 187.125 C 385.59375 186.707031 385.304688 186.058594 385.117188 185.175781 Z M 394.613281 189.820312 C 394.695312 190.558594 394.871094 191.652344 395.144531 193.105469 C 395.414062 194.558594 395.714844 196.21875 396.035156 198.089844 C 398.808594 197.269531 400.039062 196.121094 399.722656 194.640625 C 399.40625 193.160156 398.867188 192.074219 398.101562 191.382812 C 397.335938 190.6875 396.171875 190.167969 394.613281 189.820312 Z M 387.648438 184.808594 C 387.945312 185.855469 389.332031 186.503906 391.804688 186.757812 L 391.164062 183.757812 L 390.582031 180.484375 C 390.441406 179.835938 390.339844 179.417969 390.273438 179.226562 C 389.292969 179.714844 388.558594 180.519531 388.070312 181.644531 C 387.578125 182.765625 387.4375 183.820312 387.648438 184.808594 Z M 77.785156 557.289062 C 77.785156 556.808594 77.929688 556.40625 78.21875 556.082031 C 78.507812 555.761719 78.851562 555.601562 79.253906 555.601562 C 79.65625 555.601562 80.210938 555.90625 80.917969 556.515625 C 80.953125 556.550781 81.226562 556.808594 81.738281 557.289062 C 83.378906 558.765625 84.632812 559.667969 85.5 559.988281 C 85.628906 558.445312 85.710938 556.539062 85.742188 554.277344 C 85.773438 552.011719 85.886719 549.996094 86.082031 548.230469 C 82.253906 546.785156 79.859375 545.304688 78.894531 543.796875 C 78.507812 543.152344 78.316406 542.246094 78.316406 541.074219 C 78.316406 539.902344 78.636719 538.609375 79.28125 537.195312 C 79.921875 535.78125 80.832031 534.554688 82.003906 533.507812 C 83.179688 532.464844 84.554688 531.785156 86.128906 531.460938 L 86.128906 530.109375 C 86.195312 529.628906 86.386719 529.253906 86.707031 528.980469 C 87.027344 528.707031 87.382812 528.570312 87.769531 528.570312 C 88.570312 528.570312 89.121094 529.035156 89.410156 529.96875 L 89.410156 531.316406 C 91.464844 531.476562 93.269531 532.070312 94.8125 533.097656 C 96.355469 534.128906 97.367188 535.445312 97.847656 537.050781 C 97.785156 537.789062 97.480469 538.320312 96.933594 538.640625 C 96.707031 538.769531 96.433594 538.832031 96.113281 538.832031 C 95.4375 538.832031 94.9375 538.449219 94.617188 537.675781 C 94.199219 536.007812 92.625 535.027344 89.890625 534.738281 L 89.890625 536.039062 L 89.601562 546.0625 C 95.066406 548.085938 97.800781 551.585938 97.800781 556.566406 C 97.800781 558.972656 96.835938 560.695312 94.90625 561.722656 C 92.976562 562.75 90.871094 563.265625 88.589844 563.265625 L 88.589844 564.421875 C 88.554688 564.964844 88.363281 565.414062 88.007812 565.769531 C 87.65625 566.121094 87.285156 566.300781 86.902344 566.300781 C 85.96875 566.300781 85.421875 565.71875 85.261719 564.5625 L 85.261719 563.214844 C 83.394531 562.699219 81.683594 561.875 80.125 560.734375 C 78.5625 559.59375 77.785156 558.445312 77.785156 557.289062 Z M 88.734375 560.515625 C 92.496094 560.226562 94.375 559.09375 94.375 557.117188 C 94.375 555.144531 93.984375 553.609375 93.195312 552.515625 C 92.40625 551.425781 91.066406 550.445312 89.167969 549.578125 C 89.070312 550.542969 89 551.988281 88.949219 553.914062 C 88.902344 555.84375 88.832031 558.042969 88.734375 560.515625 Z M 86.417969 544.902344 L 86.417969 540.90625 L 86.5625 536.570312 C 86.5625 535.699219 86.546875 535.140625 86.515625 534.882812 C 85.132812 535.234375 83.976562 536.0625 83.042969 537.363281 C 82.109375 538.664062 81.644531 539.972656 81.644531 541.289062 C 81.738281 542.703125 83.332031 543.910156 86.417969 544.902344 Z M 86.417969 544.902344 " fill-opacity="1" fill-rule="nonzero"/><path fill="#ff967a" d="M 303.050781 306.09375 C 297.390625 315.117188 290.28125 322.972656 281.902344 329.78125 C 281.511719 330.105469 281.121094 330.417969 280.730469 330.730469 C 280.636719 330.792969 280.542969 330.871094 280.449219 330.949219 C 278.371094 332.574219 275.355469 332.105469 273.855469 329.917969 C 272.339844 327.734375 270.980469 325.484375 269.839844 323.128906 C 268.824219 321.019531 268.339844 318.679688 268.339844 316.320312 L 268.339844 314.164062 C 268.136719 314.210938 267.933594 314.242188 267.730469 314.273438 C 267.605469 314.304688 267.480469 314.320312 267.339844 314.351562 L 267.324219 314.351562 C 267.308594 314.351562 267.308594 314.351562 267.292969 314.351562 C 263.664062 314.960938 260.007812 313.449219 257.867188 310.449219 C 250.597656 300.175781 246.785156 287.855469 244.003906 274.929688 C 245.675781 274.898438 247.582031 274.726562 249.753906 274.398438 C 257.695312 273.164062 266.695312 268.917969 274.214844 263.125 C 274.433594 262.984375 274.636719 262.828125 274.839844 262.640625 L 280.730469 272.429688 L 281.902344 274.367188 L 286.046875 281.253906 L 287.328125 283.359375 L 290.9375 283.359375 L 290.9375 279.332031 C 290.9375 279.347656 290.953125 279.378906 290.953125 279.394531 C 291.484375 278.347656 292.078125 277.519531 292.71875 276.910156 C 292.875 276.738281 293.0625 276.582031 293.25 276.441406 C 293.359375 276.363281 293.46875 276.285156 293.578125 276.210938 C 293.6875 276.132812 293.796875 276.070312 293.90625 276.007812 C 294.140625 275.882812 294.359375 275.789062 294.578125 275.695312 C 294.59375 275.695312 294.609375 275.679688 294.609375 275.679688 C 294.796875 275.617188 294.96875 275.570312 295.15625 275.539062 C 295.1875 275.539062 295.203125 275.523438 295.234375 275.523438 C 295.359375 275.492188 295.484375 275.476562 295.59375 275.476562 C 295.703125 275.460938 295.828125 275.460938 295.9375 275.460938 C 296.078125 275.460938 296.21875 275.460938 296.34375 275.476562 C 296.46875 275.492188 296.59375 275.507812 296.703125 275.539062 C 296.765625 275.554688 296.8125 275.570312 296.875 275.585938 C 296.96875 275.601562 297.0625 275.632812 297.15625 275.664062 L 297.171875 275.679688 C 297.3125 275.710938 297.4375 275.773438 297.5625 275.820312 C 297.578125 275.820312 297.578125 275.820312 297.578125 275.820312 C 297.707031 275.882812 297.828125 275.945312 297.941406 276.023438 C 297.957031 276.023438 297.957031 276.023438 297.957031 276.023438 C 298.082031 276.101562 298.207031 276.175781 298.316406 276.269531 C 298.566406 276.457031 298.785156 276.644531 299.003906 276.878906 C 300.394531 278.363281 301.191406 280.925781 300.660156 284.078125 C 300.253906 286.421875 299.144531 289.074219 296.984375 291.871094 C 296.609375 292.351562 296.515625 293.023438 296.796875 293.570312 Z M 258.710938 426.628906 L 254.070312 422.320312 L 251.285156 422.648438 L 239.707031 424.007812 C 238.847656 424.117188 238.019531 424.304688 237.222656 424.601562 L 237.738281 426.628906 L 238.035156 427.800781 L 241.269531 440.558594 L 242.753906 446.398438 C 243.972656 445.476562 245.191406 444.382812 246.347656 443.367188 C 247.488281 442.367188 248.957031 441.871094 250.457031 441.917969 C 255.273438 442.074219 259.429688 440.589844 262.476562 438.980469 C 265.898438 437.152344 267.933594 435.171875 267.933594 435.171875 L 259.976562 427.800781 Z M 258.710938 426.628906 " fill-opacity="1" fill-rule="nonzero"/><g clip-path="url(#fb6a13aa6a)"><path fill="#4da599" d="M 57.035156 291.652344 C 57.597656 290.480469 58.988281 289.996094 60.160156 290.542969 L 95.496094 307.40625 L 96.667969 307.96875 L 118.847656 318.554688 L 177.128906 260.453125 L 178.316406 259.285156 L 188.113281 249.507812 L 189.285156 248.339844 L 229.84375 207.914062 C 230.640625 207.117188 231.890625 207.007812 232.8125 207.632812 L 280.183594 239.625 C 280.136719 239.625 280.074219 239.640625 280.027344 239.640625 C 277.964844 239.953125 275.824219 240.359375 273.621094 240.828125 L 231.796875 212.597656 L 189.285156 254.957031 L 184.957031 259.285156 L 183.785156 260.453125 L 120.988281 323.035156 C 120.535156 323.472656 119.941406 323.722656 119.332031 323.722656 C 118.988281 323.722656 118.644531 323.644531 118.316406 323.488281 L 96.667969 313.167969 L 95.496094 312.605469 L 58.128906 294.773438 C 56.972656 294.210938 56.472656 292.820312 57.035156 291.652344 Z M 300.941406 259.285156 L 302.675781 260.453125 L 373.363281 308.171875 L 374.535156 308.964844 L 383.695312 315.148438 C 384.617188 315.789062 385.851562 315.664062 386.648438 314.867188 L 427.800781 273.992188 L 427.800781 267.386719 L 384.710938 310.199219 L 374.535156 303.328125 L 373.363281 302.535156 L 311.035156 260.453125 L 309.300781 259.285156 L 297.8125 251.539062 C 298.863281 253.757812 299.769531 256.300781 300.503906 258.988281 Z M 465.980469 236.035156 L 467.152344 234.878906 L 499.539062 202.699219 L 558.597656 251.976562 L 559.769531 252.960938 L 567.351562 259.285156 L 568.757812 260.453125 L 599.265625 285.90625 C 600.046875 286.5625 601.1875 286.640625 602.046875 286.078125 L 611.972656 279.644531 L 611.972656 274.054688 L 600.9375 281.207031 L 576.074219 260.453125 L 574.664062 259.285156 L 559.769531 246.855469 L 558.597656 245.871094 L 500.898438 197.734375 C 499.976562 196.953125 498.597656 197.015625 497.738281 197.875 L 467.152344 228.273438 L 465.980469 229.429688 L 438.414062 256.832031 L 445.054688 256.832031 Z M 273.855469 329.917969 C 272.339844 327.734375 270.980469 325.484375 269.839844 323.128906 C 268.824219 321.019531 268.339844 318.679688 268.339844 316.320312 L 268.339844 314.164062 C 268.136719 314.210938 267.933594 314.242188 267.730469 314.273438 L 265.929688 315.304688 C 254.195312 321.957031 244.410156 331.496094 237.488281 342.957031 C 237.238281 343.347656 237.019531 343.738281 236.785156 344.128906 C 235.84375 345.738281 234.96875 347.375 234.140625 349.046875 L 213.167969 391.796875 L 213.449219 392.46875 L 228.25 392.46875 C 228.734375 392.46875 229.15625 392.796875 229.28125 393.265625 L 234.296875 413.078125 C 240.160156 406.441406 245.332031 400.023438 249.253906 392.8125 L 251.285156 422.648438 L 254.070312 422.320312 L 258.710938 426.628906 L 259.976562 427.800781 L 267.933594 435.171875 L 323.242188 435.171875 L 324.351562 427.800781 L 324.539062 426.628906 L 329.652344 392.84375 C 335.136719 382.429688 339.933594 371.90625 343.871094 361.273438 C 345.90625 355.777344 346.53125 349.875 345.65625 344.128906 C 345.59375 343.738281 345.53125 343.347656 345.453125 342.957031 C 345.203125 341.613281 344.859375 340.289062 344.4375 338.976562 C 344.40625 338.898438 344.390625 338.820312 344.359375 338.742188 C 341.839844 330.980469 336.933594 324.222656 330.230469 319.582031 C 321.914062 313.820312 312.472656 309.589844 303.050781 306.09375 C 297.390625 315.117188 290.28125 322.972656 281.902344 329.78125 C 281.511719 330.105469 281.121094 330.417969 280.730469 330.730469 C 280.636719 330.792969 280.542969 330.871094 280.449219 330.949219 C 278.371094 332.574219 275.355469 332.105469 273.855469 329.917969 Z M 712.089844 672.859375 L 50.078125 672.855469 L 59.160156 670.15625 L 130.820312 648.859375 L 151.292969 642.769531 L 151.308594 642.769531 L 214.574219 623.972656 C 215.027344 623.832031 215.433594 623.566406 215.730469 623.207031 L 222.96875 614.289062 L 238.503906 595.132812 L 239.457031 593.960938 L 243.441406 589.042969 L 301.019531 518.09375 L 315.132812 519.859375 L 335.574219 522.421875 L 392.964844 529.617188 C 393.871094 529.726562 394.761719 529.304688 395.246094 528.539062 L 407.1875 509.585938 L 427.675781 477.046875 L 472.3125 406.175781 L 499.304688 416.667969 L 519.839844 424.648438 L 564.945312 442.183594 C 565.757812 442.511719 566.679688 442.339844 567.335938 441.761719 L 591.433594 420.621094 L 611.910156 402.664062 L 683.535156 339.835938 L 723.4375 304.84375 L 729.1875 310.589844 C 730.25 311.652344 732.082031 310.902344 732.082031 309.386719 L 732.082031 294.695312 C 732.082031 293.757812 731.316406 293.007812 730.375 293.007812 L 715.6875 293.007812 C 714.167969 293.007812 713.417969 294.835938 714.480469 295.898438 L 720.109375 301.519531 L 683.535156 333.605469 L 611.910156 396.433594 L 591.449219 414.390625 L 565.320312 437.308594 L 519.839844 419.636719 L 499.320312 411.65625 L 472.203125 401.117188 C 471.171875 400.710938 469.96875 401.101562 469.375 402.054688 L 427.691406 468.242188 L 427.691406 468.257812 L 407.203125 500.765625 L 407.203125 500.78125 L 392.074219 524.777344 L 335.589844 517.703125 L 315.148438 515.144531 L 300.316406 513.285156 C 299.503906 513.191406 298.707031 513.503906 298.191406 514.128906 L 243.457031 581.597656 L 233.421875 593.960938 L 232.46875 595.132812 L 222.984375 606.828125 L 212.542969 619.691406 L 151.308594 637.648438 L 130.835938 643.644531 L 59.175781 664.660156 L 31.214844 672.855469 L 7.742188 712.375 L 735.566406 712.375 Z M 712.089844 672.859375 " fill-opacity="1" fill-rule="nonzero"/></g><path fill="#321a2a" d="M 259.484375 296.214844 L 259.484375 296.277344 C 259.425781 296.996094 259.699219 297.710938 260.191406 298.242188 C 260.6875 298.773438 261.414062 299.078125 262.164062 299.058594 C 262.984375 299.015625 263.890625 298.820312 264.738281 298.546875 C 265.605469 298.292969 266.433594 297.90625 267.269531 297.5 C 267.355469 297.460938 267.460938 297.496094 267.503906 297.582031 C 267.539062 297.652344 267.519531 297.734375 267.464844 297.785156 C 266.753906 298.417969 265.941406 298.933594 265.082031 299.390625 C 264.207031 299.816406 263.308594 300.164062 262.273438 300.3125 C 261.164062 300.476562 259.980469 300.070312 259.160156 299.28125 C 258.320312 298.507812 257.871094 297.328125 257.933594 296.183594 L 257.929688 296.257812 C 257.769531 292.21875 257.71875 288.175781 258.039062 284.121094 C 258.046875 284 258.152344 283.914062 258.269531 283.921875 C 258.371094 283.929688 258.449219 284.007812 258.464844 284.101562 C 259.089844 288.125 259.339844 292.160156 259.484375 296.199219 Z M 274.464844 284.710938 C 273.402344 284.996094 272.820312 286.292969 273.160156 287.609375 C 273.5 288.921875 274.632812 289.757812 275.695312 289.472656 C 276.753906 289.1875 277.339844 287.890625 277 286.574219 C 276.660156 285.261719 275.523438 284.425781 274.464844 284.710938 Z M 253.320312 294.9375 C 254.191406 294.6875 254.636719 293.464844 254.316406 292.207031 C 253.992188 290.949219 253.027344 290.132812 252.15625 290.386719 C 251.285156 290.640625 250.839844 291.863281 251.164062 293.121094 C 251.484375 294.375 252.453125 295.191406 253.320312 294.9375 Z M 268.632812 305.464844 C 270.003906 304.9375 271.050781 303.734375 271.25 302.34375 C 270.011719 303.035156 269.109375 303.636719 268.082031 304.003906 C 267.074219 304.417969 265.972656 304.5625 264.601562 304.910156 C 265.707031 305.777344 267.253906 305.972656 268.632812 305.464844 Z M 273.816406 279.1875 C 272.734375 279.355469 271.699219 280.074219 271.433594 281.179688 C 272.539062 281 273.261719 280.832031 274.050781 280.730469 C 274.832031 280.597656 275.589844 280.546875 276.695312 280.339844 C 276.070312 279.390625 274.898438 279.035156 273.816406 279.1875 Z M 249.628906 286.046875 C 248.789062 286.34375 248.027344 287.101562 248.070312 288.097656 C 249.023438 287.878906 249.546875 287.714844 250.144531 287.519531 C 250.726562 287.296875 251.28125 287.101562 252.132812 286.632812 C 251.496094 285.875 250.480469 285.765625 249.628906 286.046875 Z M 241.238281 260.453125 L 238.113281 263.21875 C 232.5625 267.761719 233.375 272.945312 237.253906 274.148438 C 238.941406 274.679688 241.128906 275.007812 244.003906 274.929688 C 245.675781 274.898438 247.582031 274.726562 249.753906 274.398438 C 257.695312 273.164062 266.695312 268.917969 274.214844 263.125 C 274.433594 262.984375 274.636719 262.828125 274.839844 262.640625 L 280.730469 272.429688 L 281.902344 274.367188 L 286.046875 281.253906 L 287.328125 283.359375 L 290.9375 283.359375 L 290.9375 281.441406 C 290.953125 279.753906 291.546875 278.097656 292.71875 276.910156 C 292.875 276.738281 293.0625 276.582031 293.25 276.441406 C 293.359375 276.363281 293.46875 276.285156 293.578125 276.210938 C 293.6875 276.132812 293.796875 276.070312 293.90625 276.007812 C 294.140625 275.882812 294.359375 275.789062 294.578125 275.695312 C 294.59375 275.695312 294.609375 275.679688 294.609375 275.679688 C 294.796875 275.617188 294.96875 275.570312 295.15625 275.539062 C 295.1875 275.539062 295.203125 275.523438 295.234375 275.523438 C 295.359375 275.492188 295.484375 275.476562 295.59375 275.476562 C 295.703125 275.460938 295.828125 275.460938 295.9375 275.460938 C 296.203125 275.460938 296.453125 275.492188 296.703125 275.539062 C 296.765625 275.554688 296.8125 275.570312 296.875 275.585938 C 296.96875 275.601562 297.078125 275.632812 297.171875 275.679688 C 297.4375 275.757812 297.6875 275.882812 297.941406 276.023438 C 298.066406 276.101562 298.191406 276.175781 298.316406 276.269531 C 298.566406 276.457031 298.785156 276.644531 299.003906 276.878906 C 300.394531 278.363281 301.191406 280.925781 300.660156 284.078125 C 303.238281 278.769531 302.972656 269.042969 300.878906 260.453125 C 300.785156 260.066406 300.691406 259.675781 300.582031 259.285156 C 300.550781 259.191406 300.535156 259.082031 300.503906 258.988281 C 299.769531 256.300781 298.863281 253.757812 297.8125 251.539062 L 297.800781 251.523438 C 296.734375 249.261719 295.5 247.339844 294.15625 245.964844 C 290.6875 242.40625 286.640625 239.53125 281.902344 239.5 C 281.511719 239.5 281.121094 239.515625 280.730469 239.5625 C 280.542969 239.578125 280.371094 239.59375 280.183594 239.625 C 280.136719 239.625 280.074219 239.640625 280.027344 239.640625 C 277.964844 239.953125 275.824219 240.359375 273.621094 240.828125 C 259.960938 243.765625 244.316406 249.617188 236.566406 254.957031 C 235.546875 255.660156 235.75 257.222656 236.925781 257.613281 C 239.066406 258.332031 241.347656 258.472656 243.707031 258.269531 L 242.566406 259.285156 Z M 305.871094 421.875 C 312.03125 418.9375 317.382812 414.355469 321.28125 408.789062 C 323.28125 406.003906 324.652344 402.933594 326.242188 399.988281 C 327.753906 396.996094 329.261719 394.003906 330.65625 390.960938 C 328.824219 393.777344 327.113281 396.652344 325.402344 399.523438 C 323.6875 402.390625 322.179688 405.398438 320.214844 408.027344 C 316.375 413.375 311.167969 417.722656 305.207031 420.484375 C 299.160156 423.300781 293.023438 425.925781 286.757812 428.230469 C 280.617188 430.488281 274.402344 432.578125 268.105469 434.386719 L 254.929688 422.328125 L 292.703125 389.257812 C 295.886719 386.332031 298.4375 382.730469 300.140625 378.769531 L 305.183594 367.109375 L 310.183594 355.429688 L 312.683594 349.59375 C 313.507812 347.644531 314.324219 345.6875 314.925781 343.640625 C 314.933594 343.621094 314.921875 343.59375 314.902344 343.582031 C 314.878906 343.570312 314.847656 343.578125 314.832031 343.601562 C 313.738281 345.433594 312.855469 347.359375 311.984375 349.289062 L 309.394531 355.085938 L 304.214844 366.6875 C 300.519531 374.261719 298.324219 382.855469 291.875 388.355469 L 272.769531 405.089844 L 253.695312 421.890625 L 253.652344 421.929688 C 253.4375 422.160156 253.449219 422.523438 253.683594 422.738281 L 253.6875 422.742188 L 267.402344 435.636719 C 267.402344 435.636719 267.402344 435.636719 267.402344 435.640625 C 266.601562 436.34375 264.882812 437.699219 262.476562 438.980469 L 277.589844 438.792969 C 278.027344 438.792969 278.167969 439.402344 277.761719 439.589844 L 245.566406 454.203125 C 245.410156 454.265625 245.253906 454.328125 245.082031 454.390625 C 245.066406 454.390625 245.066406 454.390625 245.066406 454.390625 C 244.910156 454.4375 244.757812 454.484375 244.601562 454.5 C 243.839844 450.40625 242.953125 446.34375 242.046875 442.289062 C 241.828125 441.308594 241.59375 440.332031 241.367188 439.355469 C 241.386719 439.332031 241.40625 439.316406 241.425781 439.292969 C 242.003906 438.683594 242.566406 437.917969 243.082031 437.355469 C 243.613281 436.765625 244.238281 436.25 244.910156 435.8125 C 245.597656 435.390625 246.378906 434.90625 247.066406 434.359375 C 247.097656 434.34375 247.113281 434.3125 247.097656 434.28125 C 247.097656 434.234375 247.050781 434.203125 247.003906 434.203125 C 246.113281 434.390625 245.300781 434.59375 244.441406 434.9375 C 243.597656 435.3125 242.832031 435.890625 242.207031 436.578125 C 241.761719 437.117188 241.421875 437.628906 241.089844 438.160156 C 240.636719 436.238281 240.183594 434.320312 239.726562 432.402344 C 240.980469 431.390625 242.371094 430.519531 243.910156 429.894531 C 243.941406 429.878906 243.957031 429.847656 243.957031 429.832031 C 243.941406 429.785156 243.910156 429.769531 243.878906 429.769531 C 242.335938 430.0625 240.867188 430.683594 239.519531 431.527344 C 239.40625 431.050781 239.289062 430.578125 239.179688 430.101562 C 238.128906 426.0625 237.140625 422.011719 236.046875 417.984375 C 234.953125 413.957031 233.84375 409.933594 232.609375 405.9375 C 233.375 410.046875 234.265625 414.125 235.175781 418.199219 C 236.082031 422.273438 237.089844 426.320312 238.042969 430.382812 C 239.085938 434.421875 240.082031 438.476562 241.171875 442.503906 C 242.261719 446.515625 243.367188 450.523438 244.597656 454.5 C 244.410156 454.53125 244.207031 454.546875 244.003906 454.546875 L 177.941406 454.546875 L 168.3125 458.871094 C 161.4375 461.949219 156.324219 467.945312 154.355469 475.21875 L 144.902344 510.289062 L 144.589844 511.460938 L 127.144531 576.101562 L 132.132812 576.582031 L 151.417969 578.457031 L 151.605469 578.472656 L 151.621094 578.472656 C 152.261719 576.394531 152.917969 574.304688 153.574219 572.210938 C 154.230469 570.121094 154.886719 568.027344 155.542969 565.949219 C 156.855469 561.78125 158.199219 557.597656 159.53125 553.445312 L 164.578125 537.878906 L 170.109375 520.78125 C 171.140625 517.671875 172.171875 514.566406 173.203125 511.460938 C 173.328125 511.070312 173.453125 510.679688 173.59375 510.289062 C 176.035156 502.917969 178.472656 495.566406 180.988281 488.210938 L 183.769531 480.089844 C 184.613281 477.34375 185.925781 474.625 187.675781 472.300781 C 187.816406 472.113281 187.957031 471.925781 188.113281 471.738281 C 188.300781 471.503906 188.488281 471.269531 188.691406 471.035156 C 188.878906 470.800781 189.082031 470.582031 189.285156 470.363281 C 189.332031 470.316406 189.394531 470.253906 189.457031 470.207031 C 189.753906 469.863281 190.070312 469.550781 190.398438 469.253906 C 190.773438 468.898438 191.164062 468.554688 191.570312 468.226562 C 191.914062 467.929688 192.289062 467.648438 192.648438 467.382812 C 192.726562 467.320312 192.820312 467.242188 192.914062 467.195312 C 193.289062 466.914062 193.679688 466.648438 194.070312 466.398438 C 196.445312 464.773438 198.835938 463.214844 201.289062 461.730469 C 199.085938 463.574219 196.835938 465.335938 194.554688 467.070312 C 194.085938 467.414062 193.617188 467.757812 193.164062 468.132812 C 193.148438 468.148438 193.117188 468.164062 193.085938 468.195312 C 192.632812 468.570312 192.179688 468.960938 191.742188 469.363281 C 191.304688 469.769531 190.867188 470.191406 190.460938 470.644531 C 190.054688 471.082031 189.660156 471.535156 189.285156 472.003906 C 189.035156 472.316406 188.800781 472.628906 188.566406 472.941406 C 188.410156 473.160156 188.253906 473.378906 188.113281 473.613281 C 186.707031 475.71875 185.675781 478.03125 184.972656 480.496094 L 182.347656 488.664062 C 180.019531 495.890625 177.628906 503.089844 175.222656 510.289062 C 175.097656 510.679688 174.972656 511.070312 174.832031 511.460938 C 173.75 514.722656 172.65625 518 171.578125 521.265625 L 165.921875 537.878906 L 160.515625 553.773438 C 158.699219 559.066406 156.855469 564.359375 155.011719 569.652344 C 153.824219 573.070312 152.621094 576.472656 151.417969 579.878906 L 151.417969 579.894531 C 150.761719 581.78125 150.089844 583.671875 149.417969 585.5625 C 149.386719 585.65625 149.355469 585.75 149.324219 585.84375 C 149.308594 585.890625 149.292969 585.921875 149.277344 585.96875 C 149.246094 586.046875 149.230469 586.125 149.199219 586.203125 C 148.964844 586.902344 148.746094 587.558594 148.542969 588.167969 C 148.464844 588.386719 148.402344 588.589844 148.339844 588.792969 C 148.011719 589.746094 147.746094 590.574219 147.527344 591.246094 C 147.449219 591.464844 147.386719 591.667969 147.324219 591.871094 C 147.277344 592.027344 147.230469 592.183594 147.183594 592.320312 C 147.121094 592.492188 147.074219 592.648438 147.027344 592.789062 C 147.011719 592.851562 146.980469 592.914062 146.964844 592.976562 C 146.902344 593.164062 146.855469 593.289062 146.824219 593.382812 C 146.816406 593.390625 146.8125 593.398438 146.808594 593.40625 C 146.867188 593.246094 146.992188 592.882812 147.183594 592.320312 C 144.480469 594.257812 141.554688 595.867188 138.476562 597.070312 C 137.585938 597.460938 136.632812 597.707031 135.710938 598.050781 C 134.789062 598.347656 133.820312 598.519531 132.867188 598.769531 C 131.914062 598.957031 130.945312 599.097656 129.976562 599.269531 C 129.007812 599.332031 128.019531 599.441406 127.035156 599.457031 C 125.082031 599.457031 123.097656 599.363281 121.160156 598.910156 C 120.191406 598.753906 119.238281 598.441406 118.300781 598.144531 C 117.316406 597.894531 116.519531 597.304688 115.488281 597.117188 C 115.863281 597.476562 116.316406 597.679688 116.769531 597.925781 C 117.207031 598.160156 117.660156 598.394531 118.128906 598.566406 C 119.066406 598.957031 120.019531 599.347656 121.003906 599.582031 C 122.941406 600.191406 124.988281 600.441406 127.019531 600.597656 C 131.132812 600.832031 135.242188 600.003906 139.054688 598.519531 C 142.023438 597.320312 144.839844 595.742188 147.355469 593.804688 C 147.589844 593.851562 147.886719 593.898438 148.261719 593.960938 C 148.621094 594.023438 149.042969 594.070312 149.511719 594.132812 C 150.058594 594.195312 150.699219 594.257812 151.386719 594.320312 C 152.324219 594.414062 153.386719 594.492188 154.558594 594.570312 C 155.105469 594.601562 155.683594 594.648438 156.277344 594.679688 C 156.871094 594.710938 157.480469 594.742188 158.105469 594.773438 C 159.359375 594.851562 160.671875 594.914062 162.03125 594.976562 C 162.578125 595.007812 163.140625 595.039062 163.703125 595.054688 C 164.265625 595.085938 164.84375 595.101562 165.421875 595.132812 C 171.5 595.382812 178.097656 595.585938 183.535156 595.742188 C 181.582031 599.207031 178.582031 602.003906 175.285156 604.125 C 174.234375 604.8125 173.125 605.4375 172 605.9375 C 170.828125 606.375 169.5625 607.0625 168.546875 607.921875 C 166.578125 609.699219 164.78125 611.433594 162.890625 613.183594 C 161.9375 614.054688 161.0625 614.960938 160.109375 615.757812 C 159.152344 616.539062 158.136719 617.257812 157.074219 617.898438 C 154.949219 619.160156 152.636719 620.128906 150.199219 620.660156 C 147.777344 621.207031 145.230469 621.347656 142.726562 621.144531 C 141.476562 621.035156 140.226562 620.800781 139.023438 620.457031 C 137.789062 620.113281 136.664062 619.597656 135.460938 619.113281 C 136.382812 620.066406 137.632812 620.550781 138.835938 621.003906 C 140.070312 621.441406 141.335938 621.753906 142.617188 621.941406 C 145.214844 622.316406 147.839844 622.316406 150.449219 621.894531 C 153.027344 621.425781 155.558594 620.535156 157.855469 619.207031 C 160.140625 617.914062 162.203125 616.101562 163.953125 614.289062 C 165.765625 612.511719 167.609375 610.636719 169.390625 608.933594 C 170.328125 608.125 171.328125 607.578125 172.515625 607.03125 C 173.703125 606.421875 174.800781 605.734375 175.863281 604.96875 C 179.207031 602.613281 182.191406 599.472656 183.863281 595.757812 C 185.113281 595.789062 186.300781 595.820312 187.394531 595.851562 C 187.644531 595.851562 187.878906 595.867188 188.113281 595.867188 C 188.519531 595.882812 188.910156 595.898438 189.285156 595.898438 C 192.992188 595.992188 195.367188 596.039062 195.367188 596.039062 L 195.773438 595.132812 L 196.304688 593.960938 L 221.640625 537.878906 L 233.5625 511.460938 L 234.09375 510.289062 L 236.503906 504.949219 C 237.628906 502.464844 239.910156 500.703125 242.597656 500.203125 C 242.910156 500.140625 243.238281 500.078125 243.550781 500.015625 C 256.429688 497.578125 268.886719 494.644531 280.730469 491.082031 C 281.121094 490.972656 281.511719 490.847656 281.902344 490.722656 C 293.234375 487.257812 304.003906 483.214844 314.101562 478.4375 C 314.476562 478.265625 314.835938 478.078125 315.179688 477.859375 C 318.117188 476.171875 320.382812 473.503906 321.570312 470.285156 C 325.632812 459.339844 326.617188 447.722656 323.242188 435.171875 L 270.472656 435.171875 C 276.148438 433.5625 281.785156 431.792969 287.316406 429.734375 C 293.613281 427.390625 299.832031 424.820312 305.871094 421.875 Z M 248.132812 363.644531 L 247.351562 354.722656 C 247.03125 351.753906 246.769531 348.777344 246.402344 345.8125 C 246.414062 348.800781 246.527344 351.785156 246.585938 354.769531 L 246.933594 363.722656 C 247.183594 369.6875 247.566406 375.644531 247.882812 381.605469 C 248.324219 387.558594 248.6875 393.515625 249.195312 399.464844 C 249.695312 405.417969 250.222656 411.363281 250.921875 417.300781 C 250.867188 411.324219 250.640625 405.355469 250.386719 399.390625 C 250.140625 393.425781 249.753906 387.46875 249.441406 381.507812 C 249.003906 375.554688 248.632812 369.59375 248.132812 363.644531 Z M 281.601562 311.007812 C 282.707031 310.386719 283.75 309.648438 284.6875 308.800781 C 285.613281 307.914062 286.425781 307.058594 287.242188 306.128906 C 288.871094 304.304688 290.347656 302.335938 291.59375 300.234375 C 289.867188 301.960938 288.117188 303.625 286.363281 305.277344 C 284.582031 306.933594 282.914062 308.574219 280.847656 309.640625 C 279.835938 310.222656 278.789062 310.628906 277.640625 311.03125 C 276.515625 311.453125 275.375 311.816406 274.234375 312.203125 C 271.941406 312.941406 269.632812 313.652344 267.289062 314.359375 C 269.730469 314.246094 272.167969 313.925781 274.554688 313.375 C 276.929688 312.796875 279.320312 312.226562 281.601562 311.007812 Z M 281.601562 311.007812 " fill-opacity="1" fill-rule="nonzero"/></svg>