<svg xmlns="http://www.w3.org/2000/svg" xmlns:xlink="http://www.w3.org/1999/xlink" width="1000" zoomAndPan="magnify" viewBox="0 0 750 749.999995" height="1000" preserveAspectRatio="xMidYMid meet" version="1.0"><defs><clipPath id="fbdfa8be07"><path d="M 66 88 L 714 88 L 714 651.75 L 66 651.75 Z M 66 88 " clip-rule="nonzero"/></clipPath><clipPath id="19aedb4887"><path d="M 65 319 L 561 319 L 561 651.75 L 65 651.75 Z M 65 319 " clip-rule="nonzero"/></clipPath><clipPath id="cf2c02dc42"><path d="M 60.847656 85 L 593 85 L 593 554 L 60.847656 554 Z M 60.847656 85 " clip-rule="nonzero"/></clipPath></defs><g clip-path="url(#fbdfa8be07)"><path fill="#e6e6e6" d="M 712.773438 546.484375 C 709.089844 525.265625 690.609375 512.011719 669.140625 513.757812 C 649.867188 515.351562 634.03125 518 617.261719 525.773438 C 615.679688 526.511719 612.9375 528.097656 611.476562 529.003906 C 608.585938 526.375 603.769531 525.550781 603.78125 525.5625 C 601.484375 525.234375 599.964844 526.382812 598.976562 528.75 C 597.003906 533.421875 596.523438 537.585938 597.019531 542.820312 C 595.390625 545.519531 593.867188 548.601562 592.894531 551.613281 L 591.726562 551.644531 L 576.382812 551.222656 L 496.03125 381.097656 C 496.019531 381.074219 496.007812 381.054688 496 381.03125 C 495.929688 380.875 495.863281 380.722656 495.78125 380.566406 C 486.5625 361.230469 472.589844 344.839844 455.53125 332.4375 C 454.371094 331.582031 453.214844 330.769531 452.015625 329.953125 C 449.625 328.328125 447.175781 326.785156 444.675781 325.316406 C 443.085938 324.378906 441.46875 323.480469 439.839844 322.605469 C 435.695312 320.390625 431.429688 318.371094 427.050781 316.582031 C 425.824219 316.082031 424.585938 315.597656 423.339844 315.128906 C 422.390625 314.773438 421.441406 314.4375 420.496094 314.105469 C 416.46875 312.679688 412.515625 311.4375 408.832031 310.5 L 393.300781 305.816406 C 392.433594 305.511719 391.972656 304.566406 392.210938 303.683594 L 392.871094 300.902344 C 395.027344 299.890625 398.644531 297.902344 400.699219 296.695312 C 401.488281 298.007812 401.675781 299.390625 402.242188 300.863281 C 402.425781 301.375 403.03125 301.613281 403.503906 301.335938 C 422.84375 289.933594 446.679688 272.179688 453.941406 231.8125 C 455.164062 225.054688 457.097656 217.289062 460.125 211.132812 C 467.820312 195.46875 468.050781 177.589844 465.210938 163.78125 C 456.410156 97.714844 382.648438 78.5 337.117188 93.191406 C 287.761719 107.378906 236.742188 167.679688 260.5 260.921875 C 260.667969 261.585938 261.535156 261.78125 261.960938 261.242188 C 265.15625 257.191406 269.683594 253.40625 273.894531 250.429688 C 274.367188 260.691406 277.675781 270.921875 284.59375 279.710938 C 285.28125 280.589844 286.527344 280.878906 287.542969 280.378906 C 291.6875 278.367188 296.894531 276.414062 300.539062 274.296875 C 298.292969 282.742188 292.835938 288.222656 287.011719 291.605469 L 269.328125 300.226562 L 268.421875 300.609375 L 252.421875 307.355469 C 246.414062 309.890625 240.585938 312.765625 234.953125 315.953125 C 233.136719 316.984375 231.335938 318.042969 229.5625 319.136719 L 229.5625 319.140625 C 229.558594 319.140625 229.558594 319.140625 229.558594 319.140625 C 228.464844 319.824219 227.359375 320.523438 226.269531 321.234375 C 203.144531 336.226562 183.964844 356.824219 171.109375 381.5 C 170.730469 382.21875 170.371094 382.953125 170.003906 383.683594 C 169.773438 384.136719 169.535156 384.589844 169.308594 385.046875 C 162.742188 398.398438 156.644531 411.632812 151.085938 424.726562 C 137.601562 456.503906 127.394531 487.445312 122.125 517.128906 C 121.101562 523.339844 120.484375 529.234375 120.277344 534.734375 C 120.109375 539.148438 120.214844 543.296875 120.617188 547.132812 C 120.644531 547.410156 120.660156 547.699219 120.691406 547.972656 C 120.703125 548.070312 120.71875 548.15625 120.730469 548.25 C 120.871094 549.40625 121.03125 550.539062 121.230469 551.628906 L 121.4375 552.710938 C 122.835938 559.601562 125.40625 565.175781 129.316406 569 C 130.617188 570.273438 132.066406 571.355469 133.671875 572.226562 C 144.847656 576.546875 156.265625 580.25 167.921875 583.355469 C 172.539062 584.582031 177.195312 585.714844 181.890625 586.753906 C 183.5 587.109375 185.105469 587.46875 186.726562 587.800781 C 201.878906 590.921875 217.429688 593.011719 233.390625 594.082031 C 236.652344 594.304688 239.925781 594.496094 243.226562 594.625 C 243.929688 594.65625 244.59375 594.28125 244.921875 593.660156 C 245.023438 593.460938 245.125 593.261719 245.226562 593.066406 C 245.792969 591.984375 246.351562 590.90625 246.910156 589.8125 L 265.851562 589.5625 C 267.113281 589.550781 268.378906 589.65625 269.601562 589.867188 L 283.28125 592.3125 L 311.914062 634.695312 C 312.015625 634.859375 312.207031 634.945312 312.398438 634.929688 L 377.261719 631.359375 L 467.75 626.378906 C 468.222656 626.339844 468.433594 625.761719 468.105469 625.429688 L 398.453125 557.640625 C 398.386719 557.585938 398.316406 557.546875 398.246094 557.519531 C 398.179688 557.496094 398.109375 557.480469 398.039062 557.480469 L 385.808594 558.164062 L 362.566406 559.457031 C 362.234375 558.8125 361.855469 558.152344 361.433594 557.484375 C 361.488281 556.128906 361.339844 554.828125 360.882812 553.589844 L 379.007812 553.628906 L 477.046875 552.78125 L 477.273438 560.664062 C 477.363281 562.363281 478.289062 563.90625 479.777344 564.089844 L 433.472656 566.210938 C 433.222656 566.222656 433.015625 566.433594 433.015625 566.683594 L 432.949219 569.871094 C 432.949219 569.992188 433.015625 570.121094 433.09375 570.1875 L 492.660156 629.933594 C 492.75 630.039062 492.894531 630.078125 493.027344 630.078125 L 579.4375 623.714844 C 579.625 623.703125 579.769531 623.597656 579.847656 623.441406 L 582.265625 618.230469 C 582.347656 618.035156 582.308594 617.796875 582.148438 617.667969 L 516.097656 562.929688 C 515.96875 562.824219 515.203125 562.601562 515.097656 562.601562 L 501.113281 563.457031 C 501.441406 562.96875 502.367188 561.414062 502.683594 560.824219 C 502.683594 560.863281 502.667969 560.902344 502.644531 560.925781 C 504.640625 558.703125 505.355469 555.984375 506.027344 553.105469 L 510.417969 553.011719 L 513.757812 559.804688 C 514.230469 560.792969 515.464844 561.210938 515.503906 561.222656 C 519.015625 560.972656 521.109375 555.324219 520.859375 552.730469 L 525.765625 552.734375 L 529.070312 556.90625 C 530.199219 558.429688 531.875 558.332031 532.429688 556.515625 C 533.125 555.492188 533.46875 553.898438 533.773438 552.664062 L 538.722656 552.628906 L 592.898438 552.4375 C 592.136719 555.09375 591.421875 558.425781 591.25 561.253906 C 590.644531 570.332031 592.734375 577.910156 597.996094 584.660156 C 597.914062 584.578125 598.507812 585.960938 598.730469 586.367188 L 601.097656 599.867188 C 601.242188 600.695312 601.875 601.339844 602.703125 601.484375 C 606.675781 602.15625 609.179688 602.410156 612.980469 602.226562 C 613.808594 602.1875 614.507812 601.609375 614.742188 600.832031 L 615.25 597.640625 C 615.371094 597.652344 625.421875 599.871094 630.460938 600.160156 C 630.460938 600.160156 632.355469 600.566406 633.273438 600.722656 L 634.714844 608.917969 C 634.875 609.710938 635.492188 610.339844 636.296875 610.5 C 641.515625 611.417969 645.296875 611.839844 649.820312 610.300781 C 650.503906 610.0625 650.980469 609.445312 651.085938 608.734375 L 652.578125 599.148438 C 653.578125 598.746094 655.671875 597.445312 655.671875 597.445312 C 663.496094 595.40625 680.574219 589.035156 680.511719 589.074219 C 681.207031 588.878906 682.265625 588.539062 682.949219 588.316406 L 683.71875 594.453125 C 683.851562 595.320312 684.546875 596.019531 685.429688 596.109375 C 690.640625 596.609375 694.894531 596.078125 699.90625 594.023438 C 700.578125 593.761719 701.023438 593.128906 701.105469 592.421875 L 702.621094 578.011719 C 703.199219 577.097656 705.207031 575.148438 705.21875 575.136719 C 714.046875 567.585938 714.679688 557.425781 712.773438 546.484375 Z M 238.488281 529.171875 L 214.964844 522.4375 L 208.328125 520.539062 L 208.449219 520.453125 L 208.617188 520.339844 L 208.617188 520.335938 L 208.621094 520.332031 L 218.703125 491.480469 L 233.015625 450.511719 L 235.730469 447.847656 L 241.707031 527.457031 Z M 477.953125 536.808594 C 477.386719 537.859375 477.125 539.070312 477.191406 540.265625 L 478.101562 552.164062 L 449.296875 552.164062 L 458.449219 496.222656 L 462.238281 489.984375 L 465.496094 495.929688 L 481.476562 525.121094 L 481.480469 525.113281 L 481.484375 525.113281 Z M 478.972656 565.0625 C 479.355469 564.984375 480.183594 563.710938 480.527344 563.476562 C 481.304688 562.976562 482.105469 562.316406 482.90625 561.4375 C 484.300781 560.421875 485.316406 558.921875 486.171875 557.425781 C 486.894531 556.121094 487.136719 553.96875 487.636719 552.589844 L 493.546875 552.570312 L 496.496094 562.328125 C 496.589844 562.65625 497.082031 563.671875 497.253906 563.933594 Z M 241.324219 623.40625 L 182.921875 651.097656 C 182.867188 651.082031 182.402344 651.222656 182.125 651.164062 L 83.835938 629.734375 C 83.484375 629.664062 83.203125 629.414062 83.101562 629.074219 L 66.753906 575.464844 C 66.53125 574.742188 67.164062 574.039062 67.898438 574.1875 L 167.796875 595.800781 C 168.164062 595.875 168.457031 596.167969 168.546875 596.535156 L 172.289062 605.433594 L 241.160156 621.847656 C 241.910156 622.027344 242.027344 623.066406 241.324219 623.40625 Z M 241.324219 623.40625 " fill-opacity="1" fill-rule="nonzero"/></g><path fill="#ff967a" d="M 544.8125 524.019531 L 575.929688 551.226562 L 573.832031 551.210938 L 547.574219 551.078125 L 544.828125 551.0625 L 543.976562 551.0625 L 538.085938 551.035156 L 534.695312 551.019531 L 533.375 551.019531 C 533.390625 551.285156 533.402344 551.535156 533.402344 551.785156 C 533.417969 551.886719 533.417969 552.003906 533.417969 552.105469 C 533.417969 552.53125 533.402344 552.929688 533.390625 553.3125 C 533.316406 554.707031 533.09375 555.820312 532.816406 556.730469 C 532.257812 558.550781 529.878906 558.949219 528.75 557.421875 L 525.707031 553.324219 L 524.578125 551.785156 L 524.003906 551.003906 L 520.820312 551.003906 C 520.820312 551.269531 520.832031 551.535156 520.832031 551.785156 C 520.832031 552.3125 520.820312 552.828125 520.804688 553.324219 C 520.714844 556.1875 520.273438 558.363281 519.671875 560.007812 C 519.054688 561.738281 517.324219 562.457031 515.78125 562.148438 C 514.769531 561.945312 513.84375 561.296875 513.328125 560.226562 L 510.054688 553.355469 L 509.289062 551.785156 L 508.910156 550.976562 L 505.941406 550.976562 C 505.914062 551.253906 505.882812 551.519531 505.839844 551.785156 C 505.8125 552.0625 505.765625 552.328125 505.738281 552.589844 C 505.691406 552.855469 505.648438 553.121094 505.605469 553.371094 C 505.019531 556.730469 504.046875 559.34375 502.960938 561.34375 C 502.652344 561.929688 502.332031 562.472656 502.007812 562.957031 C 501.917969 563.089844 501.832031 563.222656 501.742188 563.355469 C 500.347656 565.320312 497.515625 565.070312 496.324219 563.207031 C 496.148438 562.941406 496 562.664062 495.914062 562.339844 L 493.300781 553.382812 L 492.828125 551.785156 L 492.59375 550.945312 L 489.585938 550.933594 L 488.351562 550.933594 C 488.292969 551.226562 488.234375 551.503906 488.160156 551.785156 C 488.144531 551.960938 488.101562 552.121094 488.058594 552.28125 C 487.96875 552.664062 487.867188 553.046875 487.761719 553.398438 C 486.71875 557.144531 485.265625 559.667969 483.753906 561.386719 C 482.945312 562.296875 482.109375 562.972656 481.332031 563.484375 C 480.980469 563.722656 480.613281 563.867188 480.230469 563.941406 C 479.863281 564.015625 479.496094 564.027344 479.144531 563.984375 C 477.660156 563.792969 476.339844 562.574219 476.25 560.871094 L 475.839844 553.429688 L 475.707031 550.902344 L 475.0625 539.246094 C 475.003906 538.039062 475.265625 536.835938 475.824219 535.78125 L 481.476562 525.121094 L 482.019531 524.078125 L 487.351562 513.992188 C 488.234375 512.316406 489.761719 511.070312 491.566406 510.527344 C 494.988281 509.484375 498.351562 509.335938 501.667969 510.40625 C 502.460938 510.65625 503.34375 510.597656 504.105469 510.261719 C 508.425781 508.335938 512.375 508.398438 515.679688 510.746094 C 516.429688 511.257812 517.339844 511.496094 518.234375 511.363281 C 523.152344 510.65625 527.25 511.890625 530.671875 514.710938 C 531.246094 515.179688 531.90625 515.546875 532.640625 515.605469 C 536.296875 515.945312 539.910156 518.074219 543.460938 522.828125 Z M 449.230469 175.894531 C 442.003906 181.207031 430.082031 187.875 413.0625 191.015625 C 406.160156 192.292969 398.40625 193 389.785156 192.777344 C 388.992188 192.761719 388.730469 191.691406 389.417969 191.308594 C 394.925781 188.199219 408.390625 180.285156 417.101562 172.75 C 374 188.328125 351.828125 197.753906 314.585938 203.777344 C 314.585938 203.777344 313.660156 203.777344 312.808594 203.527344 C 312.308594 203.378906 311.824219 203.144531 311.574219 202.777344 C 310.914062 201.824219 310.003906 200.972656 308.976562 200.382812 C 285.480469 190.105469 272.234375 231.570312 307.507812 245.898438 C 307.535156 245.988281 307.566406 246.078125 307.609375 246.164062 L 300.515625 272.09375 C 300.195312 273.296875 299.785156 274.457031 299.3125 275.601562 C 296.789062 281.753906 292.292969 286.921875 286.464844 290.300781 L 269.328125 300.226562 C 303.101562 366.296875 391.210938 386.855469 408.832031 310.503906 L 394.207031 305.1875 C 393.339844 304.878906 392.871094 303.941406 393.105469 303.058594 L 394.164062 299.167969 C 395.910156 298.492188 397.613281 297.730469 399.289062 296.878906 C 403.0625 295 406.660156 292.738281 410.082031 290.125 C 419.875 282.636719 427.363281 272.519531 432.136719 261.15625 C 438.890625 245.078125 444.839844 228.148438 450.039062 210.425781 C 451.945312 203.9375 452.402344 197.09375 451.390625 190.398438 Z M 361.429688 557.480469 C 361.488281 556.128906 361.34375 554.824219 360.886719 553.589844 C 360.8125 553.398438 360.738281 553.222656 360.652344 553.03125 C 360.550781 552.8125 360.445312 552.605469 360.3125 552.402344 C 360.210938 552.222656 360.09375 552.046875 359.976562 551.871094 C 359.976562 551.855469 359.976562 551.855469 359.976562 551.855469 C 359.84375 551.679688 359.726562 551.519531 359.59375 551.359375 C 359.433594 551.152344 359.242188 550.960938 359.050781 550.757812 C 358.816406 550.507812 358.550781 550.269531 358.257812 550.035156 L 348.082031 544.78125 L 329.945312 535.398438 L 329.59375 535.222656 C 312.792969 535.28125 295.347656 536.882812 277.152344 540.109375 C 275.070312 540.476562 272.925781 540.433594 270.867188 539.933594 L 265.847656 538.730469 C 265.597656 539.757812 265.332031 540.785156 265.054688 541.8125 C 264.890625 542.476562 264.714844 543.121094 264.523438 543.765625 C 264.21875 544.941406 263.894531 546.117188 263.554688 547.277344 C 263.542969 547.335938 263.527344 547.394531 263.496094 547.453125 C 263.175781 548.628906 262.820312 549.800781 262.46875 550.960938 C 262.265625 551.652344 262.058594 552.339844 261.839844 553.03125 C 261.792969 553.148438 261.765625 553.265625 261.71875 553.382812 C 259.046875 561.914062 255.917969 570.226562 252.335938 578.300781 C 251.953125 579.195312 251.558594 580.09375 251.148438 580.972656 C 249.796875 583.953125 248.386719 586.890625 246.902344 589.8125 L 265.847656 589.5625 C 267.109375 589.546875 268.371094 589.648438 269.605469 589.871094 L 283.277344 592.308594 L 307.332031 596.582031 C 311.398438 597.300781 315.570312 597.167969 319.578125 596.214844 L 336.113281 592.25 C 339.226562 591.5 342.207031 590.238281 344.925781 588.535156 L 361.09375 578.402344 L 358.785156 575.21875 L 358.242188 574.484375 L 354.042969 568.683594 L 353.675781 568.167969 L 353.984375 568.140625 L 355.980469 568.007812 L 355.996094 568.007812 L 364.484375 567.433594 L 364.484375 567.421875 C 364.675781 565.042969 364.101562 562.398438 362.5625 559.460938 C 362.238281 558.816406 361.855469 558.15625 361.429688 557.480469 Z M 714.453125 546.675781 C 710.765625 525.457031 690.914062 510.820312 669.441406 512.566406 C 650.160156 514.152344 632.480469 517.824219 615.710938 525.605469 C 613.523438 526.617188 611.453125 527.820312 609.484375 529.171875 C 608.429688 528.042969 607.296875 526.984375 606.09375 526 C 603.699219 524.046875 600.101562 525.0625 598.898438 527.910156 C 596.929688 532.578125 596.078125 537.496094 596.578125 542.722656 C 594.945312 545.425781 593.609375 548.304688 592.640625 551.3125 C 592.613281 551.402344 592.582031 551.476562 592.554688 551.5625 C 592.390625 552.046875 592.261719 552.53125 592.128906 553.015625 C 591.363281 555.675781 590.894531 558.421875 590.71875 561.238281 C 590.101562 570.535156 592.65625 579.152344 598.164062 585.964844 L 600.601562 600.707031 C 600.746094 601.527344 601.378906 602.175781 602.203125 602.320312 C 606.179688 602.996094 610.085938 603.277344 613.890625 603.097656 C 614.714844 603.054688 615.417969 602.484375 615.652344 601.703125 L 616.710938 598.136719 C 621.425781 599.632812 626.738281 600.515625 632.644531 600.691406 L 634.316406 609.78125 C 634.480469 610.574219 635.09375 611.203125 635.886719 611.351562 C 641.117188 612.277344 646.066406 612.21875 650.589844 610.675781 C 651.277344 610.441406 651.746094 609.824219 651.851562 609.105469 L 653.261719 598.503906 C 662.246094 596.316406 672.570312 592.910156 682.4375 588.609375 L 683.453125 595.347656 C 683.585938 596.214844 684.273438 596.917969 685.15625 597.007812 C 690.367188 597.503906 695.492188 596.785156 700.515625 594.730469 C 701.175781 594.464844 701.632812 593.835938 701.707031 593.128906 L 703.410156 577.359375 C 703.921875 577.007812 704.464844 576.671875 704.964844 576.320312 C 713.792969 568.773438 716.359375 557.613281 714.453125 546.675781 Z M 714.453125 546.675781 " fill-opacity="1" fill-rule="nonzero"/><g clip-path="url(#19aedb4887)"><path fill="#f98a92" d="M 453.210938 550.859375 L 379.007812 550.710938 L 359.050781 550.757812 C 358.816406 550.507812 358.550781 550.269531 358.257812 550.035156 L 348.082031 544.78125 L 329.945312 535.398438 L 329.59375 535.222656 C 312.792969 535.28125 295.347656 536.882812 277.152344 540.109375 C 275.070312 540.476562 272.925781 540.433594 270.867188 539.933594 L 265.847656 538.730469 C 265.964844 538.304688 266.066406 537.878906 266.167969 537.453125 C 266.242188 537.277344 266.140625 537.085938 265.964844 537.027344 L 238.488281 529.171875 L 233.011719 450.515625 L 235.171875 444.320312 L 246.273438 412.519531 L 226.269531 321.238281 C 227.359375 320.515625 228.460938 319.828125 229.5625 319.136719 L 229.855469 320.457031 L 249.105469 408.277344 L 447.351562 405.691406 L 451.886719 332.21875 L 452.019531 329.957031 C 453.210938 330.765625 454.371094 331.589844 455.53125 332.441406 L 450.800781 409.171875 L 461.59375 460.296875 C 463.546875 469.621094 463.839844 479.207031 462.445312 488.617188 L 462.242188 489.984375 Z M 174.609375 614.816406 L 173.816406 611.628906 L 172.289062 605.433594 L 169.777344 595.273438 C 169.691406 594.90625 169.398438 594.613281 169.03125 594.539062 L 66.488281 573.117188 C 65.753906 572.972656 65.121094 573.675781 65.339844 574.394531 L 69.804688 588.476562 L 70.847656 591.707031 L 82.816406 629.394531 C 82.917969 629.734375 83.199219 629.984375 83.550781 630.058594 L 182.144531 651.257812 C 182.421875 651.316406 182.6875 651.257812 182.890625 651.113281 C 182.890625 651.113281 182.90625 651.113281 182.921875 651.097656 C 183.230469 650.878906 183.40625 650.480469 183.304688 650.054688 Z M 559.832031 610.894531 L 548.9375 601.6875 C 548.480469 601.300781 547.886719 601.105469 547.289062 601.148438 L 491.542969 605.160156 C 491.019531 605.199219 490.78125 605.828125 491.144531 606.199219 L 500.195312 615.488281 C 500.589844 615.890625 501.136719 616.101562 501.699219 616.0625 L 559.480469 611.976562 C 560.027344 611.9375 560.253906 611.25 559.832031 610.894531 Z M 458.710938 571.511719 C 458.660156 571.464844 458.59375 571.4375 458.523438 571.445312 L 447.570312 572.15625 C 447.347656 572.171875 447.25 572.441406 447.410156 572.59375 L 473.019531 597.058594 C 473.460938 597.480469 474.066406 597.6875 474.675781 597.625 L 484.722656 596.566406 C 484.9375 596.542969 485.027344 596.277344 484.867188 596.128906 Z M 493.226562 592.886719 C 492.976562 594.902344 495.597656 596.886719 499.078125 597.3125 C 502.558594 597.742188 505.582031 596.453125 505.832031 594.4375 C 506.078125 592.417969 503.460938 590.4375 499.976562 590.007812 C 496.496094 589.578125 493.472656 590.867188 493.226562 592.886719 Z M 510.21875 591.550781 C 509.96875 593.570312 512.589844 595.550781 516.070312 595.980469 C 519.554688 596.410156 522.578125 595.121094 522.824219 593.101562 C 523.074219 591.085938 520.453125 589.101562 516.972656 588.671875 C 513.492188 588.246094 510.46875 589.535156 510.21875 591.550781 Z M 527.210938 590.292969 C 526.960938 592.308594 529.582031 594.292969 533.0625 594.71875 C 536.546875 595.148438 539.566406 593.859375 539.816406 591.84375 C 540.066406 589.824219 537.445312 587.84375 533.964844 587.414062 C 530.480469 586.984375 527.460938 588.273438 527.210938 590.292969 Z M 494.683594 583.996094 C 494.929688 581.976562 492.308594 579.996094 488.828125 579.566406 C 485.347656 579.136719 482.324219 580.425781 482.074219 582.445312 C 481.828125 584.460938 484.449219 586.445312 487.929688 586.871094 C 491.410156 587.300781 494.433594 586.011719 494.683594 583.996094 Z M 499.070312 581.109375 C 498.820312 583.128906 501.441406 585.109375 504.921875 585.539062 C 508.402344 585.964844 511.425781 584.679688 511.675781 582.660156 C 511.921875 580.644531 509.300781 578.660156 505.820312 578.230469 C 502.339844 577.804688 499.316406 579.09375 499.070312 581.109375 Z M 516.0625 579.851562 C 515.8125 581.867188 518.433594 583.851562 521.914062 584.277344 C 525.394531 584.707031 528.417969 583.417969 528.667969 581.402344 C 528.914062 579.382812 526.292969 577.398438 522.8125 576.972656 C 519.332031 576.542969 516.308594 577.832031 516.0625 579.851562 Z M 478.257812 576.429688 C 481.738281 576.859375 484.761719 575.570312 485.007812 573.554688 C 485.257812 571.535156 482.636719 569.550781 479.15625 569.125 C 475.675781 568.695312 472.652344 569.984375 472.402344 572.003906 C 472.15625 574.019531 474.773438 576.003906 478.257812 576.429688 Z M 495.25 575.097656 C 498.730469 575.523438 501.753906 574.234375 502 572.21875 C 502.25 570.199219 499.628906 568.21875 496.148438 567.789062 C 492.667969 567.363281 489.644531 568.648438 489.394531 570.667969 C 489.148438 572.683594 491.769531 574.667969 495.25 575.097656 Z M 512.242188 573.835938 C 515.722656 574.265625 518.746094 572.976562 518.992188 570.960938 C 519.242188 568.941406 516.621094 566.957031 513.140625 566.53125 C 509.660156 566.101562 506.636719 567.390625 506.386719 569.410156 C 506.140625 571.425781 508.761719 573.410156 512.242188 573.835938 Z M 512.242188 573.835938 " fill-opacity="1" fill-rule="nonzero"/></g><g clip-path="url(#cf2c02dc42)"><path fill="#842a17" d="M 121.230469 551.636719 C 121.304688 552.003906 121.378906 552.355469 121.4375 552.707031 L 60.847656 552.164062 Z M 453.210938 550.859375 L 379.007812 550.710938 L 359.050781 550.757812 C 359.242188 550.960938 359.433594 551.152344 359.59375 551.359375 C 359.726562 551.519531 359.84375 551.679688 359.976562 551.855469 C 359.976562 551.855469 359.976562 551.855469 359.976562 551.871094 C 360.09375 552.046875 360.210938 552.222656 360.3125 552.402344 C 360.445312 552.605469 360.550781 552.8125 360.652344 553.03125 C 360.738281 553.222656 360.8125 553.398438 360.886719 553.589844 L 379.007812 553.632812 L 475.839844 553.429688 L 475.707031 550.902344 Z M 492.59375 550.945312 L 488.351562 550.933594 C 488.292969 551.226562 488.234375 551.503906 488.160156 551.785156 C 488.144531 551.960938 488.101562 552.121094 488.058594 552.28125 C 487.96875 552.664062 487.867188 553.046875 487.761719 553.398438 L 493.300781 553.382812 L 492.828125 551.785156 Z M 508.910156 550.976562 L 505.941406 550.976562 C 505.914062 551.253906 505.882812 551.519531 505.839844 551.785156 C 505.8125 552.0625 505.765625 552.328125 505.738281 552.589844 C 505.691406 552.855469 505.648438 553.121094 505.605469 553.371094 L 506.648438 553.371094 L 510.054688 553.355469 L 509.289062 551.785156 Z M 524.003906 551.003906 L 520.820312 551.003906 C 520.820312 551.269531 520.832031 551.535156 520.832031 551.785156 C 520.832031 552.3125 520.820312 552.828125 520.804688 553.324219 L 525.707031 553.324219 L 524.578125 551.785156 Z M 576.386719 551.226562 L 575.929688 551.226562 L 573.832031 551.210938 L 547.574219 551.078125 L 544.828125 551.0625 L 543.976562 551.0625 L 538.085938 551.035156 L 534.695312 551.019531 L 533.375 551.019531 C 533.390625 551.285156 533.402344 551.535156 533.402344 551.785156 C 533.417969 551.886719 533.417969 552.003906 533.417969 552.105469 C 533.417969 552.53125 533.402344 552.929688 533.390625 553.3125 L 534.328125 553.3125 L 538.085938 553.296875 L 592.128906 553.015625 C 592.261719 552.53125 592.390625 552.046875 592.554688 551.5625 C 592.582031 551.476562 592.613281 551.402344 592.640625 551.3125 Z M 389.417969 191.308594 C 388.730469 191.691406 388.992188 192.761719 389.785156 192.777344 C 398.40625 193 406.160156 192.292969 413.0625 191.015625 C 430.082031 187.875 442.003906 181.207031 449.230469 175.894531 L 451.390625 190.398438 C 452.402344 197.09375 451.945312 203.9375 450.039062 210.425781 C 444.839844 228.148438 438.890625 245.078125 432.136719 261.15625 C 427.363281 272.519531 419.875 282.636719 410.082031 290.125 C 406.660156 292.738281 403.0625 295 399.289062 296.878906 C 400.359375 298.507812 401.253906 300.285156 401.976562 302.164062 C 402.164062 302.679688 402.769531 302.914062 403.238281 302.632812 C 422.578125 291.226562 448.171875 272.417969 455.441406 232.054688 C 456.660156 225.300781 458.570312 218.679688 461.59375 212.527344 C 469.289062 196.859375 470.40625 177.480469 467.570312 163.675781 C 458.761719 97.605469 382.398438 75.582031 336.878906 90.265625 C 279.929688 106.328125 230.207031 182.015625 260.574219 263.019531 C 260.796875 263.621094 261.601562 263.738281 262.015625 263.226562 C 265.199219 259.171875 268.871094 255.621094 273.085938 252.652344 C 273.554688 262.917969 277.769531 272.3125 284.6875 281.109375 C 285.378906 281.988281 286.625 282.269531 287.640625 281.769531 C 291.78125 279.757812 295.671875 277.71875 299.3125 275.601562 C 299.785156 274.457031 300.195312 273.296875 300.515625 272.09375 L 307.609375 246.164062 C 307.566406 246.078125 307.535156 245.988281 307.507812 245.898438 C 272.234375 231.570312 285.480469 190.105469 308.976562 200.382812 C 310.003906 200.972656 310.914062 201.824219 311.574219 202.777344 C 311.824219 203.144531 312.308594 203.378906 312.808594 203.527344 C 313.660156 203.777344 314.585938 203.777344 314.585938 203.777344 C 351.828125 197.753906 374 188.328125 417.101562 172.75 C 408.390625 180.285156 394.925781 188.199219 389.417969 191.308594 Z M 389.417969 191.308594 " fill-opacity="1" fill-rule="nonzero"/></g><path fill="#5b1614" d="M 516.164062 562.679688 C 515.882812 562.457031 515.53125 562.339844 515.164062 562.355469 L 502.007812 562.957031 C 501.917969 563.089844 501.832031 563.222656 501.742188 563.355469 C 500.347656 565.320312 497.515625 565.070312 496.324219 563.207031 L 433.152344 566.070312 C 432.902344 566.085938 432.695312 566.289062 432.695312 566.539062 L 432.695312 569.988281 C 432.695312 570.109375 432.753906 570.238281 432.84375 570.3125 L 492.828125 630.570312 C 492.917969 630.671875 493.0625 630.71875 493.195312 630.71875 L 580.4375 624.050781 C 580.613281 624.035156 580.761719 623.933594 580.835938 623.773438 L 583.257812 618.558594 C 583.347656 618.371094 583.300781 618.132812 583.140625 618.003906 Z M 533.960938 587.417969 C 537.441406 587.84375 540.070312 589.828125 539.820312 591.839844 C 539.570312 593.863281 536.546875 595.140625 533.066406 594.714844 C 529.585938 594.289062 526.957031 592.308594 527.207031 590.296875 C 527.457031 588.269531 530.480469 586.992188 533.960938 587.417969 Z M 522.816406 576.980469 C 526.296875 577.40625 528.910156 579.386719 528.660156 581.398438 C 528.425781 583.425781 525.398438 584.703125 521.917969 584.277344 C 518.441406 583.851562 515.8125 581.867188 516.0625 579.855469 C 516.308594 577.832031 519.335938 576.539062 522.816406 576.980469 Z M 522.832031 593.101562 C 522.582031 595.125 519.554688 596.40625 516.074219 595.980469 C 512.59375 595.554688 509.964844 593.570312 510.214844 591.542969 C 510.464844 589.53125 513.492188 588.242188 516.972656 588.667969 C 520.453125 589.105469 523.078125 591.089844 522.832031 593.101562 Z M 513.136719 566.523438 C 516.617188 566.964844 519.246094 568.949219 518.996094 570.960938 C 518.746094 572.972656 515.722656 574.261719 512.242188 573.835938 C 508.761719 573.410156 506.132812 571.429688 506.382812 569.402344 C 506.632812 567.390625 509.65625 566.097656 513.136719 566.523438 Z M 505.824219 578.226562 C 509.304688 578.652344 511.917969 580.648438 511.671875 582.660156 C 511.421875 584.671875 508.410156 585.964844 504.914062 585.539062 C 501.433594 585.113281 498.820312 583.132812 499.070312 581.105469 C 499.320312 579.09375 502.34375 577.800781 505.824219 578.226562 Z M 505.824219 594.4375 C 505.589844 596.449219 502.566406 597.742188 499.085938 597.316406 C 495.605469 596.890625 492.976562 594.90625 493.226562 592.878906 C 493.476562 590.867188 496.5 589.578125 499.980469 590.003906 C 503.460938 590.441406 506.074219 592.425781 505.824219 594.4375 Z M 496.148438 567.789062 C 499.628906 568.214844 502.242188 570.195312 502.007812 572.222656 C 501.757812 574.234375 498.734375 575.527344 495.253906 575.101562 C 491.773438 574.675781 489.144531 572.691406 489.394531 570.664062 C 489.644531 568.652344 492.667969 567.363281 496.148438 567.789062 Z M 479.15625 569.125 C 482.636719 569.550781 485.253906 571.53125 485.003906 573.558594 C 484.765625 575.570312 481.742188 576.863281 478.261719 576.4375 C 474.78125 575.996094 472.152344 574.011719 472.402344 572 C 472.652344 569.988281 475.675781 568.699219 479.15625 569.125 Z M 484.722656 596.566406 L 474.679688 597.621094 C 474.0625 597.695312 473.460938 597.476562 473.019531 597.066406 L 447.410156 572.589844 C 447.246094 572.441406 447.351562 572.164062 447.570312 572.164062 L 458.527344 571.445312 C 458.597656 571.445312 458.65625 571.457031 458.714844 571.515625 L 484.871094 596.125 C 485.03125 596.273438 484.945312 596.535156 484.722656 596.566406 Z M 487.925781 586.875 C 484.445312 586.449219 481.832031 584.46875 482.082031 582.441406 C 482.328125 580.429688 485.339844 579.136719 488.835938 579.5625 C 492.316406 579.988281 494.929688 581.972656 494.679688 583.996094 C 494.429688 586.007812 491.40625 587.300781 487.925781 586.875 Z M 559.484375 611.984375 L 501.699219 616.0625 C 501.140625 616.09375 500.582031 615.886719 500.199219 615.492188 L 491.140625 606.199219 C 490.789062 605.832031 491.023438 605.199219 491.539062 605.15625 L 547.296875 601.148438 C 547.882812 601.101562 548.484375 601.292969 548.941406 601.691406 L 559.835938 610.894531 C 560.246094 611.25 560.027344 611.9375 559.484375 611.984375 Z M 371.824219 227.125 C 370.742188 230.230469 367.945312 232.082031 365.574219 231.253906 C 363.203125 230.429688 362.160156 227.242188 363.242188 224.132812 C 364.328125 221.027344 367.125 219.175781 369.496094 220.003906 C 371.863281 220.828125 372.910156 224.015625 371.824219 227.125 Z M 432.871094 238.546875 C 431.863281 241.433594 429.414062 243.175781 427.398438 242.4375 C 425.378906 241.703125 424.5625 238.761719 425.566406 235.875 C 426.574219 232.988281 429.023438 231.246094 431.039062 231.984375 C 433.058594 232.71875 433.875 235.660156 432.871094 238.546875 Z M 374.09375 213.636719 C 372.890625 213.609375 371.886719 213.449219 370.917969 213.339844 L 368.140625 212.996094 L 365.359375 212.726562 C 364.386719 212.625 363.371094 212.566406 362.191406 212.335938 C 362.960938 211.410156 363.964844 210.832031 365.046875 210.449219 C 366.128906 210.078125 367.308594 209.953125 368.460938 210.078125 C 369.617188 210.199219 370.738281 210.582031 371.71875 211.171875 C 372.691406 211.78125 373.542969 212.566406 374.09375 213.636719 Z M 438.375 226.289062 C 437.316406 226.183594 436.496094 226.023438 435.710938 225.917969 L 433.480469 225.59375 C 432.746094 225.488281 431.992188 225.375 431.175781 225.222656 C 430.359375 225.050781 429.496094 224.886719 428.507812 224.488281 C 429.21875 223.695312 430.078125 223.234375 430.996094 222.929688 C 431.917969 222.640625 432.914062 222.546875 433.902344 222.691406 C 435.867188 222.960938 437.84375 224.230469 438.375 226.289062 Z M 387.871094 273.683594 C 387.054688 273.230469 386.273438 272.675781 385.636719 271.816406 C 386.664062 271.519531 387.566406 271.46875 388.449219 271.457031 C 389.324219 271.460938 390.164062 271.542969 390.992188 271.695312 C 391.820312 271.84375 392.636719 272.0625 393.457031 272.367188 C 394.277344 272.691406 395.101562 273.058594 395.957031 273.703125 C 395.058594 274.285156 394.132812 274.53125 393.207031 274.664062 C 392.285156 274.78125 391.363281 274.75 390.464844 274.582031 C 389.566406 274.414062 388.691406 274.121094 387.871094 273.683594 Z M 451.328125 224.679688 C 451.539062 222.96875 450.371094 221.371094 448.675781 221.039062 L 417.308594 214.921875 L 417.308594 214.925781 C 417.300781 214.164062 417.308594 213.40625 417.292969 212.644531 C 417.289062 212.519531 417.195312 212.40625 417.066406 212.390625 C 416.921875 212.367188 416.785156 212.46875 416.765625 212.613281 C 416.035156 217.570312 415.453125 222.535156 414.9375 227.503906 C 413.726562 227.015625 412.503906 226.585938 411.265625 226.226562 C 409.621094 225.738281 407.957031 225.359375 406.289062 225.003906 C 404.609375 224.6875 402.929688 224.390625 401.222656 224.207031 C 399.738281 224.035156 398.234375 223.9375 396.710938 223.949219 C 397.535156 221.097656 398.167969 218.066406 398.578125 214.855469 C 398.863281 212.652344 397.394531 210.585938 395.238281 210.148438 L 342.105469 199.367188 C 340.976562 199.140625 339.832031 199.375 338.882812 200.027344 C 337.921875 200.6875 337.289062 201.679688 337.097656 202.828125 C 336.972656 203.574219 336.878906 204.304688 336.78125 205.039062 C 334.902344 204.40625 333.007812 203.859375 331.097656 203.390625 C 328.691406 202.789062 326.261719 202.3125 323.828125 201.863281 C 321.386719 201.453125 318.9375 201.074219 316.464844 200.816406 C 313.992188 200.550781 311.507812 200.359375 308.976562 200.382812 C 311.300781 201.382812 313.667969 202.164062 316.050781 202.871094 C 318.433594 203.589844 320.839844 204.179688 323.25 204.742188 C 325.671875 205.265625 328.09375 205.765625 330.546875 206.136719 C 332.539062 206.449219 334.546875 206.679688 336.570312 206.820312 C 334.988281 222.261719 339.574219 235.445312 349.460938 243.382812 C 354.789062 247.664062 361.0625 249.875 367.355469 249.875 C 370.75 249.875 374.148438 249.230469 377.40625 247.917969 C 386.246094 244.355469 392.863281 236.242188 396.363281 225.0625 C 397.796875 225.695312 399.253906 226.203125 400.726562 226.636719 C 402.371094 227.132812 404.035156 227.519531 405.703125 227.882812 C 407.378906 228.207031 409.058594 228.511719 410.761719 228.699219 C 412.089844 228.859375 413.429688 228.945312 414.789062 228.960938 C 414.28125 233.996094 413.808594 239.03125 413.386719 244.070312 L 413.070312 248.007812 L 412.992188 248.945312 C 412.96875 249.15625 412.921875 249.367188 412.855469 249.574219 C 412.722656 249.980469 412.523438 250.367188 412.253906 250.707031 C 411.984375 251.046875 411.648438 251.332031 411.269531 251.546875 C 410.761719 251.785156 410.234375 252.09375 409.691406 252.296875 C 408.609375 252.726562 407.484375 253.0625 406.328125 253.246094 C 404.007812 253.609375 401.585938 253.359375 399.242188 252.71875 C 396.871094 252.121094 394.574219 251.148438 392.242188 249.914062 L 392.222656 249.90625 C 392.097656 249.839844 391.941406 249.84375 391.816406 249.929688 C 391.636719 250.054688 391.59375 250.300781 391.71875 250.480469 C 394.945312 255.066406 400.992188 257.335938 406.78125 256.65625 C 408.234375 256.484375 409.675781 256.136719 411.03125 255.574219 C 411.71875 255.308594 412.34375 254.957031 413.019531 254.625 C 413.328125 254.453125 413.609375 254.238281 413.886719 254.015625 C 418.070312 257.589844 422.539062 259.449219 426.929688 259.449219 C 428.726562 259.449219 430.507812 259.140625 432.25 258.519531 C 442.015625 255.03125 449.148438 242.378906 451.328125 224.679688 Z M 376.308594 245.195312 C 368.011719 248.539062 358.660156 247.007812 351.300781 241.09375 C 341.421875 233.164062 337.300781 219.390625 339.992188 203.316406 C 340.054688 202.957031 340.25 202.648438 340.546875 202.445312 C 340.832031 202.25 341.179688 202.175781 341.523438 202.246094 L 394.652344 213.027344 C 395.308594 213.160156 395.753906 213.796875 395.664062 214.480469 C 392.964844 235.503906 382.378906 242.75 376.308594 245.195312 Z M 431.261719 255.753906 C 426.210938 257.558594 420.878906 256.179688 415.761719 251.773438 C 415.957031 251.390625 416.121094 250.988281 416.234375 250.570312 C 416.355469 250.144531 416.4375 249.703125 416.46875 249.261719 L 416.523438 248.226562 L 416.707031 244.277344 C 416.925781 239.015625 417.097656 233.746094 417.226562 228.476562 C 417.3125 224.960938 417.339844 221.441406 417.328125 217.917969 L 448.113281 223.921875 C 448.300781 223.957031 448.433594 224.140625 448.414062 224.324219 C 446.371094 240.894531 439.957031 252.644531 431.261719 255.753906 Z M 399.664062 296.585938 C 403.351562 294.835938 406.878906 292.734375 410.082031 290.128906 C 407.292969 293.191406 403.839844 295.597656 400.308594 297.777344 C 396.726562 299.902344 392.96875 301.707031 389.113281 303.265625 C 387.238281 304.070312 385.058594 304.792969 382.921875 305.046875 C 380.765625 305.347656 378.578125 305.324219 376.433594 305.078125 C 374.289062 304.816406 372.191406 304.304688 370.164062 303.632812 C 368.191406 302.929688 366.234375 302.273438 364.296875 301.503906 C 356.566406 298.464844 349.042969 294.785156 342.089844 290.191406 C 335.113281 285.652344 328.730469 280.1875 323.273438 273.960938 C 323.140625 273.804688 323.15625 273.570312 323.308594 273.4375 C 323.453125 273.3125 323.667969 273.316406 323.804688 273.441406 C 329.882812 278.976562 336.476562 283.824219 343.449219 288.035156 C 350.425781 292.230469 357.785156 295.777344 365.371094 298.769531 C 367.253906 299.546875 369.1875 300.238281 371.078125 300.949219 C 372.945312 301.609375 374.863281 302.089844 376.796875 302.390625 C 378.734375 302.683594 380.695312 302.777344 382.628906 302.578125 C 384.59375 302.394531 386.386719 301.90625 388.34375 301.214844 C 392.191406 299.875 395.996094 298.382812 399.664062 296.585938 Z M 173.816406 611.628906 L 174.609375 614.816406 L 70.847656 591.707031 L 69.804688 588.476562 Z M 329.945312 535.398438 L 299.386719 493.214844 C 298.636719 492.171875 298.710938 490.835938 299.5625 490.21875 L 303.9375 487.046875 C 304.789062 486.429688 306.082031 486.785156 306.832031 487.8125 L 348.082031 544.78125 Z M 335.921875 550.683594 C 337.613281 550.683594 339.519531 550.667969 341.355469 550.992188 C 344.894531 551.855469 348.15625 552.8125 351.53125 553.867188 C 354.867188 554.925781 358.183594 556.085938 361.429688 557.480469 C 357.90625 557.1875 354.453125 556.644531 351.019531 556.011719 C 349.300781 555.71875 347.613281 555.335938 345.894531 555 C 344.21875 554.648438 342.441406 554.175781 340.871094 553.882812 C 339.269531 553.589844 337.671875 553.605469 335.878906 553.558594 C 334.144531 553.488281 332.398438 553.441406 330.652344 553.3125 C 327.171875 553.105469 323.691406 552.8125 320.210938 552.253906 C 320.035156 552.222656 319.917969 552.046875 319.945312 551.871094 C 319.960938 551.726562 320.078125 551.621094 320.210938 551.609375 C 323.703125 551.136719 327.199219 550.917969 330.695312 550.800781 C 332.425781 550.710938 334.175781 550.726562 335.921875 550.683594 Z M 371.386719 577.289062 L 373.882812 587.273438 C 374.03125 587.875 373.484375 588.269531 372.957031 587.945312 L 364.25 582.457031 C 363.96875 582.28125 363.707031 582.03125 363.5 581.738281 L 361.09375 578.402344 L 358.785156 575.21875 C 356.203125 576.082031 353.601562 576.816406 350.988281 577.507812 C 347.480469 578.449219 343.941406 579.226562 340.402344 579.972656 C 336.847656 580.679688 333.234375 581.074219 329.621094 581.457031 C 326.011719 581.808594 322.382812 582.074219 318.710938 582.058594 C 318.625 582.058594 318.550781 581.984375 318.550781 581.882812 C 318.550781 581.808594 318.59375 581.75 318.667969 581.722656 C 322.164062 580.621094 325.6875 579.785156 329.226562 579.0625 C 330.988281 578.667969 332.78125 578.375 334.542969 578.035156 C 336.332031 577.726562 338.109375 577.492188 339.886719 577.097656 C 343.425781 576.4375 346.996094 575.804688 350.578125 575.320312 C 353.117188 574.96875 355.671875 574.675781 358.242188 574.484375 L 354.042969 568.683594 C 353.75 568.699219 353.457031 568.699219 353.164062 568.699219 C 351.488281 568.710938 349.8125 568.710938 348.15625 568.667969 C 344.867188 568.582031 341.578125 568.417969 338.285156 568.15625 C 336.671875 568.199219 335.042969 568.167969 333.425781 568.15625 C 331.78125 568.140625 330.152344 568.050781 328.507812 567.980469 C 325.230469 567.773438 321.972656 567.496094 318.699219 566.863281 C 318.609375 566.847656 318.550781 566.773438 318.566406 566.6875 C 318.578125 566.628906 318.636719 566.582031 318.699219 566.570312 C 321.972656 565.9375 325.230469 565.660156 328.507812 565.453125 C 330.152344 565.378906 331.78125 565.292969 333.425781 565.277344 C 335.054688 565.261719 336.6875 565.234375 338.332031 565.277344 L 338.402344 565.292969 L 338.464844 565.292969 C 341.765625 565.628906 345.054688 566.054688 348.347656 566.570312 C 349.992188 566.820312 351.636719 567.128906 353.28125 567.433594 C 354.175781 567.613281 355.070312 567.800781 355.980469 568.007812 L 355.996094 568.007812 L 364.484375 567.433594 L 370.945312 576.347656 C 371.152344 576.640625 371.296875 576.964844 371.386719 577.289062 Z M 483.710938 561.445312 C 483.726562 561.429688 483.738281 561.402344 483.753906 561.386719 C 484.679688 559.976562 485.238281 558.464844 485.722656 556.90625 C 486.207031 555.335938 486.574219 553.722656 486.910156 552.105469 C 487.207031 550.492188 487.511719 548.863281 487.75 547.230469 L 488.101562 544.78125 L 488.261719 543.53125 C 488.320312 543.019531 488.453125 542.488281 488.644531 541.992188 C 489.847656 538.832031 491.097656 535.734375 492.507812 532.667969 C 492.710938 532.195312 492.933594 531.726562 493.152344 531.257812 C 494.355469 528.660156 495.632812 526.105469 497.117188 523.636719 C 497.175781 523.535156 497.292969 523.503906 497.382812 523.5625 C 497.453125 523.609375 497.484375 523.695312 497.46875 523.769531 C 496.910156 526.5 496.175781 529.171875 495.339844 531.800781 C 495.164062 532.386719 494.972656 532.976562 494.78125 533.5625 C 493.753906 536.761719 492.578125 539.933594 491.359375 543.046875 C 491.242188 543.339844 491.15625 543.636719 491.109375 543.941406 L 490.90625 545.207031 C 490.757812 546.042969 490.613281 546.894531 490.40625 547.714844 C 490.15625 548.789062 489.890625 549.875 489.585938 550.933594 C 489.40625 551.519531 489.230469 552.105469 489.027344 552.679688 C 488.953125 552.914062 488.863281 553.164062 488.777344 553.398438 C 488.277344 554.777344 487.691406 556.128906 486.96875 557.4375 C 486.117188 558.933594 485.105469 560.433594 483.710938 561.445312 Z M 506.648438 553.371094 C 505.972656 556.246094 504.929688 559.214844 502.933594 561.445312 C 502.945312 561.414062 502.960938 561.371094 502.960938 561.34375 C 504.0625 558.375 504.34375 555.367188 504.59375 552.328125 C 504.664062 550.785156 504.78125 549.242188 504.769531 547.714844 L 504.78125 546.570312 C 504.78125 546.160156 504.898438 545.515625 504.988281 545.015625 L 505.648438 542.738281 C 506.472656 540.15625 507.308594 537.554688 508.261719 535 C 508.394531 534.605469 508.558594 534.195312 508.703125 533.796875 C 509.820312 530.847656 511.023438 527.925781 512.492188 525.089844 C 512.550781 524.988281 512.667969 524.945312 512.769531 525.003906 C 512.859375 525.046875 512.902344 525.132812 512.890625 525.207031 C 512.476562 528.378906 511.800781 531.464844 511.039062 534.53125 C 510.949219 534.898438 510.863281 535.25 510.757812 535.617188 C 510.070312 538.304688 509.277344 540.960938 508.453125 543.621094 L 507.703125 545.851562 C 507.691406 546.132812 507.617188 546.25 507.574219 546.628906 C 507.558594 547.042969 507.542969 547.4375 507.5 547.847656 C 507.398438 548.890625 507.277344 549.933594 507.117188 550.976562 C 507.03125 551.535156 506.925781 552.078125 506.808594 552.636719 C 506.75 552.886719 506.707031 553.121094 506.648438 553.371094 Z M 519.4375 547.378906 C 519.410156 547.144531 519.410156 546.894531 519.421875 546.660156 C 519.4375 546.410156 519.46875 546.160156 519.527344 545.925781 C 519.585938 545.675781 519.660156 545.441406 519.703125 545.308594 L 520.320312 543.339844 C 520.863281 541.683594 521.433594 540.039062 522.050781 538.40625 C 522.40625 537.46875 522.773438 536.527344 523.152344 535.589844 C 524.195312 533.046875 525.3125 530.523438 526.691406 528.085938 C 526.765625 527.953125 526.941406 527.910156 527.074219 527.984375 C 527.164062 528.042969 527.222656 528.144531 527.207031 528.261719 C 526.839844 531.039062 526.207031 533.722656 525.503906 536.382812 C 525.269531 537.277344 525.019531 538.171875 524.753906 539.070312 C 524.238281 540.816406 523.667969 542.546875 523.09375 544.265625 L 522.390625 546.21875 C 522.332031 546.394531 522.285156 546.496094 522.273438 546.585938 C 522.242188 546.675781 522.226562 546.777344 522.214844 546.863281 C 522.199219 546.96875 522.199219 547.070312 522.199219 547.171875 L 522.214844 547.703125 C 522.226562 548.804688 522.226562 549.90625 522.15625 551.003906 C 522.140625 551.3125 522.109375 551.621094 522.082031 551.929688 C 522.039062 552.386719 521.980469 552.855469 521.917969 553.324219 C 521.613281 555.675781 521.007812 558.039062 519.671875 560.007812 C 520.171875 557.261719 520.027344 554.589844 519.863281 551.902344 C 519.746094 550.550781 519.671875 549.214844 519.496094 547.878906 Z M 531.714844 547.597656 C 531.582031 546.894531 531.640625 546.175781 531.789062 545.515625 C 531.863281 545.175781 531.964844 544.855469 532.097656 544.546875 L 532.390625 543.8125 C 532.757812 542.945312 533.140625 542.09375 533.535156 541.242188 C 534.019531 540.183594 534.535156 539.140625 535.09375 538.113281 C 536.089844 536.25 537.164062 534.429688 538.484375 532.710938 C 538.574219 532.59375 538.75 532.5625 538.851562 532.652344 C 538.941406 532.726562 538.96875 532.8125 538.953125 532.917969 C 538.617188 535.046875 538.027344 537.085938 537.367188 539.082031 C 537.046875 540.050781 536.691406 541.007812 536.339844 541.945312 C 535.929688 542.960938 535.503906 543.972656 535.078125 544.972656 L 534.753906 545.675781 C 534.667969 545.851562 534.609375 546.027344 534.546875 546.203125 C 534.445312 546.558594 534.417969 546.910156 534.429688 547.230469 C 534.429688 547.320312 534.429688 547.410156 534.445312 547.496094 L 534.519531 547.878906 C 534.5625 548.15625 534.59375 548.449219 534.636719 548.730469 C 534.710938 549.289062 534.738281 549.859375 534.726562 550.433594 C 534.726562 550.625 534.710938 550.828125 534.695312 551.019531 C 534.652344 551.796875 534.535156 552.5625 534.328125 553.3125 C 534.019531 554.542969 533.507812 555.703125 532.816406 556.730469 C 532.933594 554.558594 532.890625 552.53125 532.507812 550.609375 C 532.40625 550.125 532.289062 549.65625 532.167969 549.199219 C 532.109375 548.964844 532.050781 548.730469 531.964844 548.496094 L 531.847656 548.128906 C 531.789062 547.953125 531.757812 547.773438 531.714844 547.597656 Z M 543.976562 551.785156 C 544.285156 551.546875 544.5625 551.3125 544.828125 551.0625 C 545.445312 550.519531 545.945312 549.976562 546.445312 549.40625 C 547.132812 548.582031 547.75 547.730469 548.335938 546.851562 C 548.703125 546.308594 549.058594 545.734375 549.378906 545.160156 C 549.617188 544.808594 549.804688 544.457031 550.011719 544.089844 C 550.554688 543.136719 551.023438 542.121094 551.582031 540.960938 C 552.125 542.152344 552.15625 543.472656 551.949219 544.75 C 551.890625 545.089844 551.816406 545.425781 551.714844 545.75 C 551.449219 546.644531 551.054688 547.511719 550.527344 548.304688 C 549.804688 549.375 548.867188 550.332031 547.734375 550.992188 C 547.675781 551.019531 547.632812 551.050781 547.574219 551.078125 C 546.488281 551.695312 545.195312 552.046875 543.976562 551.785156 Z M 634.222656 567.914062 C 634.222656 565.960938 635.5 564.382812 637.070312 564.382812 C 638.644531 564.382812 639.917969 565.960938 639.917969 567.914062 C 639.917969 569.863281 638.644531 571.441406 637.070312 571.441406 C 635.5 571.441406 634.222656 569.863281 634.222656 567.914062 Z M 598.332031 563.273438 C 597.042969 563.273438 596 561.808594 596 560 C 596 558.191406 597.042969 556.726562 598.332031 556.726562 C 599.621094 556.726562 600.667969 558.191406 600.667969 560 C 600.667969 561.808594 599.621094 563.273438 598.332031 563.273438 Z M 620.402344 569.882812 C 620.964844 570.566406 621.089844 571.253906 621.09375 571.9375 C 621.066406 572.625 620.9375 573.3125 620.402344 573.996094 C 620.070312 574.425781 619.453125 574.5 619.023438 574.164062 C 618.960938 574.117188 618.902344 574.054688 618.855469 573.996094 C 618.320312 573.3125 618.191406 572.625 618.164062 571.9375 C 618.167969 571.253906 618.292969 570.566406 618.855469 569.882812 C 619.203125 569.453125 619.832031 569.390625 620.261719 569.738281 C 620.3125 569.78125 620.363281 569.832031 620.402344 569.882812 Z M 608.386719 568.296875 C 608.945312 568.941406 609.074219 569.589844 609.078125 570.238281 C 609.046875 570.886719 608.921875 571.535156 608.386719 572.183594 C 608.03125 572.609375 607.398438 572.671875 606.96875 572.316406 C 606.921875 572.277344 606.875 572.230469 606.835938 572.183594 C 606.300781 571.535156 606.175781 570.886719 606.144531 570.238281 C 606.148438 569.589844 606.277344 568.941406 606.835938 568.296875 C 607.207031 567.867188 607.851562 567.820312 608.28125 568.191406 C 608.316406 568.222656 608.355469 568.257812 608.386719 568.296875 Z M 616.8125 559.75 C 612.800781 558.949219 608.769531 559.355469 605.476562 560.902344 C 602.035156 562.515625 599.785156 565.171875 599.144531 568.382812 C 597.859375 574.828125 603.691406 581.445312 612.144531 583.132812 C 613.488281 583.402344 614.832031 583.535156 616.148438 583.535156 C 618.769531 583.535156 621.285156 583.007812 623.476562 581.980469 C 626.921875 580.363281 629.167969 577.707031 629.808594 574.5 C 631.09375 568.054688 625.265625 561.4375 616.8125 559.75 Z M 626.929688 573.925781 C 626.476562 576.195312 624.808594 578.109375 622.230469 579.320312 C 619.5 580.601562 616.125 580.933594 612.71875 580.253906 C 605.851562 578.882812 601.054688 573.8125 602.027344 568.953125 C 602.480469 566.683594 604.148438 564.769531 606.726562 563.5625 C 608.527344 562.714844 610.609375 562.28125 612.796875 562.28125 C 613.925781 562.28125 615.078125 562.398438 616.238281 562.628906 C 623.101562 564 627.898438 569.066406 626.929688 573.925781 Z M 661.527344 542.460938 C 661.730469 544.492188 661.566406 546.464844 661.15625 548.351562 C 660.375 552.132812 658.824219 555.613281 656.890625 558.8125 C 656.832031 558.910156 656.703125 558.941406 656.605469 558.882812 C 656.527344 558.832031 656.492188 558.734375 656.515625 558.648438 C 657.484375 555.0625 658.449219 551.519531 658.8125 547.988281 C 658.972656 546.226562 659.054688 544.472656 658.757812 542.835938 C 658.488281 541.21875 657.949219 539.664062 656.90625 538.691406 C 654.945312 536.578125 651.234375 536.867188 648.0625 538.136719 C 644.804688 539.398438 641.796875 541.488281 638.839844 543.714844 C 638.734375 543.796875 638.578125 543.78125 638.492188 543.671875 C 638.421875 543.582031 638.425781 543.457031 638.492188 543.371094 C 640.757812 540.394531 643.570312 537.71875 647.085938 535.941406 C 648.824219 535.039062 650.789062 534.429688 652.914062 534.339844 C 655 534.234375 657.40625 534.96875 659 536.632812 C 660.625 538.285156 661.273438 540.460938 661.527344 542.460938 Z M 604.71875 525.234375 C 606.515625 525.351562 608.21875 526.078125 609.734375 527.03125 C 611.25 528 612.582031 529.242188 613.695312 530.652344 C 614.804688 532.0625 615.691406 533.648438 616.289062 535.34375 C 616.867188 537.035156 617.191406 538.84375 616.957031 540.636719 C 616.945312 540.746094 616.84375 540.820312 616.738281 540.808594 C 616.671875 540.800781 616.617188 540.757812 616.589844 540.707031 C 615.730469 539.171875 614.945312 537.75 614.078125 536.386719 C 613.226562 535.019531 612.324219 533.714844 611.367188 532.445312 C 610.410156 531.175781 609.398438 529.949219 608.304688 528.761719 C 607.214844 527.5625 606.042969 526.433594 604.71875 525.234375 Z M 636.609375 526.222656 C 637.6875 525.242188 638.851562 524.558594 640.042969 523.941406 C 641.234375 523.339844 642.464844 522.851562 643.722656 522.453125 C 644.980469 522.058594 646.265625 521.757812 647.589844 521.570312 C 648.917969 521.398438 650.265625 521.296875 651.710938 521.488281 C 650.636719 522.46875 649.46875 523.15625 648.28125 523.773438 C 647.085938 524.371094 645.859375 524.863281 644.597656 525.253906 C 643.339844 525.648438 642.050781 525.945312 640.730469 526.136719 C 639.402344 526.308594 638.050781 526.410156 636.609375 526.222656 Z M 704.96875 576.3125 C 701.449219 579.421875 697.492188 581.972656 693.375 584.195312 C 689.238281 586.378906 684.921875 588.257812 680.398438 589.496094 C 684.480469 587.1875 688.609375 585.105469 692.683594 582.902344 C 696.777344 580.734375 700.796875 578.460938 704.96875 576.3125 Z M 643.277344 600.097656 C 647.667969 599.6875 651.976562 598.828125 656.335938 597.726562 C 652.390625 599.917969 647.917969 601.101562 643.421875 601.558594 C 638.917969 601.984375 634.34375 601.707031 629.988281 600.578125 C 634.484375 600.558594 638.894531 600.554688 643.277344 600.097656 Z M 606.433594 593.074219 C 609.675781 595.25 613.265625 596.820312 617.035156 598.242188 C 613.007812 597.957031 609.039062 596.550781 605.621094 594.296875 C 602.21875 592.03125 599.367188 588.90625 597.605469 585.269531 C 600.324219 588.246094 603.164062 590.941406 606.433594 593.074219 Z M 606.433594 593.074219 " fill-opacity="1" fill-rule="nonzero"/></svg>