<svg xmlns="http://www.w3.org/2000/svg" xmlns:xlink="http://www.w3.org/1999/xlink" width="1000" zoomAndPan="magnify" viewBox="0 0 750 749.999995" height="1000" preserveAspectRatio="xMidYMid meet" version="1.0"><defs><clipPath id="942e119379"><path d="M 24.675781 131.609375 L 541 131.609375 L 541 459 L 24.675781 459 Z M 24.675781 131.609375 " clip-rule="nonzero"/></clipPath><clipPath id="83ebb55459"><path d="M 380 335.105469 L 658.421875 335.105469 L 658.421875 618.320312 L 380 618.320312 Z M 380 335.105469 " clip-rule="nonzero"/></clipPath><clipPath id="ad2519e3b1"><path d="M 47.382812 579.167969 L 733.457031 579.167969 L 733.457031 618.320312 L 47.382812 618.320312 Z M 47.382812 579.167969 " clip-rule="nonzero"/></clipPath></defs><path fill="#ddecff" d="M 536.085938 456.566406 C 533.523438 456.566406 530.605469 456.109375 528.652344 456.109375 L 25.875 456.109375 L 25.875 132.511719 L 538.636719 132.511719 L 538.636719 444.367188 C 538.636719 447.589844 538.308594 451.011719 538.636719 454.21875 C 538.773438 455.558594 538.523438 456.179688 538.535156 456.371094 C 537.796875 456.511719 536.960938 456.566406 536.085938 456.566406 M 289.25 373.179688 L 289.25 390.867188 L 516.347656 390.867188 L 516.347656 373.179688 L 289.25 373.179688 M 150.277344 364.792969 C 150.332031 364.796875 150.382812 364.796875 150.433594 364.796875 C 150.453125 364.796875 150.472656 364.796875 150.488281 364.796875 C 150.5 364.796875 150.519531 364.796875 150.535156 364.796875 C 150.589844 364.796875 150.644531 364.796875 150.695312 364.792969 C 211.292969 364.085938 260.53125 314.847656 261.238281 254.25 C 261.238281 254.179688 261.238281 254.109375 261.238281 254.039062 C 261.238281 253.96875 261.238281 253.894531 261.238281 253.824219 C 260.53125 193.226562 211.296875 143.992188 150.703125 143.285156 C 150.652344 143.28125 150.597656 143.28125 150.542969 143.28125 C 150.523438 143.28125 150.503906 143.28125 150.488281 143.28125 C 150.472656 143.28125 150.453125 143.28125 150.433594 143.28125 C 150.378906 143.28125 150.324219 143.28125 150.265625 143.285156 C 113.828125 143.734375 79.6875 161.5 59.007812 191.621094 C 39.742188 219.679688 34.929688 255.492188 45.023438 287.835938 C 45.042969 287.898438 45.0625 287.960938 45.082031 288.023438 C 45.105469 288.09375 45.128906 288.164062 45.152344 288.238281 C 60.621094 334.070312 101.84375 364.253906 150.277344 364.792969 M 289.25 335.613281 L 289.25 353.300781 L 516.347656 353.300781 L 516.347656 335.613281 L 289.25 335.613281 M 289.25 298.042969 L 289.25 315.734375 L 516.347656 315.734375 L 516.347656 298.042969 L 289.25 298.042969 M 289.25 260.476562 L 289.25 278.164062 L 516.347656 278.164062 L 516.347656 260.476562 L 289.25 260.476562 M 289.25 222.910156 L 289.25 240.597656 L 516.347656 240.597656 L 516.347656 222.910156 L 289.25 222.910156 M 289.25 185.339844 L 289.25 203.03125 L 516.347656 203.03125 L 516.347656 185.339844 L 289.25 185.339844 " fill-opacity="1" fill-rule="nonzero"/><path fill="#ff6450" d="M 54.246094 279.449219 C 47.253906 251.9375 51.746094 222.832031 67.535156 198.890625 C 84.84375 172.640625 113.859375 156.65625 144.910156 154.644531 L 144.910156 207.59375 C 121.707031 210.351562 103.714844 230.09375 103.714844 254.039062 C 103.714844 257.136719 104.019531 260.164062 104.589844 263.09375 L 54.246094 279.449219 " fill-opacity="1" fill-rule="nonzero"/><path fill="#ddecff" d="M 45.152344 288.238281 C 45.128906 288.164062 45.105469 288.09375 45.082031 288.023438 C 45.105469 288.09375 45.128906 288.164062 45.152344 288.238281 M 45.023438 287.835938 C 34.929688 255.492188 39.742188 219.679688 59.007812 191.621094 C 79.6875 161.5 113.828125 143.734375 150.265625 143.285156 C 147.347656 143.378906 144.910156 145.933594 144.910156 148.859375 L 144.910156 207.59375 L 144.910156 154.644531 C 113.859375 156.65625 84.84375 172.640625 67.535156 198.890625 C 51.746094 222.832031 47.253906 251.9375 54.246094 279.449219 L 104.589844 263.09375 L 48.976562 281.160156 C 46.289062 282.035156 44.175781 284.929688 45.023438 287.835938 M 150.703125 143.285156 C 150.632812 143.28125 150.5625 143.28125 150.488281 143.28125 C 150.503906 143.28125 150.523438 143.28125 150.542969 143.28125 C 150.597656 143.28125 150.652344 143.28125 150.703125 143.285156 " fill-opacity="1" fill-rule="nonzero"/><path fill="#874a51" d="M 144.910156 353.441406 C 105.601562 351 72.078125 326.777344 57.65625 290.0625 L 108.03125 273.691406 C 114.714844 288.097656 128.507812 298.53125 144.910156 300.480469 L 144.910156 353.441406 " fill-opacity="1" fill-rule="nonzero"/><path fill="#ddecff" d="M 150.535156 364.796875 C 150.519531 364.796875 150.5 364.796875 150.488281 364.796875 C 150.554688 364.796875 150.625 364.792969 150.695312 364.792969 C 150.644531 364.796875 150.589844 364.796875 150.535156 364.796875 M 150.277344 364.792969 C 101.84375 364.253906 60.621094 334.070312 45.152344 288.238281 C 45.128906 288.164062 45.105469 288.09375 45.082031 288.023438 C 45.0625 287.960938 45.042969 287.898438 45.023438 287.835938 C 44.175781 284.929688 46.289062 282.035156 48.976562 281.160156 L 104.589844 263.09375 C 105.320312 266.800781 106.484375 270.351562 108.03125 273.691406 L 57.65625 290.0625 C 72.078125 326.777344 105.601562 351 144.910156 353.441406 L 144.910156 300.480469 L 144.910156 359.214844 C 144.910156 362.140625 147.347656 364.703125 150.277344 364.792969 " fill-opacity="1" fill-rule="nonzero"/><path fill="#95cbf0" d="M 156.066406 353.433594 L 156.066406 300.480469 C 177.4375 297.941406 194.390625 280.992188 196.929688 259.613281 L 249.875 259.613281 C 246.621094 309.871094 206.316406 350.175781 156.066406 353.433594 " fill-opacity="1" fill-rule="nonzero"/><path fill="#ddecff" d="M 150.433594 364.796875 C 150.382812 364.796875 150.332031 364.796875 150.277344 364.792969 C 147.347656 364.703125 144.910156 362.140625 144.910156 359.214844 L 144.910156 300.480469 C 146.738281 300.699219 148.601562 300.808594 150.488281 300.808594 C 152.371094 300.808594 154.234375 300.699219 156.066406 300.480469 L 156.066406 353.433594 C 206.316406 350.175781 246.621094 309.871094 249.875 259.613281 L 255.660156 259.613281 C 258.585938 259.613281 261.144531 257.175781 261.238281 254.25 C 260.53125 314.847656 211.292969 364.085938 150.695312 364.792969 C 150.625 364.792969 150.554688 364.796875 150.488281 364.796875 C 150.472656 364.796875 150.453125 364.796875 150.433594 364.796875 M 261.238281 254.039062 C 261.238281 253.96875 261.238281 253.894531 261.238281 253.824219 C 261.238281 253.894531 261.238281 253.96875 261.238281 254.039062 " fill-opacity="1" fill-rule="nonzero"/><path fill="#ffc074" d="M 249.875 248.460938 L 196.929688 248.460938 C 194.390625 227.085938 177.4375 210.132812 156.066406 207.59375 L 156.066406 154.644531 C 206.316406 157.898438 246.621094 198.207031 249.875 248.460938 " fill-opacity="1" fill-rule="nonzero"/><path fill="#ddecff" d="M 255.660156 259.613281 L 196.929688 259.613281 C 197.144531 257.785156 197.257812 255.925781 197.257812 254.039062 C 197.257812 252.152344 197.144531 250.289062 196.929688 248.460938 L 249.875 248.460938 C 246.621094 198.207031 206.316406 157.898438 156.066406 154.644531 L 156.066406 207.59375 C 154.234375 207.375 152.371094 207.265625 150.488281 207.265625 C 148.601562 207.265625 146.738281 207.375 144.910156 207.59375 L 144.910156 148.859375 C 144.910156 145.933594 147.347656 143.378906 150.265625 143.285156 C 150.324219 143.28125 150.378906 143.28125 150.433594 143.28125 C 150.453125 143.28125 150.472656 143.28125 150.488281 143.28125 C 150.5625 143.28125 150.632812 143.28125 150.703125 143.285156 C 211.296875 143.992188 260.53125 193.226562 261.238281 253.824219 C 261.238281 253.894531 261.238281 253.96875 261.238281 254.039062 C 261.238281 254.109375 261.238281 254.179688 261.238281 254.25 C 261.144531 257.175781 258.585938 259.613281 255.660156 259.613281 " fill-opacity="1" fill-rule="nonzero"/><path fill="#ddecff" d="M 150.488281 300.808594 C 148.601562 300.808594 146.738281 300.699219 144.910156 300.480469 C 128.507812 298.53125 114.714844 288.097656 108.03125 273.691406 C 106.484375 270.351562 105.320312 266.800781 104.589844 263.09375 C 104.019531 260.164062 103.714844 257.136719 103.714844 254.039062 C 103.714844 230.09375 121.707031 210.351562 144.910156 207.59375 C 146.738281 207.375 148.601562 207.265625 150.488281 207.265625 C 152.371094 207.265625 154.234375 207.375 156.066406 207.59375 C 177.4375 210.132812 194.390625 227.085938 196.929688 248.460938 C 197.144531 250.289062 197.257812 252.152344 197.257812 254.039062 C 197.257812 255.925781 197.144531 257.785156 196.929688 259.613281 C 194.390625 280.992188 177.4375 297.941406 156.066406 300.480469 C 154.234375 300.699219 152.371094 300.808594 150.488281 300.808594 M 168.128906 249.453125 C 164.21875 249.453125 161.027344 250.96875 158.554688 254.003906 C 156.089844 257.039062 154.855469 261.363281 154.855469 266.980469 C 154.855469 272.59375 156.089844 276.949219 158.554688 280.039062 C 161.027344 283.128906 164.21875 284.675781 168.128906 284.675781 C 172.042969 284.675781 175.234375 283.128906 177.699219 280.039062 C 180.167969 276.949219 181.402344 272.59375 181.402344 266.980469 C 181.402344 261.363281 180.167969 257.039062 177.699219 254.003906 C 175.234375 250.96875 172.042969 249.453125 168.128906 249.453125 M 160.300781 226.988281 L 129.929688 284.675781 L 135.96875 284.675781 L 166.257812 226.988281 L 160.300781 226.988281 M 128.226562 226.988281 C 124.3125 226.988281 121.121094 228.503906 118.65625 231.539062 C 116.1875 234.574219 114.953125 238.898438 114.953125 244.515625 C 114.953125 250.128906 116.1875 254.484375 118.65625 257.578125 C 121.121094 260.667969 124.3125 262.214844 128.226562 262.214844 C 132.140625 262.214844 135.332031 260.667969 137.796875 257.578125 C 140.265625 254.484375 141.5 250.128906 141.5 244.515625 C 141.5 238.898438 140.265625 234.574219 137.796875 231.539062 C 135.332031 228.503906 132.140625 226.988281 128.226562 226.988281 M 168.128906 278.976562 C 166.3125 278.976562 164.824219 278.027344 163.664062 276.125 C 162.5 274.226562 161.921875 271.175781 161.921875 266.980469 C 161.921875 262.78125 162.5 259.757812 163.664062 257.917969 C 164.824219 256.074219 166.3125 255.148438 168.128906 255.148438 C 169.945312 255.148438 171.433594 256.074219 172.597656 257.917969 C 173.757812 259.757812 174.339844 262.78125 174.339844 266.980469 C 174.339844 271.175781 173.757812 274.226562 172.597656 276.125 C 171.433594 278.027344 169.945312 278.976562 168.128906 278.976562 M 128.226562 256.511719 C 126.410156 256.511719 124.921875 255.5625 123.757812 253.664062 C 122.597656 251.761719 122.015625 248.714844 122.015625 244.515625 C 122.015625 240.316406 122.597656 237.296875 123.757812 235.453125 C 124.921875 233.609375 126.410156 232.6875 128.226562 232.6875 C 130.042969 232.6875 131.53125 233.609375 132.695312 235.453125 C 133.855469 237.296875 134.4375 240.316406 134.4375 244.515625 C 134.4375 248.714844 133.855469 251.761719 132.695312 253.664062 C 131.53125 255.5625 130.042969 256.511719 128.226562 256.511719 " fill-opacity="1" fill-rule="nonzero"/><path fill="#739ad4" d="M 168.128906 284.675781 C 164.21875 284.675781 161.027344 283.128906 158.554688 280.039062 C 156.089844 276.949219 154.855469 272.59375 154.855469 266.980469 C 154.855469 261.363281 156.089844 257.039062 158.554688 254.003906 C 161.027344 250.96875 164.21875 249.453125 168.128906 249.453125 C 172.042969 249.453125 175.234375 250.96875 177.699219 254.003906 C 180.167969 257.039062 181.402344 261.363281 181.402344 266.980469 C 181.402344 272.59375 180.167969 276.949219 177.699219 280.039062 C 175.234375 283.128906 172.042969 284.675781 168.128906 284.675781 M 168.128906 255.148438 C 166.3125 255.148438 164.824219 256.074219 163.664062 257.917969 C 162.5 259.757812 161.921875 262.78125 161.921875 266.980469 C 161.921875 271.175781 162.5 274.226562 163.664062 276.125 C 164.824219 278.027344 166.3125 278.976562 168.128906 278.976562 C 169.945312 278.976562 171.433594 278.027344 172.597656 276.125 C 173.757812 274.226562 174.339844 271.175781 174.339844 266.980469 C 174.339844 262.78125 173.757812 259.757812 172.597656 257.917969 C 171.433594 256.074219 169.945312 255.148438 168.128906 255.148438 M 135.96875 284.675781 L 129.929688 284.675781 L 160.300781 226.988281 L 166.257812 226.988281 L 135.96875 284.675781 M 128.226562 262.214844 C 124.3125 262.214844 121.121094 260.667969 118.65625 257.578125 C 116.1875 254.484375 114.953125 250.128906 114.953125 244.515625 C 114.953125 238.898438 116.1875 234.574219 118.65625 231.539062 C 121.121094 228.503906 124.3125 226.988281 128.226562 226.988281 C 132.140625 226.988281 135.332031 228.503906 137.796875 231.539062 C 140.265625 234.574219 141.5 238.898438 141.5 244.515625 C 141.5 250.128906 140.265625 254.484375 137.796875 257.578125 C 135.332031 260.667969 132.140625 262.214844 128.226562 262.214844 M 128.226562 232.6875 C 126.410156 232.6875 124.921875 233.609375 123.757812 235.453125 C 122.597656 237.296875 122.015625 240.316406 122.015625 244.515625 C 122.015625 248.714844 122.597656 251.761719 123.757812 253.664062 C 124.921875 255.5625 126.410156 256.511719 128.226562 256.511719 C 130.042969 256.511719 131.53125 255.5625 132.695312 253.664062 C 133.855469 251.761719 134.4375 248.714844 134.4375 244.515625 C 134.4375 240.316406 133.855469 237.296875 132.695312 235.453125 C 131.53125 233.609375 130.042969 232.6875 128.226562 232.6875 " fill-opacity="1" fill-rule="nonzero"/><path fill="#95cbf0" d="M 289.25 203.03125 L 516.347656 203.03125 L 516.347656 185.339844 L 289.25 185.339844 Z M 289.25 203.03125 " fill-opacity="1" fill-rule="nonzero"/><path fill="#95cbf0" d="M 289.25 240.597656 L 516.347656 240.597656 L 516.347656 222.910156 L 289.25 222.910156 Z M 289.25 240.597656 " fill-opacity="1" fill-rule="nonzero"/><path fill="#95cbf0" d="M 289.25 278.164062 L 516.347656 278.164062 L 516.347656 260.476562 L 289.25 260.476562 Z M 289.25 278.164062 " fill-opacity="1" fill-rule="nonzero"/><path fill="#95cbf0" d="M 289.25 315.734375 L 516.347656 315.734375 L 516.347656 298.042969 L 289.25 298.042969 Z M 289.25 315.734375 " fill-opacity="1" fill-rule="nonzero"/><path fill="#95cbf0" d="M 289.25 353.300781 L 516.347656 353.300781 L 516.347656 335.613281 L 289.25 335.613281 Z M 289.25 353.300781 " fill-opacity="1" fill-rule="nonzero"/><path fill="#95cbf0" d="M 289.25 390.867188 L 516.347656 390.867188 L 516.347656 373.179688 L 289.25 373.179688 Z M 289.25 390.867188 " fill-opacity="1" fill-rule="nonzero"/><g clip-path="url(#942e119379)"><path fill="#5c9ed4" d="M 536.480469 458.246094 C 534.84375 458.246094 533.007812 457.96875 531.707031 457.96875 L 25.875 457.96875 C 24.675781 457.96875 24.679688 456.109375 25.875 456.109375 L 528.652344 456.109375 C 530.605469 456.109375 533.523438 456.566406 536.085938 456.566406 C 536.960938 456.566406 537.796875 456.511719 538.535156 456.371094 C 538.523438 456.179688 538.773438 455.558594 538.636719 454.21875 C 538.308594 451.011719 538.636719 447.589844 538.636719 444.367188 L 538.636719 132.511719 C 538.636719 131.914062 539.101562 131.617188 539.566406 131.617188 C 540.03125 131.617188 540.496094 131.917969 540.496094 132.511719 L 540.496094 457.042969 C 540.496094 457.542969 540.070312 457.96875 539.566406 457.96875 C 539.394531 457.96875 539.164062 457.933594 538.960938 457.933594 C 538.859375 457.933594 538.765625 457.945312 538.683594 457.96875 C 538.0625 458.175781 537.296875 458.246094 536.480469 458.246094 " fill-opacity="1" fill-rule="nonzero"/></g><path fill="#f2b1a5" d="M 423.378906 347.503906 C 449.378906 373.179688 507.03125 453.003906 507.03125 453.003906 C 498.332031 493.691406 453.144531 516.824219 453.144531 516.824219 C 420.328125 436.664062 406.117188 372.644531 406.117188 372.644531 L 423.378906 347.503906 " fill-opacity="1" fill-rule="nonzero"/><g clip-path="url(#83ebb55459)"><path fill="#ff4931" d="M 643.605469 394.085938 C 643.605469 394.085938 626.90625 347.238281 592.558594 335.320312 L 541.890625 335.320312 L 520.558594 341.785156 C 487.390625 351.074219 474.125 382.328125 474.125 382.328125 C 452.089844 429.691406 442.210938 450.84375 433.890625 498.882812 C 433.890625 498.882812 374.046875 589.832031 380.738281 598.835938 C 380.738281 598.835938 482.6875 605.339844 534.5625 614.605469 C 534.5625 614.605469 646.136719 634.082031 658.195312 579.828125 C 658.195312 579.828125 659.675781 435.152344 643.605469 394.085938 " fill-opacity="1" fill-rule="nonzero"/></g><path fill="#f2b1a5" d="M 505.1875 261.464844 C 505.1875 261.464844 501.894531 253.464844 508.152344 226.992188 C 508.152344 226.992188 519.882812 189.71875 555.628906 190.984375 C 556.921875 191.03125 558.566406 191.359375 559.816406 191.8125 C 593.335938 203.988281 587.699219 239.773438 587.699219 239.773438 C 585.933594 251.496094 582.261719 260.78125 578.6875 267.523438 C 574.058594 276.25 563.089844 283.761719 563.089844 283.761719 C 550.03125 292.6875 523.015625 293.820312 516.144531 291.625 C 510.730469 289.894531 508.09375 278.359375 505.1875 261.464844 " fill-opacity="1" fill-rule="nonzero"/><path fill="#f2b1a5" d="M 528.863281 270.128906 C 529.800781 314.273438 520.558594 328.222656 520.558594 328.222656 C 498.691406 350.875 588.054688 328.535156 588.054688 328.535156 C 575.765625 305.101562 578.8125 275.667969 578.8125 275.667969 C 558.453125 274.515625 528.863281 270.128906 528.863281 270.128906 " fill-opacity="1" fill-rule="nonzero"/><path fill="#722a33" d="M 530.207031 292.800781 C 542.53125 292.964844 560.683594 289.585938 569.472656 279.867188 C 570.273438 278.980469 568.960938 277.660156 568.15625 278.550781 C 559.726562 287.875 541.9375 291.097656 530.207031 290.941406 C 529.011719 290.925781 529.011719 292.785156 530.207031 292.800781 " fill-opacity="1" fill-rule="nonzero"/><path fill="#f2b1a5" d="M 508.152344 226.992188 C 505.394531 250.359375 495.792969 253.546875 495.792969 253.546875 C 492.28125 261.816406 510.714844 266.054688 510.714844 266.054688 C 509.679688 256.050781 508.152344 226.992188 508.152344 226.992188 " fill-opacity="1" fill-rule="nonzero"/><path fill="#722a33" d="M 512.84375 246.632812 C 514.902344 247.40625 517.210938 246.351562 517.984375 244.296875 L 518.824219 242.050781 C 519.597656 239.992188 518.542969 237.679688 516.488281 236.910156 C 514.429688 236.136719 512.117188 237.191406 511.347656 239.246094 L 510.507812 241.492188 C 509.734375 243.550781 510.789062 245.863281 512.84375 246.632812 " fill-opacity="1" fill-rule="nonzero"/><path fill="#722a33" d="M 510.714844 232.414062 C 515.734375 232.871094 523.59375 235.160156 526.503906 239.695312 C 529.167969 243.851562 535.828125 239.996094 533.148438 235.8125 C 528.59375 228.71875 518.707031 225.449219 510.714844 224.71875 C 505.789062 224.269531 505.820312 231.964844 510.714844 232.414062 " fill-opacity="1" fill-rule="nonzero"/><path fill="#722a33" d="M 597.382812 198.933594 C 596.054688 196.871094 594.722656 190.757812 589.476562 188.601562 C 556.441406 175.050781 529.484375 180.039062 514.664062 190.953125 C 503.367188 199.277344 501.414062 208.457031 510.714844 224.71875 C 512.457031 227.757812 524.488281 234.964844 532.03125 239.914062 C 534.417969 244.828125 534.847656 256.675781 536.296875 263.671875 C 539.9375 281.25 574.046875 298.878906 577.722656 294.910156 C 589.363281 282.347656 597.316406 270.867188 605.632812 260.144531 C 620.9375 233.160156 619.914062 214.222656 597.382812 198.933594 " fill-opacity="1" fill-rule="nonzero"/><path fill="#f2b1a5" d="M 537.261719 245.847656 C 544.421875 233.675781 550.261719 241.855469 550.261719 241.855469 C 554 252.425781 539.941406 261.304688 539.941406 261.304688 C 534.714844 263.878906 537.261719 245.847656 537.261719 245.847656 " fill-opacity="1" fill-rule="nonzero"/><path fill="#ff4931" d="M 596.957031 337.171875 C 596.957031 335.179688 591.484375 317.953125 591.484375 317.953125 C 563.257812 333.339844 513.085938 324.921875 513.085938 324.921875 C 511.355469 335.320312 510.714844 345.316406 510.714844 345.316406 C 560.789062 352.511719 596.957031 337.171875 596.957031 337.171875 " fill-opacity="1" fill-rule="nonzero"/><g clip-path="url(#ad2519e3b1)"><path fill="#ffb55c" d="M 719.113281 618.320312 L 62.199219 618.320312 C 54.308594 618.320312 47.855469 611.867188 47.855469 603.976562 L 47.855469 593.691406 C 47.855469 585.800781 54.308594 579.347656 62.199219 579.347656 L 719.113281 579.347656 C 727.003906 579.347656 733.457031 585.800781 733.457031 593.691406 L 733.457031 603.976562 C 733.457031 611.867188 727.003906 618.320312 719.113281 618.320312 " fill-opacity="1" fill-rule="nonzero"/></g><path fill="#722a33" d="M 533.765625 237.9375 C 533.804688 238.4375 533.835938 238.929688 533.863281 239.421875 C 534.789062 256.75 528.59375 268.878906 528.59375 268.878906 C 532.519531 270.652344 540.292969 266.054688 540.292969 266.054688 C 537.671875 253.546875 541.707031 236.65625 541.707031 236.65625 L 533.765625 237.9375 " fill-opacity="1" fill-rule="nonzero"/><path fill="#f2b1a5" d="M 463.570312 549.824219 C 487.222656 544.824219 519.078125 518.785156 519.078125 518.785156 L 560.359375 461.410156 C 576.335938 438.816406 528.59375 396.75 528.59375 396.75 C 511.183594 391.535156 426.933594 510.726562 426.933594 510.726562 C 409.183594 521.839844 463.570312 549.824219 463.570312 549.824219 " fill-opacity="1" fill-rule="nonzero"/><path fill="#ff6c61" d="M 536.640625 361.105469 C 493.503906 359.734375 443.355469 460.207031 443.355469 460.207031 C 467.214844 498.140625 520.402344 531.726562 520.402344 531.726562 C 599.363281 431.457031 582.578125 390.128906 582.578125 390.128906 C 580.402344 361.09375 536.640625 361.105469 536.640625 361.105469 " fill-opacity="1" fill-rule="nonzero"/><path fill="#f2b1a5" d="M 463.570312 549.824219 C 419.996094 575.734375 331.011719 431.191406 331.011719 431.191406 L 365.683594 407.882812 C 417.636719 453.074219 463.570312 498.367188 463.570312 498.367188 L 463.570312 549.824219 " fill-opacity="1" fill-rule="nonzero"/><path fill="#f2b1a5" d="M 342.714844 450.226562 C 300.902344 426.441406 298.75 398.289062 298.75 398.289062 C 299.539062 367.027344 282.75 347.238281 282.75 347.238281 C 281.257812 336.359375 342.714844 429.132812 342.714844 429.132812 L 342.714844 450.226562 " fill-opacity="1" fill-rule="nonzero"/><path fill="#722a33" d="M 283.894531 254.378906 C 284.417969 255.023438 284.699219 255.59375 284.835938 256.117188 C 284.972656 256.644531 284.960938 257.125 284.886719 257.59375 C 284.8125 258.0625 284.675781 258.523438 284.566406 259 C 284.457031 259.480469 284.375 259.976562 284.40625 260.527344 C 284.449219 261.304688 284.652344 262.101562 284.96875 262.910156 C 285.289062 263.714844 285.726562 264.53125 286.242188 265.347656 C 286.761719 266.164062 287.359375 266.972656 288.003906 267.769531 C 288.644531 268.570312 289.332031 269.355469 290.023438 270.113281 C 290.25 270.363281 292.476562 272.722656 292.6875 272.941406 C 292.902344 273.167969 293.042969 273.386719 293.125 273.589844 C 293.203125 273.792969 293.226562 273.984375 293.199219 274.152344 C 293.167969 274.320312 293.09375 274.464844 292.980469 274.578125 C 292.871094 274.691406 292.722656 274.777344 292.550781 274.820312 C 292.4375 274.847656 292.308594 274.859375 292.179688 274.855469 C 292.046875 274.84375 291.910156 274.820312 291.769531 274.769531 C 291.625 274.71875 291.480469 274.644531 291.335938 274.550781 C 291.191406 274.453125 291.046875 274.332031 290.90625 274.183594 C 290.640625 273.902344 287.933594 270.992188 287.667969 270.6875 C 286.976562 269.910156 286.308594 269.113281 285.675781 268.308594 C 285.046875 267.503906 284.460938 266.683594 283.9375 265.863281 C 283.414062 265.039062 282.957031 264.207031 282.585938 263.371094 C 282.214844 262.539062 281.933594 261.699219 281.761719 260.867188 C 281.652344 260.332031 281.699219 259.734375 281.773438 259.105469 C 281.84375 258.480469 281.9375 257.824219 281.914062 257.179688 C 281.890625 256.539062 281.753906 255.90625 281.363281 255.320312 C 280.976562 254.734375 280.332031 254.195312 279.300781 253.742188 C 279.015625 253.617188 278.730469 253.519531 278.4375 253.4375 C 278.148438 253.359375 277.851562 253.300781 277.554688 253.261719 C 277.257812 253.222656 276.960938 253.199219 276.660156 253.195312 C 276.363281 253.1875 276.039062 253.210938 275.742188 253.230469 C 275.933594 253.105469 276.03125 252.894531 276.027344 252.667969 C 276.015625 252.441406 275.921875 252.183594 275.761719 251.9375 C 275.609375 251.6875 275.390625 251.445312 275.136719 251.253906 C 274.882812 251.058594 274.585938 250.910156 274.285156 250.847656 C 275.113281 250.792969 275.972656 250.785156 276.828125 250.855469 C 277.683594 250.925781 278.539062 251.078125 279.375 251.335938 C 280.203125 251.59375 281.011719 251.953125 281.773438 252.453125 C 282.535156 252.949219 283.25 253.585938 283.894531 254.378906 " fill-opacity="1" fill-rule="nonzero"/><path fill="#722a33" d="M 269.1875 251.75 C 269.339844 251.710938 271.480469 251.230469 271.480469 251.230469 C 271.28125 251.269531 270.984375 251.332031 270.761719 251.382812 C 270.539062 251.433594 270.347656 251.484375 270.125 251.542969 C 269.902344 251.605469 269.679688 251.664062 269.460938 251.734375 C 269.238281 251.800781 269.019531 251.871094 268.800781 251.945312 L 269.070312 251.785156 L 269.1875 251.75 " fill-opacity="1" fill-rule="nonzero"/><path fill="#722a33" d="M 270.410156 254.328125 C 270.542969 254.28125 270.632812 254.230469 270.769531 254.191406 C 270.910156 254.148438 271.050781 254.105469 271.191406 254.070312 C 271.335938 254.03125 271.480469 253.992188 271.625 253.960938 C 271.773438 253.925781 271.917969 253.894531 272.066406 253.863281 L 273.027344 253.6875 C 272.820312 253.742188 270.636719 254.324219 270.636719 254.324219 L 270.410156 254.328125 " fill-opacity="1" fill-rule="nonzero"/><path fill="#722a33" d="M 271.613281 251.203125 C 271.804688 251.164062 272.582031 251.023438 272.761719 250.992188 C 272.9375 250.964844 273.859375 250.824219 273.859375 250.824219 L 273.988281 250.820312 L 274.15625 250.832031 L 274.285156 250.847656 C 274.585938 250.910156 274.878906 251.058594 275.136719 251.253906 C 275.390625 251.445312 275.609375 251.6875 275.761719 251.9375 C 275.921875 252.1875 276.015625 252.441406 276.027344 252.667969 C 276.03125 252.894531 275.933594 253.105469 275.742188 253.230469 L 275.625 253.289062 L 275.472656 253.335938 C 275.304688 253.363281 272.789062 253.730469 272.789062 253.730469 L 272.066406 253.863281 C 271.917969 253.894531 271.773438 253.925781 271.625 253.960938 C 271.480469 253.992188 271.335938 254.03125 271.191406 254.070312 C 271.050781 254.105469 270.910156 254.148438 270.769531 254.191406 C 270.632812 254.230469 270.542969 254.28125 270.410156 254.328125 C 270.152344 254.421875 269.859375 254.523438 269.628906 254.640625 C 269.398438 254.753906 269.1875 254.882812 268.996094 255.023438 C 268.808594 255.167969 268.640625 255.320312 268.5 255.492188 C 268.359375 255.660156 268.246094 255.847656 268.167969 256.050781 C 267.878906 256.773438 267.996094 257.425781 268.367188 258.023438 C 268.742188 258.621094 269.367188 259.167969 270.09375 259.679688 C 270.820312 260.1875 271.648438 260.664062 272.425781 261.125 C 273.203125 261.585938 273.933594 262.035156 274.464844 262.488281 C 275.289062 263.191406 276.027344 263.9375 276.691406 264.714844 C 277.355469 265.492188 277.953125 266.300781 278.484375 267.132812 C 279.023438 267.960938 279.503906 268.816406 279.941406 269.679688 C 280.375 270.542969 280.769531 271.414062 281.132812 272.285156 C 281.273438 272.621094 281.804688 273.964844 281.929688 274.296875 C 282.054688 274.628906 282.539062 275.945312 282.65625 276.269531 C 282.71875 276.441406 282.746094 276.59375 282.75 276.730469 C 282.75 276.863281 282.71875 276.984375 282.671875 277.082031 C 282.621094 277.183594 282.550781 277.265625 282.460938 277.332031 C 282.371094 277.394531 282.265625 277.441406 282.144531 277.472656 C 281.964844 277.519531 281.761719 277.523438 281.542969 277.492188 C 281.328125 277.457031 281.105469 277.386719 280.890625 277.273438 C 280.679688 277.164062 280.476562 277.015625 280.304688 276.828125 C 280.136719 276.640625 279.992188 276.417969 279.898438 276.15625 C 279.804688 275.898438 278.796875 273.164062 278.6875 272.882812 C 278.316406 271.9375 277.902344 270.976562 277.433594 270.03125 C 276.964844 269.089844 276.433594 268.160156 275.828125 267.273438 C 275.21875 266.390625 274.527344 265.550781 273.734375 264.785156 C 272.945312 264.019531 272.042969 263.324219 271.023438 262.730469 C 270.453125 262.398438 269.878906 262.113281 269.316406 261.828125 C 268.757812 261.542969 268.207031 261.265625 267.691406 260.949219 C 267.179688 260.632812 266.695312 260.285156 266.273438 259.859375 C 265.847656 259.433594 265.480469 258.933594 265.1875 258.324219 C 264.769531 257.441406 264.601562 256.667969 264.636719 255.984375 C 264.671875 255.300781 264.902344 254.707031 265.277344 254.195312 C 265.65625 253.679688 266.171875 253.25 266.777344 252.875 C 267.382812 252.503906 268.074219 252.199219 268.800781 251.945312 C 269.019531 251.871094 269.238281 251.800781 269.460938 251.734375 C 269.679688 251.664062 269.902344 251.601562 270.125 251.542969 C 270.351562 251.484375 270.539062 251.433594 270.761719 251.382812 C 270.984375 251.332031 271.265625 251.273438 271.480469 251.230469 L 271.613281 251.203125 " fill-opacity="1" fill-rule="nonzero"/><path fill="#722a33" d="M 296.046875 268.640625 C 296.246094 268.59375 296.46875 268.59375 296.695312 268.636719 C 296.921875 268.683594 297.152344 268.769531 297.378906 268.890625 C 297.601562 269.011719 297.816406 269.167969 298.007812 269.347656 C 298.199219 269.53125 298.367188 269.742188 298.496094 269.96875 L 305.078125 281.542969 L 280.371094 288.339844 L 272.214844 276.433594 C 272.054688 276.203125 271.953125 275.96875 271.894531 275.75 C 271.839844 275.527344 271.832031 275.316406 271.871094 275.128906 C 271.910156 274.9375 271.996094 274.773438 272.128906 274.640625 C 272.257812 274.507812 272.433594 274.410156 272.648438 274.355469 L 278.6875 272.882812 C 278.796875 273.164062 279.804688 275.898438 279.898438 276.15625 C 279.992188 276.417969 280.136719 276.640625 280.304688 276.828125 C 280.476562 277.015625 280.679688 277.164062 280.890625 277.273438 C 281.105469 277.386719 281.328125 277.457031 281.542969 277.492188 C 281.761719 277.523438 281.964844 277.519531 282.144531 277.472656 C 282.265625 277.441406 282.371094 277.394531 282.460938 277.332031 C 282.550781 277.265625 282.621094 277.183594 282.671875 277.082031 C 282.71875 276.984375 282.75 276.863281 282.75 276.730469 C 282.746094 276.59375 282.71875 276.441406 282.65625 276.269531 C 282.539062 275.945312 281.675781 273.628906 281.542969 273.292969 C 281.410156 272.960938 281.273438 272.621094 281.132812 272.285156 L 287.667969 270.6875 C 287.933594 270.992188 290.640625 273.902344 290.90625 274.183594 C 291.046875 274.332031 291.191406 274.453125 291.335938 274.550781 C 291.480469 274.644531 291.625 274.71875 291.769531 274.769531 C 291.910156 274.820312 292.046875 274.84375 292.179688 274.855469 C 292.308594 274.859375 292.4375 274.847656 292.550781 274.820312 C 292.722656 274.777344 292.871094 274.691406 292.980469 274.578125 C 293.09375 274.464844 293.167969 274.320312 293.199219 274.152344 C 293.226562 273.984375 293.203125 273.792969 293.125 273.589844 C 293.042969 273.386719 292.902344 273.167969 292.6875 272.941406 C 292.476562 272.722656 290.25 270.363281 290.023438 270.113281 L 296.046875 268.640625 " fill-opacity="1" fill-rule="nonzero"/><path fill="#722a33" d="M 305.59375 281.402344 C 305.757812 281.355469 305.941406 281.351562 306.128906 281.382812 C 306.316406 281.414062 306.507812 281.476562 306.695312 281.574219 C 306.886719 281.667969 307.066406 281.789062 307.234375 281.9375 C 307.398438 282.082031 307.546875 282.25 307.671875 282.4375 L 308.191406 283.242188 C 308.3125 283.433594 308.394531 283.617188 308.441406 283.796875 C 308.484375 283.976562 308.496094 284.148438 308.46875 284.300781 C 308.4375 284.457031 308.375 284.59375 308.277344 284.703125 C 308.183594 284.8125 308.050781 284.894531 307.886719 284.9375 L 282.09375 292.253906 C 281.910156 292.304688 281.710938 292.316406 281.507812 292.285156 C 281.304688 292.257812 281.09375 292.191406 280.890625 292.09375 C 280.691406 292 280.496094 291.871094 280.320312 291.714844 C 280.140625 291.5625 279.984375 291.382812 279.859375 291.183594 L 279.320312 290.328125 C 279.195312 290.128906 279.113281 289.929688 279.066406 289.738281 C 279.027344 289.546875 279.027344 289.363281 279.0625 289.195312 C 279.097656 289.035156 279.175781 288.886719 279.285156 288.769531 C 279.398438 288.65625 279.546875 288.566406 279.730469 288.515625 L 305.59375 281.402344 " fill-opacity="1" fill-rule="nonzero"/><path fill="#ffffff" d="M 324.117188 273.914062 L 405.648438 397.550781 L 343.734375 437.328125 L 254.277344 292.765625 L 278.859375 286.128906 L 280.371094 288.339844 L 279.730469 288.515625 C 279.546875 288.566406 279.398438 288.65625 279.285156 288.769531 C 279.175781 288.886719 279.097656 289.035156 279.0625 289.195312 C 279.027344 289.363281 279.027344 289.546875 279.066406 289.738281 C 279.113281 289.929688 279.195312 290.128906 279.320312 290.328125 L 279.859375 291.183594 C 279.984375 291.382812 280.140625 291.5625 280.320312 291.714844 C 280.496094 291.871094 280.691406 292 280.890625 292.09375 C 281.09375 292.191406 281.304688 292.257812 281.507812 292.285156 C 281.710938 292.316406 281.910156 292.304688 282.09375 292.253906 L 307.886719 284.9375 C 308.050781 284.894531 308.183594 284.8125 308.277344 284.703125 C 308.375 284.59375 308.4375 284.457031 308.46875 284.300781 C 308.496094 284.148438 308.484375 283.976562 308.441406 283.796875 C 308.394531 283.617188 308.3125 283.433594 308.191406 283.242188 L 307.671875 282.4375 C 307.546875 282.25 307.398438 282.082031 307.234375 281.9375 C 307.066406 281.789062 306.886719 281.667969 306.695312 281.574219 C 306.507812 281.476562 306.316406 281.414062 306.128906 281.382812 C 305.941406 281.351562 305.757812 281.355469 305.59375 281.402344 L 305.078125 281.542969 L 303.847656 279.382812 L 324.117188 273.914062 " fill-opacity="1" fill-rule="nonzero"/><path fill="#722a33" d="M 324.035156 269.210938 C 324.417969 269.113281 324.839844 269.109375 325.28125 269.191406 C 325.71875 269.269531 326.171875 269.433594 326.617188 269.660156 C 327.0625 269.890625 327.492188 270.191406 327.890625 270.542969 C 328.285156 270.898438 328.648438 271.308594 328.949219 271.757812 L 415.089844 401.777344 C 415.429688 402.285156 415.6875 402.816406 415.863281 403.339844 C 416.035156 403.863281 416.125 404.382812 416.132812 404.863281 C 416.144531 405.34375 416.066406 405.792969 415.90625 406.175781 C 415.75 406.554688 415.503906 406.875 415.171875 407.101562 L 348.796875 452.46875 C 348.34375 452.78125 347.832031 452.949219 347.296875 452.992188 C 346.757812 453.035156 346.199219 452.949219 345.648438 452.746094 C 345.097656 452.542969 344.550781 452.222656 344.050781 451.800781 C 343.550781 451.375 343.09375 450.847656 342.714844 450.226562 L 246.585938 293.839844 C 246.253906 293.304688 246.046875 292.765625 245.953125 292.25 C 245.859375 291.738281 245.875 291.25 246.003906 290.808594 C 246.128906 290.371094 246.355469 289.980469 246.6875 289.671875 C 247.015625 289.359375 247.441406 289.121094 247.957031 288.988281 L 275.847656 281.738281 L 278.859375 286.128906 L 254.277344 292.765625 L 343.734375 437.328125 L 405.648438 397.550781 L 324.117188 273.914062 L 303.847656 279.382812 L 301.410156 275.09375 L 324.035156 269.210938 " fill-opacity="1" fill-rule="nonzero"/><path fill="#f2b1a5" d="M 371.375 295.476562 C 356.851562 301.359375 353.160156 317.953125 353.160156 317.953125 C 350.894531 326.941406 377.527344 309.472656 377.527344 309.472656 L 371.375 295.476562 " fill-opacity="1" fill-rule="nonzero"/><path fill="#f2b1a5" d="M 425.363281 349.726562 C 417.085938 341.640625 413.230469 332.425781 410.800781 327.027344 C 408.214844 321.289062 406.597656 314.957031 403.910156 309.320312 C 401.472656 304.214844 395.175781 299.800781 390.648438 296.496094 C 385.96875 293.085938 381.089844 292.214844 375.324219 291.347656 C 371.582031 290.785156 370.246094 289.382812 368.742188 293.066406 C 366.933594 297.507812 367.308594 297.210938 368.996094 300.800781 C 365.925781 301.535156 363.714844 300.535156 361.816406 303.601562 C 360.167969 306.257812 360.601562 308.234375 362.488281 310.480469 C 358.308594 312.21875 352.207031 318.289062 359.722656 321.085938 C 358.722656 325.101562 352.476562 325.328125 356.351562 330.632812 C 358.746094 333.910156 362.871094 335.355469 366.34375 333.152344 C 368.203125 342.78125 372.953125 349.542969 379.738281 356.421875 C 382.808594 359.535156 386.183594 363.019531 389.941406 365.378906 C 394.132812 368.003906 410.964844 385.945312 412.488281 390.128906 L 425.363281 349.726562 " fill-opacity="1" fill-rule="nonzero"/><path fill="#722a33" d="M 344.019531 338.792969 C 342.546875 337.234375 345.148438 332.363281 346.710938 330.890625 L 417.738281 263.84375 C 419.300781 262.371094 421.777344 262.445312 423.25 264.003906 C 424.722656 265.5625 424.652344 268.042969 423.089844 269.515625 L 352.0625 336.5625 C 350.503906 338.035156 345.492188 340.351562 344.019531 338.792969 " fill-opacity="1" fill-rule="nonzero"/><path fill="#722a33" d="M 418.761719 268.242188 C 419.542969 269.070312 420.863281 269.109375 421.691406 268.324219 L 428.484375 261.914062 C 429.3125 261.128906 429.351562 259.8125 428.566406 258.984375 C 427.785156 258.15625 426.46875 258.121094 425.640625 258.898438 L 418.847656 265.3125 C 418.015625 266.09375 417.980469 267.410156 418.761719 268.242188 " fill-opacity="1" fill-rule="nonzero"/><path fill="#722a33" d="M 424.234375 265.925781 C 431.621094 273.75 405.421875 295.800781 405.421875 295.800781 C 403.40625 297.484375 402.949219 295.679688 402.949219 295.679688 C 402.003906 294.898438 415.570312 280.972656 415.570312 280.972656 C 423.664062 271.765625 419.605469 268.785156 419.605469 268.785156 L 424.234375 265.925781 " fill-opacity="1" fill-rule="nonzero"/><path fill="#722a33" d="M 339.339844 343.210938 C 339.914062 343.820312 340.886719 343.847656 341.492188 343.273438 L 349.726562 335.5 C 350.335938 334.925781 350.363281 333.957031 349.789062 333.347656 C 349.214844 332.738281 348.246094 332.710938 347.636719 333.285156 L 339.402344 341.058594 C 338.792969 341.632812 338.765625 342.601562 339.339844 343.210938 " fill-opacity="1" fill-rule="nonzero"/><path fill="#f2b1a5" d="M 384.039062 330.414062 C 369.492188 336.867188 367.898438 294.777344 367.898438 294.777344 C 370.234375 289.347656 377.527344 291.8125 377.527344 291.8125 C 399.855469 320.167969 384.039062 330.414062 384.039062 330.414062 " fill-opacity="1" fill-rule="nonzero"/><path fill="#722a33" d="M 560.359375 579.347656 C 615.910156 498.984375 625.019531 390.128906 625.019531 390.128906 C 625.761719 338.28125 689.710938 357.304688 689.710938 357.304688 C 749.949219 361.09375 691.199219 579.347656 691.199219 579.347656 L 560.359375 579.347656 " fill-opacity="1" fill-rule="nonzero"/><path fill="#ff4931" d="M 106.949219 579.347656 L 61.917969 579.347656 L 61.917969 421.015625 L 106.949219 421.015625 L 106.949219 579.347656 " fill-opacity="1" fill-rule="nonzero"/><path fill="#722a33" d="M 161.40625 579.347656 L 116.375 579.347656 L 116.375 421.015625 L 161.40625 421.015625 L 161.40625 579.347656 " fill-opacity="1" fill-rule="nonzero"/><path fill="#83c2ed" d="M 215.816406 579.347656 L 170.78125 579.347656 L 170.78125 421.015625 L 215.816406 421.015625 L 215.816406 579.347656 " fill-opacity="1" fill-rule="nonzero"/><path fill="#ffb55c" d="M 276.8125 579.347656 L 231.78125 579.347656 L 231.78125 421.015625 L 276.8125 421.015625 L 276.8125 579.347656 " fill-opacity="1" fill-rule="nonzero"/><path fill="#ffffff" d="M 95.523438 445.574219 C 95.523438 451.699219 90.558594 456.664062 84.433594 456.664062 C 78.308594 456.664062 73.34375 451.699219 73.34375 445.574219 C 73.34375 439.449219 78.308594 434.484375 84.433594 434.484375 C 90.558594 434.484375 95.523438 439.449219 95.523438 445.574219 " fill-opacity="1" fill-rule="nonzero"/><path fill="#ffffff" d="M 91.730469 553.535156 L 77.136719 553.535156 L 77.136719 470.476562 L 91.730469 470.476562 L 91.730469 553.535156 " fill-opacity="1" fill-rule="nonzero"/><path fill="#ffffff" d="M 149.980469 445.574219 C 149.980469 451.699219 145.011719 456.664062 138.890625 456.664062 C 132.765625 456.664062 127.800781 451.699219 127.800781 445.574219 C 127.800781 439.449219 132.765625 434.484375 138.890625 434.484375 C 145.011719 434.484375 149.980469 439.449219 149.980469 445.574219 " fill-opacity="1" fill-rule="nonzero"/><path fill="#ffffff" d="M 146.183594 553.535156 L 131.59375 553.535156 L 131.59375 470.476562 L 146.183594 470.476562 L 146.183594 553.535156 " fill-opacity="1" fill-rule="nonzero"/><path fill="#ffffff" d="M 204.386719 445.574219 C 204.386719 451.699219 199.421875 456.664062 193.296875 456.664062 C 187.171875 456.664062 182.210938 451.699219 182.210938 445.574219 C 182.210938 439.449219 187.171875 434.484375 193.296875 434.484375 C 199.421875 434.484375 204.386719 439.449219 204.386719 445.574219 " fill-opacity="1" fill-rule="nonzero"/><path fill="#ffffff" d="M 200.59375 553.535156 L 186 553.535156 L 186 470.476562 L 200.59375 470.476562 L 200.59375 553.535156 " fill-opacity="1" fill-rule="nonzero"/><path fill="#ffffff" d="M 265.386719 443.679688 C 265.386719 449.800781 260.421875 454.765625 254.296875 454.765625 C 248.171875 454.765625 243.207031 449.800781 243.207031 443.679688 C 243.207031 437.550781 248.171875 432.589844 254.296875 432.589844 C 260.421875 432.589844 265.386719 437.550781 265.386719 443.679688 " fill-opacity="1" fill-rule="nonzero"/><path fill="#ffffff" d="M 261.59375 551.640625 L 247.003906 551.640625 L 247.003906 468.578125 L 261.59375 468.578125 L 261.59375 551.640625 " fill-opacity="1" fill-rule="nonzero"/><path fill="#ffffff" d="M 91.730469 557.605469 L 77.136719 557.605469 L 77.136719 563.777344 L 91.730469 563.777344 L 91.730469 557.605469 " fill-opacity="1" fill-rule="nonzero"/><path fill="#ffffff" d="M 146.183594 557.605469 L 131.59375 557.605469 L 131.59375 563.777344 L 146.183594 563.777344 L 146.183594 557.605469 " fill-opacity="1" fill-rule="nonzero"/><path fill="#ffffff" d="M 200.59375 557.605469 L 186 557.605469 L 186 563.777344 L 200.59375 563.777344 L 200.59375 557.605469 " fill-opacity="1" fill-rule="nonzero"/><path fill="#ffffff" d="M 261.59375 556.457031 L 247.003906 556.457031 L 247.003906 562.628906 L 261.59375 562.628906 L 261.59375 556.457031 " fill-opacity="1" fill-rule="nonzero"/><path fill="#ce515d" d="M 436.828125 471.578125 C 429.742188 449.617188 422.785156 427.617188 416.167969 405.515625 C 414.46875 399.851562 412.792969 394.175781 411.164062 388.488281 C 410.597656 386.519531 410.324219 383.761719 409.320312 381.949219 C 406.527344 376.914062 399.167969 372.246094 394.773438 368.261719 C 389.113281 363.132812 383.304688 358.484375 379.257812 351.816406 C 374.683594 344.273438 373.382812 336.664062 373.960938 328.070312 C 374.367188 322.042969 372.128906 316.210938 371.039062 310.144531 C 370.375 306.449219 368.894531 301.734375 369.148438 297.949219 C 369.863281 287.410156 380.195312 294.542969 383.066406 299.796875 C 387.996094 308.8125 391.699219 318.375 397.160156 327.171875 C 397.792969 328.1875 399.402344 327.253906 398.769531 326.234375 C 393.304688 317.4375 389.664062 307.832031 384.675781 298.859375 C 382.402344 294.777344 376.351562 288.566406 371.050781 290.648438 C 365.601562 292.78125 367.636719 300.777344 368.28125 304.898438 C 369.523438 312.824219 372.945312 321.042969 371.980469 328.898438 C 369.878906 346.007812 381.070312 358.523438 392.925781 369.085938 C 397.445312 373.113281 405.101562 378.058594 407.742188 383.21875 C 409.421875 386.507812 409.96875 391.074219 411 394.605469 C 418.574219 420.558594 426.734375 446.34375 435.035156 472.070312 C 435.398438 473.203125 437.195312 472.71875 436.828125 471.578125 " fill-opacity="1" fill-rule="nonzero"/><path fill="#aa0404" d="M 442.554688 460.675781 C 461.367188 489.984375 490.683594 514 519.933594 532.53125 C 520.246094 532.726562 520.816406 532.699219 521.058594 532.386719 C 542.964844 504.429688 563.875 474.363281 576.515625 440.921875 C 581.757812 427.046875 586.285156 411.398438 584.75 396.371094 C 584.535156 394.222656 584.28125 391.90625 583.472656 389.878906 C 583.035156 388.78125 581.238281 389.261719 581.679688 390.375 C 587.078125 403.914062 580.773438 423.1875 576.367188 435.882812 C 568.871094 457.484375 557.367188 477.636719 544.777344 496.632812 C 540.546875 503.015625 536.152344 509.285156 531.625 515.453125 C 529.878906 517.832031 521.363281 530.789062 520.304688 530.5625 C 518.71875 530.21875 516.640625 528.144531 515.308594 527.238281 C 512.03125 525.007812 508.796875 522.710938 505.589844 520.371094 C 482.507812 503.496094 459.722656 483.992188 444.160156 459.738281 C 443.515625 458.734375 441.90625 459.664062 442.554688 460.675781 " fill-opacity="1" fill-rule="nonzero"/><path fill="#aa0404" d="M 596.710938 336.277344 C 570.007812 346.070312 539.152344 348.839844 510.964844 344.417969 C 509.792969 344.238281 509.289062 346.027344 510.46875 346.210938 C 538.972656 350.683594 570.171875 347.988281 597.203125 338.070312 C 598.320312 337.660156 597.839844 335.863281 596.710938 336.277344 " fill-opacity="1" fill-rule="nonzero"/><path fill="#ce515d" d="M 294.65625 375.785156 C 295.925781 383.265625 296.707031 390.796875 297.820312 398.289062 C 299.195312 407.519531 304.074219 416.222656 309.679688 423.53125 C 315.3125 430.867188 322.105469 437.261719 329.386719 442.929688 C 334.046875 446.554688 339.933594 449.230469 344.328125 453.070312 C 347.757812 456.070312 350.070312 461.359375 352.664062 465.199219 C 357.070312 471.714844 361.640625 478.117188 366.410156 484.371094 C 374.027344 494.359375 382.125 503.992188 390.839844 513.050781 C 402.429688 525.097656 415.140625 536.332031 429.316406 545.261719 C 434.929688 548.796875 441.015625 552.472656 447.417969 554.429688 C 448.5625 554.785156 449.054688 552.988281 447.910156 552.640625 C 428.753906 546.78125 411.304688 530.714844 397.460938 517.101562 C 389.050781 508.835938 381.203125 500.003906 373.804688 490.820312 C 369.171875 485.070312 364.726562 479.167969 360.4375 473.152344 C 355.964844 466.882812 352.25 459.308594 347.238281 453.515625 C 344.957031 450.882812 341.898438 449.496094 338.917969 447.515625 C 331.453125 442.558594 324.410156 436.894531 318.160156 430.464844 C 309.667969 421.726562 301.585938 410.585938 299.675781 398.242188 C 298.496094 390.613281 297.746094 382.921875 296.445312 375.289062 C 296.246094 374.109375 294.453125 374.609375 294.65625 375.785156 " fill-opacity="1" fill-rule="nonzero"/></svg>